<?xml version="1.0" standalone="no"?>
<!DOCTYPE svg PUBLIC "-//W3C//DTD SVG 20010904//EN" "http://www.w3.org/TR/2001/REC-SVG-20010904/DTD/svg10.dtd">
<!-- Created using Karbon, part of Calligra: http://www.calligra.org/karbon -->
<svg xmlns="http://www.w3.org/2000/svg" xmlns:xlink="http://www.w3.org/1999/xlink" width="7.37009pt" height="14.4567pt">
<defs>
  <linearGradient id="gradient0" gradientTransform="translate(-97.6965, -72.1792)" gradientUnits="objectBoundingBox" x1="13.22607906000" y1="9.43890749000" x2="13.22669552000" y2="10.02823760000" spreadMethod="reflect">
   <stop stop-color="#ffb8ba" offset="0.00000000000" stop-opacity="1.00000000000"/>
   <stop stop-color="#b6000f" offset="1.00000000000" stop-opacity="1.00000000000"/>
  </linearGradient>
 </defs>
<g id="layer0">
  <rect id="blockRed" transform="matrix(0 0 0 1 0 0)" fill="url(#gradient0)" stroke="#1a1a1a" stroke-width="0.25000000000" stroke-linecap="round" stroke-linejoin="miter" stroke-miterlimit="2.00000000000" width="0.00000100000pt" height="6.23623127600pt" rx="0.00000014596pt" ry="0.90794744673pt"/>
  <g id="antLeft" transform="translate(3.67272, 2.18828)" fill="none">
   <path id="path6792" transform="matrix(-1 0 0 1 5.53989 -2.18828)" fill="#ffff00" d="M5.9805 6.90631L4.11539 4.02888L4.39739 7.37631L3.95505 4.04384L2.74512 7.20829L3.80201 3.99702L1.30934 6.4313L3.68271 3.89648L0.338343 5.1797L3.61782 3.75962L0 3.66992L3.61855 3.6101L0.352815 2.16296L3.68474 3.47377L1.33581 0.919453L3.80498 3.37425L2.77898 0.154364L3.95848 3.32865L4.4328 0L4.11867 3.34497L6.01134 0.483052L4.25788 3.42029L7.2416 1.52L4.35205 3.54162L7.91091 2.93153L4.38484 3.68802L7.90351 4.47362L4.35065 3.83413L7.2207 5.87957L4.25534 3.9547Z"/>
   <g id="g6784" transform="translate(0.836277, 0.759148)" fill="none">
    <path id="path6786" transform="matrix(-1 0 0 1 -3.45452 7.90343)" fill="#000000" d="M1.0745e-06 3.61002C-0.000378875 4.89888 0.100029 6.09096 0.263313 6.73615C0.426597 7.38133 0.627882 7.38133 0.791166 6.73615C0.95445 6.09096 1.05486 4.89888 1.05448 3.61002C1.05486 2.32115 0.95445 1.12908 0.791166 0.483888C0.627882 -0.161296 0.426597 -0.161296 0.263313 0.483888C0.100029 1.12908 -0.000378875 2.32115 1.0745e-06 3.61002Z"/>
    <path id="path6788" transform="matrix(-1 0 0 1 1.83332 0.0245196)" fill="#000000" fill-rule="evenodd" d="M5.43247 12.6811C5.43247 12.6811 0.807801 13.6816 0.191498 12.736C-0.38329 11.854 0.519062 0 0.519062 0L0.955805 0.109785C0.955805 0.109785 0.128973 10.2514 0.682857 10.9793C1.28329 11.7683 5.32329 9.27748 5.32329 9.27748Z"/>
    <path id="path6790" transform="matrix(-1 0 0 1 0.993709 -0.312036)" fill="#000000" d="M3.57287e-07 0.359316C-0.000176264 0.487626 0.0651415 0.606269 0.171306 0.670476C0.277471 0.734685 0.408322 0.734685 0.514488 0.670476C0.620653 0.606269 0.68597 0.487626 0.685794 0.359316C0.68597 0.231007 0.620653 0.112364 0.514488 0.0481562C0.408322 -0.0160521 0.277471 -0.0160521 0.171306 0.0481562C0.0651415 0.112364 -0.000176264 0.231007 3.57287e-07 0.359316Z"/>
   </g>
  </g>
 </g>
</svg>
