<?xml version="1.0" standalone="no"?>
<!DOCTYPE svg PUBLIC "-//W3C//DTD SVG 20010904//EN" "http://www.w3.org/TR/2001/REC-SVG-20010904/DTD/svg10.dtd">
<!-- Created using Karbon, part of Calligra: http://www.calligra.org/karbon -->
<svg xmlns="http://www.w3.org/2000/svg" xmlns:xlink="http://www.w3.org/1999/xlink" width="24.0945pt" height="11.9055pt">
<defs>
  <linearGradient id="gradient0" gradientTransform="translate(-97.6965, -72.1792)" gradientUnits="objectBoundingBox" x1="13.22607906000" y1="9.43890749000" x2="13.22669552000" y2="10.02823760000" spreadMethod="reflect">
   <stop stop-color="#ffb8ba" offset="0.00000000000" stop-opacity="1.00000000000"/>
   <stop stop-color="#b6000f" offset="1.00000000000" stop-opacity="1.00000000000"/>
  </linearGradient>
  <radialGradient id="gradient1" gradientTransform="matrix(-1.10616 -2.96089 3.30222 -1.23367 -119.091 548.365)" gradientUnits="objectBoundingBox" cx="117.20258616000" cy="19.26932937000" fx="117.20258616000" fy="19.26932937000" r="0.13617148000" spreadMethod="pad">
   <stop stop-color="#1a1a1a" offset="0.00000000000" stop-opacity="1.00000000000"/>
   <stop stop-color="#1a1a1a" offset="1.00000000000" stop-opacity="0.00000000000"/>
  </radialGradient>
  <radialGradient id="gradient2" gradientTransform="matrix(0.0204597 2.83985 -1.2607 0.00988996 99.2555 -182.944)" gradientUnits="objectBoundingBox" cx="29.14952183000" cy="14.42761837000" fx="29.14952183000" fy="14.42761837000" r="0.20828237000" spreadMethod="pad">
   <stop stop-color="#ffb8ba" offset="0.00000000000" stop-opacity="1.00000000000"/>
   <stop stop-color="#b6000f" offset="1.00000000000" stop-opacity="1.00000000000"/>
  </radialGradient>
  <radialGradient id="gradient3" gradientTransform="matrix(-1.10616 -2.96089 3.30222 -1.23367 -119.091 548.365)" gradientUnits="objectBoundingBox" cx="117.20258616000" cy="19.26932937000" fx="117.20258616000" fy="19.26932937000" r="0.13617148000" spreadMethod="pad">
   <stop stop-color="#1a1a1a" offset="0.00000000000" stop-opacity="1.00000000000"/>
   <stop stop-color="#1a1a1a" offset="1.00000000000" stop-opacity="0.00000000000"/>
  </radialGradient>
  <radialGradient id="gradient4" gradientTransform="matrix(0.0204597 2.83985 -1.2607 0.00988996 99.2555 -182.944)" gradientUnits="objectBoundingBox" cx="29.14952183000" cy="14.42761837000" fx="29.14952183000" fy="14.42761837000" r="0.20828237000" spreadMethod="pad">
   <stop stop-color="#ffb8ba" offset="0.00000000000" stop-opacity="1.00000000000"/>
   <stop stop-color="#b6000f" offset="1.00000000000" stop-opacity="1.00000000000"/>
  </radialGradient>
  <radialGradient id="gradient5" gradientTransform="matrix(-1.10616 -2.96089 3.30222 -1.23367 -119.091 548.365)" gradientUnits="objectBoundingBox" cx="117.20258616000" cy="19.26932937000" fx="117.20258616000" fy="19.26932937000" r="0.13617148000" spreadMethod="pad">
   <stop stop-color="#1a1a1a" offset="0.00000000000" stop-opacity="1.00000000000"/>
   <stop stop-color="#1a1a1a" offset="1.00000000000" stop-opacity="0.00000000000"/>
  </radialGradient>
  <radialGradient id="gradient6" gradientTransform="matrix(0.0204597 2.83985 -1.2607 0.00988996 99.2555 -182.944)" gradientUnits="objectBoundingBox" cx="29.14952183000" cy="14.42761837000" fx="29.14952183000" fy="14.42761837000" r="0.20828237000" spreadMethod="pad">
   <stop stop-color="#ffb8ba" offset="0.00000000000" stop-opacity="1.00000000000"/>
   <stop stop-color="#b6000f" offset="1.00000000000" stop-opacity="1.00000000000"/>
  </radialGradient>
 </defs>
<g id="layer0">
  <rect id="blockRed" transform="matrix(0 0 0 1 0 0)" fill="url(#gradient0)" stroke="#1a1a1a" stroke-width="0.25000000000" stroke-linecap="round" stroke-linejoin="miter" stroke-miterlimit="2.00000000000" width="0.00000100000pt" height="6.23623127600pt" rx="0.00000014596pt" ry="0.90794744673pt"/>
  <g id="armFlexi2" transform="translate(65.9665, 154.987)" fill="none">
   <path id="path5332" transform="translate(9.19941, 4.99424)" fill="none" d="M23.7851 0C16.606 0.154885 14.3261 10.2261 10.1522 9.9901C4.02462 9.64161 3.95209 1.16164 0 1.12292"/>
   <path id="path11270" transform="translate(32.0197, 2.60892)" fill="#000000" stroke="url(#gradient1)" stroke-width="0.25000000000" stroke-linecap="round" stroke-linejoin="miter" stroke-miterlimit="2.00000000000" d="M1.27873 1.99521C1.27924 2.70749 1.15749 3.36635 0.959461 3.72295C0.761431 4.07956 0.517299 4.07956 0.319268 3.72295C0.121238 3.36635 -0.000511476 2.70749 1.61536e-06 1.99521C-0.000511476 1.28292 0.121238 0.624057 0.319268 0.267453C0.517299 -0.0891511 0.761431 -0.0891511 0.959461 0.267453C1.15749 0.624057 1.27924 1.28292 1.27873 1.99521Z"/>
   <path id="path11280" transform="translate(32.5, 2.99879)" fill="#1a1a1a" fill-rule="evenodd" d="M0.0763805 3.17721C0.302027 3.61005 0.371668 2.36101 0.367972 1.65205C0.364309 0.948998 0.255097 -0.346747 0 0.0867892"/>
   <path id="path8771" transform="translate(8.95611, 2.89808)" fill="#333333" stroke="#1a1a1a" stroke-width="0.26458731000" stroke-linecap="butt" stroke-linejoin="miter" stroke-miterlimit="2.00000000000" d="M23.0088 1.98746C22.9207 1.28589 22.9236 0.674645 23.0169 0.300752C23.1101 -0.0731445 23.3943 -0.104215 23.5514 0.240104C23.7086 0.584423 23.819 1.18227 23.8563 1.88986C23.894 2.59741 23.8474 3.20631 23.7279 3.5701C23.6082 3.93388 23.6117 3.93095 23.4305 3.60271C23.2494 3.27446 23.0966 2.68912 23.0088 1.98746C23.0088 1.98746 23.0088 1.98746 23.0088 1.98746M22.0947 2.21759C21.9097 1.54146 21.8988 0.911613 21.9652 0.530189C22.0315 0.148764 22.1852 0.108224 22.3889 0.418316C22.5928 0.72841 22.8219 1.30234 22.9096 2.004C22.9977 2.70558 23.1017 3.28888 23.0354 3.67031C22.969 4.05173 22.8154 4.09228 22.6116 3.78219C22.4077 3.47208 22.2791 2.89386 22.0947 2.21759C22.0947 2.21759 22.0947 2.21759 22.0947 2.21759M21.1968 2.58659C20.9676 1.92871 20.8454 1.33387 20.8595 0.945172C20.8736 0.556475 21.1327 0.445838 21.3573 0.736234C21.5819 1.02663 21.8145 1.57603 21.9989 2.25231C22.1838 2.92844 22.2664 3.53227 22.2265 3.91859C22.1867 4.3049 22.1803 4.31158 21.937 4.04181C21.6938 3.77203 21.4256 3.24467 21.1968 2.58659C21.1968 2.58659 21.1968 2.58659 21.1968 2.58659M20.3548 3.06978C20.0487 2.45477 19.8562 1.88514 19.8234 1.49793C19.7907 1.11071 20.0275 0.982223 20.2869 1.23113C20.5464 1.48003 20.8749 1.97156 21.1037 2.62964C21.3329 3.28754 21.5451 3.84152 21.5552 4.2304C21.5655 4.61926 21.5363 4.62123 21.263 4.39285C20.9895 4.16448 20.6605 3.68502 20.3548 3.06978C20.3548 3.06978 20.3548 3.06978 20.3548 3.06978M19.5592 3.6477C19.1812 3.08856 18.9838 2.50833 18.9305 2.12414C18.8773 1.73994 19.0863 1.57582 19.3596 1.80419C19.6329 2.03256 19.9621 2.51202 20.2677 3.12727C20.5738 3.74228 20.7664 4.31189 20.7992 4.69911C20.8319 5.08633 20.8061 5.12087 20.5211 4.91219C20.2362 4.70352 19.9369 4.20711 19.5592 3.6477C19.5592 3.6477 19.5592 3.6477 19.5592 3.6477M18.7946 4.33377C18.4165 3.77465 18.1563 3.24205 18.0766 2.86409C17.9969 2.48613 18.1213 2.3746 18.4196 2.55633C18.7181 2.73807 19.1023 3.1593 19.48 3.71873C19.8581 4.27785 20.1182 4.81044 20.1979 5.18841C20.2776 5.56637 20.1533 5.6779 19.855 5.49617C19.5565 5.31443 19.1723 4.8932 18.7946 4.33377C18.7946 4.33377 18.7946 4.33377 18.7946 4.33377M18.0878 5.06759C17.6691 4.5482 17.3699 4.04349 17.262 3.67483C17.1542 3.30617 17.2696 3.18264 17.5807 3.33394C17.8917 3.48524 18.3377 3.84539 18.7154 4.4048C19.0934 4.96393 19.4424 5.41046 19.5503 5.7791C19.6581 6.14776 19.5427 6.27129 19.2317 6.11999C18.9206 5.96869 18.5061 5.58732 18.0878 5.06759C18.0878 5.06759 18.0878 5.06759 18.0878 5.06759M17.4126 5.84771C16.966 5.36004 16.6394 4.87825 16.5115 4.51822C16.3834 4.15819 16.5592 3.94258 16.8703 4.09387C17.1813 4.24518 17.5958 4.62654 18.0142 5.14627C18.4329 5.66567 18.7322 6.17039 18.8399 6.53904C18.9478 6.90769 18.9313 6.94229 18.6125 6.81412C18.2937 6.68594 17.8589 6.33572 17.4126 5.84771C17.4126 5.84771 17.4126 5.84771 17.4126 5.84771M16.7629 6.66337C16.2988 6.19771 15.955 5.73211 15.814 5.37856C15.673 5.02502 15.8249 4.83704 16.1437 4.96522C16.4624 5.0934 16.8972 5.44362 17.3436 5.93163C17.7902 6.41929 18.1167 6.90109 18.2447 7.26112C18.3728 7.62115 18.3203 7.68356 17.9971 7.57091C17.6739 7.45828 17.2266 7.12938 16.7629 6.66337C16.7629 6.66337 16.7629 6.66337 16.7629 6.66337M16.1314 7.50475C15.6592 7.05005 15.3181 6.57437 15.177 6.22082C15.0361 5.86728 15.1396 5.73036 15.4627 5.84301C15.7859 5.95566 16.2332 6.28454 16.697 6.75057C17.161 7.21623 17.5048 7.68182 17.6458 8.03536C17.7868 8.38891 17.6833 8.52582 17.3601 8.41317C17.0369 8.30052 16.6032 7.95981 16.1314 7.50475C16.1314 7.50475 16.1314 7.50475 16.1314 7.50475M15.5095 8.36177C15.0373 7.90707 14.6853 7.44962 14.5381 7.09946C14.3908 6.74928 14.4919 6.60996 14.817 6.71502C15.1422 6.82007 15.5951 7.13841 16.067 7.59347C16.5391 8.04817 16.8911 8.50562 17.0383 8.85579C17.1855 9.20597 17.0844 9.34527 16.7594 9.24022C16.4343 9.13517 15.9813 8.81684 15.5095 8.36177C15.5095 8.36177 15.5095 8.36177 15.5095 8.36177M14.8876 9.21878C14.4154 8.7641 14.0634 8.30664 13.9161 7.95648C13.7689 7.6063 13.87 7.46698 14.1951 7.57203C14.5203 7.67708 14.9731 7.99543 15.4451 8.45049C15.9171 8.90519 16.2691 9.36263 16.4164 9.71281C16.5636 10.063 16.4625 10.2023 16.1374 10.0972C15.8124 9.99219 15.3594 9.67386 14.8876 9.21878C14.8876 9.21878 14.8876 9.21878 14.8876 9.21878M14.2455 10.0638C13.7838 9.59506 13.4422 9.12721 13.303 8.77275C13.1638 8.41828 13.268 8.28206 13.5906 8.39684C13.9131 8.51162 14.3512 8.85245 14.8231 9.30751C15.2952 9.76221 15.6234 10.2491 15.7626 10.6035C15.9018 10.958 15.7977 11.0942 15.475 10.9794C15.1525 10.8647 14.7069 10.5328 14.2455 10.0638C14.2455 10.0638 14.2455 10.0638 14.2455 10.0638M13.5656 10.8775C13.1273 10.3802 12.8087 9.89136 12.6867 9.52863C12.5646 9.16591 12.6752 9.03655 12.9918 9.17165C13.3084 9.30677 13.7176 9.68145 14.179 10.1505C14.6407 10.6192 14.9324 11.1502 15.0543 11.5129C15.1764 11.8756 15.0659 12.005 14.7493 11.8699C14.4327 11.7347 14.0038 11.3751 13.5656 10.8775C13.5656 10.8775 13.5656 10.8775 13.5656 10.8775M12.8213 11.635C12.4393 11.0793 12.1754 10.549 12.0931 10.1717C12.0107 9.79437 12.0569 9.73813 12.3652 9.89671C12.6735 10.0553 13.0571 10.4622 13.4952 10.9598C13.9337 11.4572 14.1903 12.0167 14.2916 12.3879C14.3928 12.759 14.1897 12.9669 13.8899 12.7879C13.5902 12.6089 13.203 12.1911 12.8213 11.635C12.8213 11.635 12.8213 11.635 12.8213 11.635M11.9622 12.2682C11.7178 11.6178 11.4919 11.0685 11.4622 10.681C11.4326 10.2935 11.4506 10.2776 11.7384 10.4809C12.0262 10.6842 12.361 11.1508 12.7426 11.7068C13.1245 12.2625 13.3091 12.8555 13.3678 13.2386C13.4264 13.6217 13.1495 13.8218 12.878 13.5907C12.6066 13.3594 12.2062 12.9187 11.9622 12.2682C11.9622 12.2682 11.9622 12.2682 11.9622 12.2682M10.9958 12.6243C10.8987 11.9246 10.7766 11.3627 10.8213 10.9772C10.8661 10.5918 10.8469 10.6208 11.0963 10.8828C11.3457 11.1448 11.6261 11.6635 11.8701 12.3141C12.1146 12.9644 12.2506 13.5551 12.2457 13.944C12.2407 14.3329 11.8697 14.4669 11.649 14.1728C11.4282 13.8787 11.0926 13.324 10.9958 12.6243C10.9958 12.6243 10.9958 12.6243 10.9958 12.6243M9.98071 12.625C10.0381 11.9192 10.1656 11.3259 10.3324 10.9877C10.4993 10.6495 10.4827 10.645 10.6268 10.9966C10.7709 11.3481 10.8 11.9428 10.8968 12.6425C10.994 13.3421 10.8121 13.973 10.6791 14.3303C10.5462 14.6877 10.1703 14.6773 10.0612 14.3092C9.95202 13.941 9.92286 13.3308 9.98071 12.625C9.98071 12.625 9.98071 12.625 9.98071 12.625M8.99659 12.4091C9.15721 11.7249 9.37025 11.1651 9.5845 10.8645C9.79873 10.5639 9.82429 10.5541 9.90617 10.9315C9.98806 11.3089 9.93866 11.9084 9.88081 12.6142C9.82338 13.32 9.5843 13.894 9.39337 14.2149C9.20245 14.5357 8.881 14.4687 8.8277 14.0846C8.77438 13.7005 8.83558 13.0933 8.99659 12.4091C8.99659 12.4091 8.99659 12.4091 8.99659 12.4091M8.05596 12.0115C8.31617 11.3692 8.60949 10.8599 8.86535 10.6061C9.12123 10.3524 9.14994 10.3456 9.1741 10.7336C9.19827 11.1216 9.06077 11.6948 8.89975 12.3789C8.73914 13.0632 8.41361 13.5877 8.17752 13.8657C7.94143 14.1437 7.63512 14.0175 7.63984 13.6286C7.64457 13.2396 7.79537 12.6536 8.05596 12.0115C8.05596 12.0115 8.05596 12.0115 8.05596 12.0115M7.18862 11.4384C7.53474 10.8523 7.89508 10.4038 8.18291 10.2005C8.47077 9.99725 8.50831 10.0061 8.47573 10.3933C8.44314 10.7805 8.22564 11.3204 7.96505 11.9625C7.70484 12.6048 7.31097 13.0604 7.03778 13.289C6.76459 13.5174 6.49438 13.341 6.5531 12.9579C6.61183 12.5748 6.84213 12.0242 7.18862 11.4384C7.18862 11.4384 7.18862 11.4384 7.18862 11.4384M6.41191 10.7202C6.82497 10.1948 7.23561 9.80775 7.54507 9.65222C7.85453 9.49671 7.90168 9.53038 7.81904 9.90759C7.73638 10.2848 7.45216 10.7875 7.10568 11.3733C6.75954 11.9593 6.32001 12.3431 6.02015 12.5218C5.72026 12.7005 5.49635 12.4943 5.60041 12.1242C5.70447 11.754 5.99854 11.2453 6.41191 10.7202C6.41191 10.7202 6.41191 10.7202 6.41191 10.7202M5.72886 9.88661C6.19877 9.42921 6.65032 9.10858 6.97491 9.00186C7.29951 8.89513 7.33191 8.9266 7.20907 9.28901C7.08624 9.65143 6.75092 10.1174 6.33757 10.6425C5.92451 11.1679 5.45806 11.4903 5.14116 11.6245C4.82427 11.7587 4.61699 11.5045 4.76279 11.1536C4.9086 10.8028 5.25868 10.3436 5.72886 9.88661C5.72886 9.88661 5.72886 9.88661 5.72886 9.88661M5.11925 8.99695C5.61784 8.58163 6.08917 8.30112 6.41988 8.2229C6.7506 8.14467 6.77601 8.18039 6.63021 8.53123C6.48441 8.88206 6.13432 9.34122 5.66415 9.79825C5.19423 10.2557 4.74268 10.5763 4.4181 10.683C4.0935 10.7897 3.90444 10.5138 4.07282 10.1766C4.24119 9.83938 4.6204 9.41189 5.11925 8.99695C5.11925 8.99695 5.11925 8.99695 5.11925 8.99695M4.56503 8.06724C5.0805 7.68012 5.56311 7.42616 5.89674 7.36644C6.23039 7.30673 6.27528 7.38633 6.10691 7.72356C5.93853 8.06078 5.55932 8.48827 5.06049 8.90321C4.56189 9.31853 4.09055 9.59903 3.75985 9.67726C3.42913 9.75547 3.28791 9.51484 3.47024 9.18735C3.65258 8.85986 4.04933 8.45395 4.56503 8.06724C4.56503 8.06724 4.56503 8.06724 4.56503 8.06724M4.04271 7.12083C4.5646 6.7453 5.05138 6.50216 5.38596 6.4499C5.72055 6.39764 5.78738 6.52271 5.60505 6.8502C5.42271 7.17769 5.02596 7.58361 4.51026 7.97032C3.99479 8.35744 3.51218 8.6114 3.17855 8.67111C2.84491 8.73083 2.74147 8.53966 2.92928 8.21631C3.1171 7.89295 3.52058 7.49597 4.04271 7.12083C4.04271 7.12083 4.04271 7.12083 4.04271 7.12083M3.52953 6.17301C4.05143 5.79748 4.53821 5.55433 4.87279 5.50208C5.20738 5.44981 5.2908 5.60388 5.10299 5.92724C4.91518 6.25061 4.51168 6.64758 3.98958 7.02271C3.46767 7.39826 2.98091 7.64139 2.64632 7.69366C2.31174 7.74591 2.22832 7.59184 2.41612 7.26848C2.60393 6.94513 3.00742 6.54814 3.52953 6.17301C3.52953 6.17301 3.52953 6.17301 3.52953 6.17301M2.9976 5.24977C3.50672 4.85171 3.98512 4.58749 4.31772 4.52064C4.65033 4.4538 4.73875 4.60411 4.56173 4.93542C4.38471 5.26674 3.99852 5.69975 3.47641 6.07489C2.95452 6.45042 2.49773 6.74098 2.16512 6.80782C1.83253 6.87466 1.74411 6.72435 1.92112 6.39304C2.09815 6.06173 2.48825 5.64742 2.9976 5.24977C2.9976 5.24977 2.9976 5.24977 2.9976 5.24977M2.41729 4.40035C2.86806 3.91787 3.35624 3.63915 3.68378 3.54521C4.01133 3.45127 4.1088 3.59391 3.95273 3.93882C3.79666 4.28373 3.45064 4.75638 2.9413 5.15404C2.43217 5.55209 2.00597 5.90864 1.67842 6.00258C1.35086 6.09652 1.25341 5.95388 1.40948 5.60897C1.56555 5.26406 1.96622 4.88246 2.41729 4.40035C2.41729 4.40035 2.41729 4.40035 2.41729 4.40035M1.72789 3.67035C2.10827 3.11329 2.49454 2.69446 2.79384 2.51462C3.09314 2.33477 3.30707 2.55936 3.19809 2.92755C3.0891 3.29576 2.80007 3.83346 2.34902 4.31558C1.89825 4.79804 1.53225 5.21446 1.22079 5.36445C0.909308 5.51445 0.921469 5.51301 1.00298 5.13553C1.08451 4.75807 1.3472 4.2271 1.72789 3.67035C1.72789 3.67035 1.72789 3.67035 1.72789 3.67035M0.923815 3.21047C1.12412 2.54052 1.36943 1.99883 1.60074 1.71571C1.83204 1.43257 2.30457 1.69452 2.25587 2.07941C2.20717 2.46427 1.99139 3.02254 1.66042 3.61991C1.32981 4.21754 0.981429 4.67832 0.699083 4.8914C0.416728 5.10447 0.687765 5.25556 0.657119 4.86831C0.626472 4.48105 0.723113 3.88027 0.923815 3.21047C0.923815 3.21047 0.923815 3.21047 0.923815 3.21047M0.0177816 3.07203C0.0620722 2.36528 0.178443 1.76916 0.338894 1.42708C0.499345 1.085 0.857579 1.12309 0.931374 1.50253C1.00516 1.88196 0.976657 2.49208 0.852707 3.18611C0.729158 3.88024 0.546633 4.45388 0.348999 4.76905C0.151365 5.08422 0.24538 5.11836 0.129461 4.75316C0.013541 4.38797 -0.0269301 3.77876 0.0177816 3.07203C0.0177816 3.07203 0.0177816 3.07203 0.0177816 3.07203"/>
   <path id="path11196" transform="translate(3.47756, 3.36046)" fill="none" stroke="#000000" stroke-width="1.00000000000" stroke-linecap="round" stroke-linejoin="miter" stroke-miterlimit="2.00000000000" d="M4.55313 0.887392C2.46915 -0.750466 0.0783556 0.368825 0 0.428744"/>
   <rect id="rect11192" transform="translate(7.11014, 2.82633)" fill="url(#gradient2)" stroke="#1a1a1a" stroke-width="0.25482419000" stroke-linecap="butt" stroke-linejoin="miter" stroke-miterlimit="2.00000000000" width="1.77293392000pt" height="4.40183376000pt" rx="0.88646696000pt" ry="0.92502304000pt"/>
   <path id="path11198" transform="translate(3.20538, 7.13541)" fill="none" stroke="#000000" stroke-width="1.00000000000" stroke-linecap="round" stroke-linejoin="miter" stroke-miterlimit="2.00000000000" d="M4.2361 0C2.1836 3.65029 0.503401 1.5398 0 0.960682"/>
   <path id="path11200" transform="translate(3.94768, 5.50236)" fill="none" stroke="#000000" stroke-width="1.00000000000" stroke-linecap="round" stroke-linejoin="miter" stroke-miterlimit="2.00000000000" d="M3.19988 0C2.19969 1.03433 0.856181 0.766099 0 0.337466"/>
  </g>
  <g id="armFlexi21" transform="translate(65.9665, 154.987)" fill="none">
   <path id="path53321" transform="translate(9.19941, 4.99424)" fill="none" d="M23.7851 0C16.606 0.154885 14.3261 10.2261 10.1522 9.9901C4.02462 9.64161 3.95209 1.16164 0 1.12292"/>
   <path id="path112701" transform="translate(32.0197, 2.60892)" fill="#000000" stroke="url(#gradient3)" stroke-width="0.25000000000" stroke-linecap="round" stroke-linejoin="miter" stroke-miterlimit="2.00000000000" d="M1.27873 1.99521C1.27924 2.70749 1.15749 3.36635 0.959461 3.72295C0.761431 4.07956 0.517299 4.07956 0.319268 3.72295C0.121238 3.36635 -0.000511476 2.70749 1.61536e-06 1.99521C-0.000511476 1.28292 0.121238 0.624057 0.319268 0.267453C0.517299 -0.0891511 0.761431 -0.0891511 0.959461 0.267453C1.15749 0.624057 1.27924 1.28292 1.27873 1.99521Z"/>
   <path id="path112801" transform="translate(32.5, 2.99879)" fill="#1a1a1a" fill-rule="evenodd" d="M0.0763805 3.17721C0.302027 3.61005 0.371668 2.36101 0.367972 1.65205C0.364309 0.948998 0.255097 -0.346747 0 0.0867892"/>
   <path id="path87711" transform="translate(8.95611, 2.89808)" fill="#333333" stroke="#1a1a1a" stroke-width="0.26458731000" stroke-linecap="butt" stroke-linejoin="miter" stroke-miterlimit="2.00000000000" d="M23.0088 1.98746C22.9207 1.28589 22.9236 0.674645 23.0169 0.300752C23.1101 -0.0731445 23.3943 -0.104215 23.5514 0.240104C23.7086 0.584423 23.819 1.18227 23.8563 1.88986C23.894 2.59741 23.8474 3.20631 23.7279 3.5701C23.6082 3.93388 23.6117 3.93095 23.4305 3.60271C23.2494 3.27446 23.0966 2.68912 23.0088 1.98746C23.0088 1.98746 23.0088 1.98746 23.0088 1.98746M22.0947 2.21759C21.9097 1.54146 21.8988 0.911613 21.9652 0.530189C22.0315 0.148764 22.1852 0.108224 22.3889 0.418316C22.5928 0.72841 22.8219 1.30234 22.9096 2.004C22.9977 2.70558 23.1017 3.28888 23.0354 3.67031C22.969 4.05173 22.8154 4.09228 22.6116 3.78219C22.4077 3.47208 22.2791 2.89386 22.0947 2.21759C22.0947 2.21759 22.0947 2.21759 22.0947 2.21759M21.1968 2.58659C20.9676 1.92871 20.8454 1.33387 20.8595 0.945172C20.8736 0.556475 21.1327 0.445838 21.3573 0.736234C21.5819 1.02663 21.8145 1.57603 21.9989 2.25231C22.1838 2.92844 22.2664 3.53227 22.2265 3.91859C22.1867 4.3049 22.1803 4.31158 21.937 4.04181C21.6938 3.77203 21.4256 3.24467 21.1968 2.58659C21.1968 2.58659 21.1968 2.58659 21.1968 2.58659M20.3548 3.06978C20.0487 2.45477 19.8562 1.88514 19.8234 1.49793C19.7907 1.11071 20.0275 0.982223 20.2869 1.23113C20.5464 1.48003 20.8749 1.97156 21.1037 2.62964C21.3329 3.28754 21.5451 3.84152 21.5552 4.2304C21.5655 4.61926 21.5363 4.62123 21.263 4.39285C20.9895 4.16448 20.6605 3.68502 20.3548 3.06978C20.3548 3.06978 20.3548 3.06978 20.3548 3.06978M19.5592 3.6477C19.1812 3.08856 18.9838 2.50833 18.9305 2.12414C18.8773 1.73994 19.0863 1.57582 19.3596 1.80419C19.6329 2.03256 19.9621 2.51202 20.2677 3.12727C20.5738 3.74228 20.7664 4.31189 20.7992 4.69911C20.8319 5.08633 20.8061 5.12087 20.5211 4.91219C20.2362 4.70352 19.9369 4.20711 19.5592 3.6477C19.5592 3.6477 19.5592 3.6477 19.5592 3.6477M18.7946 4.33377C18.4165 3.77465 18.1563 3.24205 18.0766 2.86409C17.9969 2.48613 18.1213 2.3746 18.4196 2.55633C18.7181 2.73807 19.1023 3.1593 19.48 3.71873C19.8581 4.27785 20.1182 4.81044 20.1979 5.18841C20.2776 5.56637 20.1533 5.6779 19.855 5.49617C19.5565 5.31443 19.1723 4.8932 18.7946 4.33377C18.7946 4.33377 18.7946 4.33377 18.7946 4.33377M18.0878 5.06759C17.6691 4.5482 17.3699 4.04349 17.262 3.67483C17.1542 3.30617 17.2696 3.18264 17.5807 3.33394C17.8917 3.48524 18.3377 3.84539 18.7154 4.4048C19.0934 4.96393 19.4424 5.41046 19.5503 5.7791C19.6581 6.14776 19.5427 6.27129 19.2317 6.11999C18.9206 5.96869 18.5061 5.58732 18.0878 5.06759C18.0878 5.06759 18.0878 5.06759 18.0878 5.06759M17.4126 5.84771C16.966 5.36004 16.6394 4.87825 16.5115 4.51822C16.3834 4.15819 16.5592 3.94258 16.8703 4.09387C17.1813 4.24518 17.5958 4.62654 18.0142 5.14627C18.4329 5.66567 18.7322 6.17039 18.8399 6.53904C18.9478 6.90769 18.9313 6.94229 18.6125 6.81412C18.2937 6.68594 17.8589 6.33572 17.4126 5.84771C17.4126 5.84771 17.4126 5.84771 17.4126 5.84771M16.7629 6.66337C16.2988 6.19771 15.955 5.73211 15.814 5.37856C15.673 5.02502 15.8249 4.83704 16.1437 4.96522C16.4624 5.0934 16.8972 5.44362 17.3436 5.93163C17.7902 6.41929 18.1167 6.90109 18.2447 7.26112C18.3728 7.62115 18.3203 7.68356 17.9971 7.57091C17.6739 7.45828 17.2266 7.12938 16.7629 6.66337C16.7629 6.66337 16.7629 6.66337 16.7629 6.66337M16.1314 7.50475C15.6592 7.05005 15.3181 6.57437 15.177 6.22082C15.0361 5.86728 15.1396 5.73036 15.4627 5.84301C15.7859 5.95566 16.2332 6.28454 16.697 6.75057C17.161 7.21623 17.5048 7.68182 17.6458 8.03536C17.7868 8.38891 17.6833 8.52582 17.3601 8.41317C17.0369 8.30052 16.6032 7.95981 16.1314 7.50475C16.1314 7.50475 16.1314 7.50475 16.1314 7.50475M15.5095 8.36177C15.0373 7.90707 14.6853 7.44962 14.5381 7.09946C14.3908 6.74928 14.4919 6.60996 14.817 6.71502C15.1422 6.82007 15.5951 7.13841 16.067 7.59347C16.5391 8.04817 16.8911 8.50562 17.0383 8.85579C17.1855 9.20597 17.0844 9.34527 16.7594 9.24022C16.4343 9.13517 15.9813 8.81684 15.5095 8.36177C15.5095 8.36177 15.5095 8.36177 15.5095 8.36177M14.8876 9.21878C14.4154 8.7641 14.0634 8.30664 13.9161 7.95648C13.7689 7.6063 13.87 7.46698 14.1951 7.57203C14.5203 7.67708 14.9731 7.99543 15.4451 8.45049C15.9171 8.90519 16.2691 9.36263 16.4164 9.71281C16.5636 10.063 16.4625 10.2023 16.1374 10.0972C15.8124 9.99219 15.3594 9.67386 14.8876 9.21878C14.8876 9.21878 14.8876 9.21878 14.8876 9.21878M14.2455 10.0638C13.7838 9.59506 13.4422 9.12721 13.303 8.77275C13.1638 8.41828 13.268 8.28206 13.5906 8.39684C13.9131 8.51162 14.3512 8.85245 14.8231 9.30751C15.2952 9.76221 15.6234 10.2491 15.7626 10.6035C15.9018 10.958 15.7977 11.0942 15.475 10.9794C15.1525 10.8647 14.7069 10.5328 14.2455 10.0638C14.2455 10.0638 14.2455 10.0638 14.2455 10.0638M13.5656 10.8775C13.1273 10.3802 12.8087 9.89136 12.6867 9.52863C12.5646 9.16591 12.6752 9.03655 12.9918 9.17165C13.3084 9.30677 13.7176 9.68145 14.179 10.1505C14.6407 10.6192 14.9324 11.1502 15.0543 11.5129C15.1764 11.8756 15.0659 12.005 14.7493 11.8699C14.4327 11.7347 14.0038 11.3751 13.5656 10.8775C13.5656 10.8775 13.5656 10.8775 13.5656 10.8775M12.8213 11.635C12.4393 11.0793 12.1754 10.549 12.0931 10.1717C12.0107 9.79437 12.0569 9.73813 12.3652 9.89671C12.6735 10.0553 13.0571 10.4622 13.4952 10.9598C13.9337 11.4572 14.1903 12.0167 14.2916 12.3879C14.3928 12.759 14.1897 12.9669 13.8899 12.7879C13.5902 12.6089 13.203 12.1911 12.8213 11.635C12.8213 11.635 12.8213 11.635 12.8213 11.635M11.9622 12.2682C11.7178 11.6178 11.4919 11.0685 11.4622 10.681C11.4326 10.2935 11.4506 10.2776 11.7384 10.4809C12.0262 10.6842 12.361 11.1508 12.7426 11.7068C13.1245 12.2625 13.3091 12.8555 13.3678 13.2386C13.4264 13.6217 13.1495 13.8218 12.878 13.5907C12.6066 13.3594 12.2062 12.9187 11.9622 12.2682C11.9622 12.2682 11.9622 12.2682 11.9622 12.2682M10.9958 12.6243C10.8987 11.9246 10.7766 11.3627 10.8213 10.9772C10.8661 10.5918 10.8469 10.6208 11.0963 10.8828C11.3457 11.1448 11.6261 11.6635 11.8701 12.3141C12.1146 12.9644 12.2506 13.5551 12.2457 13.944C12.2407 14.3329 11.8697 14.4669 11.649 14.1728C11.4282 13.8787 11.0926 13.324 10.9958 12.6243C10.9958 12.6243 10.9958 12.6243 10.9958 12.6243M9.98071 12.625C10.0381 11.9192 10.1656 11.3259 10.3324 10.9877C10.4993 10.6495 10.4827 10.645 10.6268 10.9966C10.7709 11.3481 10.8 11.9428 10.8968 12.6425C10.994 13.3421 10.8121 13.973 10.6791 14.3303C10.5462 14.6877 10.1703 14.6773 10.0612 14.3092C9.95202 13.941 9.92286 13.3308 9.98071 12.625C9.98071 12.625 9.98071 12.625 9.98071 12.625M8.99659 12.4091C9.15721 11.7249 9.37025 11.1651 9.5845 10.8645C9.79873 10.5639 9.82429 10.5541 9.90617 10.9315C9.98806 11.3089 9.93866 11.9084 9.88081 12.6142C9.82338 13.32 9.5843 13.894 9.39337 14.2149C9.20245 14.5357 8.881 14.4687 8.8277 14.0846C8.77438 13.7005 8.83558 13.0933 8.99659 12.4091C8.99659 12.4091 8.99659 12.4091 8.99659 12.4091M8.05596 12.0115C8.31617 11.3692 8.60949 10.8599 8.86535 10.6061C9.12123 10.3524 9.14994 10.3456 9.1741 10.7336C9.19827 11.1216 9.06077 11.6948 8.89975 12.3789C8.73914 13.0632 8.41361 13.5877 8.17752 13.8657C7.94143 14.1437 7.63512 14.0175 7.63984 13.6286C7.64457 13.2396 7.79537 12.6536 8.05596 12.0115C8.05596 12.0115 8.05596 12.0115 8.05596 12.0115M7.18862 11.4384C7.53474 10.8523 7.89508 10.4038 8.18291 10.2005C8.47077 9.99725 8.50831 10.0061 8.47573 10.3933C8.44314 10.7805 8.22564 11.3204 7.96505 11.9625C7.70484 12.6048 7.31097 13.0604 7.03778 13.289C6.76459 13.5174 6.49438 13.341 6.5531 12.9579C6.61183 12.5748 6.84213 12.0242 7.18862 11.4384C7.18862 11.4384 7.18862 11.4384 7.18862 11.4384M6.41191 10.7202C6.82497 10.1948 7.23561 9.80775 7.54507 9.65222C7.85453 9.49671 7.90168 9.53038 7.81904 9.90759C7.73638 10.2848 7.45216 10.7875 7.10568 11.3733C6.75954 11.9593 6.32001 12.3431 6.02015 12.5218C5.72026 12.7005 5.49635 12.4943 5.60041 12.1242C5.70447 11.754 5.99854 11.2453 6.41191 10.7202C6.41191 10.7202 6.41191 10.7202 6.41191 10.7202M5.72886 9.88661C6.19877 9.42921 6.65032 9.10858 6.97491 9.00186C7.29951 8.89513 7.33191 8.9266 7.20907 9.28901C7.08624 9.65143 6.75092 10.1174 6.33757 10.6425C5.92451 11.1679 5.45806 11.4903 5.14116 11.6245C4.82427 11.7587 4.61699 11.5045 4.76279 11.1536C4.9086 10.8028 5.25868 10.3436 5.72886 9.88661C5.72886 9.88661 5.72886 9.88661 5.72886 9.88661M5.11925 8.99695C5.61784 8.58163 6.08917 8.30112 6.41988 8.2229C6.7506 8.14467 6.77601 8.18039 6.63021 8.53123C6.48441 8.88206 6.13432 9.34122 5.66415 9.79825C5.19423 10.2557 4.74268 10.5763 4.4181 10.683C4.0935 10.7897 3.90444 10.5138 4.07282 10.1766C4.24119 9.83938 4.6204 9.41189 5.11925 8.99695C5.11925 8.99695 5.11925 8.99695 5.11925 8.99695M4.56503 8.06724C5.0805 7.68012 5.56311 7.42616 5.89674 7.36644C6.23039 7.30673 6.27528 7.38633 6.10691 7.72356C5.93853 8.06078 5.55932 8.48827 5.06049 8.90321C4.56189 9.31853 4.09055 9.59903 3.75985 9.67726C3.42913 9.75547 3.28791 9.51484 3.47024 9.18735C3.65258 8.85986 4.04933 8.45395 4.56503 8.06724C4.56503 8.06724 4.56503 8.06724 4.56503 8.06724M4.04271 7.12083C4.5646 6.7453 5.05138 6.50216 5.38596 6.4499C5.72055 6.39764 5.78738 6.52271 5.60505 6.8502C5.42271 7.17769 5.02596 7.58361 4.51026 7.97032C3.99479 8.35744 3.51218 8.6114 3.17855 8.67111C2.84491 8.73083 2.74147 8.53966 2.92928 8.21631C3.1171 7.89295 3.52058 7.49597 4.04271 7.12083C4.04271 7.12083 4.04271 7.12083 4.04271 7.12083M3.52953 6.17301C4.05143 5.79748 4.53821 5.55433 4.87279 5.50208C5.20738 5.44981 5.2908 5.60388 5.10299 5.92724C4.91518 6.25061 4.51168 6.64758 3.98958 7.02271C3.46767 7.39826 2.98091 7.64139 2.64632 7.69366C2.31174 7.74591 2.22832 7.59184 2.41612 7.26848C2.60393 6.94513 3.00742 6.54814 3.52953 6.17301C3.52953 6.17301 3.52953 6.17301 3.52953 6.17301M2.9976 5.24977C3.50672 4.85171 3.98512 4.58749 4.31772 4.52064C4.65033 4.4538 4.73875 4.60411 4.56173 4.93542C4.38471 5.26674 3.99852 5.69975 3.47641 6.07489C2.95452 6.45042 2.49773 6.74098 2.16512 6.80782C1.83253 6.87466 1.74411 6.72435 1.92112 6.39304C2.09815 6.06173 2.48825 5.64742 2.9976 5.24977C2.9976 5.24977 2.9976 5.24977 2.9976 5.24977M2.41729 4.40035C2.86806 3.91787 3.35624 3.63915 3.68378 3.54521C4.01133 3.45127 4.1088 3.59391 3.95273 3.93882C3.79666 4.28373 3.45064 4.75638 2.9413 5.15404C2.43217 5.55209 2.00597 5.90864 1.67842 6.00258C1.35086 6.09652 1.25341 5.95388 1.40948 5.60897C1.56555 5.26406 1.96622 4.88246 2.41729 4.40035C2.41729 4.40035 2.41729 4.40035 2.41729 4.40035M1.72789 3.67035C2.10827 3.11329 2.49454 2.69446 2.79384 2.51462C3.09314 2.33477 3.30707 2.55936 3.19809 2.92755C3.0891 3.29576 2.80007 3.83346 2.34902 4.31558C1.89825 4.79804 1.53225 5.21446 1.22079 5.36445C0.909308 5.51445 0.921469 5.51301 1.00298 5.13553C1.08451 4.75807 1.3472 4.2271 1.72789 3.67035C1.72789 3.67035 1.72789 3.67035 1.72789 3.67035M0.923815 3.21047C1.12412 2.54052 1.36943 1.99883 1.60074 1.71571C1.83204 1.43257 2.30457 1.69452 2.25587 2.07941C2.20717 2.46427 1.99139 3.02254 1.66042 3.61991C1.32981 4.21754 0.981429 4.67832 0.699083 4.8914C0.416728 5.10447 0.687765 5.25556 0.657119 4.86831C0.626472 4.48105 0.723113 3.88027 0.923815 3.21047C0.923815 3.21047 0.923815 3.21047 0.923815 3.21047M0.0177816 3.07203C0.0620722 2.36528 0.178443 1.76916 0.338894 1.42708C0.499345 1.085 0.857579 1.12309 0.931374 1.50253C1.00516 1.88196 0.976657 2.49208 0.852707 3.18611C0.729158 3.88024 0.546633 4.45388 0.348999 4.76905C0.151365 5.08422 0.24538 5.11836 0.129461 4.75316C0.013541 4.38797 -0.0269301 3.77876 0.0177816 3.07203C0.0177816 3.07203 0.0177816 3.07203 0.0177816 3.07203"/>
   <path id="path111961" transform="translate(3.47756, 3.36046)" fill="none" stroke="#000000" stroke-width="1.00000000000" stroke-linecap="round" stroke-linejoin="miter" stroke-miterlimit="2.00000000000" d="M4.55313 0.887392C2.46915 -0.750466 0.0783556 0.368825 0 0.428744"/>
   <rect id="rect111921" transform="translate(7.11014, 2.82633)" fill="url(#gradient4)" stroke="#1a1a1a" stroke-width="0.25482419000" stroke-linecap="butt" stroke-linejoin="miter" stroke-miterlimit="2.00000000000" width="1.77293392000pt" height="4.40183376000pt" rx="0.88646696000pt" ry="0.92502304000pt"/>
   <path id="path111981" transform="translate(3.20538, 7.13541)" fill="none" stroke="#000000" stroke-width="1.00000000000" stroke-linecap="round" stroke-linejoin="miter" stroke-miterlimit="2.00000000000" d="M4.2361 0C2.1836 3.65029 0.503401 1.5398 0 0.960682"/>
   <path id="path112001" transform="translate(3.94768, 5.50236)" fill="none" stroke="#000000" stroke-width="1.00000000000" stroke-linecap="round" stroke-linejoin="miter" stroke-miterlimit="2.00000000000" d="M3.19988 0C2.19969 1.03433 0.856181 0.766099 0 0.337466"/>
  </g>
  <g id="armFlexi22" transform="translate(-3.20538, -2.60892)" fill="none">
   <path id="path53322" transform="translate(9.20441, 4.99437)" fill="none" d="M23.8049 0C16.6199 0.154893 14.338 10.2267 10.1606 9.99065C4.02798 9.64214 3.95539 1.1617 0 1.12298"/>
   <path id="path112702" transform="translate(32.0437, 2.60892)" fill="#000000" stroke="url(#gradient5)" stroke-width="0.25000000000" stroke-linecap="round" stroke-linejoin="miter" stroke-miterlimit="2.00000000000" d="M1.2798 1.99531C1.28031 2.70764 1.15846 3.36653 0.96026 3.72316C0.762065 4.07978 0.51773 4.07978 0.319534 3.72316C0.121339 3.36653 -0.000511902 2.70764 1.61671e-06 1.99531C-0.000511902 1.28299 0.121339 0.624091 0.319534 0.267468C0.51773 -0.089156 0.762065 -0.089156 0.96026 0.267468C1.15846 0.624091 1.28031 1.28299 1.2798 1.99531Z"/>
   <path id="path112802" transform="translate(32.5244, 2.99882)" fill="#1a1a1a" fill-rule="evenodd" d="M0.0764441 3.17739C0.302279 3.61025 0.371977 2.36114 0.368279 1.65214C0.364613 0.94905 0.25531 -0.346766 0 0.0867939"/>
   <path id="path87712" transform="translate(8.9609, 2.8981)" fill="#333333" stroke="#1a1a1a" stroke-width="0.26458731000" stroke-linecap="butt" stroke-linejoin="miter" stroke-miterlimit="2.00000000000" d="M23.028 1.98757C22.9398 1.28596 22.9427 0.674682 23.036 0.300768C23.1293 -0.0731485 23.4138 -0.104221 23.5711 0.240117C23.7283 0.584455 23.8388 1.18234 23.8762 1.88996C23.914 2.59755 23.8673 3.20649 23.7476 3.5703C23.6279 3.93409 23.6314 3.93117 23.45 3.6029C23.2688 3.27464 23.1158 2.68927 23.028 1.98757C23.028 1.98757 23.028 1.98757 23.028 1.98757M22.1131 2.21771C21.928 1.54154 21.9171 0.911663 21.9835 0.530218C22.0499 0.148772 22.2036 0.10823 22.4076 0.418339C22.6116 0.72845 22.8409 1.30241 22.9287 2.00411C23.0168 2.70572 23.1209 3.28906 23.0546 3.67051C22.9881 4.05195 22.8344 4.0925 22.6304 3.78239C22.4264 3.47227 22.2977 2.89402 22.1131 2.21771C22.1131 2.21771 22.1131 2.21771 22.1131 2.21771M21.2145 2.58673C20.9851 1.92881 20.8628 1.33394 20.8768 0.945223C20.891 0.556505 21.1503 0.445863 21.3751 0.736275C21.5999 1.02669 21.8327 1.57612 22.0173 2.25243C22.2023 2.9286 22.2849 3.53246 22.245 3.91881C22.2051 4.30514 22.1987 4.31182 21.9553 4.04203C21.7119 3.77223 21.4435 3.24485 21.2145 2.58673C21.2145 2.58673 21.2145 2.58673 21.2145 2.58673M20.3718 3.06994C20.0654 2.45491 19.8728 1.88525 19.8399 1.49801C19.8072 1.11077 20.0442 0.982276 20.3038 1.2312C20.5636 1.48011 20.8923 1.97167 21.1213 2.62978C21.3507 3.28772 21.563 3.84173 21.5732 4.23063C21.5834 4.61951 21.5542 4.62148 21.2807 4.39309C21.007 4.16471 20.6777 3.68522 20.3718 3.06994C20.3718 3.06994 20.3718 3.06994 20.3718 3.06994M19.5755 3.6479C19.1971 3.08873 18.9996 2.50846 18.9463 2.12426C18.893 1.74004 19.1022 1.57591 19.3757 1.80428C19.6493 2.03267 19.9787 2.51216 20.2846 3.12744C20.5909 3.74248 20.7837 4.31213 20.8165 4.69936C20.8493 5.08661 20.8234 5.12115 20.5382 4.91246C20.253 4.70378 19.9535 4.20734 19.5755 3.6479C19.5755 3.6479 19.5755 3.6479 19.5755 3.6479M18.8102 4.33401C18.4318 3.77486 18.1715 3.24222 18.0917 2.86425C18.0119 2.48626 18.1364 2.37473 18.435 2.55647C18.7337 2.73821 19.1182 3.15947 19.4963 3.71893C19.8746 4.27808 20.135 4.8107 20.2148 5.18869C20.2945 5.56668 20.1701 5.67821 19.8715 5.49647C19.5728 5.31472 19.1882 4.89347 18.8102 4.33401C18.8102 4.33401 18.8102 4.33401 18.8102 4.33401M18.1029 5.06787C17.6838 4.54845 17.3843 4.04371 17.2764 3.67503C17.1685 3.30635 17.284 3.18282 17.5953 3.33412C17.9066 3.48543 18.3529 3.8456 18.731 4.40504C19.1093 4.96421 19.4586 5.41075 19.5666 5.77942C19.6745 6.14809 19.559 6.27163 19.2477 6.12033C18.9364 5.96902 18.5215 5.58763 18.1029 5.06787C18.1029 5.06787 18.1029 5.06787 18.1029 5.06787M17.4271 5.84803C16.9801 5.36034 16.6533 4.87852 16.5252 4.51847C16.3971 4.15842 16.573 3.9428 16.8843 4.0941C17.1956 4.24541 17.6105 4.6268 18.0292 5.14655C18.4483 5.66598 18.7478 6.17073 18.8556 6.5394C18.9636 6.90807 18.947 6.94267 18.628 6.81449C18.3089 6.6863 17.8737 6.33607 17.4271 5.84803C17.4271 5.84803 17.4271 5.84803 17.4271 5.84803M16.7768 6.66373C16.3124 6.19805 15.9683 5.73243 15.8272 5.37886C15.6861 5.0253 15.8381 4.83731 16.1571 4.96549C16.4761 5.09368 16.9113 5.44391 17.358 5.93195C17.805 6.41965 18.1318 6.90147 18.2599 7.26151C18.3881 7.62156 18.3355 7.68398 18.0121 7.57133C17.6886 7.45868 17.241 7.12977 16.7768 6.66373C16.7768 6.66373 16.7768 6.66373 16.7768 6.66373M16.1448 7.50516C15.6723 7.05043 15.3309 6.57473 15.1897 6.22116C15.0486 5.8676 15.1522 5.73067 15.4756 5.84333C15.7991 5.95598 16.2467 6.28488 16.7109 6.75094C17.1753 7.21662 17.5194 7.68224 17.6605 8.0358C17.8016 8.38937 17.698 8.52629 17.3746 8.41363C17.0511 8.30098 16.617 7.96025 16.1448 7.50516C16.1448 7.50516 16.1448 7.50516 16.1448 7.50516M15.5224 8.36222C15.0498 7.9075 14.6975 7.45003 14.5502 7.09985C14.4028 6.74965 14.504 6.61033 14.8293 6.71538C15.1548 6.82044 15.6081 7.1388 16.0804 7.59389C16.5528 8.04861 16.9051 8.50608 17.0525 8.85628C17.1999 9.20647 17.0986 9.34578 16.7733 9.24073C16.448 9.13567 15.9946 8.81732 15.5224 8.36222C15.5224 8.36222 15.5224 8.36222 15.5224 8.36222M14.9 9.21929C14.4274 8.76457 14.0751 8.30709 13.9277 7.95691C13.7804 7.60671 13.8816 7.46739 14.2069 7.57245C14.5324 7.6775 14.9856 7.99587 15.4579 8.45095C15.9304 8.90568 16.2827 9.36314 16.43 9.71334C16.5774 10.0635 16.4762 10.2028 16.1509 10.0978C15.8255 9.99274 15.3722 9.67439 14.9 9.21929C14.9 9.21929 14.9 9.21929 14.9 9.21929M14.2573 10.0643C13.7953 9.59559 13.4534 9.12771 13.3141 8.77323C13.1747 8.41874 13.2791 8.28251 13.6019 8.3973C13.9247 8.51208 14.3632 8.85293 14.8355 9.30801C15.3079 9.76274 15.6364 10.2496 15.7757 10.6041C15.9151 10.9586 15.8109 11.0948 15.4879 10.98C15.1651 10.8653 14.7191 10.5334 14.2573 10.0643C14.2573 10.0643 14.2573 10.0643 14.2573 10.0643M13.5769 10.8781C13.1382 10.3807 12.8194 9.8919 12.6973 9.52915C12.5751 9.16641 12.6857 9.03704 13.0026 9.17215C13.3194 9.30728 13.7291 9.68198 14.1908 10.1511C14.6529 10.6198 14.9449 11.1508 15.0669 11.5135C15.189 11.8763 15.0784 12.0056 14.7616 11.8705C14.4447 11.7354 14.0155 11.3757 13.5769 10.8781C13.5769 10.8781 13.5769 10.8781 13.5769 10.8781M12.832 11.6357C12.4497 11.0799 12.1855 10.5496 12.1031 10.1722C12.0207 9.79491 12.067 9.73866 12.3755 9.89725C12.6841 10.0558 13.068 10.4628 13.5064 10.9604C13.9453 11.4578 14.2021 12.0174 14.3035 12.3885C14.4048 12.7597 14.2015 12.9676 13.9015 12.7886C13.6015 12.6095 13.214 12.1917 12.832 11.6357C12.832 11.6357 12.832 11.6357 12.832 11.6357M11.9722 12.2688C11.7276 11.6184 11.5015 11.0691 11.4718 10.6816C11.4421 10.294 11.4601 10.2782 11.7482 10.4815C12.0362 10.6848 12.3713 11.1514 12.7532 11.7074C13.1355 12.2632 13.3202 12.8562 13.3789 13.2393C13.4376 13.6224 13.1604 13.8226 12.8888 13.5914C12.6171 13.3601 12.2164 12.9194 11.9722 12.2688C11.9722 12.2688 11.9722 12.2688 11.9722 12.2688M11.005 12.6249C10.9077 11.9253 10.7855 11.3633 10.8304 10.9778C10.8752 10.5924 10.8559 10.6213 11.1055 10.8834C11.3551 11.1455 11.6358 11.6642 11.88 12.3147C12.1246 12.9652 12.2608 13.5559 12.2559 13.9448C12.2509 14.3337 11.8796 14.4677 11.6587 14.1736C11.4377 13.8795 11.1018 13.3247 11.005 12.6249C11.005 12.6249 11.005 12.6249 11.005 12.6249M9.98903 12.6257C10.0465 11.9199 10.1741 11.3265 10.341 10.9883C10.508 10.6501 10.4915 10.6456 10.6357 10.9972C10.7799 11.3488 10.809 11.9434 10.9059 12.6432C11.0031 13.3429 10.8211 13.9737 10.688 14.3311C10.555 14.6885 10.1788 14.6782 10.0696 14.31C9.96031 13.9418 9.93112 13.3315 9.98903 12.6257C9.98903 12.6257 9.98903 12.6257 9.98903 12.6257M9.00409 12.4098C9.16483 11.7255 9.37806 11.1657 9.59248 10.8651C9.8069 10.5645 9.83247 10.5547 9.91442 10.9321C9.99638 11.3095 9.94694 11.9091 9.88904 12.6148C9.83157 13.3207 9.59228 13.8948 9.4012 14.2157C9.21011 14.5365 8.8884 14.4695 8.83505 14.0854C8.78168 13.7012 8.84294 13.0941 9.00409 12.4098C9.00409 12.4098 9.00409 12.4098 9.00409 12.4098M8.06267 12.0121C8.3231 11.3698 8.61666 10.8605 8.87274 10.6067C9.12883 10.353 9.15756 10.3461 9.18174 10.7341C9.20593 11.1222 9.06831 11.6954 8.90716 12.3796C8.74642 13.0639 8.42062 13.5884 8.18433 13.8665C7.94805 14.1445 7.64148 14.0183 7.64621 13.6294C7.65093 13.2404 7.80186 12.6543 8.06267 12.0121C8.06267 12.0121 8.06267 12.0121 8.06267 12.0121M7.1946 11.439C7.54102 10.8529 7.90166 10.4043 8.18973 10.2011C8.47782 9.9978 8.5154 10.0067 8.48279 10.3939C8.45017 10.7811 8.23249 11.321 7.97169 11.9632C7.71126 12.6055 7.31706 13.0611 7.04364 13.2897C6.77023 13.5181 6.49979 13.3417 6.55856 12.9586C6.61733 12.5755 6.84782 12.0248 7.1946 11.439C7.1946 11.439 7.1946 11.439 7.1946 11.439M6.41725 10.7208C6.83066 10.1953 7.24164 9.80829 7.55135 9.65275C7.86107 9.49723 7.90827 9.5309 7.82555 9.90813C7.74283 10.2854 7.45837 10.7881 7.1116 11.3739C6.76517 11.96 6.32527 12.3438 6.02516 12.5225C5.72503 12.7012 5.50093 12.495 5.60508 12.1248C5.70922 11.7547 6.00354 11.2459 6.41725 10.7208C6.41725 10.7208 6.41725 10.7208 6.41725 10.7208M5.73363 9.88715C6.20393 9.42972 6.65586 9.10908 6.98072 9.00235C7.30559 8.89562 7.33802 8.92709 7.21507 9.28952C7.09214 9.65195 6.75655 10.118 6.34284 10.6431C5.92944 11.1685 5.4626 11.4909 5.14545 11.6251C4.82829 11.7594 4.62084 11.5051 4.76676 11.1542C4.91269 10.8034 5.26306 10.3442 5.73363 9.88715C5.73363 9.88715 5.73363 9.88715 5.73363 9.88715M5.12351 8.99744C5.62252 8.5821 6.09424 8.30157 6.42523 8.22335C6.75622 8.14512 6.78165 8.18084 6.63573 8.53169C6.48981 8.88255 6.13943 9.34173 5.66886 9.79878C5.19856 10.2562 4.74663 10.5769 4.42178 10.6836C4.09691 10.7903 3.90769 10.5144 4.07621 10.1771C4.24472 9.83992 4.62425 9.4124 5.12351 8.99744C5.12351 8.99744 5.12351 8.99744 5.12351 8.99744M4.56883 8.06768C5.08473 7.68054 5.56774 7.42657 5.90165 7.36684C6.23557 7.30713 6.28051 7.38674 6.112 7.72398C5.94348 8.06122 5.56395 8.48873 5.0647 8.90369C4.56569 9.31904 4.09396 9.59955 3.76298 9.67779C3.43198 9.756 3.29065 9.51536 3.47313 9.18785C3.65563 8.86035 4.0527 8.45442 4.56883 8.06768C4.56883 8.06768 4.56883 8.06768 4.56883 8.06768M4.04608 7.12122C4.5684 6.74567 5.05559 6.50251 5.39045 6.45026C5.72531 6.39799 5.7922 6.52307 5.60972 6.85057C5.42722 7.17808 5.03015 7.58402 4.51402 7.97075C3.99812 8.3579 3.51511 8.61187 3.1812 8.67158C2.84727 8.73131 2.74376 8.54013 2.93172 8.21676C3.11969 7.89338 3.52351 7.49638 4.04608 7.12122C4.04608 7.12122 4.04608 7.12122 4.04608 7.12122M3.53247 6.17335C4.05481 5.79779 4.54199 5.55464 4.87685 5.50238C5.21172 5.45011 5.29521 5.60419 5.10725 5.92756C4.91927 6.25095 4.51544 6.64794 3.9929 7.0231C3.47056 7.39866 2.98339 7.64181 2.64853 7.69408C2.31366 7.74633 2.23017 7.59225 2.41813 7.26888C2.6061 6.94551 3.00993 6.5485 3.53247 6.17335C3.53247 6.17335 3.53247 6.17335 3.53247 6.17335M3.0001 5.25005C3.50964 4.85198 3.98843 4.58774 4.32132 4.52089C4.6542 4.45404 4.74269 4.60436 4.56553 4.93569C4.38837 5.26703 4.00185 5.70006 3.4793 6.07522C2.95698 6.45077 2.49981 6.74134 2.16692 6.80819C1.83405 6.87504 1.74556 6.72472 1.92272 6.39339C2.0999 6.06206 2.49032 5.64773 3.0001 5.25005C3.0001 5.25005 3.0001 5.25005 3.0001 5.25005M2.4193 4.40059C2.87045 3.91808 3.35904 3.63935 3.68684 3.5454C4.01467 3.45146 4.11222 3.59411 3.95603 3.93904C3.79982 4.28397 3.45352 4.75664 2.94375 5.15432C2.4342 5.5524 2.00764 5.90897 1.67981 6.00291C1.35199 6.09685 1.25445 5.95421 1.41066 5.60928C1.56685 5.26435 1.96786 4.88273 2.4193 4.40059C2.4193 4.40059 2.4193 4.40059 2.4193 4.40059M1.72933 3.67055C2.11002 3.11346 2.49662 2.69461 2.79617 2.51476C3.09571 2.3349 3.30983 2.5595 3.20075 2.92771C3.09168 3.29594 2.8024 3.83367 2.35097 4.31581C1.89983 4.7983 1.53353 5.21474 1.2218 5.36474C0.910066 5.51475 0.922236 5.51331 1.00382 5.13581C1.08541 4.75833 1.34832 4.22733 1.72933 3.67055C1.72933 3.67055 1.72933 3.67055 1.72933 3.67055M0.924584 3.21065C1.12506 2.54066 1.37057 1.99894 1.60207 1.7158C1.83356 1.43265 2.30649 1.69462 2.25775 2.07952C2.20901 2.46441 1.99304 3.02271 1.6618 3.62011C1.33092 4.21777 0.982246 4.67858 0.699666 4.89167C0.417075 5.10475 0.688338 5.25585 0.657666 4.86858C0.626994 4.48129 0.723716 3.88048 0.924584 3.21065C0.924584 3.21065 0.924584 3.21065 0.924584 3.21065M0.0177964 3.0722C0.0621239 2.36541 0.178592 1.76926 0.339176 1.42716C0.49976 1.08506 0.858294 1.12316 0.932149 1.50261C1.006 1.88207 0.97747 2.49221 0.853417 3.18628C0.729766 3.88046 0.547088 4.45412 0.34929 4.76931C0.151492 5.0845 0.245585 5.11864 0.129569 4.75342C0.0135523 4.38821 -0.0269525 3.77897 0.0177964 3.0722C0.0177964 3.0722 0.0177964 3.0722 0.0177964 3.0722"/>
   <path id="path111962" transform="translate(3.47779, 3.3605)" fill="none" stroke="#000000" stroke-width="1.00000000000" stroke-linecap="round" stroke-linejoin="miter" stroke-miterlimit="2.00000000000" d="M4.55693 0.887441C2.47121 -0.750507 0.0784209 0.368845 0 0.428767"/>
   <rect id="rect111922" transform="translate(7.1134, 2.82634)" fill="url(#gradient6)" stroke="#1a1a1a" stroke-width="0.25482419000" stroke-linecap="butt" stroke-linejoin="miter" stroke-miterlimit="2.00000000000" width="1.77441070314pt" height="4.40207429241pt" rx="0.88720535157pt" ry="0.92507358667pt"/>
   <path id="path111982" transform="translate(3.20538, 7.13565)" fill="none" stroke="#000000" stroke-width="1.00000000000" stroke-linecap="round" stroke-linejoin="miter" stroke-miterlimit="2.00000000000" d="M4.23963 0C2.18542 3.65049 0.50382 1.53988 0 0.960734"/>
   <path id="path112002" transform="translate(3.9483, 5.50252)" fill="none" stroke="#000000" stroke-width="1.00000000000" stroke-linecap="round" stroke-linejoin="miter" stroke-miterlimit="2.00000000000" d="M3.20255 0C2.20152 1.03439 0.856895 0.766141 0 0.337485"/>
  </g>
 </g>
</svg>
