<?xml version="1.0" standalone="no"?>
<!DOCTYPE svg PUBLIC "-//W3C//DTD SVG 20010904//EN" "http://www.w3.org/TR/2001/REC-SVG-20010904/DTD/svg10.dtd">
<!-- Created using Karbon, part of Calligra: http://www.calligra.org/karbon -->
<svg xmlns="http://www.w3.org/2000/svg" xmlns:xlink="http://www.w3.org/1999/xlink" width="20.4095pt" height="15.0236pt">
<defs>
  <linearGradient id="gradient0" gradientTransform="translate(-97.6965, -72.1792)" gradientUnits="objectBoundingBox" x1="13.22607906000" y1="9.43890749000" x2="13.22669552000" y2="10.02823760000" spreadMethod="reflect">
   <stop stop-color="#ffb8ba" offset="0.00000000000" stop-opacity="1.00000000000"/>
   <stop stop-color="#b6000f" offset="1.00000000000" stop-opacity="1.00000000000"/>
  </linearGradient>
  <radialGradient id="gradient1" gradientTransform="matrix(-1.10616 -2.96089 3.30222 -1.23367 -119.091 548.365)" gradientUnits="objectBoundingBox" cx="117.20258616000" cy="19.26932937000" fx="117.20258616000" fy="19.26932937000" r="0.13617148000" spreadMethod="pad">
   <stop stop-color="#1a1a1a" offset="0.00000000000" stop-opacity="1.00000000000"/>
   <stop stop-color="#1a1a1a" offset="1.00000000000" stop-opacity="0.00000000000"/>
  </radialGradient>
  <radialGradient id="gradient2" gradientTransform="matrix(0.0204597 2.83985 -1.2607 0.00988996 99.2555 -182.944)" gradientUnits="objectBoundingBox" cx="29.14952183000" cy="14.42761837000" fx="29.14952183000" fy="14.42761837000" r="0.20828237000" spreadMethod="pad">
   <stop stop-color="#ffb8ba" offset="0.00000000000" stop-opacity="1.00000000000"/>
   <stop stop-color="#b6000f" offset="1.00000000000" stop-opacity="1.00000000000"/>
  </radialGradient>
 </defs>
<g id="layer0">
  <rect id="blockRed" transform="matrix(0 0 0 1 0 0)" fill="url(#gradient0)" stroke="#1a1a1a" stroke-width="0.25000000000" stroke-linecap="round" stroke-linejoin="miter" stroke-miterlimit="2.00000000000" width="0.00000100000pt" height="6.23623127600pt" rx="0.00000014596pt" ry="0.90794744673pt"/>
  <g id="armFlexi3" transform="translate(-2.62499, -2.62499)" fill="none">
   <path id="path14512" transform="translate(3.27482, 4.25647)" fill="none" stroke="#1a1a1a" stroke-width="0.10000000000" stroke-linecap="butt" stroke-linejoin="miter" stroke-miterlimit="2.00000000000" d="M0 0.285619C6.72541 -1.04447 5.77837 2.4688 8.70313 6.72503C11.8723 11.3369 17.0294 3.24443 19.2641 10.4948"/>
   <path id="path14514" transform="translate(2.62499, 3.2298)" fill="#000000" stroke="url(#gradient1)" stroke-width="0.25000000000" stroke-linecap="round" stroke-linejoin="miter" stroke-miterlimit="2.00000000000" d="M1.28662 1.98711C1.29217 1.27932 1.17436 0.623757 0.977663 0.268013C0.780967 -0.0877304 0.535366 -0.0894386 0.333616 0.263534C0.131868 0.616507 0.00471788 1.27036 0.000188548 1.97816C-0.00537315 2.68596 0.112442 3.34152 0.309139 3.69727C0.505836 4.05301 0.751438 4.05472 0.953186 3.70175C1.15494 3.34877 1.28208 2.69491 1.28662 1.98711Z"/>
   <path id="path14516" transform="translate(2.84359, 3.38901)" fill="#1a1a1a" fill-rule="evenodd" d="M0.577399 0.104385C0.223956 -0.381149 0.03608 0.942733 0.00187941 1.69881C-0.0320399 2.44858 0.398642 3.75935 0.850806 3.3246"/>
   <path id="path14518" transform="translate(23.0489, 15.9125)" fill="none" stroke="#000000" stroke-width="1.00000000000" stroke-linecap="round" stroke-linejoin="miter" stroke-miterlimit="2.00000000000" d="M0 0C0.177459 2.09594 0.928843 4.08606 3.07338 4.29992"/>
   <rect id="rect14520" transform="matrix(-0.563888 -0.825871 -0.832259 0.554417 26.1974 14.6842)" fill="url(#gradient2)" stroke="#1a1a1a" stroke-width="0.25482419000" stroke-linecap="butt" stroke-linejoin="miter" stroke-miterlimit="2.00000000000" width="1.76863880448pt" height="4.41149216341pt" rx="0.88431940224pt" ry="0.92705270449pt"/>
   <path id="path14522" transform="translate(24.5924, 15.191)" fill="none" stroke="#000000" stroke-width="1.00000000000" stroke-linecap="round" stroke-linejoin="miter" stroke-miterlimit="2.00000000000" d="M0 0.0579934C3.68456 -0.370563 3.87446 1.68324 3.29831 2.69667"/>
   <path id="path14524" transform="translate(20.7029, 16.5708)" fill="none" stroke="#000000" stroke-width="1.00000000000" stroke-linecap="round" stroke-linejoin="miter" stroke-miterlimit="2.00000000000" d="M0.825278 0C-0.744748 2.21838 0.297387 4.63459 0.912825 4.83378"/>
   <path id="path14526" transform="translate(3.39487, 2.62499)" fill="#333333" stroke="#1a1a1a" stroke-width="0.25000000000" stroke-linecap="round" stroke-linejoin="miter" stroke-miterlimit="2.00000000000" d="M0.981068 2.08812C0.860198 1.3667 0.678322 0.764131 0.479209 0.425404C0.280097 0.0866763 0.122635 0.111953 0.0447116 0.495196C-0.0332015 0.878428 -0.00852967 1.50625 0.112793 2.2276C0.233664 2.94902 0.41554 3.55158 0.614652 3.89032C0.813765 4.22906 0.971226 4.20377 1.04915 3.82053C1.12706 3.43728 1.10239 2.80947 0.981068 2.08812C0.981068 2.08812 0.981068 2.08812 0.981068 2.08812M1.94303 1.99981C1.88012 1.27147 1.74691 0.65694 1.57546 0.304078C1.40401 -0.0487593 1.24504 -0.0355553 1.13679 0.34047C1.02854 0.716534 0.961178 1.35048 1.0825 2.07182C1.20337 2.79325 1.26253 3.41541 1.43398 3.76827C1.60542 4.12114 1.7644 4.10795 1.87265 3.73188C1.98089 3.35582 2.0064 2.72812 1.94303 1.99981C1.94303 1.99981 1.94303 1.99981 1.94303 1.99981M2.90368 2.00124C2.91713 1.27057 2.84879 0.646087 2.71511 0.278034C2.58144 -0.0900062 2.42194 -0.0927728 2.27503 0.270414C2.12811 0.633612 1.98207 1.263 2.04545 1.99131C2.10836 2.71966 2.07913 3.34114 2.21281 3.7092C2.3465 4.07726 2.50598 4.08002 2.6529 3.71682C2.79981 3.35362 2.89068 2.7319 2.90368 2.00124C2.90368 2.00124 2.90368 2.00124 2.90368 2.00124M3.82059 2.14939C4.01823 1.44444 4.01902 0.7944 3.95055 0.409458C3.88208 0.0245545 3.58595 -0.0265011 3.40411 0.321431C3.22227 0.669339 3.07091 1.27992 2.98648 2.00628C2.90159 2.73258 2.90851 3.36082 3.00561 3.73984C3.10269 4.11886 3.08995 4.12394 3.29732 3.79C3.5047 3.45607 3.62342 2.85444 3.82059 2.14939C3.82059 2.14939 3.82059 2.14939 3.82059 2.14939M4.66985 2.50333C5.05314 1.8759 5.21945 1.24163 5.25384 0.852397C5.28821 0.463155 4.98159 0.33119 4.7203 0.626658C4.45899 0.922139 4.11692 1.47089 3.91973 2.17594C3.72211 2.88089 3.49888 3.46266 3.50087 3.85335C3.50285 4.24403 3.45153 4.22798 3.73923 3.957C4.02693 3.68605 4.28697 3.13099 4.66985 2.50333C4.66985 2.50333 4.66985 2.50333 4.66985 2.50333M5.37946 3.08422C5.91571 2.5751 6.31738 2.08489 6.48784 1.73153C6.65831 1.37818 6.29059 1.0666 5.95682 1.28115C5.62303 1.49568 5.141 1.92722 4.7581 2.55487C4.37481 3.1823 3.99094 3.68368 3.88393 4.06008C3.7769 4.43649 3.5988 4.28479 3.96486 4.12843C4.3309 3.97208 4.84355 3.59367 5.37946 3.08422C5.37946 3.08422 5.37946 3.08422 5.37946 3.08422M5.92518 3.8201C6.57454 3.45828 7.03229 2.9962 7.25947 2.67496C7.48667 2.35372 7.39573 2.2255 7.00857 2.32116C6.62141 2.41682 6.00833 2.68034 5.43572 3.15009C4.86281 3.6195 4.34671 3.96045 4.11952 4.2817C3.89231 4.60295 3.98324 4.73116 4.37041 4.6355C4.75758 4.53983 5.27605 4.1823 5.92518 3.8201C5.92518 3.8201 5.92518 3.8201 5.92518 3.8201M6.38285 4.65579C7.05445 4.335 7.59212 3.99126 7.86652 3.70726C8.14091 3.42325 8.00714 3.18049 7.61274 3.24236C7.21834 3.30422 6.62523 3.54525 5.97609 3.90746C5.32673 4.26927 4.81249 4.64569 4.55711 4.94614C4.30173 5.24659 4.30853 5.25517 4.70619 5.21794C5.10384 5.18069 5.71146 4.97697 6.38285 4.65579C6.38285 4.65579 6.38285 4.65579 6.38285 4.65579M6.81434 5.51954C7.48592 5.19876 8.02361 4.85502 8.29799 4.57102C8.57239 4.287 8.50232 4.14675 8.10467 4.184C7.70701 4.22124 7.09939 4.42496 6.42799 4.74614C5.7564 5.06692 5.21872 5.41067 4.94434 5.69468C4.66995 5.97868 4.74 6.11893 5.13767 6.0817C5.53532 6.04445 6.14295 5.84073 6.81434 5.51954C6.81434 5.51954 6.81434 5.51954 6.81434 5.51954M7.25206 6.38177C7.92146 6.05663 8.45678 5.70942 8.72923 5.42365C9.00169 5.13787 8.93069 4.99807 8.53329 5.0379C8.1359 5.07771 7.52968 5.28537 6.86049 5.61089C6.19109 5.93602 5.65576 6.28324 5.38332 6.56901C5.11085 6.85479 5.18186 6.99459 5.57926 6.95476C5.97665 6.91495 6.58287 6.70729 7.25206 6.38177C7.25206 6.38177 7.25206 6.38177 7.25206 6.38177M7.71005 7.24444C8.36023 6.8839 8.87529 6.50848 9.13133 6.20851C9.38737 5.90854 9.368 5.859 8.9706 5.89881C8.57322 5.93864 7.96699 6.1463 7.2978 6.47182C6.62841 6.79695 6.09308 7.14417 5.82063 7.42994C5.54817 7.71571 5.67728 7.96741 6.07185 7.90633C6.46641 7.84525 7.06009 7.60539 7.71005 7.24444C7.71005 7.24444 7.71005 7.24444 7.71005 7.24444M8.22104 8.07847C8.84933 7.6826 9.34187 7.27937 9.58017 6.96575C9.81847 6.65214 9.79354 6.60895 9.39898 6.67003C9.00441 6.73111 8.41073 6.97097 7.76077 7.33192C7.1106 7.69248 6.59552 8.0679 6.33949 8.36786C6.08347 8.66783 6.23333 8.9125 6.62373 8.82973C7.01412 8.74697 7.59298 8.47471 8.22104 8.07847C8.22104 8.07847 8.22104 8.07847 8.22104 8.07847M8.79365 8.87889C9.38632 8.4339 9.84311 7.9925 10.0541 7.66085C10.2652 7.32921 10.2644 7.32896 9.87402 7.41173C9.48363 7.4945 8.90477 7.76676 8.27673 8.163C7.64841 8.55886 7.15586 8.96211 6.91757 9.27573C6.67928 9.58933 6.88347 9.86987 7.26546 9.75598C7.64744 9.64208 8.20125 9.32423 8.79365 8.87889C8.79365 8.87889 8.79365 8.87889 8.79365 8.87889M9.57112 9.57517C9.9601 8.95144 10.3529 8.46393 10.4788 8.09329C10.6046 7.72264 10.6604 7.7782 10.2939 7.93318C9.92734 8.08814 9.41344 8.46458 8.87577 8.97191C8.33779 9.47891 7.93439 9.96749 7.76265 10.3201C7.59089 10.6727 7.92494 10.966 8.26901 10.7679C8.61308 10.5698 9.18255 10.1991 9.57112 9.57517C9.57112 9.57517 9.57112 9.57517 9.57112 9.57517M10.5117 9.98926C10.7192 9.28732 10.8195 8.66706 10.7884 8.27768C10.7573 7.88831 11.0756 8.03052 10.7613 8.27128C10.4469 8.51203 10.0474 9.00351 9.65885 9.62748C9.26987 10.2512 9.00631 10.8238 8.93156 11.2074C8.85681 11.591 9.57429 11.8948 9.8128 11.5816C10.0513 11.2684 10.3046 10.6913 10.5117 9.98926C10.5117 9.98926 10.5117 9.98926 10.5117 9.98926M11.5503 10.0925C11.5206 9.36209 11.5237 8.75013 11.4029 8.37776C11.2821 8.0054 11.3291 8.01916 11.1312 8.35839C10.9332 8.69762 10.7534 9.30051 10.6348 10.022C10.5159 10.7435 10.4932 11.3712 10.5724 11.754C10.6515 12.1369 11.0612 12.1711 11.2207 11.813C11.3802 11.4548 11.5804 10.8229 11.5503 10.0925C11.5503 10.0925 11.5503 10.0925 11.5503 10.0925M12.5547 9.96142C12.4075 9.2448 12.2038 8.64909 11.9924 8.31758C11.7811 7.98608 11.7807 7.98241 11.6844 8.36163C11.5882 8.74086 11.6228 9.35809 11.653 10.0885C11.6826 10.8189 11.9078 11.4317 12.0904 11.7792C12.273 12.1268 12.6222 12.0757 12.6861 11.6901C12.7499 11.3044 12.7023 10.6779 12.5547 9.96142C12.5547 9.96142 12.5547 9.96142 12.5547 9.96142M13.5221 9.72695C13.3233 9.02222 13.0769 8.44204 12.842 8.12597C12.6071 7.80992 12.5879 7.82729 12.5241 8.21295C12.4603 8.59861 12.5079 9.22506 12.6555 9.94159C12.8026 10.6582 13.0063 11.2539 13.2176 11.5854C13.429 11.9169 13.7428 11.8316 13.7785 11.4424C13.8143 11.0533 13.7213 10.4316 13.5221 9.72695C13.5221 9.72695 13.5221 9.72695 13.5221 9.72695M14.464 9.47347C14.2858 8.7635 14.0241 8.18605 13.7892 7.86999C13.5543 7.55393 13.4004 7.59549 13.3648 7.98469C13.3291 8.37388 13.422 8.99557 13.6212 9.70018C13.82 10.4049 14.0665 10.9851 14.3013 11.3012C14.5362 11.6172 14.6901 11.5757 14.7258 11.1865C14.7616 10.7973 14.6426 10.1833 14.464 9.47347C14.464 9.47347 14.464 9.47347 14.464 9.47347M15.4045 9.27017C15.2929 8.54766 15.1187 7.94319 14.9241 7.60221C14.7293 7.26122 14.4043 7.3395 14.3574 7.72754C14.3103 8.11558 14.3852 8.73959 14.5638 9.44947C14.742 10.1594 14.9716 10.7462 15.1972 11.0687C15.4228 11.3912 15.3677 11.3846 15.4505 11.0025C15.5333 10.6204 15.5165 9.99262 15.4045 9.27017C15.4045 9.27017 15.4045 9.27017 15.4045 9.27017M16.3388 9.19856C16.3807 8.46888 16.2227 7.83323 16.067 7.4734C15.9115 7.11356 15.5428 7.1407 15.46 7.52278C15.3773 7.90487 15.3939 8.53267 15.506 9.25512C15.6177 9.97764 15.7918 10.5821 15.9865 10.9231C16.1812 11.2641 16.0866 11.2818 16.2115 10.9107C16.3363 10.5396 16.2972 9.92828 16.3388 9.19856C16.3388 9.19856 16.3388 9.19856 16.3388 9.19856M17.2113 9.3961C17.5335 8.73712 17.5821 8.07592 17.5598 7.68602C17.5374 7.29613 17.1371 7.19824 16.935 7.53513C16.733 7.87204 16.4829 8.47447 16.4414 9.20419C16.3994 9.93388 16.2611 10.5401 16.3356 10.9238C16.4101 11.3075 16.2652 11.2758 16.5106 10.9678C16.7561 10.6598 16.8894 10.0553 17.2113 9.3961C17.2113 9.3961 17.2113 9.3961 17.2113 9.3961M17.9601 9.91367C18.4608 9.37165 18.8287 8.85708 18.9751 8.49378C19.1215 8.13048 18.7759 7.87625 18.4508 8.10287C18.1257 8.32948 17.6258 8.78026 17.3039 9.43944C16.9817 10.0984 16.5802 10.5751 16.4879 10.955C16.3955 11.3349 16.2643 11.2248 16.6189 11.0455C16.9736 10.8662 17.4596 10.456 17.9601 9.91367C17.9601 9.91367 17.9601 9.91367 17.9601 9.91367M18.4995 10.6293C19.1592 10.2863 19.6217 9.82684 19.8547 9.50953C20.0876 9.19221 19.8656 8.88689 19.49 9.01938C19.1143 9.15187 18.5776 9.49647 18.0089 9.97028C17.44 10.4437 17.0065 10.907 16.8129 11.2485C16.6191 11.59 16.5423 11.5094 16.931 11.4204C17.3199 11.3313 17.8399 10.9726 18.4995 10.6293C18.4995 10.6293 18.4995 10.6293 18.4995 10.6293M18.9146 11.4805C19.6019 11.1937 20.1568 10.8772 20.4456 10.6073C20.7344 10.3374 20.5994 10.0497 20.2033 10.1003C19.8072 10.1508 19.2073 10.3746 18.5477 10.718C17.8878 11.061 17.3627 11.4224 17.0984 11.7154C16.8342 12.0083 16.8121 11.9756 17.2111 11.9582C17.6102 11.9409 18.2275 11.7677 18.9146 11.4805C18.9146 11.4805 18.9146 11.4805 18.9146 11.4805M19.2361 12.3734C19.9427 12.1355 20.5194 11.8589 20.8273 11.6099C21.1352 11.361 21.0833 11.2134 20.684 11.2027C20.2846 11.192 19.6561 11.3213 18.9495 11.5595C18.2429 11.7974 17.6662 12.074 17.3583 12.323C17.0504 12.5719 17.1024 12.7195 17.5017 12.7302C17.9011 12.741 18.5296 12.6116 19.2361 12.3734C19.2361 12.3734 19.2361 12.3734 19.2361 12.3734"/>
  </g>
 </g>
</svg>
