<?xml version="1.0" standalone="no"?>
<!DOCTYPE svg PUBLIC "-//W3C//DTD SVG 20010904//EN" "http://www.w3.org/TR/2001/REC-SVG-20010904/DTD/svg10.dtd">
<!-- Created using Karbon, part of Calligra: http://www.calligra.org/karbon -->
<svg xmlns="http://www.w3.org/2000/svg" xmlns:xlink="http://www.w3.org/1999/xlink" width="5.95277pt" height="6.23623pt">
<defs>
  <linearGradient id="gradient0" gradientTransform="translate(-97.6965, -72.1792)" gradientUnits="objectBoundingBox" x1="13.22607906000" y1="9.43890749000" x2="13.22669552000" y2="10.02823760000" spreadMethod="reflect">
   <stop stop-color="#ffb8ba" offset="0.00000000000" stop-opacity="1.00000000000"/>
   <stop stop-color="#b6000f" offset="1.00000000000" stop-opacity="1.00000000000"/>
  </linearGradient>
  <radialGradient id="gradient1" gradientTransform="translate(-234.052, -172.655)" gradientUnits="objectBoundingBox" cx="35.17164194000" cy="26.02226373000" fx="35.17164194000" fy="26.02226373000" r="0.36651589000" spreadMethod="pad">
   <stop stop-color="#3ad833" offset="0.00000000000" stop-opacity="1.00000000000"/>
   <stop stop-color="#024f00" offset="1.00000000000" stop-opacity="1.00000000000"/>
  </radialGradient>
 </defs>
<g id="layer0">
  <rect id="blockRed" transform="matrix(0 0 0 1 0 0)" fill="url(#gradient0)" stroke="#1a1a1a" stroke-width="0.25000000000" stroke-linecap="round" stroke-linejoin="miter" stroke-miterlimit="2.00000000000" width="0.00000100000pt" height="6.23623127600pt" rx="0.00000014596pt" ry="0.90794744673pt"/>
  <path id="ballGreen" transform="translate(0.197349, 0.169156)" fill="url(#gradient1)" stroke="#000000" stroke-width="0.25000000000" stroke-linecap="round" stroke-linejoin="miter" stroke-miterlimit="2.00000000000" d="M7.08662 3.54332C7.08808 4.80873 6.41305 5.97864 5.31614 6.61178C4.21924 7.24491 2.86739 7.24491 1.77048 6.61178C0.673585 5.97864 -0.00144847 4.80873 2.33389e-06 3.54332C-0.00144847 2.27789 0.673585 1.10797 1.77048 0.474846C2.86739 -0.158282 4.21924 -0.158282 5.31614 0.474846C6.41305 1.10797 7.08808 2.27789 7.08662 3.54332Z"/>
 </g>
</svg>
