<?xml version="1.0" standalone="no"?>
<!DOCTYPE svg PUBLIC "-//W3C//DTD SVG 20010904//EN" "http://www.w3.org/TR/2001/REC-SVG-20010904/DTD/svg10.dtd">
<!-- Created using Karbon, part of Calligra: http://www.calligra.org/karbon -->
<svg xmlns="http://www.w3.org/2000/svg" xmlns:xlink="http://www.w3.org/1999/xlink" width="6.23623pt" height="11.9055pt">
<defs/>
<g id="layer0">
  <g id="eyes1" transform="translate(-2.52289, -2.62463)" fill="none">
   <path id="path4639" transform="matrix(-1 0 0 1 10.1657 16.3872)" fill="#000000" d="M7.64279 0.578925C7.64279 0.898657 5.93189 1.15785 3.8214 1.15785C1.7109 1.15785 0 0.898657 0 0.578925C0 0.259193 1.7109 0 3.8214 0C5.93189 0 7.64279 0.259193 7.64279 0.578925Z"/>
   <path id="path4641" transform="matrix(-1 0 0 1 9.51305 15.4882)" fill="#4d4d4d" stroke="#1a1a1a" stroke-width="0.25000000000" stroke-linecap="round" stroke-linejoin="miter" stroke-miterlimit="2.00000000000" d="M5.28364 0.768355C5.28533 1.0427 4.78218 1.29641 3.9641 1.43373C3.14603 1.57104 2.13764 1.57104 1.31956 1.43373C0.501483 1.29641 -0.00167787 1.0427 4.2042e-06 0.768355C-0.00167787 0.494011 0.501483 0.240299 1.31956 0.102985C2.13764 -0.0343283 3.14603 -0.0343283 3.9641 0.102985C4.78218 0.240299 5.28533 0.494011 5.28364 0.768355Z"/>
   <path id="path4643" transform="matrix(-1 0 0 1 9.51305 14.5909)" fill="#4d4d4d" stroke="#1a1a1a" stroke-width="0.25000000000" stroke-linecap="round" stroke-linejoin="miter" stroke-miterlimit="2.00000000000" d="M5.28364 0.768355C5.28533 1.0427 4.78218 1.29641 3.9641 1.43373C3.14603 1.57104 2.13764 1.57104 1.31956 1.43373C0.501483 1.29641 -0.00167787 1.0427 4.2042e-06 0.768355C-0.00167787 0.494011 0.501483 0.240299 1.31956 0.102985C2.13764 -0.0343283 3.14603 -0.0343283 3.9641 0.102985C4.78218 0.240299 5.28533 0.494011 5.28364 0.768355Z"/>
   <path id="path4645" transform="matrix(-1 0 0 1 9.51305 13.6119)" fill="#4d4d4d" stroke="#1a1a1a" stroke-width="0.25000000000" stroke-linecap="round" stroke-linejoin="miter" stroke-miterlimit="2.00000000000" d="M5.28364 0.768355C5.28533 1.0427 4.78218 1.29641 3.9641 1.43373C3.14603 1.57104 2.13764 1.57104 1.31956 1.43373C0.501483 1.29641 -0.00167787 1.0427 4.2042e-06 0.768355C-0.00167787 0.494011 0.501483 0.240299 1.31956 0.102985C2.13764 -0.0343283 3.14603 -0.0343283 3.9641 0.102985C4.78218 0.240299 5.28533 0.494011 5.28364 0.768355Z"/>
   <path id="path4647" transform="matrix(-1 0 0 1 9.51305 12.5514)" fill="#4d4d4d" stroke="#1a1a1a" stroke-width="0.25000000000" stroke-linecap="round" stroke-linejoin="miter" stroke-miterlimit="2.00000000000" d="M5.28364 0.768355C5.28533 1.0427 4.78218 1.29641 3.9641 1.43373C3.14603 1.57104 2.13764 1.57104 1.31956 1.43373C0.501483 1.29641 -0.00167787 1.0427 4.2042e-06 0.768355C-0.00167787 0.494011 0.501483 0.240299 1.31956 0.102985C2.13764 -0.0343283 3.14603 -0.0343283 3.9641 0.102985C4.78218 0.240299 5.28533 0.494011 5.28364 0.768355Z"/>
   <path id="path4649" transform="matrix(-1 0 0 1 9.51305 11.4093)" fill="#4d4d4d" stroke="#1a1a1a" stroke-width="0.25000000000" stroke-linecap="round" stroke-linejoin="miter" stroke-miterlimit="2.00000000000" d="M5.28364 0.768355C5.28533 1.0427 4.78218 1.29641 3.9641 1.43373C3.14603 1.57104 2.13764 1.57104 1.31956 1.43373C0.501483 1.29641 -0.00167787 1.0427 4.2042e-06 0.768355C-0.00167787 0.494011 0.501483 0.240299 1.31956 0.102985C2.13764 -0.0343283 3.14603 -0.0343283 3.9641 0.102985C4.78218 0.240299 5.28533 0.494011 5.28364 0.768355Z"/>
   <path id="path4651" transform="matrix(-1 0 0 1 9.51305 10.4304)" fill="#4d4d4d" stroke="#1a1a1a" stroke-width="0.25000000000" stroke-linecap="round" stroke-linejoin="miter" stroke-miterlimit="2.00000000000" d="M5.28364 0.768355C5.28533 1.0427 4.78218 1.29641 3.9641 1.43373C3.14603 1.57104 2.13764 1.57104 1.31956 1.43373C0.501483 1.29641 -0.00167787 1.0427 4.2042e-06 0.768355C-0.00167787 0.494011 0.501483 0.240299 1.31956 0.102985C2.13764 -0.0343283 3.14603 -0.0343283 3.9641 0.102985C4.78218 0.240299 5.28533 0.494011 5.28364 0.768355Z"/>
   <path id="path4653" transform="matrix(-1 0 0 1 9.51305 9.4515)" fill="#4d4d4d" stroke="#1a1a1a" stroke-width="0.25000000000" stroke-linecap="round" stroke-linejoin="miter" stroke-miterlimit="2.00000000000" d="M5.28364 0.768355C5.28533 1.0427 4.78218 1.29641 3.9641 1.43373C3.14603 1.57104 2.13764 1.57104 1.31956 1.43373C0.501483 1.29641 -0.00167787 1.0427 4.2042e-06 0.768355C-0.00167787 0.494011 0.501483 0.240299 1.31956 0.102985C2.13764 -0.0343283 3.14603 -0.0343283 3.9641 0.102985C4.78218 0.240299 5.28533 0.494011 5.28364 0.768355Z"/>
   <path id="path4655" transform="matrix(-1 0 0 1 9.51305 8.39099)" fill="#4d4d4d" stroke="#1a1a1a" stroke-width="0.25000000000" stroke-linecap="round" stroke-linejoin="miter" stroke-miterlimit="2.00000000000" d="M5.28364 0.768355C5.28533 1.0427 4.78218 1.29641 3.9641 1.43373C3.14603 1.57104 2.13764 1.57104 1.31956 1.43373C0.501483 1.29641 -0.00167787 1.0427 4.2042e-06 0.768355C-0.00167787 0.494011 0.501483 0.240299 1.31956 0.102985C2.13764 -0.0343283 3.14603 -0.0343283 3.9641 0.102985C4.78218 0.240299 5.28533 0.494011 5.28364 0.768355Z"/>
   <rect id="rect4667" transform="matrix(-0.968896 0.24747 0 1 8.52223 9.17431)" fill="#ffffff" width="0.88176124506pt" height="6.24625352462pt"/>
   <path id="path4657" transform="matrix(-1 0 0 1 9.97788 2.62531)" fill="#ffffff" stroke="#1a1a1a" stroke-width="0.25000000000" stroke-linecap="round" stroke-linejoin="miter" stroke-miterlimit="2.00000000000" d="M7.25247 4.3765C7.25247 6.79357 5.62895 8.75297 3.62622 8.75297C1.62352 8.75297 0 6.79357 0 4.3765C0 1.95942 1.62352 0 3.62622 0C5.62895 0 7.25247 1.95942 7.25247 4.3765Z"/>
   <path id="path4665" transform="matrix(-1 0 0 1 8.04466 4.55395)" fill="#0000ff" d="M3.5459 1.67514C3.54741 2.27314 3.20981 2.82632 2.66064 3.12573C2.11147 3.42514 1.43444 3.42514 0.885277 3.12573C0.336111 2.82632 -0.00148481 2.27314 4.90998e-06 1.67514C-0.00148481 1.07714 0.336111 0.523962 0.885277 0.224555C1.43444 -0.0748517 2.11147 -0.0748517 2.66064 0.224555C3.20981 0.523962 3.54741 1.07714 3.5459 1.67514Z"/>
   <path id="path4663" transform="matrix(-1 0 0 1 9.70684 2.62463)" fill="#4d4d4d" stroke="#1a1a1a" stroke-width="0.25000000000" stroke-linecap="round" stroke-linejoin="miter" stroke-miterlimit="2.00000000000" d="M0 1.6503C0.697075 0.364067 2.55966 -0.297173 4.2853 0.12897C6.01097 0.55511 7.02425 1.92654 6.61661 3.28426"/>
  </g>
 </g>
</svg>
