<?xml version="1.0" encoding="UTF-8" standalone="no"?>
<!-- Created with Inkscape (http://www.inkscape.org/) -->

<svg
   xmlns:dc="http://purl.org/dc/elements/1.1/"
   xmlns:cc="http://creativecommons.org/ns#"
   xmlns:rdf="http://www.w3.org/1999/02/22-rdf-syntax-ns#"
   xmlns:svg="http://www.w3.org/2000/svg"
   xmlns="http://www.w3.org/2000/svg"
   xmlns:xlink="http://www.w3.org/1999/xlink"
   xmlns:sodipodi="http://sodipodi.sourceforge.net/DTD/sodipodi-0.dtd"
   xmlns:inkscape="http://www.inkscape.org/namespaces/inkscape"
   width="121.80611"
   height="32.197182"
   id="svg88582"
   version="1.1"
   inkscape:version="0.48.3.1 r9886"
   sodipodi:docname="anchois.svg">
  <defs
     id="defs88584">
    <linearGradient
       id="linearGradient20283">
      <stop
         id="stop20285"
         style="stop-color:#2e3436;stop-opacity:1"
         offset="0" />
      <stop
         id="stop20291"
         style="stop-color:#2e3436;stop-opacity:1"
         offset="0.94444442" />
      <stop
         id="stop20287"
         style="stop-color:#2e3436;stop-opacity:0"
         offset="1" />
    </linearGradient>
    <linearGradient
       id="linearGradient16298">
      <stop
         id="stop16300"
         style="stop-color:#ffffff;stop-opacity:1"
         offset="0" />
      <stop
         id="stop16304"
         style="stop-color:#ffffff;stop-opacity:1"
         offset="0.48148149" />
      <stop
         id="stop16302"
         style="stop-color:#d5d5d5;stop-opacity:1"
         offset="1" />
    </linearGradient>
    <linearGradient
       id="linearGradient17283">
      <stop
         id="stop17287"
         style="stop-color:#ffffff;stop-opacity:1"
         offset="0" />
      <stop
         id="stop17289"
         style="stop-color:#a0a0a0;stop-opacity:1"
         offset="1" />
    </linearGradient>
    <linearGradient
       id="linearGradient19294">
      <stop
         id="stop19296"
         style="stop-color:#eeeeee;stop-opacity:1"
         offset="0" />
      <stop
         id="stop19298"
         style="stop-color:#eeeeee;stop-opacity:0"
         offset="1" />
    </linearGradient>
    <linearGradient
       id="linearGradient25220">
      <stop
         id="stop25222"
         style="stop-color:#0e0900;stop-opacity:1"
         offset="0" />
      <stop
         id="stop25224"
         style="stop-color:#000000;stop-opacity:0"
         offset="1" />
    </linearGradient>
    <linearGradient
       inkscape:collect="always"
       xlink:href="#linearGradient22265"
       id="linearGradient88405"
       gradientUnits="userSpaceOnUse"
       gradientTransform="translate(14.205298,-13.112583)"
       x1="1756.5874"
       y1="171.69658"
       x2="1936.3234"
       y2="171.69658" />
    <linearGradient
       id="linearGradient22265">
      <stop
         id="stop22267"
         style="stop-color:#ffe5ab;stop-opacity:1"
         offset="0" />
      <stop
         id="stop22269"
         style="stop-color:#ffd066;stop-opacity:1"
         offset="1" />
    </linearGradient>
    <linearGradient
       inkscape:collect="always"
       xlink:href="#linearGradient22289"
       id="linearGradient88407"
       gradientUnits="userSpaceOnUse"
       gradientTransform="translate(14.205298,-13.112583)"
       x1="1943.3521"
       y1="244.38942"
       x2="1749.0577"
       y2="244.38942" />
    <linearGradient
       id="linearGradient22289">
      <stop
         id="stop22291"
         style="stop-color:#ffe5ab;stop-opacity:1"
         offset="0" />
      <stop
         id="stop22293"
         style="stop-color:#ffd066;stop-opacity:1"
         offset="1" />
    </linearGradient>
    <linearGradient
       x1="1620.1665"
       y1="153.53275"
       x2="1740.6202"
       y2="76.458107"
       id="linearGradient52938"
       xlink:href="#linearGradient35808"
       gradientUnits="userSpaceOnUse"
       gradientTransform="matrix(0.2192224,0,0,0.2192224,467.76125,433.92295)" />
    <linearGradient
       id="linearGradient35808">
      <stop
         id="stop35810"
         style="stop-color:#edd267;stop-opacity:1"
         offset="0" />
      <stop
         id="stop35812"
         style="stop-color:#f7ebb9;stop-opacity:1"
         offset="1" />
    </linearGradient>
    <radialGradient
       cx="1799.7832"
       cy="10.142007"
       r="20.5"
       fx="1799.7832"
       fy="10.142007"
       id="radialGradient52935"
       xlink:href="#linearGradient36820"
       gradientUnits="userSpaceOnUse"
       gradientTransform="matrix(0.6956058,0.06618883,-0.01584782,0.1491426,-410.36027,329.52691)" />
    <linearGradient
       id="linearGradient36820">
      <stop
         id="stop36822"
         style="stop-color:#ffffff;stop-opacity:1"
         offset="0" />
      <stop
         id="stop36824"
         style="stop-color:#fff6c8;stop-opacity:0"
         offset="1" />
    </linearGradient>
    <radialGradient
       cx="1799.7832"
       cy="10.142007"
       r="20.5"
       fx="1799.7832"
       fy="10.142007"
       id="radialGradient52932"
       xlink:href="#linearGradient36820"
       gradientUnits="userSpaceOnUse"
       gradientTransform="matrix(0.4061069,0.0386422,-0.00925224,0.08707209,90.25236,379.61082)" />
    <linearGradient
       id="linearGradient88766">
      <stop
         id="stop88768"
         style="stop-color:#ffffff;stop-opacity:1"
         offset="0" />
      <stop
         id="stop88770"
         style="stop-color:#fff6c8;stop-opacity:0"
         offset="1" />
    </linearGradient>
    <radialGradient
       cx="1799.7832"
       cy="10.142007"
       r="20.5"
       fx="1799.7832"
       fy="10.142007"
       id="radialGradient52929"
       xlink:href="#linearGradient36820"
       gradientUnits="userSpaceOnUse"
       gradientTransform="matrix(0.6210379,0.05909348,-0.01414896,0.1331548,-302.03672,335.01426)" />
    <linearGradient
       id="linearGradient88773">
      <stop
         id="stop88775"
         style="stop-color:#ffffff;stop-opacity:1"
         offset="0" />
      <stop
         id="stop88777"
         style="stop-color:#fff6c8;stop-opacity:0"
         offset="1" />
    </linearGradient>
    <radialGradient
       cx="1799.7832"
       cy="10.142007"
       r="20.5"
       fx="1799.7832"
       fy="10.142007"
       id="radialGradient52926"
       xlink:href="#linearGradient36820"
       gradientUnits="userSpaceOnUse"
       gradientTransform="matrix(0.5839476,0.05556424,-0.01330394,0.1252024,-198.88443,364.7451)" />
    <linearGradient
       id="linearGradient88780">
      <stop
         id="stop88782"
         style="stop-color:#ffffff;stop-opacity:1"
         offset="0" />
      <stop
         id="stop88784"
         style="stop-color:#fff6c8;stop-opacity:0"
         offset="1" />
    </linearGradient>
    <radialGradient
       cx="1799.7832"
       cy="10.142007"
       r="20.5"
       fx="1799.7832"
       fy="10.142007"
       id="radialGradient52923"
       xlink:href="#linearGradient36820"
       gradientUnits="userSpaceOnUse"
       gradientTransform="matrix(0.4257652,0.04051274,-0.00970011,0.09128697,69.104106,396.03332)" />
    <linearGradient
       id="linearGradient88787">
      <stop
         id="stop88789"
         style="stop-color:#ffffff;stop-opacity:1"
         offset="0" />
      <stop
         id="stop88791"
         style="stop-color:#fff6c8;stop-opacity:0"
         offset="1" />
    </linearGradient>
    <radialGradient
       cx="1799.7832"
       cy="10.142007"
       r="20.5"
       fx="1799.7832"
       fy="10.142007"
       id="radialGradient52920"
       xlink:href="#linearGradient36820"
       gradientUnits="userSpaceOnUse"
       gradientTransform="matrix(0.33892,0.03224917,-0.00772153,0.07266677,254.85904,420.34395)" />
    <linearGradient
       id="linearGradient88794">
      <stop
         id="stop88796"
         style="stop-color:#ffffff;stop-opacity:1"
         offset="0" />
      <stop
         id="stop88798"
         style="stop-color:#fff6c8;stop-opacity:0"
         offset="1" />
    </linearGradient>
    <radialGradient
       cx="1799.7832"
       cy="10.142007"
       r="20.5"
       fx="1799.7832"
       fy="10.142007"
       id="radialGradient52917"
       xlink:href="#linearGradient36820"
       gradientUnits="userSpaceOnUse"
       gradientTransform="matrix(0.1919594,0.01826546,-0.00437336,0.0411574,491.47807,457.64488)" />
    <linearGradient
       id="linearGradient88801">
      <stop
         id="stop88803"
         style="stop-color:#ffffff;stop-opacity:1"
         offset="0" />
      <stop
         id="stop88805"
         style="stop-color:#fff6c8;stop-opacity:0"
         offset="1" />
    </linearGradient>
    <linearGradient
       x1="3600.9512"
       y1="479.62402"
       x2="3621.1167"
       y2="474.67426"
       id="linearGradient59246"
       xlink:href="#linearGradient11856"
       gradientUnits="userSpaceOnUse"
       gradientTransform="matrix(0.2154586,0,0,0.2154586,41.183288,435.14213)" />
    <linearGradient
       id="linearGradient11856">
      <stop
         id="stop11858"
         style="stop-color:#e1b064;stop-opacity:1"
         offset="0" />
      <stop
         id="stop11860"
         style="stop-color:#ffdb46;stop-opacity:1"
         offset="1" />
    </linearGradient>
    <linearGradient
       x1="3679.5046"
       y1="477.16159"
       x2="3695.8601"
       y2="451.5097"
       id="linearGradient59243"
       xlink:href="#linearGradient12833"
       gradientUnits="userSpaceOnUse"
       gradientTransform="matrix(0.2154586,0,0,0.2154586,28.538043,428.59098)" />
    <linearGradient
       id="linearGradient12833">
      <stop
         id="stop12835"
         style="stop-color:#d58e22;stop-opacity:1"
         offset="0" />
      <stop
         id="stop12837"
         style="stop-color:#f7d600;stop-opacity:1"
         offset="1" />
    </linearGradient>
    <linearGradient
       x1="3519.7334"
       y1="510.01028"
       x2="3565.0366"
       y2="510.01028"
       id="linearGradient59240"
       xlink:href="#linearGradient13810"
       gradientUnits="userSpaceOnUse"
       gradientTransform="matrix(0.2154586,0,0,0.2154586,51.824975,439.4022)" />
    <linearGradient
       id="linearGradient13810">
      <stop
         id="stop13812"
         style="stop-color:#fff896;stop-opacity:1"
         offset="0" />
      <stop
         id="stop13814"
         style="stop-color:#debd75;stop-opacity:1"
         offset="1" />
    </linearGradient>
    <linearGradient
       x1="3535.3164"
       y1="386.65253"
       x2="3561.696"
       y2="386.65253"
       id="linearGradient59237"
       xlink:href="#linearGradient10879"
       gradientUnits="userSpaceOnUse"
       gradientTransform="matrix(0.2154586,0,0,0.2154586,44.839753,447.02561)" />
    <linearGradient
       id="linearGradient10879">
      <stop
         id="stop10881"
         style="stop-color:#fdcc69;stop-opacity:1"
         offset="0" />
      <stop
         id="stop10883"
         style="stop-color:#fdf044;stop-opacity:1"
         offset="1" />
    </linearGradient>
    <linearGradient
       x1="3679.5046"
       y1="477.16159"
       x2="3695.8601"
       y2="451.5097"
       id="linearGradient59234"
       xlink:href="#linearGradient12833"
       gradientUnits="userSpaceOnUse"
       gradientTransform="matrix(0.2154586,0,0,0.2154586,32.308595,429.66828)" />
    <linearGradient
       id="linearGradient88956">
      <stop
         id="stop88958"
         style="stop-color:#d58e22;stop-opacity:1"
         offset="0" />
      <stop
         id="stop88960"
         style="stop-color:#f7d600;stop-opacity:1"
         offset="1" />
    </linearGradient>
    <linearGradient
       x1="3519.7334"
       y1="510.01028"
       x2="3565.0366"
       y2="510.01028"
       id="linearGradient59231"
       xlink:href="#linearGradient13810"
       gradientUnits="userSpaceOnUse"
       gradientTransform="matrix(0.2154586,0,0,0.2154586,61.520633,415.91721)" />
    <linearGradient
       id="linearGradient88963">
      <stop
         id="stop88965"
         style="stop-color:#fff896;stop-opacity:1"
         offset="0" />
      <stop
         id="stop88967"
         style="stop-color:#debd75;stop-opacity:1"
         offset="1" />
    </linearGradient>
    <linearGradient
       x1="3535.3164"
       y1="386.65253"
       x2="3561.696"
       y2="386.65253"
       id="linearGradient59228"
       xlink:href="#linearGradient10879"
       gradientUnits="userSpaceOnUse"
       gradientTransform="matrix(0.2154586,0,0,0.2154586,64.877402,456.39806)" />
    <linearGradient
       id="linearGradient88970">
      <stop
         id="stop88972"
         style="stop-color:#fdcc69;stop-opacity:1"
         offset="0" />
      <stop
         id="stop88974"
         style="stop-color:#fdf044;stop-opacity:1"
         offset="1" />
    </linearGradient>
    <linearGradient
       x1="3600.9512"
       y1="479.62402"
       x2="3621.1167"
       y2="474.67426"
       id="linearGradient59225"
       xlink:href="#linearGradient11856"
       gradientUnits="userSpaceOnUse"
       gradientTransform="matrix(0,0.2154586,-0.2154586,0,931.05158,-246.81955)" />
    <linearGradient
       id="linearGradient88977">
      <stop
         id="stop88979"
         style="stop-color:#e1b064;stop-opacity:1"
         offset="0" />
      <stop
         id="stop88981"
         style="stop-color:#ffdb46;stop-opacity:1"
         offset="1" />
    </linearGradient>
    <linearGradient
       x1="3600.9512"
       y1="479.62402"
       x2="3621.1167"
       y2="474.67426"
       id="linearGradient59222"
       xlink:href="#linearGradient11856"
       gradientUnits="userSpaceOnUse"
       gradientTransform="matrix(0,-0.2154586,0.2154586,0,706.5238,1311.2211)" />
    <linearGradient
       id="linearGradient88984">
      <stop
         id="stop88986"
         style="stop-color:#e1b064;stop-opacity:1"
         offset="0" />
      <stop
         id="stop88988"
         style="stop-color:#ffdb46;stop-opacity:1"
         offset="1" />
    </linearGradient>
    <linearGradient
       x1="3519.7334"
       y1="510.01028"
       x2="3565.0366"
       y2="510.01028"
       id="linearGradient59219"
       xlink:href="#linearGradient13810"
       gradientUnits="userSpaceOnUse"
       gradientTransform="matrix(0,-0.2154586,0.2154586,0,704.00853,1301.0815)" />
    <linearGradient
       id="linearGradient88991">
      <stop
         id="stop88993"
         style="stop-color:#fff896;stop-opacity:1"
         offset="0" />
      <stop
         id="stop88995"
         style="stop-color:#debd75;stop-opacity:1"
         offset="1" />
    </linearGradient>
    <linearGradient
       x1="3535.3164"
       y1="386.65253"
       x2="3561.696"
       y2="386.65253"
       id="linearGradient59216"
       xlink:href="#linearGradient10879"
       gradientUnits="userSpaceOnUse"
       gradientTransform="matrix(0,-0.2154586,0.2154586,0,745.51808,1303.5801)" />
    <linearGradient
       id="linearGradient88998">
      <stop
         id="stop89000"
         style="stop-color:#fdcc69;stop-opacity:1"
         offset="0" />
      <stop
         id="stop89002"
         style="stop-color:#fdf044;stop-opacity:1"
         offset="1" />
    </linearGradient>
    <linearGradient
       x1="3679.5046"
       y1="477.16159"
       x2="3695.8601"
       y2="451.5097"
       id="linearGradient59213"
       xlink:href="#linearGradient12833"
       gradientUnits="userSpaceOnUse"
       gradientTransform="matrix(-0.2154586,0,0,-0.2154586,1608.8055,641.71221)" />
    <linearGradient
       id="linearGradient89005">
      <stop
         id="stop89007"
         style="stop-color:#d58e22;stop-opacity:1"
         offset="0" />
      <stop
         id="stop89009"
         style="stop-color:#f7d600;stop-opacity:1"
         offset="1" />
    </linearGradient>
    <linearGradient
       x1="3679.5046"
       y1="477.16159"
       x2="3695.8601"
       y2="451.5097"
       id="linearGradient59209"
       xlink:href="#linearGradient12833"
       gradientUnits="userSpaceOnUse"
       gradientTransform="matrix(-0.2154586,0,0,-0.2154586,1624.3186,637.72622)" />
    <linearGradient
       id="linearGradient89012">
      <stop
         id="stop89014"
         style="stop-color:#d58e22;stop-opacity:1"
         offset="0" />
      <stop
         id="stop89016"
         style="stop-color:#f7d600;stop-opacity:1"
         offset="1" />
    </linearGradient>
    <linearGradient
       x1="3535.3164"
       y1="386.65253"
       x2="3561.696"
       y2="386.65253"
       id="linearGradient59206"
       xlink:href="#linearGradient10879"
       gradientUnits="userSpaceOnUse"
       gradientTransform="matrix(-0.2154586,0,0,-0.2154586,1575.1594,622.63121)" />
    <linearGradient
       id="linearGradient89019">
      <stop
         id="stop89021"
         style="stop-color:#fdcc69;stop-opacity:1"
         offset="0" />
      <stop
         id="stop89023"
         style="stop-color:#fdf044;stop-opacity:1"
         offset="1" />
    </linearGradient>
    <linearGradient
       x1="3535.3164"
       y1="386.65253"
       x2="3561.696"
       y2="386.65253"
       id="linearGradient59203"
       xlink:href="#linearGradient10879"
       gradientUnits="userSpaceOnUse"
       gradientTransform="matrix(0,0.2154586,-0.2154586,0,893.76466,-236.29333)" />
    <linearGradient
       id="linearGradient89026">
      <stop
         id="stop89028"
         style="stop-color:#fdcc69;stop-opacity:1"
         offset="0" />
      <stop
         id="stop89030"
         style="stop-color:#fdf044;stop-opacity:1"
         offset="1" />
    </linearGradient>
    <linearGradient
       x1="3679.5046"
       y1="477.16159"
       x2="3695.8601"
       y2="451.5097"
       id="linearGradient59200"
       xlink:href="#linearGradient12833"
       gradientUnits="userSpaceOnUse"
       gradientTransform="matrix(0,-0.2154586,-0.2154586,0,926.95719,1314.9444)" />
    <linearGradient
       id="linearGradient89033">
      <stop
         id="stop89035"
         style="stop-color:#d58e22;stop-opacity:1"
         offset="0" />
      <stop
         id="stop89037"
         style="stop-color:#f7d600;stop-opacity:1"
         offset="1" />
    </linearGradient>
    <linearGradient
       x1="3679.5046"
       y1="477.16159"
       x2="3695.8601"
       y2="451.5097"
       id="linearGradient59197"
       xlink:href="#linearGradient12833"
       gradientUnits="userSpaceOnUse"
       gradientTransform="matrix(0,-0.2154586,-0.2154586,0,906.16543,1322.0545)" />
    <linearGradient
       id="linearGradient89040">
      <stop
         id="stop89042"
         style="stop-color:#d58e22;stop-opacity:1"
         offset="0" />
      <stop
         id="stop89044"
         style="stop-color:#f7d600;stop-opacity:1"
         offset="1" />
    </linearGradient>
    <linearGradient
       x1="3519.7334"
       y1="510.01028"
       x2="3565.0366"
       y2="510.01028"
       id="linearGradient59194"
       xlink:href="#linearGradient13810"
       gradientUnits="userSpaceOnUse"
       gradientTransform="matrix(0,-0.2154586,-0.2154586,0,920.53255,1284.4083)" />
    <linearGradient
       id="linearGradient89047">
      <stop
         id="stop89049"
         style="stop-color:#fff896;stop-opacity:1"
         offset="0" />
      <stop
         id="stop89051"
         style="stop-color:#debd75;stop-opacity:1"
         offset="1" />
    </linearGradient>
    <linearGradient
       x1="3535.3164"
       y1="386.65253"
       x2="3561.696"
       y2="386.65253"
       id="linearGradient59191"
       xlink:href="#linearGradient10879"
       gradientUnits="userSpaceOnUse"
       gradientTransform="matrix(0,-0.2154586,0.2154586,0,751.14782,1298.2269)" />
    <linearGradient
       id="linearGradient89054">
      <stop
         id="stop89056"
         style="stop-color:#fdcc69;stop-opacity:1"
         offset="0" />
      <stop
         id="stop89058"
         style="stop-color:#fdf044;stop-opacity:1"
         offset="1" />
    </linearGradient>
    <linearGradient
       x1="3600.9512"
       y1="479.62402"
       x2="3621.1167"
       y2="474.67426"
       id="linearGradient59188"
       xlink:href="#linearGradient11856"
       gradientUnits="userSpaceOnUse"
       gradientTransform="matrix(-0.2154586,0,0,-0.2154586,1614.2261,632.09356)" />
    <linearGradient
       id="linearGradient89061">
      <stop
         id="stop89063"
         style="stop-color:#e1b064;stop-opacity:1"
         offset="0" />
      <stop
         id="stop89065"
         style="stop-color:#ffdb46;stop-opacity:1"
         offset="1" />
    </linearGradient>
    <linearGradient
       x1="3519.7334"
       y1="510.01028"
       x2="3565.0366"
       y2="510.01028"
       id="linearGradient59185"
       xlink:href="#linearGradient13810"
       gradientUnits="userSpaceOnUse"
       gradientTransform="matrix(-0.2154586,0,0,-0.2154586,1585.7609,630.98258)" />
    <linearGradient
       id="linearGradient89068">
      <stop
         id="stop89070"
         style="stop-color:#fff896;stop-opacity:1"
         offset="0" />
      <stop
         id="stop89072"
         style="stop-color:#debd75;stop-opacity:1"
         offset="1" />
    </linearGradient>
    <linearGradient
       x1="3535.3164"
       y1="386.65253"
       x2="3561.696"
       y2="386.65253"
       id="linearGradient59182"
       xlink:href="#linearGradient10879"
       gradientUnits="userSpaceOnUse"
       gradientTransform="matrix(0,0.2154586,-0.2154586,0,916.55596,-247.20167)" />
    <linearGradient
       id="linearGradient89075">
      <stop
         id="stop89077"
         style="stop-color:#fdcc69;stop-opacity:1"
         offset="0" />
      <stop
         id="stop89079"
         style="stop-color:#fdf044;stop-opacity:1"
         offset="1" />
    </linearGradient>
    <linearGradient
       x1="3535.3164"
       y1="386.65253"
       x2="3561.696"
       y2="386.65253"
       id="linearGradient59179"
       xlink:href="#linearGradient10879"
       gradientUnits="userSpaceOnUse"
       gradientTransform="matrix(0.2154586,0,0,0.2154586,68.838159,452.43324)" />
    <linearGradient
       id="linearGradient89082">
      <stop
         id="stop89084"
         style="stop-color:#fdcc69;stop-opacity:1"
         offset="0" />
      <stop
         id="stop89086"
         style="stop-color:#fdf044;stop-opacity:1"
         offset="1" />
    </linearGradient>
    <linearGradient
       x1="3679.5046"
       y1="477.16159"
       x2="3695.8601"
       y2="451.5097"
       id="linearGradient59176"
       xlink:href="#linearGradient12833"
       gradientUnits="userSpaceOnUse"
       gradientTransform="matrix(-0.2154586,0,0,0.2154586,1615.4211,418.19572)" />
    <linearGradient
       id="linearGradient89089">
      <stop
         id="stop89091"
         style="stop-color:#d58e22;stop-opacity:1"
         offset="0" />
      <stop
         id="stop89093"
         style="stop-color:#f7d600;stop-opacity:1"
         offset="1" />
    </linearGradient>
    <linearGradient
       x1="3519.7334"
       y1="510.01028"
       x2="3565.0366"
       y2="510.01028"
       id="linearGradient59173"
       xlink:href="#linearGradient13810"
       gradientUnits="userSpaceOnUse"
       gradientTransform="matrix(-0.2154586,0,0,0.2154586,1603.8799,424.80587)" />
    <linearGradient
       id="linearGradient89096">
      <stop
         id="stop89098"
         style="stop-color:#fff896;stop-opacity:1"
         offset="0" />
      <stop
         id="stop89100"
         style="stop-color:#debd75;stop-opacity:1"
         offset="1" />
    </linearGradient>
    <linearGradient
       x1="13491.368"
       y1="1938.1815"
       x2="15136"
       y2="1938.1815"
       id="linearGradient64495"
       xlink:href="#linearGradient31716"
       gradientUnits="userSpaceOnUse"
       gradientTransform="matrix(0.01825592,0,0,0.01825592,628.88371,499.3906)" />
    <linearGradient
       id="linearGradient31716">
      <stop
         id="stop31718"
         style="stop-color:#7a9c23;stop-opacity:1"
         offset="0" />
      <stop
         id="stop31724"
         style="stop-color:#c4e27a;stop-opacity:1"
         offset="0.37294239" />
      <stop
         id="stop31726"
         style="stop-color:#5b741a;stop-opacity:1"
         offset="0.80555558" />
      <stop
         id="stop31720"
         style="stop-color:#7a9c23;stop-opacity:1"
         offset="1" />
    </linearGradient>
    <linearGradient
       x1="14161.684"
       y1="716.30103"
       x2="14161.684"
       y2="2113.5439"
       id="linearGradient64492"
       xlink:href="#linearGradient39525"
       gradientUnits="userSpaceOnUse"
       gradientTransform="matrix(0.01825592,0,0,0.01825592,628.88371,499.3906)" />
    <linearGradient
       id="linearGradient39525">
      <stop
         id="stop39527"
         style="stop-color:#000000;stop-opacity:1"
         offset="0" />
      <stop
         id="stop39531"
         style="stop-color:#382509;stop-opacity:0"
         offset="1" />
    </linearGradient>
    <linearGradient
       x1="14283.332"
       y1="1893.1379"
       x2="14701.984"
       y2="1893.1379"
       id="linearGradient64489"
       xlink:href="#linearGradient31716"
       gradientUnits="userSpaceOnUse"
       gradientTransform="matrix(0.01825592,0,0,0.01825592,628.88371,499.3906)" />
    <linearGradient
       id="linearGradient89504">
      <stop
         id="stop89506"
         style="stop-color:#7a9c23;stop-opacity:1"
         offset="0" />
      <stop
         id="stop89508"
         style="stop-color:#c4e27a;stop-opacity:1"
         offset="0.37294239" />
      <stop
         id="stop89510"
         style="stop-color:#5b741a;stop-opacity:1"
         offset="0.80555558" />
      <stop
         id="stop89512"
         style="stop-color:#7a9c23;stop-opacity:1"
         offset="1" />
    </linearGradient>
    <linearGradient
       x1="13568"
       y1="1678.6846"
       x2="13843.862"
       y2="1678.6846"
       id="linearGradient64481"
       xlink:href="#linearGradient31716"
       gradientUnits="userSpaceOnUse"
       gradientTransform="matrix(0.01825592,0,0,0.01825592,628.88371,499.3906)" />
    <linearGradient
       id="linearGradient89515">
      <stop
         id="stop89517"
         style="stop-color:#7a9c23;stop-opacity:1"
         offset="0" />
      <stop
         id="stop89519"
         style="stop-color:#c4e27a;stop-opacity:1"
         offset="0.37294239" />
      <stop
         id="stop89521"
         style="stop-color:#5b741a;stop-opacity:1"
         offset="0.80555558" />
      <stop
         id="stop89523"
         style="stop-color:#7a9c23;stop-opacity:1"
         offset="1" />
    </linearGradient>
    <linearGradient
       x1="835.09851"
       y1="508.03287"
       x2="723.00085"
       y2="502.16867"
       id="linearGradient59604"
       xlink:href="#linearGradient30407"
       gradientUnits="userSpaceOnUse"
       gradientTransform="matrix(0.5760782,0,0,0.5760782,426.22222,285.42817)" />
    <linearGradient
       id="linearGradient30407">
      <stop
         id="stop30409"
         style="stop-color:#d54212;stop-opacity:1"
         offset="0" />
      <stop
         id="stop30411"
         style="stop-color:#ffbd96;stop-opacity:1"
         offset="1" />
    </linearGradient>
    <linearGradient
       x1="775.34796"
       y1="496.18884"
       x2="777.44806"
       y2="515.07336"
       id="linearGradient59601"
       xlink:href="#linearGradient30407"
       gradientUnits="userSpaceOnUse"
       gradientTransform="matrix(0.5760782,0,0,0.5760782,425.91671,284.58152)" />
    <linearGradient
       id="linearGradient89650">
      <stop
         id="stop89652"
         style="stop-color:#d54212;stop-opacity:1"
         offset="0" />
      <stop
         id="stop89654"
         style="stop-color:#ffbd96;stop-opacity:1"
         offset="1" />
    </linearGradient>
    <linearGradient
       x1="771.75"
       y1="499.61374"
       x2="771.75"
       y2="495.10199"
       id="linearGradient59598"
       xlink:href="#linearGradient31386"
       gradientUnits="userSpaceOnUse"
       gradientTransform="matrix(0.5760782,0,0,0.5760782,426.06073,289.04613)" />
    <linearGradient
       id="linearGradient31386">
      <stop
         id="stop31388"
         style="stop-color:#ffd9b0;stop-opacity:1"
         offset="0" />
      <stop
         id="stop31390"
         style="stop-color:#ffd9b0;stop-opacity:0"
         offset="1" />
    </linearGradient>
    <linearGradient
       x1="729.39703"
       y1="436.1199"
       x2="731.32874"
       y2="371.60226"
       id="linearGradient42767"
       xlink:href="#linearGradient10146"
       gradientUnits="userSpaceOnUse"
       gradientTransform="matrix(0.6732921,0,0,0.6732921,774.99249,-99.341145)" />
    <linearGradient
       id="linearGradient10146">
      <stop
         id="stop10148"
         style="stop-color:#d5675f;stop-opacity:1"
         offset="0" />
      <stop
         id="stop10150"
         style="stop-color:#cb4137;stop-opacity:1"
         offset="1" />
    </linearGradient>
    <linearGradient
       x1="744.27649"
       y1="256.21564"
       x2="1417.1058"
       y2="573.02209"
       id="linearGradient42769"
       xlink:href="#linearGradient11123"
       gradientUnits="userSpaceOnUse"
       gradientTransform="matrix(0.6732921,0,0,0.6732921,774.99249,-99.341145)" />
    <linearGradient
       id="linearGradient11123">
      <stop
         id="stop11125"
         style="stop-color:#ffffff;stop-opacity:1"
         offset="0" />
      <stop
         id="stop11127"
         style="stop-color:#ffffff;stop-opacity:0"
         offset="1" />
    </linearGradient>
    <linearGradient
       x1="615.56885"
       y1="403.24121"
       x2="1008.212"
       y2="528.9035"
       id="linearGradient42771"
       xlink:href="#linearGradient13084"
       gradientUnits="userSpaceOnUse"
       gradientTransform="matrix(0.6732921,0,0,0.6732921,774.99249,-99.341145)" />
    <linearGradient
       id="linearGradient13084">
      <stop
         id="stop13086"
         style="stop-color:#ffffff;stop-opacity:1"
         offset="0" />
      <stop
         id="stop13088"
         style="stop-color:#ffffff;stop-opacity:0"
         offset="1" />
    </linearGradient>
  </defs>
  <sodipodi:namedview
     id="base"
     pagecolor="#ffffff"
     bordercolor="#666666"
     borderopacity="1.0"
     inkscape:pageopacity="0.0"
     inkscape:pageshadow="2"
     inkscape:zoom="0.35"
     inkscape:cx="209.50158"
     inkscape:cy="-16.833408"
     inkscape:document-units="px"
     inkscape:current-layer="layer1"
     showgrid="false"
     fit-margin-top="0"
     fit-margin-left="0"
     fit-margin-right="0"
     fit-margin-bottom="0"
     inkscape:window-width="604"
     inkscape:window-height="407"
     inkscape:window-x="-2"
     inkscape:window-y="0"
     inkscape:window-maximized="0" />
  <metadata
     id="metadata88587">
    <rdf:RDF>
      <cc:Work
         rdf:about="">
        <dc:format>image/svg+xml</dc:format>
        <dc:type
           rdf:resource="http://purl.org/dc/dcmitype/StillImage" />
        <dc:title></dc:title>
      </cc:Work>
    </rdf:RDF>
  </metadata>
  <g
     inkscape:label="Ebene 1"
     inkscape:groupmode="layer"
     id="layer1"
     transform="translate(-140.49842,-483.33159)">
    <g
       transform="matrix(1.2599721,0,0,1.2599721,-836.73283,-261.48926)"
       id="bacon">
      <g
         transform="matrix(0.3647274,0,0,0.3647274,392.29533,394.33772)"
         id="g23160">
        <g
           transform="translate(-142.8498,406.29141)"
           id="g42756">
          <path
             d="m 1206.7835,138.07205 13.3959,3.3815 15.9971,-3.3815 20.419,3.12138 c 0,0 4.2269,-1.8208 8.974,-3.12138 4.7471,-1.30058 2.6662,-2.08092 10.0144,-2.08092 7.3483,0 9.6893,0.58526 19.3786,2.08092 9.6893,1.49567 19.3786,3.90173 19.3786,3.90173 l 10.0144,-3.90173 18.3381,-2.08092 11.0549,2.08092 15.4769,2.86126 13.9161,-2.86126 14.6965,0 11.0549,4.16184 18.3381,-4.16184 14.6965,0 c 3.6026,0 5.2934,3.27095 7.6442,5.62174 2.3508,2.35079 5.3616,3.78143 5.3616,7.38402 l 3.9017,11.44506 -3.9017,24.45082 c 0,3.60259 -0.5088,8.74252 -3.801,9.20482 -8.3134,1.16738 -5.6022,3.80093 -9.2048,3.80093 l -14.9566,-3.12139 -14.4364,3.12139 -8.9739,-3.3815 c 0,0 -11.25,1.69075 -20.4191,3.3815 -9.169,1.69075 -8.9089,3.38149 -16.2572,3.38149 -7.3482,0 -5.2673,-1.95086 -13.1358,-3.38149 -7.8685,-1.43064 -10.9898,-2.34104 -18.3381,-2.34104 -7.3482,0 -5.0722,3.05635 -11.0549,2.34104 -5.9826,-0.71532 -12.8757,-5.2023 -12.8757,-5.2023 l -16.5173,5.2023 -10.5346,3.12138 c 0,0 -12.0954,-1.56069 -18.8584,-3.12138 -6.763,-1.5607 -0.8454,-3.12139 -8.1936,-3.12139 -7.3483,0 -11.8353,2.9263 -21.1994,3.12139 -9.3641,0.19508 -16.2572,-2.34104 -16.2572,-2.34104 l -13.656,2.86127 c -3.6026,0 -6.3338,-1.97038 -8.6846,-4.32116 -2.3508,-2.3508 -3.801,-5.60223 -3.801,-9.20482 l 2.8613,-16.90748 -2.8613,-18.9884 c 0,-3.60259 1.4502,-6.85404 3.801,-9.20483 2.3508,-2.35079 5.6022,-3.80093 9.2048,-3.80093 z"
             id="path15182"
             style="fill:#bc0000;fill-opacity:1;fill-rule:nonzero;stroke:none"
             inkscape:connector-curvature="0" />
          <path
             d="m 1206.7835,135.37888 13.3959,3.3815 15.9971,-3.3815 20.419,3.12139 c 0,0 4.2269,-1.82081 8.974,-3.12139 4.7471,-1.30058 2.6662,-2.08092 10.0144,-2.08092 7.3483,0 9.6893,0.58526 19.3786,2.08092 9.6893,1.49567 19.3786,3.90173 19.3786,3.90173 l 10.0144,-3.90173 18.3381,-2.08092 11.0549,2.08092 15.4769,2.86127 13.9161,-2.86127 14.6965,0 11.0549,4.16184 18.3381,-4.16184 14.6965,0 c 3.6026,0 5.2934,3.27095 7.6442,5.62174 2.3508,2.35079 5.3616,3.78143 5.3616,7.38402 l 3.9017,11.44506 -3.9017,24.45082 c 0,3.60259 -0.5088,8.74252 -3.801,9.20482 -8.3134,1.16739 -5.6022,3.80093 -9.2048,3.80093 l -14.9566,-3.12139 -14.4364,3.12139 -8.9739,-3.3815 c 0,0 -11.25,1.69075 -20.4191,3.3815 -9.169,1.69075 -8.9089,3.38149 -16.2572,3.38149 -7.3482,0 -5.2673,-1.95086 -13.1358,-3.38149 -7.8685,-1.43063 -10.9898,-2.34104 -18.3381,-2.34104 -7.3482,0 -5.0722,3.05636 -11.0549,2.34104 -5.9826,-0.71532 -12.8757,-5.2023 -12.8757,-5.2023 l -16.5173,5.2023 -10.5346,3.12138 c 0,0 -12.0954,-1.56069 -18.8584,-3.12138 -6.763,-1.56069 -0.8454,-3.12139 -8.1936,-3.12139 -7.3483,0 -11.8353,2.9263 -21.1994,3.12139 -9.3641,0.19508 -16.2572,-2.34104 -16.2572,-2.34104 l -13.656,2.86127 c -3.6026,0 -6.3338,-1.97038 -8.6846,-4.32116 -2.3508,-2.35079 -3.801,-5.60223 -3.801,-9.20482 l 2.8613,-16.90748 -2.8613,-18.9884 c 0,-3.60259 1.4502,-6.85404 3.801,-9.20483 2.3508,-2.35078 5.6022,-3.80093 9.2048,-3.80093 z"
             id="path15184"
             style="fill:url(#linearGradient42767);fill-opacity:1;fill-rule:nonzero;stroke:none"
             inkscape:connector-curvature="0" />
          <path
             d="m 1196.5,165.5 c 1.9091,-0.11305 5.4541,-0.5 9,-0.5 3,0 6,0 9,0 2.8273,0 4.6851,-1.42128 7,-2 2.1759,-0.54397 3.5662,-1.51655 5.5,-2 2.1803,-0.54508 5.2393,0 7.5,0 2.6473,0 4.9501,-0.0125 7,0.5 4.367,1.09175 8.9666,1.98331 13,4 0.9428,0.47141 2,0.66667 3,1 1.9831,0.66104 5.3869,0 7.5,0 2.3345,0 3.8781,-2 7,-2 2.0275,0 5.8497,-2.92484 7,-3.5 1.5758,-0.78792 5.6917,0 7.5,0 2.5,0 5,0 7.5,0 5.0535,0 10.8849,2.15396 15.5,4 1.2761,0.51043 2.6667,0.66667 4,1 5.4239,1.35598 8.509,4.5 14.5,4.5 2.7381,0 5.9817,1 9,1 1.6956,0 4.4057,-1.45287 5.5,-2 0.8028,-0.40138 1.6667,-0.66666 2.5,-1 2.0284,-0.81134 4.4887,-1.12216 6,-1.5 3.4162,-0.85406 5.3484,-1.5 9,-1.5 5.7049,0 10.926,-1 17,-1 8.2644,0 15.7837,-1 24,-1 5.5,0 11,0 16.5,0 3.5,0 7,0 10.5,0 3.9312,0 7.6718,-2.29296 10.5,-3 2.5735,-0.64338 3.6786,-1 6.5,-1 2.5,0 5,0 7.5,0 2.0069,0 4.053,-0.0132 6,-0.5 0.6204,-0.15511 -2.3116,-6.12318 -2.5,-6.5 -1.09,-2.17999 -1.67,-3.085 -3.5,-4 -1.9383,-0.96917 -0.01,-3.5 -4,-3.5 -4.1548,0 -6.8641,0.28805 -10.5,1.5 -2.7698,0.92327 -7.197,0.5 -10,0.5 -4.8333,0 -9.6667,0 -14.5,0 -8.6667,0 -17.3333,0 -26,0 -3.8333,0 -7.6667,0 -11.5,0 -2.6345,0 -3.3916,-1 -6.5,-1 -2.6782,0 -10.4134,-4.46537 -13,-5.5 -4.1871,-1.67483 -7.9632,-2 -12.5,-2 -2.9407,0 -4.1821,0.42052 -6.5,1 -1.7985,0.44962 -3.2436,2.06089 -5,2.5 -4.5331,1.13327 -7.5391,2 -13,2 -7.0428,0 -11.2244,3 -18,3 -4.3751,0 -9.3674,0.5 -13,0.5 -7.0323,0 -14.3188,1 -21,1 -6.3333,0 -12.6667,0 -19,0 -3.5,0 -7,0 -10.5,0 -2.8623,0 -6.4524,0.0119 -8.5,-0.5 -4.6053,-1.15132 -9.8068,-3.45171 -14,-4.5 -2.6353,-0.65881 -4.2262,-0.38688 -6,0.5 -1.2962,0.64811 -2.6289,3.12893 -3.5,4 -1.9819,1.98195 -2.0789,2.42114 -0.5,4 2.1113,2.11135 -3.5127,5.50636 -4.5,6 -2.0563,1.02813 -3.0313,1.5313 -4.5,3 -0.8814,0.88144 -0.287,3.06503 0,4.5 z"
             id="path39833"
             style="opacity:0.45500004;fill:#945455;fill-opacity:1;fill-rule:evenodd;stroke:none"
             inkscape:connector-curvature="0" />
          <path
             d="m 1212.7452,144.18117 c -3.5239,0 -7.9196,0.0595 -10.2887,0.73641 -1.511,0.4317 -2.0473,1.42182 -3.6821,1.83051 -2.197,0.54927 -3.3521,2.55737 -4.6499,3.91351 l 1.1362,7.51142 c 0.3209,-0.002 0.5961,-0.021 0.9468,-0.021 3.3107,1e-5 6.6203,0 9.931,0 3.6981,1e-5 8.4607,-0.18005 11.7616,-1.83051 2.7088,-1.3544 6.54,-1.47283 9.5734,-1.47283 5.8857,1e-5 11.7671,0 17.6529,0 3.4704,1e-5 5.8448,1.47283 9.5523,1.47283 3.3107,0 6.6203,0 9.9311,0 4.2068,0 7.3834,2.56692 11.7826,2.56692 3.5931,0 6.4377,2.20924 9.931,2.20924 3.9666,0 6.7889,-0.65688 10.3098,-1.83051 3.0181,-1.00601 5.9865,-2.20924 9.1947,-2.20924 3.1184,1e-5 6.5095,0.33761 9.1946,-0.73641 2.0543,-0.82174 6.524,0 8.8159,0 2.2071,0 4.4206,0 6.6277,0 3.3108,0 6.6204,0 9.9311,0 3.6786,0 7.3676,0 11.0462,0 0.7928,0 1.585,0 2.3776,0 0.029,0.32577 0.2093,0.7975 0.547,1.47282 0.5448,1.08955 2.7545,2.9174 2.9457,3.68207 0.3022,1.20895 1.5957,2.22945 2.9456,2.56692 0.8498,0.21245 5.3223,1.28259 5.8913,1.85156 0.1226,0.12262 0.1895,0.31562 0.3577,0.35768 1.6362,0.40906 2.6922,1.01661 4.0608,1.47283 2.8276,0.94255 5.1324,1.27219 7.7218,2.56693 0.8659,0.43297 3.1405,0.57353 4.0398,1.47282 0.6872,0.68721 2.8063,1.1732 3.3244,2.20924 0.652,1.30407 1.0529,2.18865 2.5669,2.94566 1.3421,0.67107 1.9638,2.04794 4.0397,2.56692 1.8999,0.47498 3.6536,0.74334 5.5126,1.11514 2.3985,0.47972 3.5771,1.23098 5.5336,2.20924 0.8842,0.4421 3.8451,2.1566 4.4185,3.30334 0.7291,1.45811 1.7454,2.8606 3.3033,4.41848 1.0631,1.06307 2.0384,1.71286 3.6821,2.94565 0.9151,0.68632 2.1201,1.64152 3.3244,2.63005 0,0.004 0.017,-0.004 0.021,0 l 8.9212,-1.93571 14.9386,3.11397 c 3.6026,0 0.9022,-2.64091 9.2157,-3.80831 2.9727,-0.41743 3.6577,-4.63097 3.7662,-8.10054 -0.8905,0 -1.781,0 -2.6721,0 -4.2763,0 -7.8363,-0.73642 -12.1403,-0.73642 -3.1702,1e-5 -10.4005,1.41694 -13.2344,0 -1.6681,-0.83402 -3.1798,-1.42616 -4.7972,-1.83051 -2.0151,-0.50376 -2.81,-0.185 -2.2092,-2.58796 0.42,-1.68035 1.5338,-1.74057 3.3243,-2.1882 1.4937,-0.37343 2.3676,-1.11515 4.4185,-1.11514 2.3147,0 5.1459,0.54929 7.3431,0 1.6247,-0.40617 3.9458,-1.43354 5.5336,-1.83052 2.183,-0.54573 2.0799,-1.06096 3.6611,-1.85155 0.8819,-0.44095 2.9136,-2.20924 4.4184,-2.20924 2.4267,1e-5 4.3595,-1.47283 6.249,-1.47283 0.8253,1e-5 1.6541,0 2.4828,0 l 1.557,-9.72065 -0.2315,-0.67329 c -2.1507,0.72363 -4.3218,1.28768 -6.3752,2.31444 -3.2172,1.6086 -7.0884,2.91499 -11.0252,4.03975 -2.49,0.71146 -5.2337,0.73641 -8.1005,0.73641 -1.013,1e-5 -4.7772,0.58825 -5.5126,0 -1.8897,-1.51174 -4.14,-2.61708 -6.27,-3.68206 -1.284,-0.64197 -3.3914,-2.65498 -4.7762,-4.03975 -0.9416,-0.94167 -3.0252,-2.3133 -4.0397,-2.56693 -0.4423,-0.11055 -0.8732,-0.2471 -1.3045,-0.37873 2.517,1e-5 5.034,0 7.5535,0 4.9463,2e-5 8.5195,-0.6938 12.4979,-1.83051 2.4048,-0.68707 6.3666,0 8.837,0 2.2899,1e-5 4.6021,1.39899 6.6277,2.20924 1.7417,0.69664 5.1304,-0.3146 6.6067,-0.73641 1.2258,-0.35022 2.5614,-0.41187 3.7452,-0.56809 l -2.1251,-6.27004 c 0,-0.22656 -0.02,-0.44061 -0.042,-0.65225 0,-0.021 0,-0.0423 0,-0.0631 -0.021,-0.17268 -0.07,-0.34247 -0.1052,-0.50497 0,-0.0135 0,-0.0286 0,-0.0421 0,-0.022 -0.016,-0.0413 -0.021,-0.0631 -0.025,-0.10724 -0.053,-0.21251 -0.084,-0.31561 -1.4337,1e-5 -2.8583,0 -4.2922,0 -2.2072,1e-5 -4.4206,0 -6.6277,0 -3.6786,1e-5 -7.3676,0 -11.0462,0 -2.575,1e-5 -5.1468,0 -7.7218,0 -2.9429,1e-5 -5.8731,0 -8.816,0 -2.907,1e-5 -6.4171,-0.35768 -9.5733,-0.35768 -4.6596,0 -9.3113,0 -13.9708,0 -4.0465,0 -8.0939,0 -12.1403,0 -5.8076,0 -11.6994,2.20924 -16.9165,2.20924 -3.4585,0 -7.0612,2.20924 -11.0462,2.20924 -8.1973,0 -13.231,-1.34546 -20.2408,-3.68207 -2.3864,-0.79545 -4.4656,-1.47283 -6.9855,-1.47283 -2.8151,0 -6.2371,-0.19759 -8.4582,0.35769 -2.1296,0.53241 -4.2518,0.97354 -6.249,1.47283 -3.9262,0.98155 -6.8149,1.85155 -11.7826,1.85155 -7.4798,1e-5 -14.9492,0 -22.429,0 -3.2847,1e-5 -5.765,-0.73641 -9.1947,-0.73641 -4.0464,0 -8.0938,0 -12.1403,0 -2.9429,0 -5.8941,0 -8.8369,0 -4.6596,0 -9.3113,0 -13.9708,0 -2.5358,0 -4.8967,0.30797 -6.9855,-0.73642 -4.0684,-2.03423 -7.3379,-3.68206 -12.519,-3.68206 z"
             id="path15186"
             style="fill:url(#linearGradient42769);fill-opacity:1;fill-rule:evenodd;stroke:none"
             inkscape:connector-curvature="0" />
          <path
             d="m 1300.9465,178.56115 c -3.9856,0 -6.6079,2.083 -10.415,2.08299 -5.8586,0 -11.978,4.32934 -17.6739,6.22795 -1.0405,0.34682 -2.0805,0.75072 -3.135,1.05202 -7.022,2.00629 -20.1801,2.71189 -26.0059,-3.11397 -6.6861,-6.68604 -15.4148,-5.72298 -24.975,-5.72299 -4.682,0 -9.3518,1e-5 -14.0339,0 -0.8671,0 -1.742,1e-5 -2.609,0 -2.4775,0 -4.9498,0 -7.4273,0 l -0.8837,5.19698 c 0,1.85169 0.3815,3.60543 1.0731,5.19697 1.1998,0 2.3981,0 3.5979,0 2.8814,0 4.9647,-1.03098 6.754,-1.03098 2.2684,0 5.4535,0.39773 7.301,-0.52601 1.7578,-0.8789 3.7755,-1.05201 6.7539,-1.05202 1.4326,0 6.7661,-0.83191 7.806,0 1.9428,1.55422 5.0873,4.66986 7.28,5.21802 1.7981,0.44953 4.7231,0.50497 7.28,0.50497 2.6011,0 5.2048,0 7.8059,0 2.6012,0 5.2049,0 7.806,0 2.6012,0 5.2048,0 7.806,0 5.1972,0 9.5932,-0.50496 14.0339,-0.50497 2.5132,0 3.6993,-0.91955 6.249,-1.55699 3.2591,-0.81476 7.4601,-1.61253 11.446,-2.60901 1.7981,-0.44953 4.7232,-0.52601 7.28,-0.52601 3.1213,0 6.2416,0 9.3629,0 4.2238,0 5.5091,1.96552 8.858,3.63999 1.8565,0.92825 5.6379,1.49286 6.754,2.60901 0.7096,0.70964 1.3464,1.29496 2.0409,1.89363 0.9452,-0.33958 2.2355,-0.58913 4.3343,-0.58913 7.3483,0 10.4788,0.90486 18.3472,2.33548 1.4658,0.2665 2.5712,0.55499 3.4717,0.84162 -0.8279,-2.22628 -2.0695,-4.38397 -3.2192,-5.53362 -1.4859,-1.48588 -4.5261,-3.63999 -7.2799,-3.63999 -1.4575,0 -6.623,-0.37401 -7.806,-1.55699 -3.1795,-3.17952 -6.3035,-3.14121 -10.415,-5.19697 -3.4907,-1.74533 -6.5048,-3.63999 -10.394,-3.63998 -2.6011,0 -5.2048,-1e-5 -7.8059,0 -3.1214,0 -6.2416,-1e-5 -9.363,0 z"
             id="path15188"
             style="fill:url(#linearGradient42771);fill-opacity:1;fill-rule:evenodd;stroke:none"
             inkscape:connector-curvature="0" />
          <path
             d="m 1283.25,158.5 c 1.9859,1.32081 3.7686,2.50933 5.75,3.5 1.422,0.71101 2.8264,1.32636 3.75,2.25 0.625,0.625 1.875,0.625 2.5,1.25 0.6617,0.6617 1.0466,1.6866 1.25,2.5 0.2961,1.18458 1.0847,2.10587 2,3.25 0.3333,0.41667 0.6667,0.83333 1,1.25 1.716,2.14496 3.5587,4.05872 5.25,5.75 0.3333,0.33333 0.6667,0.66667 1,1 0.4953,0.49533 2.2707,0.56767 3,0.75"
             id="path37891"
             style="opacity:0.79500002;fill:none;stroke:#ffffff;stroke-width:1px;stroke-linecap:butt;stroke-linejoin:miter;stroke-opacity:1"
             inkscape:connector-curvature="0" />
          <path
             d="m 1284.5,160.25 c 0.6527,0.16319 0.5,2.83673 0.5,4 0,1.76247 -0.5411,1.95887 0.75,3.25 0.7607,0.76071 0.7441,1.7265 1,2.75 0.2669,1.06778 -0.6757,2.10135 -1,2.75 -0.6018,1.20368 -0.1543,2.55869 -0.75,3.75 -0.2555,0.51097 -1.6416,1.3916 -2,1.75 -0.7649,0.76493 -0.6578,2.6973 -1.5,3.75 -0.5834,0.72927 -1.9368,0.68679 -2.5,1.25 -0.9458,0.94578 -1.5642,2.37834 -2,3.25 -0.4268,0.0244 -0.1667,0.33333 -0.25,0.5"
             id="path38862"
             style="opacity:0.76000001;fill:none;stroke:#ffffff;stroke-width:1px;stroke-linecap:butt;stroke-linejoin:miter;stroke-opacity:1"
             inkscape:connector-curvature="0" />
          <path
             d="m 1415.25,155.5 c 1.24,-0.39663 4.0495,0.38737 5.5,0.75 2.7618,0.69046 3.7059,2.75 6.5,2.75 1.6127,0 4.9286,1.41966 6.25,1.75 2.6279,0.65697 5.6971,1.72354 7.75,2.75 0.9596,0.4798 2.4644,2.47327 3.5,3.25 0.3109,0.23321 1.8251,0 2.25,0"
             id="path40814"
             style="opacity:0.575;fill:none;stroke:#ffffff;stroke-width:1px;stroke-linecap:butt;stroke-linejoin:miter;stroke-opacity:1"
             inkscape:connector-curvature="0" />
          <path
             d="m 1256.25,138.5 c 1.4958,1.30837 3.8824,2.69122 6,3.75 1.626,0.81299 4.0253,2.125 5.875,2.125 0.8046,0 2.6132,0.23821 3.125,0.75 0.7097,0.70972 2.3806,1.00557 3.25,1.875 0.9114,0.9114 2.6026,0.80707 3.625,1.625 0.4462,0.35694 1.448,0.64326 1.875,0.75 0.8269,0.20672 1.775,0.69376 2.5,0.875 0.1213,0.0303 0.25,0 0.375,0"
             id="path41785"
             style="opacity:0.7;fill:none;stroke:#ffffff;stroke-width:1px;stroke-linecap:butt;stroke-linejoin:miter;stroke-opacity:1"
             inkscape:connector-curvature="0" />
        </g>
        <path
           d="m 1195.75,593.75 c 1.7644,0.21621 3.5066,-0.003 4.5,-0.5 2.0127,-1.00635 3.7488,-0.99941 5.75,-2 2.6257,-1.31285 4.0829,-2.11096 6.75,-3 1.4264,-0.47548 1.9721,-0.75 3.75,-0.75 1.4548,0 2.1307,-0.25 3.5,-0.25 1.5742,0 3.2109,-0.42773 4.5,-0.75 1.5002,-0.37505 2.6007,-1.30035 4,-2 1.5044,-0.7522 3.9619,-1.28391 5.25,-2.25 0.4348,-0.32606 3.0647,-0.25 3.5,-0.25 1.7052,0 3.6789,0.0803 5,-0.25 0.7774,-0.19435 0.7992,-0.5 1.75,-0.5"
           id="path19276"
           style="opacity:0.67000002;fill:none;stroke:#ffffff;stroke-width:2;stroke-linecap:butt;stroke-linejoin:miter;stroke-miterlimit:4;stroke-opacity:1;stroke-dasharray:none"
           inkscape:connector-curvature="0" />
        <path
           d="m 1223,587.75 c 1.0629,-0.26572 2.0977,0.5 3.5,0.5 3.1957,0 6.3796,1.79321 9.25,2.75 0.9916,0.33052 2.6934,0 3.75,0 2.25,0 4.5,0 6.75,0 1.7573,0 2.983,-0.68325 4.25,-1 1.5087,-0.37719 2.4489,-0.44887 3.25,-1.25 0.5563,-0.55634 3.4176,0.6392 4.5,1 0.7951,0.26503 1.4357,-0.68574 1.75,-1"
           id="path20247"
           style="opacity:0.56499999;fill:none;stroke:#ffffff;stroke-width:1px;stroke-linecap:butt;stroke-linejoin:miter;stroke-opacity:1"
           inkscape:connector-curvature="0" />
        <path
           d="m 1078,545 c 1.7195,0.28001 5.958,3.54837 8,5.25 1.1129,0.92738 2.5,0.74721 2.5,2.75 0,2.40298 5.6426,5.75702 7.5,6.5"
           id="path21218"
           style="fill:none;stroke:#ffffff;stroke-width:3;stroke-linecap:butt;stroke-linejoin:miter;stroke-miterlimit:4;stroke-opacity:1;stroke-dasharray:none"
           inkscape:connector-curvature="0" />
        <path
           d="m 1091.2425,560.47472 c 0.9391,0.88005 1.0607,2.06875 1.0607,3.71231 0,1.48779 4.6935,3.38909 6.1872,4.24264 0.5579,0.3188 0.1878,3.01629 0.7071,3.53554 0.2359,0.2359 0.8442,2.29082 1.0607,2.65165 0.5327,0.88799 1.4946,2.08969 1.7677,3.18198 0.2677,1.07084 -0.1609,2.61992 -0.3535,3.0052 -0.3293,0.65857 -0.5849,1.98596 -0.7071,2.47487 -0.059,0.23571 -0.1179,0.47141 -0.1768,0.70711 -0.3315,1.32599 -0.5303,3.00003 -0.5303,4.77297 0,0.29463 0,0.58926 0,0.88389 0,0.44513 1.441,1.69947 1.7677,1.94454 0.6475,0.48559 0.8782,0.70427 1.591,1.06066 0.6926,0.34629 1.0964,2.08748 1.2374,2.65165 0.1699,0.67927 0.8219,1.39048 1.2375,1.94454 0.726,0.96798 1.1792,1.35819 1.4142,2.2981 0.1698,0.67921 0.9644,0.32194 1.2374,1.41421 0.02,0.0808 0.1179,0.11785 0.1768,0.17678"
           id="path22189"
           style="opacity:0.775;fill:none;stroke:#ffffff;stroke-width:1px;stroke-linecap:butt;stroke-linejoin:miter;stroke-opacity:1"
           inkscape:connector-curvature="0" />
      </g>
      <path
         d="m 834.25376,592.29352 c -0.20626,0.67878 0.66252,1.11843 1.18536,1.64127 0.51419,0.5142 0.9701,1.3414 1.45891,1.73245 0.41309,0.33046 0.56073,0.56075 0.82064,0.82064 0.26618,0.26617 0.27241,0.45563 0.63827,0.54709"
         id="path24185"
         style="opacity:0.83999999;fill:none;stroke:#ffffff;stroke-width:0.72945482;stroke-linecap:butt;stroke-linejoin:miter;stroke-miterlimit:4;stroke-opacity:1;stroke-dasharray:none"
         inkscape:connector-curvature="0" />
    </g>
  </g>
</svg>
