<?xml version="1.0" encoding="UTF-8" standalone="no"?>
<!-- Created with Inkscape (http://www.inkscape.org/) -->

<svg
   xmlns:dc="http://purl.org/dc/elements/1.1/"
   xmlns:cc="http://creativecommons.org/ns#"
   xmlns:rdf="http://www.w3.org/1999/02/22-rdf-syntax-ns#"
   xmlns:svg="http://www.w3.org/2000/svg"
   xmlns="http://www.w3.org/2000/svg"
   xmlns:xlink="http://www.w3.org/1999/xlink"
   xmlns:sodipodi="http://sodipodi.sourceforge.net/DTD/sodipodi-0.dtd"
   xmlns:inkscape="http://www.inkscape.org/namespaces/inkscape"
   width="92.929916"
   height="82.645271"
   id="svg88582"
   version="1.1"
   inkscape:version="0.48.3.1 r9886"
   sodipodi:docname="plate_wooden.svg">
  <defs
     id="defs88584">
    <linearGradient
       id="linearGradient20283">
      <stop
         id="stop20285"
         style="stop-color:#2e3436;stop-opacity:1"
         offset="0" />
      <stop
         id="stop20291"
         style="stop-color:#2e3436;stop-opacity:1"
         offset="0.94444442" />
      <stop
         id="stop20287"
         style="stop-color:#2e3436;stop-opacity:0"
         offset="1" />
    </linearGradient>
    <linearGradient
       id="linearGradient16298">
      <stop
         id="stop16300"
         style="stop-color:#ffffff;stop-opacity:1"
         offset="0" />
      <stop
         id="stop16304"
         style="stop-color:#ffffff;stop-opacity:1"
         offset="0.48148149" />
      <stop
         id="stop16302"
         style="stop-color:#d5d5d5;stop-opacity:1"
         offset="1" />
    </linearGradient>
    <linearGradient
       id="linearGradient17283">
      <stop
         id="stop17287"
         style="stop-color:#ffffff;stop-opacity:1"
         offset="0" />
      <stop
         id="stop17289"
         style="stop-color:#a0a0a0;stop-opacity:1"
         offset="1" />
    </linearGradient>
    <linearGradient
       id="linearGradient19294">
      <stop
         id="stop19296"
         style="stop-color:#eeeeee;stop-opacity:1"
         offset="0" />
      <stop
         id="stop19298"
         style="stop-color:#eeeeee;stop-opacity:0"
         offset="1" />
    </linearGradient>
    <radialGradient
       inkscape:collect="always"
       xlink:href="#linearGradient25220"
       id="radialGradient88403"
       gradientUnits="userSpaceOnUse"
       gradientTransform="matrix(2.008745,-1.6545937,3.8500127,4.6740734,-3666.2703,1823.3567)"
       cx="1980.6803"
       cy="485.38925"
       fx="1980.6803"
       fy="485.38925"
       r="101.6875" />
    <linearGradient
       id="linearGradient25220">
      <stop
         id="stop25222"
         style="stop-color:#0e0900;stop-opacity:1"
         offset="0" />
      <stop
         id="stop25224"
         style="stop-color:#000000;stop-opacity:0"
         offset="1" />
    </linearGradient>
    <linearGradient
       inkscape:collect="always"
       xlink:href="#linearGradient22265"
       id="linearGradient88405"
       gradientUnits="userSpaceOnUse"
       gradientTransform="translate(14.205298,-13.112583)"
       x1="1756.5874"
       y1="171.69658"
       x2="1936.3234"
       y2="171.69658" />
    <linearGradient
       id="linearGradient22265">
      <stop
         id="stop22267"
         style="stop-color:#ffe5ab;stop-opacity:1"
         offset="0" />
      <stop
         id="stop22269"
         style="stop-color:#ffd066;stop-opacity:1"
         offset="1" />
    </linearGradient>
    <linearGradient
       inkscape:collect="always"
       xlink:href="#linearGradient22289"
       id="linearGradient88407"
       gradientUnits="userSpaceOnUse"
       gradientTransform="translate(14.205298,-13.112583)"
       x1="1943.3521"
       y1="244.38942"
       x2="1749.0577"
       y2="244.38942" />
    <linearGradient
       id="linearGradient22289">
      <stop
         id="stop22291"
         style="stop-color:#ffe5ab;stop-opacity:1"
         offset="0" />
      <stop
         id="stop22293"
         style="stop-color:#ffd066;stop-opacity:1"
         offset="1" />
    </linearGradient>
    <linearGradient
       y2="171.69658"
       x2="1936.3234"
       y1="171.69658"
       x1="1756.5874"
       gradientTransform="translate(14.205298,-13.112583)"
       gradientUnits="userSpaceOnUse"
       id="linearGradient88685"
       xlink:href="#linearGradient22265"
       inkscape:collect="always" />
    <linearGradient
       y2="244.38942"
       x2="1749.0577"
       y1="244.38942"
       x1="1943.3521"
       gradientTransform="translate(14.205298,-13.112583)"
       gradientUnits="userSpaceOnUse"
       id="linearGradient88687"
       xlink:href="#linearGradient22289"
       inkscape:collect="always" />
    <linearGradient
       x1="1620.1665"
       y1="153.53275"
       x2="1740.6202"
       y2="76.458107"
       id="linearGradient52938"
       xlink:href="#linearGradient35808"
       gradientUnits="userSpaceOnUse"
       gradientTransform="matrix(0.2192224,0,0,0.2192224,467.76125,433.92295)" />
    <linearGradient
       id="linearGradient35808">
      <stop
         id="stop35810"
         style="stop-color:#edd267;stop-opacity:1"
         offset="0" />
      <stop
         id="stop35812"
         style="stop-color:#f7ebb9;stop-opacity:1"
         offset="1" />
    </linearGradient>
    <radialGradient
       cx="1799.7832"
       cy="10.142007"
       r="20.5"
       fx="1799.7832"
       fy="10.142007"
       id="radialGradient52935"
       xlink:href="#linearGradient36820"
       gradientUnits="userSpaceOnUse"
       gradientTransform="matrix(0.6956058,0.06618883,-0.01584782,0.1491426,-410.36027,329.52691)" />
    <linearGradient
       id="linearGradient36820">
      <stop
         id="stop36822"
         style="stop-color:#ffffff;stop-opacity:1"
         offset="0" />
      <stop
         id="stop36824"
         style="stop-color:#fff6c8;stop-opacity:0"
         offset="1" />
    </linearGradient>
    <radialGradient
       cx="1799.7832"
       cy="10.142007"
       r="20.5"
       fx="1799.7832"
       fy="10.142007"
       id="radialGradient52932"
       xlink:href="#linearGradient36820"
       gradientUnits="userSpaceOnUse"
       gradientTransform="matrix(0.4061069,0.0386422,-0.00925224,0.08707209,90.25236,379.61082)" />
    <linearGradient
       id="linearGradient88766">
      <stop
         id="stop88768"
         style="stop-color:#ffffff;stop-opacity:1"
         offset="0" />
      <stop
         id="stop88770"
         style="stop-color:#fff6c8;stop-opacity:0"
         offset="1" />
    </linearGradient>
    <radialGradient
       cx="1799.7832"
       cy="10.142007"
       r="20.5"
       fx="1799.7832"
       fy="10.142007"
       id="radialGradient52929"
       xlink:href="#linearGradient36820"
       gradientUnits="userSpaceOnUse"
       gradientTransform="matrix(0.6210379,0.05909348,-0.01414896,0.1331548,-302.03672,335.01426)" />
    <linearGradient
       id="linearGradient88773">
      <stop
         id="stop88775"
         style="stop-color:#ffffff;stop-opacity:1"
         offset="0" />
      <stop
         id="stop88777"
         style="stop-color:#fff6c8;stop-opacity:0"
         offset="1" />
    </linearGradient>
    <radialGradient
       cx="1799.7832"
       cy="10.142007"
       r="20.5"
       fx="1799.7832"
       fy="10.142007"
       id="radialGradient52926"
       xlink:href="#linearGradient36820"
       gradientUnits="userSpaceOnUse"
       gradientTransform="matrix(0.5839476,0.05556424,-0.01330394,0.1252024,-198.88443,364.7451)" />
    <linearGradient
       id="linearGradient88780">
      <stop
         id="stop88782"
         style="stop-color:#ffffff;stop-opacity:1"
         offset="0" />
      <stop
         id="stop88784"
         style="stop-color:#fff6c8;stop-opacity:0"
         offset="1" />
    </linearGradient>
    <radialGradient
       cx="1799.7832"
       cy="10.142007"
       r="20.5"
       fx="1799.7832"
       fy="10.142007"
       id="radialGradient52923"
       xlink:href="#linearGradient36820"
       gradientUnits="userSpaceOnUse"
       gradientTransform="matrix(0.4257652,0.04051274,-0.00970011,0.09128697,69.104106,396.03332)" />
    <linearGradient
       id="linearGradient88787">
      <stop
         id="stop88789"
         style="stop-color:#ffffff;stop-opacity:1"
         offset="0" />
      <stop
         id="stop88791"
         style="stop-color:#fff6c8;stop-opacity:0"
         offset="1" />
    </linearGradient>
    <radialGradient
       cx="1799.7832"
       cy="10.142007"
       r="20.5"
       fx="1799.7832"
       fy="10.142007"
       id="radialGradient52920"
       xlink:href="#linearGradient36820"
       gradientUnits="userSpaceOnUse"
       gradientTransform="matrix(0.33892,0.03224917,-0.00772153,0.07266677,254.85904,420.34395)" />
    <linearGradient
       id="linearGradient88794">
      <stop
         id="stop88796"
         style="stop-color:#ffffff;stop-opacity:1"
         offset="0" />
      <stop
         id="stop88798"
         style="stop-color:#fff6c8;stop-opacity:0"
         offset="1" />
    </linearGradient>
    <radialGradient
       cx="1799.7832"
       cy="10.142007"
       r="20.5"
       fx="1799.7832"
       fy="10.142007"
       id="radialGradient52917"
       xlink:href="#linearGradient36820"
       gradientUnits="userSpaceOnUse"
       gradientTransform="matrix(0.1919594,0.01826546,-0.00437336,0.0411574,491.47807,457.64488)" />
    <linearGradient
       id="linearGradient88801">
      <stop
         id="stop88803"
         style="stop-color:#ffffff;stop-opacity:1"
         offset="0" />
      <stop
         id="stop88805"
         style="stop-color:#fff6c8;stop-opacity:0"
         offset="1" />
    </linearGradient>
    <radialGradient
       r="20.5"
       fy="10.142007"
       fx="1799.7832"
       cy="10.142007"
       cx="1799.7832"
       gradientTransform="matrix(0.1919594,0.01826546,-0.00437336,0.0411574,491.47807,457.64488)"
       gradientUnits="userSpaceOnUse"
       id="radialGradient88817"
       xlink:href="#linearGradient36820"
       inkscape:collect="always" />
  </defs>
  <sodipodi:namedview
     id="base"
     pagecolor="#ffffff"
     bordercolor="#666666"
     borderopacity="1.0"
     inkscape:pageopacity="0.0"
     inkscape:pageshadow="2"
     inkscape:zoom="0.35"
     inkscape:cx="233.68466"
     inkscape:cy="21.37617"
     inkscape:document-units="px"
     inkscape:current-layer="layer1"
     showgrid="false"
     fit-margin-top="0"
     fit-margin-left="0"
     fit-margin-right="0"
     fit-margin-bottom="0"
     inkscape:window-width="604"
     inkscape:window-height="407"
     inkscape:window-x="-2"
     inkscape:window-y="0"
     inkscape:window-maximized="0" />
  <metadata
     id="metadata88587">
    <rdf:RDF>
      <cc:Work
         rdf:about="">
        <dc:format>image/svg+xml</dc:format>
        <dc:type
           rdf:resource="http://purl.org/dc/dcmitype/StillImage" />
        <dc:title></dc:title>
      </cc:Work>
    </rdf:RDF>
  </metadata>
  <g
     inkscape:label="Ebene 1"
     inkscape:groupmode="layer"
     id="layer1"
     transform="translate(-116.31534,-471.09307)">
    <g
       transform="matrix(1.2660426,0,0,1.2660426,-898.63883,-80.492227)"
       id="cheese1">
      <path
         d="m 833.02338,437.14708 c -1.09611,0 -5.919,1.53456 -5.919,1.53456 0,0 -10.96112,0.43844 -11.83801,-0.21923 -0.87689,-0.65766 -5.26134,-0.43844 -6.35745,-0.43844 -1.09611,0 -5.04212,1.09611 -6.57667,1.53456 -0.43845,-0.43845 -0.65767,3.06911 -0.65767,3.946 0,0.87689 2.19222,4.16523 3.28834,5.919 1.09611,1.75378 1.09611,5.04212 1.09611,6.13823 0,1.09611 6.35745,12.05723 7.67278,14.46868 1.31534,2.41145 5.69978,11.39956 7.23434,14.24946 1.53456,2.84989 12.27646,15.34556 13.59179,16.44168 1.31533,1.09611 6.35745,-1.97301 7.67278,-2.8499 1.31534,-0.87689 3.72679,-3.28833 4.38445,-4.16522 0.65767,-0.87689 3.28834,-3.06911 4.16523,-3.28834 0.87689,-0.21922 12.05723,-0.87689 12.93412,-1.09611 0.87689,-0.21922 8.11123,-1.53456 8.11123,-1.53456 l 3.06911,-2.19222 -5.919,-7.01512 c 0,0 -16.00324,-19.51079 -16.88013,-20.82612 -0.87689,-1.31534 -15.56479,-18.19546 -16.22246,-19.29158 -0.65766,-1.09611 -1.75377,-1.31533 -2.84989,-1.31533 z m -17.70221,7.23434 c 1.84542,0 3.34315,1.49773 3.34315,3.34314 0,1.84541 -1.49773,3.34314 -3.34315,3.34314 -1.84541,0 -3.34314,-1.49773 -3.34314,-3.34314 0,-1.84541 1.49773,-3.34314 3.34314,-3.34314 z m 5.53537,7.23434 c 1.33112,0 2.41145,1.08033 2.41145,2.41144 0,1.33112 -1.08033,2.41145 -2.41145,2.41145 -1.33112,0 -2.41145,-1.08033 -2.41145,-2.41145 0,-1.33111 1.08033,-2.41144 2.41145,-2.41144 z m 20.42193,0.19182 c 2.35883,0 4.27483,1.91602 4.27483,4.27483 5e-5,2.35882 -1.916,4.27484 -4.27483,4.27484 -2.35877,0 -4.26798,-1.91602 -4.26798,-4.27484 0,-2.35882 1.90917,-4.27483 4.26798,-4.27483 z m 10.54323,15.81141 c 1.84542,0 3.34315,1.49773 3.34315,3.34314 0,1.84542 -1.49773,3.34315 -3.34315,3.34315 -1.84541,0 -3.34314,-1.49773 -3.34314,-3.34315 0,-1.84541 1.49773,-3.34314 3.34314,-3.34314 z m -16.70886,3.77474 c 1.31066,0 2.3772,1.05972 2.3772,2.37034 2e-5,1.31062 -1.06658,2.37719 -2.3772,2.37719 -1.31058,0 -2.37719,-1.06657 -2.37719,-2.37719 0,-1.31062 1.06659,-2.37034 2.37719,-2.37034 z m 29.49913,9.24844 c 0.94693,0 1.71266,0.76572 1.71266,1.71268 0,0.94695 -0.7657,1.71952 -1.71266,1.71952 -0.94697,0 -1.71953,-0.77257 -1.71953,-1.71952 0,-0.94696 0.77256,-1.71268 1.71953,-1.71268 z m -27.82756,11.77636 c 0.56193,0 1.02076,0.45885 1.02076,1.02075 0,0.5619 -0.45885,1.02076 -1.02076,1.02076 -0.56189,0 -1.01391,-0.45886 -1.01391,-1.02076 0,-0.5619 0.45202,-1.02075 1.01391,-1.02075 z"
         id="path35840"
         style="fill:#dfbd24;fill-opacity:1;fill-rule:evenodd;stroke:none"
         inkscape:connector-curvature="0" />
      <path
         d="m 833.20499,435.67673 c -1.09611,0 -5.91901,1.53456 -5.91901,1.53456 0,0 -10.96112,0.43844 -11.83801,-0.21922 -0.87689,-0.65767 -5.26133,-0.43845 -6.35745,-0.43845 -1.09611,0 -5.04211,1.09611 -6.57667,1.53456 -0.43844,-0.43845 -0.65767,3.06911 -0.65767,3.946 0,0.87689 2.19223,4.16523 3.28834,5.91901 1.09611,1.75378 1.09611,5.04211 1.09611,6.13822 0,1.09612 6.35745,12.05724 7.67279,14.46868 1.31533,2.41145 5.69978,11.39957 7.23434,14.24946 1.53455,2.84989 12.27645,15.34556 13.59178,16.44168 1.31534,1.09611 6.35745,-1.973 7.67279,-2.84989 1.31533,-0.87689 3.72678,-3.28834 4.38445,-4.16523 0.65766,-0.87689 3.28833,-3.06911 4.16522,-3.28834 0.87689,-0.21922 12.05723,-0.87689 12.93412,-1.09611 0.87689,-0.21922 8.11123,-1.53455 8.11123,-1.53455 l 3.06912,-2.19223 -5.91901,-7.01512 c 0,0 -16.00323,-19.51079 -16.88012,-20.82612 -0.87689,-1.31534 -15.56479,-18.19546 -16.22246,-19.29157 -0.65767,-1.09612 -1.75378,-1.31534 -2.84989,-1.31534 z m -17.70221,7.23434 c 1.84541,0 3.34314,1.49773 3.34314,3.34314 0,1.84542 -1.49773,3.34314 -3.34314,3.34314 -1.84542,10e-6 -3.34314,-1.49772 -3.34314,-3.34314 0,-1.84541 1.49772,-3.34314 3.34314,-3.34314 z m 5.53536,7.23434 c 1.33112,0 2.41145,1.08033 2.41145,2.41145 0,1.33111 -1.08033,2.41144 -2.41145,2.41144 -1.33111,0 -2.41144,-1.08033 -2.41144,-2.41144 0,-1.33112 1.08033,-2.41145 2.41144,-2.41145 z m 20.42193,0.19182 c 2.35883,0 4.27484,1.91602 4.27484,4.27484 4e-5,2.35882 -1.91601,4.27483 -4.27484,4.27483 -2.35877,0 -4.26798,-1.91601 -4.26798,-4.27483 0,-2.35882 1.90917,-4.27484 4.26798,-4.27484 z m 10.54324,15.81142 c 1.84541,0 3.34314,1.49772 3.34314,3.34314 0,1.84541 -1.49773,3.34314 -3.34314,3.34314 -1.84542,0 -3.34314,-1.49773 -3.34314,-3.34314 0,-1.84542 1.49772,-3.34314 3.34314,-3.34314 z m -16.70887,3.77473 c 1.31066,0 2.3772,1.05973 2.3772,2.37034 3e-5,1.31062 -1.06658,2.3772 -2.3772,2.3772 -1.31058,0 -2.37718,-1.06658 -2.37718,-2.3772 0,-1.31061 1.06658,-2.37034 2.37718,-2.37034 z m 29.49914,9.24844 c 0.94693,0 1.71265,0.76572 1.71265,1.71268 0,0.94696 -0.7657,1.71953 -1.71265,1.71953 -0.94698,0 -1.71954,-0.77257 -1.71954,-1.71953 0,-0.94696 0.77256,-1.71268 1.71954,-1.71268 z m -27.82757,11.77636 c 0.56193,0 1.02077,0.45885 1.02077,1.02075 0,0.5619 -0.45886,1.02076 -1.02077,1.02076 -0.56189,0 -1.0139,-0.45886 -1.0139,-1.02076 0,-0.5619 0.45201,-1.02075 1.0139,-1.02075 z"
         id="path34837"
         style="fill:url(#linearGradient52938);fill-opacity:1;fill-rule:evenodd;stroke:none"
         inkscape:connector-curvature="0" />
      <path
         d="m 841.41868,449.40256 c -2.48072,0 -4.49406,1.90521 -4.49406,4.25271 0,0.68025 0.1722,1.3226 0.47269,1.89297 -0.0593,-0.29354 -0.089,-0.59551 -0.089,-0.90759 0,-2.40475 1.85375,-4.35643 4.13782,-4.35643 2.28408,0 4.13783,1.95168 4.13783,4.35643 0,0.25273 -0.0224,0.49806 -0.0616,0.73904 0.24825,-0.5277 0.39048,-1.10984 0.39048,-1.72442 0,-2.3475 -2.01334,-4.25271 -4.49406,-4.25271 z"
         id="path35846"
         style="opacity:0.61000001;fill:url(#radialGradient52935);fill-opacity:1;fill-rule:nonzero;stroke:none"
         inkscape:connector-curvature="0" />
      <path
         d="m 821.06296,449.59633 c -1.44829,0 -2.62372,1.11229 -2.62372,2.4828 0,0.39715 0.10054,0.77216 0.27596,1.10516 -0.0346,-0.17138 -0.052,-0.34768 -0.052,-0.52987 0,-1.40394 1.08224,-2.54336 2.41572,-2.54336 1.33349,0 2.41574,1.13942 2.41574,2.54336 0,0.14755 -0.0131,0.29077 -0.036,0.43146 0.14493,-0.30808 0.22797,-0.64794 0.22797,-1.00675 0,-1.37051 -1.17543,-2.4828 -2.6237,-2.4828 z"
         id="path37797"
         style="opacity:0.61000001;fill:url(#radialGradient52932);fill-opacity:1;fill-rule:nonzero;stroke:none"
         inkscape:connector-curvature="0" />
      <path
         d="m 815.55344,442.03941 c -2.21478,0 -4.01232,1.70098 -4.01232,3.79683 0,0.60733 0.15374,1.18081 0.42201,1.69005 -0.053,-0.26208 -0.0795,-0.53168 -0.0795,-0.8103 0,-2.14697 1.65497,-3.88943 3.69422,-3.88943 2.03923,0 3.69425,1.74246 3.69425,3.88943 0,0.22564 -0.0199,0.44466 -0.055,0.65981 0.22163,-0.47113 0.34861,-0.99086 0.34861,-1.53956 0,-2.09585 -1.79752,-3.79683 -4.01228,-3.79683 z"
         id="path37801"
         style="opacity:0.61000001;fill:url(#radialGradient52929);fill-opacity:1;fill-rule:nonzero;stroke:none"
         inkscape:connector-curvature="0" />
      <path
         d="m 851.95986,465.37839 c -2.08253,0 -3.77269,1.59939 -3.77269,3.57007 0,0.57106 0.14456,1.11029 0.39682,1.58912 -0.0498,-0.24643 -0.0748,-0.49993 -0.0748,-0.76191 0,-2.01874 1.55617,-3.65714 3.47362,-3.65714 1.91743,0 3.47363,1.6384 3.47363,3.65714 0,0.21216 -0.0188,0.41811 -0.0518,0.62041 0.20841,-0.443 0.3278,-0.93169 0.3278,-1.44762 0,-1.97068 -1.69016,-3.57007 -3.77266,-3.57007 z"
         id="path37805"
         style="opacity:0.61000001;fill:url(#radialGradient52926);fill-opacity:1;fill-rule:nonzero;stroke:none"
         inkscape:connector-curvature="0" />
      <path
         d="m 835.29089,469.4066 c -1.5184,0 -2.75072,1.16615 -2.75072,2.603 0,0.41636 0.10541,0.80953 0.28933,1.15864 -0.0363,-0.17967 -0.0545,-0.3645 -0.0545,-0.55551 0,-1.4719 1.13463,-2.66648 2.53268,-2.66648 1.39802,0 2.53268,1.19458 2.53268,2.66648 0,0.15469 -0.0137,0.30485 -0.0377,0.45235 0.15194,-0.323 0.23899,-0.67931 0.23899,-1.05548 0,-1.43685 -1.23231,-2.603 -2.75071,-2.603 z"
         id="path37809"
         style="opacity:0.61000001;fill:url(#radialGradient52923);fill-opacity:1;fill-rule:nonzero;stroke:none"
         inkscape:connector-curvature="0" />
      <path
         d="m 864.76328,478.75096 c -1.20868,0 -2.18964,0.92828 -2.18964,2.07205 0,0.33144 0.0839,0.6444 0.23032,0.92231 -0.0289,-0.14302 -0.0434,-0.29015 -0.0434,-0.44221 0,-1.17166 0.90318,-2.12258 2.01606,-2.12258 1.11286,0 2.01608,0.95092 2.01608,2.12258 0,0.12314 -0.0109,0.24267 -0.03,0.36009 0.12094,-0.25712 0.19024,-0.54075 0.19024,-0.84019 0,-1.14377 -0.98096,-2.07205 -2.18964,-2.07205 z"
         id="path37813"
         style="opacity:0.61000001;fill:url(#radialGradient52920);fill-opacity:1;fill-rule:nonzero;stroke:none"
         inkscape:connector-curvature="0" />
      <path
         d="m 836.91894,490.72576 c -0.68458,0 -1.24018,0.52577 -1.24018,1.17358 0,0.18772 0.0475,0.36498 0.13044,0.52239 -0.0164,-0.081 -0.0246,-0.16434 -0.0246,-0.25046 0,-0.66362 0.51154,-1.2022 1.14187,-1.2022 0.63031,0 1.14186,0.53858 1.14186,1.2022 0,0.0697 -0.006,0.13744 -0.017,0.20394 0.0685,-0.14562 0.10775,-0.30627 0.10775,-0.47587 0,-0.64781 -0.5556,-1.17358 -1.24017,-1.17358 z"
         id="path37817"
         style="opacity:0.61000001;fill:url(#radialGradient88817);fill-opacity:1;fill-rule:nonzero;stroke:none"
         inkscape:connector-curvature="0" />
    </g>
  </g>
</svg>
