<?xml version="1.0" encoding="UTF-8" standalone="no"?>
<!-- Created with Inkscape (http://www.inkscape.org/) -->

<svg
   xmlns:dc="http://purl.org/dc/elements/1.1/"
   xmlns:cc="http://creativecommons.org/ns#"
   xmlns:rdf="http://www.w3.org/1999/02/22-rdf-syntax-ns#"
   xmlns:svg="http://www.w3.org/2000/svg"
   xmlns="http://www.w3.org/2000/svg"
   xmlns:xlink="http://www.w3.org/1999/xlink"
   xmlns:sodipodi="http://sodipodi.sourceforge.net/DTD/sodipodi-0.dtd"
   xmlns:inkscape="http://www.inkscape.org/namespaces/inkscape"
   width="56.882465"
   height="54.111942"
   id="svg31452"
   version="1.1"
   inkscape:version="0.48.3.1 r9886"
   sodipodi:docname="oregano.svg">
  <defs
     id="defs31454">
    <linearGradient
       x1="1491.7797"
       y1="399.93341"
       x2="1536.25"
       y2="432.93341"
       id="linearGradient90320"
       xlink:href="#linearGradient87315"
       gradientUnits="userSpaceOnUse" />
    <linearGradient
       id="linearGradient87315">
      <stop
         id="stop87317"
         style="stop-color:#99c305;stop-opacity:1"
         offset="0" />
      <stop
         id="stop87319"
         style="stop-color:#688404;stop-opacity:1"
         offset="1" />
    </linearGradient>
    <linearGradient
       x1="1491.7797"
       y1="399.93341"
       x2="1536.25"
       y2="432.93341"
       id="linearGradient90322"
       xlink:href="#linearGradient87315"
       gradientUnits="userSpaceOnUse" />
    <linearGradient
       id="linearGradient31407">
      <stop
         id="stop31409"
         style="stop-color:#99c305;stop-opacity:1"
         offset="0" />
      <stop
         id="stop31411"
         style="stop-color:#688404;stop-opacity:1"
         offset="1" />
    </linearGradient>
    <linearGradient
       x1="1491.7797"
       y1="399.93341"
       x2="1536.25"
       y2="432.93341"
       id="linearGradient90324"
       xlink:href="#linearGradient87315"
       gradientUnits="userSpaceOnUse" />
    <linearGradient
       id="linearGradient31414">
      <stop
         id="stop31416"
         style="stop-color:#99c305;stop-opacity:1"
         offset="0" />
      <stop
         id="stop31418"
         style="stop-color:#688404;stop-opacity:1"
         offset="1" />
    </linearGradient>
  </defs>
  <sodipodi:namedview
     id="base"
     pagecolor="#ffffff"
     bordercolor="#ffffff"
     borderopacity="0.0"
     inkscape:pageopacity="0.0"
     inkscape:pageshadow="0"
     inkscape:zoom="0.35"
     inkscape:cx="529.86818"
     inkscape:cy="-295.80633"
     inkscape:document-units="px"
     inkscape:current-layer="layer1"
     showgrid="false"
     inkscape:window-width="511"
     inkscape:window-height="424"
     inkscape:window-x="-2"
     inkscape:window-y="0"
     inkscape:window-maximized="0"
     fit-margin-top="0"
     fit-margin-left="0"
     fit-margin-right="0"
     fit-margin-bottom="0" />
  <metadata
     id="metadata31457">
    <rdf:RDF>
      <cc:Work
         rdf:about="">
        <dc:format>image/svg+xml</dc:format>
        <dc:type
           rdf:resource="http://purl.org/dc/dcmitype/StillImage" />
        <dc:title />
      </cc:Work>
    </rdf:RDF>
  </metadata>
  <g
     inkscape:label="Layer 1"
     inkscape:groupmode="layer"
     id="layer1"
     transform="translate(179.86818,-182.44391)">
    <g
       transform="matrix(1.1927193,0,0,1.1927193,-1152.7151,-177.09421)"
       id="oregano1">
      <g
         transform="matrix(0.3647274,0,0,0.3647274,296.9243,169.10524)"
         id="g87323">
        <path
           inkscape:connector-curvature="0"
           d="m 1475,454.5 c -5.596,-33.93388 23.0713,-63.96644 28.8216,-67.9819 12.1807,-8.50595 25.3203,-16.22389 41.1784,-22.0181 5.1231,-1.56453 6.7896,-2.36562 7.5,3.5 -3.0395,19.79102 -7.7097,33.45785 -11.1806,48.39201 -5.0876,21.89087 -26.8833,39.1803 -58.3194,41.10799 -2,0 -7,-1.5 -8,-3 z"
           id="path82448"
           style="fill:url(#linearGradient90320);fill-opacity:1;fill-rule:evenodd;stroke:#61a550;stroke-width:1px;stroke-linecap:butt;stroke-linejoin:miter;stroke-opacity:1" />
        <path
           inkscape:connector-curvature="0"
           d="m 1478.75,453.25 c 0.037,-0.0745 0,-0.16667 0,-0.25 0,-2.03844 9.0228,-12.78419 10.5,-15 3.2743,-4.91152 9.9252,-4.77548 12,-11 1.5181,-4.55421 6.348,-9.44593 8.5,-13.75 2.9419,-5.88375 7.1994,-7.69937 11.5,-12 3.5142,-3.5142 6.7409,-6.3613 9.5,-10.5 2.2723,-3.40843 4.1361,-8.11327 6.75,-11.25 1.3923,-1.67076 2.3285,-3.43385 3.75,-4.5 1.2654,-0.94904 2.3232,-2.57316 3,-3.25"
           id="path83423"
           style="fill:#4a7a00;fill-opacity:1;fill-rule:evenodd;stroke:#4a7a00;stroke-width:1px;stroke-linecap:butt;stroke-linejoin:miter;stroke-opacity:1" />
        <path
           inkscape:connector-curvature="0"
           d="m 1505.75,424.25 c 1.042,-0.23737 5.5472,-3.34908 8.25,-4.25 2.6044,-0.86814 5.9479,0.3507 8.5,-0.5 3.4421,-1.14736 5.2281,-3.42105 8,-5.5 1.6132,-1.20992 2.2033,-2.48834 4.25,-3 1.2576,-0.31439 2.9017,-1.65169 3.5,-2.25 1.2898,-1.28976 2,-0.34549 2,-2.5 0,-0.33333 0,-0.66667 0,-1"
           id="path85363"
           style="opacity:0.51499999;fill:none;stroke:#4a7a00;stroke-width:1px;stroke-linecap:butt;stroke-linejoin:miter;stroke-opacity:1" />
        <path
           inkscape:connector-curvature="0"
           d="m 1500.75,421.25 c 0,-1.10013 -1.25,-3.24294 -1.25,-5.25 0,-2.53083 -0.3375,-5.18755 -0.75,-7.25 -0.3613,-1.80624 -1.7149,-3.12718 -2.25,-5 -0.3007,-1.05231 1.5074,-4.27942 1.75,-5.25 0.1247,-0.49877 0,-1.22819 0,-1.75"
           id="path85365"
           style="opacity:0.51499999;fill:none;stroke:#4a7a00;stroke-width:1px;stroke-linecap:butt;stroke-linejoin:miter;stroke-opacity:1" />
        <path
           inkscape:connector-curvature="0"
           d="m 1518.75,397.5 c 0.685,-2.73995 0,-6.36972 0,-9.25 0,-1.43406 -0.7027,-2.31065 -1,-3.5 -0.1571,-0.62846 -0.3631,-0.95228 -0.5,-1.5"
           id="path85367"
           style="opacity:0.51499999;fill:none;stroke:#4a7a00;stroke-width:1px;stroke-linecap:butt;stroke-linejoin:miter;stroke-opacity:1" />
        <path
           inkscape:connector-curvature="0"
           d="m 1530,383 c -0.2762,-1.10465 0.25,-3.39631 0.25,-5.25 0,-0.3295 0.25,-1.00864 0.25,-1.5"
           id="path85369"
           style="opacity:0.51499999;fill:none;stroke:#4a7a00;stroke-width:1px;stroke-linecap:butt;stroke-linejoin:miter;stroke-opacity:1" />
        <path
           inkscape:connector-curvature="0"
           d="m 1537.75,387 c 0,-0.49495 4.8327,-2.75 6.25,-2.75 0.2467,0 0.7008,-0.46717 0.75,-0.5"
           id="path85371"
           style="opacity:0.51499999;fill:none;stroke:#4a7a00;stroke-width:1px;stroke-linecap:butt;stroke-linejoin:miter;stroke-opacity:1" />
        <path
           inkscape:connector-curvature="0"
           d="m 1492,442.75 c 4.6015,0 8.3233,-2.5 12.75,-2.5 3.3126,0 5.8314,-0.0947 9,-1 2.4941,-0.71261 5.5078,-1.41925 8,-2.25 0.285,-0.095 0.5,-0.33333 0.75,-0.5"
           id="path85373"
           style="opacity:0.51499999;fill:none;stroke:#4a7a00;stroke-width:1px;stroke-linecap:butt;stroke-linejoin:miter;stroke-opacity:1" />
        <path
           inkscape:connector-curvature="0"
           d="m 1482.75,436.25 c 0,-10e-4 -1,-3.48256 -1,-6.25 0,-1.51714 0.25,-2.60563 0.25,-4.25 0,-1.0627 0.1393,-1.84833 0.5,-2.75"
           id="path85375"
           style="opacity:0.51499999;fill:none;stroke:#4a7a00;stroke-width:1px;stroke-linecap:butt;stroke-linejoin:miter;stroke-opacity:1" />
      </g>
      <path
         inkscape:connector-curvature="0"
         d="m 836.13127,334.38922 c 0,0 -4.76535,6.217 -5.08773,6.66833 -0.32238,0.45133 -1.16636,1.64898 -1.16636,1.64898"
         id="path87378"
         style="fill:none;stroke:#006e29;stroke-width:1.09418225;stroke-linecap:round;stroke-linejoin:round;stroke-miterlimit:4;stroke-opacity:1;stroke-dasharray:none" />
      <g
         transform="matrix(-0.1007914,0.08213778,0.08213778,0.1007914,942.17299,173.69686)"
         id="g87356">
        <path
           inkscape:connector-curvature="0"
           d="m 1475,454.5 c -5.596,-33.93388 23.0713,-63.96644 28.8216,-67.9819 12.1807,-8.50595 25.3203,-16.22389 41.1784,-22.0181 5.1231,-1.56453 6.7896,-2.36562 7.5,3.5 -3.0395,19.79102 -7.7097,33.45785 -11.1806,48.39201 -5.0876,21.89087 -26.8833,39.1803 -58.3194,41.10799 -2,0 -7,-1.5 -8,-3 z"
           id="path87358"
           style="fill:url(#linearGradient90322);fill-opacity:1;fill-rule:evenodd;stroke:#61a550;stroke-width:1px;stroke-linecap:butt;stroke-linejoin:miter;stroke-opacity:1" />
        <path
           inkscape:connector-curvature="0"
           d="m 1478.75,453.25 c 0.037,-0.0745 0,-0.16667 0,-0.25 0,-2.03844 9.0228,-12.78419 10.5,-15 3.2743,-4.91152 9.9252,-4.77548 12,-11 1.5181,-4.55421 6.348,-9.44593 8.5,-13.75 2.9419,-5.88375 7.1994,-7.69937 11.5,-12 3.5142,-3.5142 6.7409,-6.3613 9.5,-10.5 2.2723,-3.40843 4.1361,-8.11327 6.75,-11.25 1.3923,-1.67076 2.3285,-3.43385 3.75,-4.5 1.2654,-0.94904 2.3232,-2.57316 3,-3.25"
           id="path87360"
           style="fill:#4a7a00;fill-opacity:1;fill-rule:evenodd;stroke:#4a7a00;stroke-width:1px;stroke-linecap:butt;stroke-linejoin:miter;stroke-opacity:1" />
        <path
           inkscape:connector-curvature="0"
           d="m 1505.75,424.25 c 1.042,-0.23737 5.5472,-3.34908 8.25,-4.25 2.6044,-0.86814 5.9479,0.3507 8.5,-0.5 3.4421,-1.14736 5.2281,-3.42105 8,-5.5 1.6132,-1.20992 2.2033,-2.48834 4.25,-3 1.2576,-0.31439 2.9017,-1.65169 3.5,-2.25 1.2898,-1.28976 2,-0.34549 2,-2.5 0,-0.33333 0,-0.66667 0,-1"
           id="path87362"
           style="opacity:0.51499999;fill:none;stroke:#4a7a00;stroke-width:1px;stroke-linecap:butt;stroke-linejoin:miter;stroke-opacity:1" />
        <path
           inkscape:connector-curvature="0"
           d="m 1500.75,421.25 c 0,-1.10013 -1.25,-3.24294 -1.25,-5.25 0,-2.53083 -0.3375,-5.18755 -0.75,-7.25 -0.3613,-1.80624 -1.7149,-3.12718 -2.25,-5 -0.3007,-1.05231 1.5074,-4.27942 1.75,-5.25 0.1247,-0.49877 0,-1.22819 0,-1.75"
           id="path87364"
           style="opacity:0.51499999;fill:none;stroke:#4a7a00;stroke-width:1px;stroke-linecap:butt;stroke-linejoin:miter;stroke-opacity:1" />
        <path
           inkscape:connector-curvature="0"
           d="m 1518.75,397.5 c 0.685,-2.73995 0,-6.36972 0,-9.25 0,-1.43406 -0.7027,-2.31065 -1,-3.5 -0.1571,-0.62846 -0.3631,-0.95228 -0.5,-1.5"
           id="path87366"
           style="opacity:0.51499999;fill:none;stroke:#4a7a00;stroke-width:1px;stroke-linecap:butt;stroke-linejoin:miter;stroke-opacity:1" />
        <path
           inkscape:connector-curvature="0"
           d="m 1530,383 c -0.2762,-1.10465 0.25,-3.39631 0.25,-5.25 0,-0.3295 0.25,-1.00864 0.25,-1.5"
           id="path87368"
           style="opacity:0.51499999;fill:none;stroke:#4a7a00;stroke-width:1px;stroke-linecap:butt;stroke-linejoin:miter;stroke-opacity:1" />
        <path
           inkscape:connector-curvature="0"
           d="m 1537.75,387 c 0,-0.49495 4.8327,-2.75 6.25,-2.75 0.2467,0 0.7008,-0.46717 0.75,-0.5"
           id="path87370"
           style="opacity:0.51499999;fill:none;stroke:#4a7a00;stroke-width:1px;stroke-linecap:butt;stroke-linejoin:miter;stroke-opacity:1" />
        <path
           inkscape:connector-curvature="0"
           d="m 1492,442.75 c 4.6015,0 8.3233,-2.5 12.75,-2.5 3.3126,0 5.8314,-0.0947 9,-1 2.4941,-0.71261 5.5078,-1.41925 8,-2.25 0.285,-0.095 0.5,-0.33333 0.75,-0.5"
           id="path87372"
           style="opacity:0.51499999;fill:none;stroke:#4a7a00;stroke-width:1px;stroke-linecap:butt;stroke-linejoin:miter;stroke-opacity:1" />
        <path
           inkscape:connector-curvature="0"
           d="m 1482.75,436.25 c 0,-10e-4 -1,-3.48256 -1,-6.25 0,-1.51714 0.25,-2.60563 0.25,-4.25 0,-1.0627 0.1393,-1.84833 0.5,-2.75"
           id="path87374"
           style="opacity:0.51499999;fill:none;stroke:#4a7a00;stroke-width:1px;stroke-linecap:butt;stroke-linejoin:miter;stroke-opacity:1" />
      </g>
      <g
         transform="matrix(0.09949814,0.1270909,-0.1270909,0.09949814,742.19518,108.73689)"
         id="g87334">
        <path
           inkscape:connector-curvature="0"
           d="m 1475,454.5 c -5.596,-33.93388 23.0713,-63.96644 28.8216,-67.9819 12.1807,-8.50595 25.3203,-16.22389 41.1784,-22.0181 5.1231,-1.56453 6.7896,-2.36562 7.5,3.5 -3.0395,19.79102 -7.7097,33.45785 -11.1806,48.39201 -5.0876,21.89087 -26.8833,39.1803 -58.3194,41.10799 -2,0 -7,-1.5 -8,-3 z"
           id="path87336"
           style="fill:url(#linearGradient90324);fill-opacity:1;fill-rule:evenodd;stroke:#61a550;stroke-width:1px;stroke-linecap:butt;stroke-linejoin:miter;stroke-opacity:1" />
        <path
           inkscape:connector-curvature="0"
           d="m 1478.75,453.25 c 0.037,-0.0745 0,-0.16667 0,-0.25 0,-2.03844 9.0228,-12.78419 10.5,-15 3.2743,-4.91152 9.9252,-4.77548 12,-11 1.5181,-4.55421 6.348,-9.44593 8.5,-13.75 2.9419,-5.88375 7.1994,-7.69937 11.5,-12 3.5142,-3.5142 6.7409,-6.3613 9.5,-10.5 2.2723,-3.40843 4.1361,-8.11327 6.75,-11.25 1.3923,-1.67076 2.3285,-3.43385 3.75,-4.5 1.2654,-0.94904 2.3232,-2.57316 3,-3.25"
           id="path87338"
           style="fill:#4a7a00;fill-opacity:1;fill-rule:evenodd;stroke:#4a7a00;stroke-width:1px;stroke-linecap:butt;stroke-linejoin:miter;stroke-opacity:1" />
        <path
           inkscape:connector-curvature="0"
           d="m 1505.75,424.25 c 1.042,-0.23737 5.5472,-3.34908 8.25,-4.25 2.6044,-0.86814 5.9479,0.3507 8.5,-0.5 3.4421,-1.14736 5.2281,-3.42105 8,-5.5 1.6132,-1.20992 2.2033,-2.48834 4.25,-3 1.2576,-0.31439 2.9017,-1.65169 3.5,-2.25 1.2898,-1.28976 2,-0.34549 2,-2.5 0,-0.33333 0,-0.66667 0,-1"
           id="path87340"
           style="opacity:0.51499999;fill:none;stroke:#4a7a00;stroke-width:1px;stroke-linecap:butt;stroke-linejoin:miter;stroke-opacity:1" />
        <path
           inkscape:connector-curvature="0"
           d="m 1500.75,421.25 c 0,-1.10013 -1.25,-3.24294 -1.25,-5.25 0,-2.53083 -0.3375,-5.18755 -0.75,-7.25 -0.3613,-1.80624 -1.7149,-3.12718 -2.25,-5 -0.3007,-1.05231 1.5074,-4.27942 1.75,-5.25 0.1247,-0.49877 0,-1.22819 0,-1.75"
           id="path87342"
           style="opacity:0.51499999;fill:none;stroke:#4a7a00;stroke-width:1px;stroke-linecap:butt;stroke-linejoin:miter;stroke-opacity:1" />
        <path
           inkscape:connector-curvature="0"
           d="m 1518.75,397.5 c 0.685,-2.73995 0,-6.36972 0,-9.25 0,-1.43406 -0.7027,-2.31065 -1,-3.5 -0.1571,-0.62846 -0.3631,-0.95228 -0.5,-1.5"
           id="path87344"
           style="opacity:0.51499999;fill:none;stroke:#4a7a00;stroke-width:1px;stroke-linecap:butt;stroke-linejoin:miter;stroke-opacity:1" />
        <path
           inkscape:connector-curvature="0"
           d="m 1530,383 c -0.2762,-1.10465 0.25,-3.39631 0.25,-5.25 0,-0.3295 0.25,-1.00864 0.25,-1.5"
           id="path87346"
           style="opacity:0.51499999;fill:none;stroke:#4a7a00;stroke-width:1px;stroke-linecap:butt;stroke-linejoin:miter;stroke-opacity:1" />
        <path
           inkscape:connector-curvature="0"
           d="m 1537.75,387 c 0,-0.49495 4.8327,-2.75 6.25,-2.75 0.2467,0 0.7008,-0.46717 0.75,-0.5"
           id="path87348"
           style="opacity:0.51499999;fill:none;stroke:#4a7a00;stroke-width:1px;stroke-linecap:butt;stroke-linejoin:miter;stroke-opacity:1" />
        <path
           inkscape:connector-curvature="0"
           d="m 1492,442.75 c 4.6015,0 8.3233,-2.5 12.75,-2.5 3.3126,0 5.8314,-0.0947 9,-1 2.4941,-0.71261 5.5078,-1.41925 8,-2.25 0.285,-0.095 0.5,-0.33333 0.75,-0.5"
           id="path87350"
           style="opacity:0.51499999;fill:none;stroke:#4a7a00;stroke-width:1px;stroke-linecap:butt;stroke-linejoin:miter;stroke-opacity:1" />
        <path
           inkscape:connector-curvature="0"
           d="m 1482.75,436.25 c 0,-10e-4 -1,-3.48256 -1,-6.25 0,-1.51714 0.25,-2.60563 0.25,-4.25 0,-1.0627 0.1393,-1.84833 0.5,-2.75"
           id="path87352"
           style="opacity:0.51499999;fill:none;stroke:#4a7a00;stroke-width:1px;stroke-linecap:butt;stroke-linejoin:miter;stroke-opacity:1" />
      </g>
    </g>
  </g>
</svg>
