<?xml version="1.0" encoding="UTF-8" standalone="no"?>
<!-- Created with Inkscape (http://www.inkscape.org/) -->

<svg
   xmlns:dc="http://purl.org/dc/elements/1.1/"
   xmlns:cc="http://creativecommons.org/ns#"
   xmlns:rdf="http://www.w3.org/1999/02/22-rdf-syntax-ns#"
   xmlns:svg="http://www.w3.org/2000/svg"
   xmlns="http://www.w3.org/2000/svg"
   xmlns:xlink="http://www.w3.org/1999/xlink"
   xmlns:sodipodi="http://sodipodi.sourceforge.net/DTD/sodipodi-0.dtd"
   xmlns:inkscape="http://www.inkscape.org/namespaces/inkscape"
   width="69.514351"
   height="62.932182"
   id="svg32845"
   version="1.1"
   inkscape:version="0.48.3.1 r9886"
   sodipodi:docname="oregano2.svg">
  <defs
     id="defs32847">
    <linearGradient
       x1="832.89093"
       y1="251.216"
       x2="847.4859"
       y2="220.466"
       id="linearGradient59289"
       xlink:href="#linearGradient53550"
       gradientUnits="userSpaceOnUse"
       gradientTransform="matrix(0.3647274,0,0,0.3647274,594.60598,223.60322)" />
    <linearGradient
       id="linearGradient53550">
      <stop
         id="stop53552"
         style="stop-color:#006e29;stop-opacity:1"
         offset="0" />
      <stop
         id="stop53554"
         style="stop-color:#006e29;stop-opacity:0"
         offset="1" />
    </linearGradient>
    <linearGradient
       x1="890.18091"
       y1="333.57916"
       x2="911.84717"
       y2="349.84262"
       id="linearGradient59286"
       xlink:href="#linearGradient50619"
       gradientUnits="userSpaceOnUse"
       gradientTransform="matrix(0.3647274,0,0,0.3647274,594.60598,223.60322)" />
    <linearGradient
       id="linearGradient50619">
      <stop
         id="stop50621"
         style="stop-color:#b1d28f;stop-opacity:1"
         offset="0" />
      <stop
         id="stop50623"
         style="stop-color:#b1d28f;stop-opacity:0"
         offset="1" />
    </linearGradient>
    <linearGradient
       x1="885.59332"
       y1="264.7041"
       x2="927.34479"
       y2="268.7041"
       id="linearGradient59283"
       xlink:href="#linearGradient54527"
       gradientUnits="userSpaceOnUse"
       gradientTransform="matrix(0.3647274,0,0,0.3647274,594.60598,223.60322)" />
    <linearGradient
       id="linearGradient54527">
      <stop
         id="stop54529"
         style="stop-color:#37a42c;stop-opacity:1"
         offset="0" />
      <stop
         id="stop54531"
         style="stop-color:#37a42c;stop-opacity:0"
         offset="1" />
    </linearGradient>
    <linearGradient
       x1="837.08148"
       y1="336.01703"
       x2="836.47614"
       y2="383.51703"
       id="linearGradient59280"
       xlink:href="#linearGradient55504"
       gradientUnits="userSpaceOnUse"
       gradientTransform="matrix(0.3647274,0,0,0.3647274,594.60598,223.60322)" />
    <linearGradient
       id="linearGradient55504">
      <stop
         id="stop55506"
         style="stop-color:#006e29;stop-opacity:1"
         offset="0" />
      <stop
         id="stop55508"
         style="stop-color:#006e29;stop-opacity:0"
         offset="1" />
    </linearGradient>
    <linearGradient
       x1="775.96106"
       y1="266.31808"
       x2="760.80493"
       y2="257.83282"
       id="linearGradient59277"
       xlink:href="#linearGradient51596"
       gradientUnits="userSpaceOnUse"
       gradientTransform="matrix(0.3647274,0,0,0.3647274,594.60598,223.60322)" />
    <linearGradient
       id="linearGradient51596">
      <stop
         id="stop51598"
         style="stop-color:#b1d28f;stop-opacity:1"
         offset="0" />
      <stop
         id="stop51600"
         style="stop-color:#b1d28f;stop-opacity:0"
         offset="1" />
    </linearGradient>
    <linearGradient
       x1="784.5022"
       y1="333.02893"
       x2="757.74408"
       y2="356.77893"
       id="linearGradient59274"
       xlink:href="#linearGradient52573"
       gradientUnits="userSpaceOnUse"
       gradientTransform="matrix(0.3647274,0,0,0.3647274,594.60598,223.60322)" />
    <linearGradient
       id="linearGradient52573">
      <stop
         id="stop52575"
         style="stop-color:#37a42c;stop-opacity:1"
         offset="0" />
      <stop
         id="stop52577"
         style="stop-color:#37a42c;stop-opacity:0"
         offset="1" />
    </linearGradient>
    <linearGradient
       y2="356.77893"
       x2="757.74408"
       y1="333.02893"
       x1="784.5022"
       gradientTransform="matrix(0.3647274,0,0,0.3647274,594.60598,223.60322)"
       gradientUnits="userSpaceOnUse"
       id="linearGradient32843"
       xlink:href="#linearGradient52573"
       inkscape:collect="always" />
  </defs>
  <sodipodi:namedview
     id="base"
     pagecolor="#ffffff"
     bordercolor="#ffffff"
     borderopacity="0.0"
     inkscape:pageopacity="0.0"
     inkscape:pageshadow="0"
     inkscape:zoom="0.35"
     inkscape:cx="514.75721"
     inkscape:cy="-268.53391"
     inkscape:document-units="px"
     inkscape:current-layer="layer1"
     showgrid="false"
     inkscape:window-width="511"
     inkscape:window-height="424"
     inkscape:window-x="513"
     inkscape:window-y="0"
     inkscape:window-maximized="0"
     fit-margin-top="0"
     fit-margin-left="0"
     fit-margin-right="0"
     fit-margin-bottom="0" />
  <metadata
     id="metadata32850">
    <rdf:RDF>
      <cc:Work
         rdf:about="">
        <dc:format>image/svg+xml</dc:format>
        <dc:type
           rdf:resource="http://purl.org/dc/dcmitype/StillImage" />
        <dc:title />
      </cc:Work>
    </rdf:RDF>
  </metadata>
  <g
     inkscape:label="Layer 1"
     inkscape:groupmode="layer"
     id="layer1"
     transform="translate(164.75721,-200.89609)">
    <g
       transform="translate(-1028.0769,-100.76561)"
       id="oregano2">
      <path
         inkscape:connector-curvature="0"
         d="m 897.52178,318.64556 c 0.24743,3.4816 8.55971,3.01144 -1.59215,5.04182 -6.99543,1.39908 0.39002,-7.32853 2.91895,-7.96077 0.80955,-0.20238 -1.74968,0.58043 -2.12287,1.3268 -0.72251,1.44502 11.78596,3.79012 0.79607,1.59215 -2.78613,-0.55723 2.12288,9.29971 2.12288,0.79608 0,-0.88453 0,-1.76906 0,-2.65359 0,-3.20162 -6.66795,7.43004 0.79607,7.43004 6.97947,0 -3.71502,-17.36911 -3.71502,-7.16468 0,5.63327 5.57253,3.63155 5.57253,-1.59216 0,-2.65009 -11.74228,7.69541 -3.71502,7.69541 16.52756,0 5.50094,-17.70744 -1.59215,-10.61435 -4.44505,4.44505 -4.26898,11.67578 2.12287,11.67578 15.64177,0 8.2301,-18.84445 -0.26536,-10.34899 -4.53179,4.5318 3.18431,7.13976 3.18431,0 0,-4.34117 -20.88163,8.49148 0,8.49148 6.95196,0 -1.58068,-13.4831 -4.51111,-3.71502 -1.84116,6.13724 -6.2966,10.61435 3.44967,10.61435 11.60716,0 2.07303,-19.12194 -0.26536,-7.43005 -3.41164,17.05821 -9.74538,3.37678 -3.18431,-3.1843 5.44398,-5.44398 8.54866,-3.71502 1.06144,-3.71502 -9.28371,0 -4.80244,15.17741 1.32679,2.91894 2.70303,-5.40606 -7.17127,-6.35543 -9.02219,-2.65358 -2.77288,5.54574 -6.22939,8.49148 1.06143,8.49148 6.84681,0 7.80557,-14.91517 -1.32679,-10.34899 -2.56625,1.28312 -4.41185,6.89932 1.59215,6.89932 6.08488,0 5.86139,-4.33972 3.71502,4.24574 -0.32676,1.30705 -1.06143,2.47668 -1.59215,3.71502 -0.25126,0.58627 -0.70762,1.06144 -1.06143,1.59216 -1.44023,2.16033 -5.5499,-4.92612 -0.79608,-8.49148 0.2764,-0.2073 5.85554,-7.53592 5.04181,-2.65359 -0.10539,0.63235 3.05161,8.49154 3.98039,4.77646 0.38157,-1.52628 3.42992,-13.18897 1.59215,-5.8379 -4.43095,17.72383 11.41043,4.6268 11.41043,-2.38822 0,-4.51734 -12.12438,8.84845 -2.38823,3.98037 8.07607,-4.03803 -0.68714,-17.80975 -9.55292,-4.51109 -1.8751,2.81265 10.6451,-6.10325 1.85751,-6.10325 -4.36733,0 -6.02065,16.81777 -1.06143,6.89932 6.9173,-13.83459 -4.87837,-8.50204 -7.43005,-2.12286 -2.27392,5.6848 16.68828,-15.11079 2.91895,-8.22612 -2.21689,1.10844 -4.56953,7.16468 2.38823,7.16468 17.62454,0 4.2326,-18.01811 -3.98038,-1.59215 -0.21302,0.42604 -0.35382,0.88453 -0.53072,1.32679 -1.2736,3.18402 15.6169,-8.75684 5.83789,-8.75684 -11.20924,0 -4.3481,14.26875 -0.26536,6.10325 3.01848,-6.03694 -6.14905,-6.01165 -9.28755,0.26536 -2.17313,4.34626 -3.25333,3.77689 -1.85751,6.10325 1.58316,2.6386 6.24468,-17.72582 -1.3268,-6.36861 -6.76572,10.14859 7.96077,10.65464 7.96077,-0.53072 0,-4.04961 -11.25607,0.9649 -7.69541,6.89933 0.49083,0.81805 10.3192,-9.28755 0.53072,-9.28755 -3.2632,0 -9.15048,14.32937 -2.65359,14.32937 9.9856,0 0.79608,-12.36639 0.79608,3.44966 0,0.88453 0,1.76906 0,2.65359 0,4.26348 10.81261,-15.30134 1.32679,-2.65359 -0.75659,1.0088 -2.65359,10.03679 -2.65359,10.08363 0,7.72767 2.18333,-8.55193 3.98038,-10.34899 0.0465,-0.0465 0.39274,3.56643 2.12287,8.75684 1.5269,4.58068 12.20651,-1.60895 12.20651,-9.81827 0,-8.32719 -0.84625,4.97714 -1.06144,5.83789 -0.71923,2.87694 2.65359,-5.526 2.65359,-8.49148 0,-1.59684 3.14332,9.67588 5.83789,1.59215 0.30126,-0.90378 0.70762,-1.76906 1.06144,-2.65359 0.66046,-1.65115 5.11359,9.1427 -0.79608,7.96077 -0.17331,-0.0347 0.79608,-6.69691 0.79608,-2.38823 0,5.81642 -4.43438,22.33165 -8.49148,6.10325 -2.97086,-11.88343 -0.59727,-2.5205 -5.04182,6.36861 -0.25018,0.50037 -0.35381,1.06143 -0.53071,1.59215 -0.0865,0.25944 3.26132,-3.49239 4.77645,-9.55291 1.73095,-6.92382 -9.23592,-1.72843 -7.16468,3.44966 4.56028,11.4007 9.27957,-17.76706 0.79607,-5.04181 -4.55356,6.83034 5.99666,6.16902 1.06144,0 -1.9937,-2.49212 -7.79392,18.70381 -4.77646,6.63396 3.3243,-13.29719 -4.62184,-1.25992 -5.83789,2.38823 -0.5874,1.76219 0,-3.71502 0,-5.57253 0,-7.81516 -1.2986,-1.69941 -5.04182,0.79607 -5.58882,3.72588 9.47443,-8.55376 1.3268,-5.83789 -0.53072,0.17691 -1.06144,0.35382 -1.59215,0.53072 -8.1374,2.71247 12.41246,0 6.3686,0 -1.85751,0 -3.71502,0 -5.57253,0 0.70482,-0.0193 11.18803,0.34244 6.63397,-0.79608 -3.54257,-0.88564 -12.94415,-0.1709 -3.18431,-2.12286 1.22662,-0.24533 2.47668,-0.35381 3.71503,-0.53072 2.62837,-0.37549 -5.30571,-0.26536 -7.96076,-0.26536 -7.39375,0 1.11538,5.54556 5.83788,3.1843 3.50381,-1.7519 -13.36817,-4.24574 -6.3686,-4.24574 2.80087,0 3.80281,-7.16468 -0.79608,-7.16468 -1.16237,0 -6.02039,9.28755 1.06143,9.28755 14.84513,0 2.79794,-13.70098 -0.53071,-3.71502 -1.97683,5.93048 4.20984,2.23057 5.30717,-1.06144 0.15063,-0.45188 0.35382,-0.88452 0.53072,-1.32679 1.194,-2.985 -13.94481,3.44967 -3.1843,3.44967 9.64811,0 4.05747,-11.82997 0.79607,-5.30718 -4.06961,8.13921 10.95296,-2.3516 4.5111,-5.57253 -4.70106,-2.35053 -13.32505,9.23717 -1.06144,1.06143 7.24905,-4.8327 0.34312,-6.0522 -2.83017,-6.0522 -6.04338,0 -7.87113,6.55244 2.83017,-0.58177 4.63025,-3.08682 -4.91096,-6.64492 -3.18431,3.71503 0.59082,3.54486 19.7781,-2.91895 7.43006,-2.91895 -0.58792,0 -1.38975,3.44967 1.59215,3.44967 16.41878,0 2.94224,-10.68423 0.79607,-4.24575 -0.23066,0.69198 -0.35381,1.41525 -0.53072,2.12288 -0.24739,0.98956 8.77033,0.97594 7.43005,-3.71503 -0.1259,-0.44065 -5.41276,6.10325 0.26536,6.10325 11.87291,0 1.69846,-11.03794 3.71502,1.06144 0.7045,4.22701 12.59023,-7.86277 1.59215,-0.53072 -2.76587,1.84392 -1.60723,4.77646 1.85751,4.77646 10.25223,0 -1.06143,-8.33835 -1.06143,0.26536 0,5.22966 9.38357,-1.59215 4.24574,-1.59215 -6.45122,0 5.74899,4.50929 -1.59216,8.49147 -1.47565,0.80047 2.72937,-9.48258 1.85752,-2.65359 -0.77035,6.03391 3.58493,2.52351 0,-1.06143 -4.89706,-4.89706 -7.20259,14.21561 -4.24575,2.38823 0.10727,-0.42906 0,-0.88453 0,-1.3268 0,-3.95355 -11.35173,11.14507 -0.53071,11.14507 5.25428,0 9.73762,-7.16468 0.26536,-7.16468 -1.18769,0 -3.39473,5.30717 0.26535,5.30717 11.00557,0 2.8854,-9.75118 -1.06143,-1.85751 -3.21513,6.43026 12.72927,-0.53336 3.98038,-3.44966 -6.75944,-2.25315 -10.8139,15.22522 -2.65358,11.14506 4.77964,-2.38982 -5.30718,-14.05567 -5.30718,0.53072 0,3.19982 12.13332,-6.10325 4.5111,-6.10325 -6.53355,0 -4.64238,17.50808 -1.32679,4.24574 1.2708,-5.08318 -8.22613,-3.84119 -8.22613,4.77646 0,3.83904 14.3653,-7.43005 6.36861,-7.43005 -4.72841,0 -2.12286,13.95441 -2.12286,1.06144 0,-2.59254 -3.49747,1.92922 -4.5111,3.44966 -3.78819,5.68229 6.98069,2.55096 3.44966,-4.5111 -0.49565,-0.9913 -1.81063,1.59215 -2.91894,1.59215 -4.74476,0 -5.86714,13.32642 -0.26537,2.12288 1.87652,-3.75304 -6.10325,-2.41333 -6.10325,4.51109 0,1.15486 6.80456,-6.10324 -0.79607,-6.10324 -8.90867,0 -6.64452,8.77266 -1.32679,0.79607 3.54939,-5.32409 -7.16469,-5.34978 -7.16469,1.59215 0,2.75589 12.12923,-2.6729 6.89932,-3.98038 -6.19241,-1.5481 0.74858,10.27569 6.63398,2.91894 1.44629,-1.80786 -4.35956,-1.06143 1.32679,-1.06143 5.14532,0 3.2202,-11.25745 -6.10325,-5.04181 -3.62751,2.41833 4.07128,4.34401 2.65358,-1.3268 -0.60584,-2.42337 -14.27712,5.57253 -0.79607,5.57253 5.66518,0 5.08158,-4.77645 -4.5111,-4.77645 -9.0144,0 -2.12287,9.70574 -2.12287,-0.79608 0,-1.14793 -5.30717,0.79037 -5.30717,4.5111 0,7.18464 1.06143,-7.40817 1.06143,-9.55291 0,-4.30792 -11.16306,4.77645 -1.06143,4.77645 5.07415,0 4.32466,-5.4936 3.44965,-6.36861 -1.16341,-1.16341 3.24458,-1.44732 3.98039,-2.91894 1.98334,-3.96669 -6.20058,-4.93783 -7.96076,-1.85751 -0.96248,1.68432 2.9611,-0.46781 2.68676,-2.38823 -0.34077,-2.38535 -7.48537,3.88087 -2.68676,5.04181 5.02443,1.21558 10.58195,-6.89932 3.71502,-6.89932 -8.43997,0 6.63397,11.0247 6.63397,-2.91895 0,-2.51905 -11.66188,4.24574 -3.44967,4.24574 4.71013,0 12.1143,-7.43004 2.65359,-7.43004 -9.55932,0 1.59215,10.80172 1.59215,0 0,-3.52797 -12.44938,5.57253 -2.12286,5.57253 7.55838,0 4.31472,-8.09873 1.8575,-3.1843 -1.48486,2.96974 8.77645,3.03657 7.96077,-1.85751 -0.10779,-0.64673 -1.59476,3.71501 1.85751,3.71501 5.96095,0 6.30694,-5.2455 3.18431,-2.12286 -2.68278,2.68276 1.39074,2.59918 1.59215,1.59215 0.0223,-0.11159 -3.87811,5.83789 2.12287,5.83789 2.99656,0 0.39412,-6.0876 -1.06144,-0.26536 -0.31235,1.24944 -0.70762,2.47668 -1.06143,3.71502 -1.34995,4.72482 4.34948,2.48595 2.65358,-3.44966 -0.91009,-3.18534 -8.23934,3.71502 1.3268,3.71502 5.46039,0 0.93378,-5.84795 -3.98038,3.98038 -1.0607,2.12141 7.95632,2.62691 6.89932,-3.71502 -0.15716,-0.94298 -10.36968,7.16469 -2.91894,7.16469 1.03153,0 1.76905,-1.06144 2.65358,-1.59215 2.70778,-1.62467 -7.3427,-6.63061 -10.87971,3.98038 -1.96107,5.88322 5.01173,9.02495 6.36862,2.91894 0.85506,-3.84776 -4.92289,-0.50322 -6.10325,1.85752"
         id="path11803"
         style="opacity:0.63200001;fill:url(#linearGradient59289);fill-opacity:1;fill-rule:evenodd;stroke:none" />
      <path
         inkscape:connector-curvature="0"
         d="m 892.74533,340.27229 c 1.78384,8.83002 14.93504,-3.07086 8.22612,-5.30717 -6.64371,-2.21457 -7.11008,10.69243 -0.26536,3.8477 3.01631,-3.0163 -9.02219,-8.43853 -9.02219,-0.79607 0,3.5651 2.37004,1.34498 4.24573,-0.53072 2.19551,-2.1955 0.92876,-2.11505 0.92876,2.91894 0,5.48738 -3.44966,9.32409 -3.44966,-0.13268 0,-1.55848 5.72753,-4.27157 6.36861,-4.37841 1.84535,-0.30756 -1.164,5.286 -2.91895,2.65358 -3.23212,-4.84817 -1.35713,-9.01268 -4.11306,-2.12287 -0.71173,1.77933 -0.39626,2.46079 0,3.8477 0.62725,2.19538 2.52091,-3.50554 2.52091,-6.10325 0,-0.50354 -2.80757,4.83748 1.19411,5.8379 2.10559,0.52639 1.52127,-3.51146 2.65359,-4.64379 1.66662,-1.66661 0.92876,-3.42591 0.92876,0.79609 0,9.36307 3.44966,-6.16865 3.44966,-3.71502 0,7.83908 0.53423,8.48445 4.51109,0.53071 2.14776,-4.29551 -1.12934,9.35547 3.18431,5.04182 1.95973,-1.95973 2.38823,-12.17158 2.38823,-1.59216 0,6.66793 6.63397,-1.86163 6.63397,-5.57253 0,-4.48917 -1.53839,8.22612 3.18431,8.22612 2.47852,0 7.33404,-7.43004 -1.85752,-7.43004 -1.76415,0 -3.79008,8.40637 -1.32679,9.02219 4.58582,1.14646 5.8864,-5.52402 3.44966,-7.96076 -3.03041,-3.03042 -7.36294,-2.12491 -8.75684,1.59215 -5.19335,13.84892 8.80852,6.42029 4.24574,1.85752 -2.60916,-2.60917 -6.95004,1.72737 -7.6954,3.71502 -1.23577,3.2954 -2.19919,9.0222 2.65359,9.0222 0.54929,0 2.47162,-7.02519 -0.53072,-8.22613 -5.97267,-2.38907 -7.16469,3.15315 -7.16469,8.09344 0,1.42908 5.12315,-0.86454 2.38823,-4.5111 -3.2341,-4.31213 -10.87971,1.37131 -10.87971,-8.75683 0,-2.50836 5.94224,-0.81875 6.63397,-0.26536 1.16735,0.93389 5.52885,6.04783 2.12287,6.89933 -5.96984,1.49246 -4.51109,5.82978 -4.51109,-2.78627 0,-5.25821 3.8477,-8.349 3.8477,0.13268 0,6.94563 -0.55732,3.61555 4.37841,0.53072 5.60789,-3.50494 3.54475,-6.36642 4.64378,1.32679 1.0088,7.06158 1.70324,4.26734 5.70521,0.26536 1.07146,-1.07145 1.99019,-5.79781 1.99019,0 0,10.2259 0,5.63399 0,-1.59215 0,-0.83978 -3.49271,-6.68406 -4.24573,-2.91895 -1.43128,7.15641 3.71502,5.53602 3.71502,-2.12287 0,-4.94714 -5.19847,-7.11673 -7.43005,-2.65359 -2.38706,4.77413 -4.131,10.26191 3.71503,6.89933 4.12006,-1.76574 3.25346,-7.77621 0.53072,-9.81827 -5.61583,-4.21187 -11.76471,5.57253 -6.63398,5.57253 4.01793,0 7.43005,-1.07557 7.43005,-5.57253 0,-2.83513 -5.94843,-1.05412 -6.89933,0.53071 -3.61002,6.0167 -1.03704,10.87971 5.83789,10.87971 4.14232,0 -3.24501,-8.63052 -3.71502,-9.0222 -0.31012,-0.25843 -9.37453,-5.8423 -10.34899,-2.91894 -1.8213,5.46392 6.35639,8.28724 7.43005,2.91894 1.26031,-6.30157 -6.7822,-7.39894 -9.0222,-2.91894 -7.49351,14.98702 13.78006,4.4925 5.83789,-3.44966 -2.30864,-2.30864 -8.22891,1.55663 -9.81827,2.91894 -1.6917,1.45003 -4.61229,11.71683 -0.53072,12.73722 4.40685,1.10171 5.78538,-7.69541 1.06144,-7.69541 -11.53466,0 -3.41466,19.51405 1.32679,2.91895 1.37185,-4.80146 -3.1946,-6.0909 -5.83789,-2.91895 -7.97173,9.56608 3.66753,24.24264 10.08363,11.41043 2.53709,-5.07417 -4.5111,-10.7543 -4.5111,1.59216 0,5.90928 14.82066,-6.36861 1.85751,-6.36861 -3.26365,0 -8.56801,18.38628 2.12287,7.6954 2.79861,-2.7986 -3.1843,-9.38485 -3.1843,2.5209 0,5.81758 9.61005,-4.51109 -0.53072,-4.51109 -1.08856,0 -9.48715,10.21699 -3.8477,3.44966 7.50671,-9.00805 9.55291,-10.00446 9.55291,1.06143 0,2.95483 -5.57253,4.38085 -5.57253,1.72484 0,-3.97333 6.54262,-3.18431 3.8477,-3.18431 -3.5667,0 -14.59968,8.105 -9.81827,-3.05162 2.42377,-5.65546 1.32679,-0.51663 1.32679,2.91894 0,7.81595 9.44414,-0.73949 10.87971,-2.65358 1.1145,-1.48601 0,3.71502 0,5.57253 0,12.30985 4.33552,-0.50212 8.75684,-3.44966 1.26879,-0.84586 0.35895,5.84766 -3.8477,6.89933 -11.84363,2.9609 1.0048,-12.31976 3.44966,-7.43005 2.29887,4.59774 -5.17449,8.27321 -5.17449,0.79608 0,-3.69894 6.19253,-5.65932 7.6954,-2.65359 4.25081,8.50163 -7.43005,9.4832 -7.43005,1.59215 0,-3.08236 14.25481,-4.40747 4.37842,0.53071 -5.69634,2.84818 -5.74106,-5.13864 -3.98038,-6.89931 0.14986,-0.14987 -3.61074,9.59549 -1.45947,6.3686 2.12476,-3.18714 4.77646,-6.49927 4.77646,-9.55291 0,-1.03718 -1.08322,11.03416 1.19411,8.75684 6.8238,-6.8238 3.98038,-16.32657 3.98038,-1.59215 0,8.14379 5.21975,-7.03509 5.30718,-7.29737 0.49565,-1.48695 -0.77645,3.0435 -1.3268,4.5111 -3.70623,9.8833 -0.0958,9.99521 1.59215,-0.13268 1.22901,-7.37402 -1.8575,2.69066 -1.8575,5.97057 0,7.56729 11.54861,-10.44112 3.84769,-5.30718 -3.72425,2.48284 -2.40205,19.29381 0.39804,8.09344 0.88966,-3.5586 4.44961,-9.55291 -1.06143,-9.55291 -2.19478,0 -1.59705,12.35389 1.32679,3.58234 3.16074,-9.48222 -9.30587,-6.13987 -6.36861,-0.26535 1.35554,2.71108 5.57254,-2.5452 5.57254,-5.57254 0,-3.79292 -5.38055,-1.82937 -6.10325,1.06144 -0.0858,0.34324 0,0.70762 0,1.06143 0,0.87029 4.11306,-0.0416 4.11306,-5.83789 0,-5.60442 -12.85602,1.06143 -4.24575,1.06143 5.02185,0 3.65051,-9.48839 -4.51109,-1.32679 -1.16208,1.16208 0.53071,3.27825 0.53071,-1.45947 0,-0.3647 -0.1769,-0.70763 -0.26535,-1.06143 -0.56134,-2.24534 -8.32755,5.23954 -3.05163,8.75683 4.34848,2.89899 3.82459,-3.40942 5.30717,2.52091 0.52736,2.10943 0.99357,9.44844 -1.99019,9.02219 -4.2814,-0.61163 5.13967,-3.71502 6.10326,-3.71502 4.85578,0 0.18754,7.04797 -2.38823,3.18431 -2.59584,-3.89375 6.09979,-4.95106 1.45947,-1.85751 -7.86939,5.24626 -9.35325,-5.03087 -3.71502,-5.97058 0.58788,-0.098 0.48491,5.98203 -3.71502,7.03201 -6.58125,1.64531 2.67234,-6.99449 5.17449,-1.99019 0.85568,1.71136 3.18431,0.55103 3.18431,-1.59216 0,-1.66405 1.68959,-7.7493 0.53072,-0.79607 -0.96995,5.81967 0.66339,2.8042 0.66339,-0.92875 0,-0.98894 0.62751,3.35287 1.3268,2.65358 0.62712,-0.62713 0.92875,-4.82862 0.92875,-0.66339 0,4.6054 2.34959,-0.53072 -1.72483,-0.53072 -3.93836,0 -1.04454,6.42775 -2.38824,1.72483 -0.55992,-1.95978 -4.73653,1.9632 -5.17449,3.71503 -0.0578,0.23105 -0.1769,0.44226 -0.26536,0.66339 -0.0884,0.22114 0.17691,-0.44227 0.26536,-0.66339 0.13038,-0.32594 -6.44125,1.93755 -4.90913,3.98038 2.20437,2.93915 1.7743,-5.8379 -1.06144,-5.8379 -8.66574,0 -1.45947,7.247 -1.45947,-0.39804 0,-5.27263 -7.46299,-1.75777 -5.70521,0 2.89553,2.89554 3.64932,-9.65339 0.13268,-4.37841 -0.3572,0.53579 -0.35382,1.23834 -0.53072,1.8575 -0.68118,2.38413 6.81043,-2.80849 1.06143,-4.24573 -4.04181,-1.01046 -12.26863,6.33473 -2.12287,4.64377 6.9907,-1.16511 5.25566,-13.80645 3.05163,-2.78626 -1.38587,6.92936 13.75307,-2.65359 10.34899,-2.65359 -0.59975,0 -5.77039,12.23792 -0.53072,4.37842 6.29145,-9.43717 -6.23189,-4.79665 -6.89932,-1.45947 -0.0867,0.43367 0,0.88453 0,1.32679 0,2.99628 6.71396,-3.75551 7.29736,-4.77646 4.82111,-8.43694 -10.08363,-11.56854 -10.08363,-0.92875 0,2.51973 11.31383,-5.17449 2.52091,-5.17449 -3.69393,0 -7.47089,12.38002 -0.6634,5.57253 2.82089,-2.8209 -0.76274,-6.92295 -3.18431,-7.96077 -6.87071,-2.94458 -10.37186,5.57254 -3.1843,5.57254 9.77271,0 3.68064,-7.92638 -1.3268,-2.91895 -4.08058,4.08059 2.52256,2.2277 3.31699,1.59215 7.36157,-5.88925 -1.14582,-11.33826 -2.38823,-6.3686 -1.20067,4.80271 6.10326,2.70458 6.10326,-1.06144 0,-1.10949 -4.24575,-2.97162 -4.24575,1.19411 0,4.04463 7.41462,-0.41345 3.98038,-3.8477 -0.90347,-0.90347 -3.88238,6.63397 0.13268,6.63397 3.00864,0 6.901,-5.30717 2.91895,-5.30717 -0.6772,0 -0.21462,4.3134 0.13268,4.77645 1.05499,1.40665 9.024,-5.83789 -0.26536,-5.83789 -1.68416,0 -2.37852,9.19262 5.04182,4.24574 1.66347,-1.10898 -0.18167,-3.98038 -2.6536,-3.98038 -4.58029,0 -8.98051,21.18701 0.79608,11.41042 2.53278,-2.53278 0.13268,-11.25527 0.13268,-3.44966 0,3.49612 2.31878,-1.5797 2.38823,-1.85751 1.90176,-7.60704 -0.79424,-3.31638 3.18431,-1.99019 4.50569,1.5019 3.02824,-4.91676 3.98038,0.79607 0.92128,5.52769 3.8477,12.17348 3.8477,1.3268 0,-2.54353 -3.0671,-4.41826 -3.58235,-1.3268 -0.3642,2.18523 -3.71501,14.05469 -3.71501,4.64378 0,-4.13805 -2.27131,-4.99457 -3.58235,-1.06143 -1.63103,4.89308 -2.52091,11.75132 -2.52091,1.19411 0,-4.10578 -3.2343,-6.33396 -4.24573,-0.26536 -1.64223,9.85337 -2.32297,-0.26751 -4.11307,-3.8477 -0.18162,-0.36324 -2.41639,4.34432 -3.44966,7.96076 -1.2837,4.49296 -1.85751,2.80718 -1.85751,-0.13268 0,-7.28715 0.91277,-10.49925 -4.11306,-2.12286 -0.82986,1.3831 -1.32679,5.77056 -1.32679,1.85751 0,-4.10994 1.19411,-3.9848 1.19411,0 0,9.21016 -0.88747,7.90916 3.8477,1.99019 3.15608,-3.94511 -1.957,-2.94105 4.24574,1.19411 1.11373,0.74249 -2.64185,-0.53072 -3.98038,-0.53072 -1.04746,0 2.83787,-0.84768 1.59215,0.39804 -1.76894,1.76894 -6.67727,1.99019 0.13268,1.99019 4.89193,0 -0.74781,2.54201 -2.25555,2.91895 -0.66608,0.16652 1.3761,-0.22367 1.99019,-0.53072 0.82848,-0.41424 2.43285,1.45948 4.5111,1.45948 4.30448,0 5.57254,-3.478 5.57254,2.38822 0,3.92486 2.38612,4.46828 5.70521,2.25555 4.9865,-3.32433 -0.0556,-4.11306 3.8477,-4.11306 0.56127,0 1.47247,-3.15517 -1.3268,-3.71502 -0.97158,-0.19431 -3.82573,2.63514 1.06144,3.44966 1.57753,0.26293 -0.50496,1.52152 -1.72483,1.72483 -1.17379,0.19564 -1.78084,0.0207 -2.12287,-0.66339 -0.27127,-0.54255 -0.44793,-1.24402 -0.79608,-1.59216 -0.53783,-0.53783 0.26275,-1.39247 0.53072,-1.45947 0.68759,-0.1719 1.48444,-0.13268 2.25555,-0.13268 0.31277,0 1.55105,1.3268 2.65358,1.3268 2.20198,0 1.59215,-5.92957 1.59215,-7.03201 0,-4.73767 -4.82517,-3.71502 -8.22611,-3.71502 -5.23065,0 -6.36861,2.37413 -6.36861,7.43004 0,2.5549 8.55122,2.19581 10.08363,0.6634 0.59623,-0.59623 4.64378,-4.99197 4.64378,-3.44967 0,2.38944 -1.33309,7.03201 1.72483,7.03201 2.79677,0 2.00152,-7.39604 3.71502,-2.25555 0.25788,0.77365 -1.01551,-1.28086 -1.59215,-1.85751 -2.95226,-2.95225 -6.14814,-3.31649 -9.15488,-1.06143"
         id="path11809"
         style="opacity:0.63200001;fill:url(#linearGradient59286);fill-opacity:1;fill-rule:evenodd;stroke:none" />
      <path
         inkscape:connector-curvature="0"
         d="m 912.09592,319.42898 c 6.01316,2.18188 3.89251,-7.88496 2.6162,-2.77971 -0.55993,2.23971 -0.90847,4.15432 -0.16352,5.3959 1.93837,3.23063 2.77119,-14.01942 0.81756,-4.25131 -1.18584,5.92919 3.52692,2.11328 2.28917,-0.98108 -0.63064,-1.57662 0.0126,9.28236 1.63514,4.41483 2.98611,-8.95838 -3.85326,-2.87217 0.1635,1.14459 2.84078,2.84077 4.81572,-13.2287 2.12566,-7.84859 -2.40538,4.81076 0.71047,6.24726 3.43376,2.61619 5.35439,-7.13919 -2.28917,-7.89195 -2.28917,2.28918 0,1.51195 4.2916,-3.10673 0.81756,-3.10673 -1.99703,0 -0.98107,14.34472 -0.98107,5.3959 0,-2.02738 -4.08433,0.97065 -4.74186,2.94322 -1.87149,5.61448 0.66698,-5.06888 -4.25132,-5.06888 -0.51576,0 -6.76238,8.56101 -2.45268,4.25132 1.01381,-1.01382 5.92308,-3.92429 2.45268,-3.92429 -0.32244,0 -5.88324,4.74185 -0.32702,4.74185 10.25981,0 3.98063,-5.72844 1.47161,1.79864 -0.49863,1.49589 9.86143,-2.6162 2.28917,-2.6162 -1.71208,0 -6.34114,6.47273 0.32703,1.47161 5.8227,-4.36703 -3.76079,-3.234 -3.76079,0.65405 0,1.86926 6.26427,-0.74295 6.86751,-1.79864 0.85129,-1.48975 -8.60457,4.53217 -2.77971,0.16352 2.4879,-1.86592 3.90228,-10.66813 -3.76077,-5.55942 -3.38292,2.25528 8.98563,-5.28941 3.27024,-7.19454 -3.89921,-1.29974 -10.35528,6.64925 -0.32702,1.63512 5.69121,-2.8456 -2.94322,-4.64008 -2.94322,1.3081 0,1.06003 9.81331,0.003 7.35805,-2.45268 -0.29168,-0.29168 -2.87313,4.90536 1.63512,4.90536 2.79318,0 3.75876,-9.88947 -0.98108,-2.7797 -0.30832,0.46248 -0.21801,1.09008 -0.32702,1.63512 -0.41407,2.07035 4.59659,-0.76318 5.3959,-1.96215 0.35258,-0.52887 0.65405,-1.09008 0.98107,-1.63512 1.48667,-2.47778 -8.49278,7.84859 -2.12565,7.84859 5.32384,0 0.32703,-6.45877 0.32703,1.3081 0,1.20631 7.42869,-2.6162 0.98107,-2.6162 -6.10215,0 -7.85447,10.3597 1.3081,4.25132 3.23929,-2.15954 -10.13776,-5.34523 -10.13776,3.43376 0,1.10675 6.83114,-0.1815 7.52156,-2.94322 0.22383,-0.89534 -4.22439,-1.52549 -5.88644,1.79863 -3.49988,6.99977 12.22837,3.04055 4.57834,0.49054 -8.02688,-2.67563 -13.17915,2.28917 -6.704,2.28917 3.1672,0 -0.56854,-10.84207 -4.57834,-0.81756 -2.24837,5.62089 0.45452,2.56145 4.08781,-0.16351 2.69035,-2.01777 -5.99558,-6.758 -8.50265,3.27024 -1.44015,5.76063 7.78353,-3.27024 2.28918,-3.27024 -1.38923,0 -8.45361,13.6165 0.32701,7.03102 6.47732,-4.85798 -5.23239,-13.5578 -5.23239,-2.28917 0,1.50295 4.88651,0.51317 6.5405,-1.47161 6.00776,-7.20931 -7.77185,-9.46363 -10.79181,2.6162 -0.44101,1.76403 5.52428,0.25135 6.54049,-2.28917 3.57828,-8.94571 -9.02701,-2.41886 -11.77289,0.32702 -0.047,0.047 5.80105,-0.96783 6.21347,-1.14459 9.25594,-3.96683 2.43765,-16.46966 -0.98107,-6.21346 -1.4164,4.24919 6.43609,-1.81323 7.03102,-2.28917 5.64531,-4.51624 -5.73413,-5.31087 -4.57833,2.7797 0.26521,1.85653 9.8165,-6.54049 2.7797,-6.54049 -7.39244,0 -7.69423,11.94555 1.63512,2.6162 4.68624,-4.68624 -3.25294,-7.91777 -5.55942,1.3081 -0.39339,1.57359 7.8486,0.80151 7.8486,-4.90537 0,-4.1393 -4.07767,1.66049 -3.43376,3.27025 1.83401,4.58502 5.90038,-14.00121 0.16351,-5.39591 -3.87163,5.80746 -1.12128,6.84421 2.94322,2.77971 5.18195,-5.18195 -0.81757,-5.18578 -0.81757,-2.12566 0,4.35809 -2.37081,3.10673 3.92431,3.10673 4.62776,0 4.27237,-12.346 -0.32703,-6.21346 -2.79936,3.73248 -0.6621,7.52558 3.27025,5.55941 6.31219,-3.15609 4.90536,-10.90285 4.90536,-9.15668 0,4.03221 -2.49239,9.18316 3.9243,4.90536 1.3762,-0.91747 1.10104,-6.36632 -0.16351,-1.30809 -1.99905,7.99616 6.94277,5.28165 6.04995,0.81756 -0.23469,-1.17345 -6.71942,8.82966 -1.79864,8.82966 2.9331,0 5.84764,-10.09896 -1.79864,-2.45268 -3.14511,3.14511 -2.78055,5.55941 0.32703,5.55941 6.43514,0 0.59782,-9.52959 -1.63512,1.63513 -1.70539,8.5269 4.34851,-5.37819 0.32702,0.65405 -2.18733,3.28101 -0.32702,6.8942 -0.32702,2.61619 0,-5.19189 -0.1566,-0.28442 1.63512,0.16351 1.58983,0.39746 -0.0704,-3.31554 0.32703,-4.90536 0.109,-0.43604 0.21801,-0.87207 0.32702,-1.3081 0.0668,-0.26724 1.79981,4.90302 -0.65405,9.81073 -0.12187,0.24376 -0.32703,0.43604 -0.49054,0.65405 -3.15374,4.20499 -2.94322,-13.19626 -2.94322,-7.68507 0,1.75939 -0.77854,3.45174 -1.47161,5.06888 -0.95932,2.23842 1.86645,-9.0949 -1.47161,-4.08781 -6.36396,9.54594 -2.12565,6.49894 -2.12565,-0.49053 0,-0.88647 -0.78011,2.19553 -2.12567,5.55941 -4.16042,10.40106 0.40204,-0.74254 -2.12566,-3.27024 -3.17167,-3.17168 -3.10673,11.0048 -3.10673,2.28917 0,-1.2725 -0.92382,2.77971 0.98108,2.77971 4.60145,0 5.55941,-10.48776 5.55941,-1.79864 0,1.81684 -0.87257,4.55634 0.81757,5.23239 1.09008,0.43604 0.78304,-2.22013 1.30809,-3.27024 0.69287,-1.38573 2.73788,-1.65413 3.59727,-2.94322 1.38258,-2.07387 -1.46793,5.57414 -2.12565,2.94322 -0.64257,-2.57026 -10.86879,0.1462 -3.59728,-1.3081 4.94597,-0.98919 4.29021,-4.75741 -3.10672,-1.79864 -12.89899,5.1596 3.27024,9.17344 3.27024,1.96216 0,-2.6212 -11.14605,5.19602 -4.08781,0.49053 4.64838,-3.09892 -3.59728,-6.61154 -3.59728,1.47161 0,1.89172 10.43182,-6.04995 1.63513,-6.04995 -6.38465,0 -2.24732,10.03314 1.96215,-0.49054 1.06444,-2.66111 -4.17064,-6.69752 -5.2324,-0.32703 -0.49302,2.9582 4.62288,-3.0622 2.28918,-5.3959 -4.82678,-4.82678 -9.97844,5.64327 -7.84859,4.57834 5.85777,-2.92889 3.17011,-11.36684 -1.3081,-5.3959 -1.37027,1.82704 -2.74619,7.22669 0.98108,4.74186 7.69691,-5.13128 0.32702,-14.97724 0.32702,-9.48372 0,4.00544 0.38061,5.52369 5.23238,2.28917 6.80604,-4.53735 -1.67367,-11.94567 -3.43375,-4.90537 -1.09965,4.39865 10.67557,-1.52972 4.57835,-4.57834 -7.62151,-3.81075 -9.03745,10.05827 -3.76078,6.54049 5.95913,-3.97275 1.18227,-12.94239 -0.49054,-4.57834 -1.14092,5.70455 10.32812,2.79192 8.82966,-2.45269 -0.25517,-0.89308 -3.40992,-0.65404 -4.0878,-0.65404 -0.013,0 -2.12005,9.55703 1.63512,3.92429 1.48663,-2.22995 4.63148,-3.92429 0.65405,-3.92429 -0.53324,0 -2.50562,5.55941 0.81756,5.55941 5.97776,0 0.49054,-12.70803 0.49054,-3.76078 0,4.5752 3.92429,-3.64258 3.92429,-5.3959 0,-1.16048 -2.68366,7.52156 2.12566,7.52156 8.56657,0 4.57833,-7.15754 4.57833,1.96215 0,7.83785 2.1211,-1.46819 4.08782,-2.94322 1.61332,-1.20999 0,4.0333 0,6.04995 0,6.92402 3.10673,1.13561 3.10673,-0.49054 0,-0.92657 0,1.85314 0,2.77971 0,1.73753 -1.14458,10.26642 -1.14458,6.86752 0,-0.54504 0,-1.09009 0,-1.63513 0,-2.83854 -3.59728,0.79161 -3.59728,3.9243 0,2.79214 -0.14161,-0.57814 0.49054,-3.10673 2.29335,-9.17342 -3.62925,5.09907 -4.0878,6.704 -2.25941,7.90789 1.06728,-3.43376 -3.27025,-3.43376 -0.0166,0 -4.59255,5.2324 0.49053,5.2324 3.47339,0 3.86532,-2.94322 -2.28916,-2.94322 -0.98108,0 -1.96215,0 -2.94322,0 -6.00739,0 3.27024,6.69852 3.27024,-1.79864 0,-3.79255 -8.03869,-0.81361 -7.35805,3.27024 0.57672,3.46034 3.1673,-5.45646 0.81757,-3.10673 -3.03974,3.03973 -0.32704,7.28937 -0.32704,-0.65405 0,-5.25571 -6.73143,-3.67041 -4.74185,1.63512 0.91515,2.44038 5.88644,-2.7431 5.88644,-5.23239 0,-5.48585 -9.78652,2.99016 -4.08781,4.41483 3.80947,0.95237 10.1211,-9.48371 0.32702,-9.48371 -4.80459,0 -1.21805,10.86528 6.86753,2.77971 2.20542,-2.20542 -5.88645,-7.79952 -5.88645,0.32702 0,2.05001 11.721,-0.37891 7.19454,-4.90536 -1.58495,-1.58496 -4.63158,6.704 2.6162,6.704 5.37969,0 1.79864,-5.43003 1.79864,0.32702 0,6.10051 5.55942,1.01754 5.55942,-2.12566 0,-2.43566 -3.18802,-0.32891 -3.59728,1.3081 -2.02237,8.0895 1.96215,2.33482 1.96215,-1.14458 0,-7.93021 -8.10463,-2.45269 -4.08781,-2.45269 0.32615,0 3.5877,-7.19454 -2.77971,-7.19454 -5.09207,0 -5.4529,11.82989 1.63513,4.74186 3.20471,-3.20471 -2.65027,-4.43016 -5.72294,-2.12566 -4.97623,3.73218 -5.85149,11.08389 0.49054,4.74185 1.6424,-1.64239 -4.51446,-2.35304 -6.5405,-0.32702 -8.15709,8.15711 -1.70578,10.42042 0,3.59727 1.15684,-4.62734 1.63514,1.68142 1.63514,1.96215 0,2.86368 -0.54789,10.04593 4.74186,3.43376 0.63538,-0.79424 -3.80978,2.03922 -7.8486,2.6162 -2.90219,0.41459 -2.39812,-8.75704 -8.66615,-4.57835 -1.9963,1.33086 -1.38068,6.86752 2.6162,6.86752 3.90539,0 10.11004,-0.49884 11.28235,-2.45269 0.40442,-0.67405 -0.87207,1.3081 -1.3081,1.96215 1.79576,0.28257 6.83202,-4.44334 4.74186,-1.3081 -3.86962,5.80441 3.04863,-3.80811 3.59727,-4.90537 0.40522,-0.81046 -0.67663,2.2666 0.81755,3.76079 4.16072,4.16071 5.55942,-10.42431 5.55942,-0.98108 0,0.59924 4.25132,-2.8932 4.25132,-5.88644 0,-3.70681 -2.4676,-1.3081 -5.06888,-1.3081 -0.54504,0 -1.09008,0 -1.63512,0"
         id="path11811"
         style="opacity:0.63200001;fill:url(#linearGradient59283);fill-opacity:1;fill-rule:evenodd;stroke:none" />
      <path
         inkscape:connector-curvature="0"
         d="m 894.37447,346.03448 c 3.4816,-0.24742 3.01144,-8.5597 5.04182,1.59216 1.39909,6.99543 -7.32853,-0.39002 -7.96076,-2.91895 -0.2024,-0.80955 0.58042,1.74968 1.32679,2.12287 1.44503,0.72251 3.79013,-11.78595 1.59215,-0.79608 -0.55722,2.78613 9.29971,-2.12287 0.79607,-2.12287 -0.88452,0 -1.76905,0 -2.65358,0 -3.20162,0 7.43005,6.66795 7.43005,-0.79608 0,-6.97946 -17.36912,3.71503 -7.16469,3.71503 5.63327,0 3.63155,-5.57254 -1.59216,-5.57254 -2.65008,0 7.69541,11.74229 7.69541,3.71502 0,-16.52755 -17.70744,-5.50093 -10.61435,1.59215 4.44505,4.44505 11.67579,4.26899 11.67579,-2.12286 0,-15.64176 -18.84445,-8.23009 -10.349,0.26536 4.53179,4.53179 7.13976,-3.18431 0,-3.18431 -4.34117,0 8.49148,20.88163 8.49148,0 0,-6.95195 -13.48309,1.58068 -3.71502,4.5111 6.13724,1.84117 10.61435,6.29661 10.61435,-3.44967 0,-11.60715 -19.12194,-2.07302 -7.43005,0.26537 17.05821,3.41163 3.37679,9.74538 -3.1843,3.1843 -5.44397,-5.44398 -3.71502,-8.54865 -3.71502,-1.06144 0,9.28372 15.17741,4.80245 2.91894,-1.32679 -5.40605,-2.70303 -6.35543,7.17128 -2.65358,9.02219 5.54574,2.77288 8.49148,6.2294 8.49148,-1.06143 0,-6.8468 -14.91517,-7.80556 -10.34899,1.3268 1.28312,2.56624 6.89932,4.41185 6.89932,-1.59215 0,-6.08488 -4.33972,-5.86139 4.24574,-3.71502 1.30705,0.32675 2.47668,1.06142 3.71503,1.59215 0.58627,0.25126 1.06143,0.70762 1.59215,1.06143 2.16033,1.44022 -4.92612,5.5499 -8.49148,0.79607 -0.2073,-0.27639 -7.53592,-5.85553 -2.65359,-5.04181 0.63235,0.10539 8.49155,-3.05161 4.77646,-3.98038 -1.52627,-0.38157 -13.18897,-3.42992 -5.8379,-1.59215 17.72383,4.43095 4.62681,-11.41042 -2.38822,-11.41042 -4.51734,0 8.84845,12.12436 3.98038,2.38823 -4.03804,-8.07608 -17.80976,0.68714 -4.5111,9.5529 2.81265,1.8751 -6.10325,-10.64509 -6.10325,-1.85751 0,4.36734 16.81777,6.02066 6.89932,1.06144 -13.83459,-6.9173 -8.50204,4.87837 -2.12286,7.43005 5.6848,2.27391 -15.11079,-16.68827 -8.22612,-2.91895 1.10844,2.21689 7.16468,4.56953 7.16468,-2.38823 0,-17.62454 -18.01811,-4.2326 -1.59215,3.98038 0.42605,0.21302 0.88452,0.35381 1.32679,0.53072 3.18401,1.2736 -8.75683,-15.61689 -8.75683,-5.8379 0,11.20925 14.26874,4.34811 6.10325,0.26536 -6.03695,-3.01847 -6.01165,6.14906 0.26535,9.28756 4.34626,2.17312 3.7769,3.25333 6.10326,1.85751 2.63859,-1.58316 -17.72583,-6.24469 -6.36861,1.32679 10.14858,6.76573 10.65463,-7.96076 -0.53072,-7.96076 -4.04962,0 0.96489,11.25606 6.89933,7.6954 0.81804,-0.49082 -9.28756,-10.31919 -9.28756,-0.53071 0,3.2632 14.32937,9.15048 14.32937,2.65358 0,-9.9856 -12.36639,-0.79607 3.44967,-0.79607 0.88453,0 1.76906,0 2.65358,0 4.26349,0 -15.30134,-10.81261 -2.65358,-1.3268 1.00879,0.7566 10.03677,2.65359 10.08362,2.65359 7.72767,0 -8.55193,-2.18332 -10.34899,-3.98038 -0.0465,-0.0465 3.56643,-0.39274 8.75684,-2.12287 4.58068,-1.52689 -1.60895,-12.2065 -9.81827,-12.2065 -8.32718,0 4.97715,0.84625 5.83789,1.06144 2.87694,0.71923 -5.526,-2.65359 -8.49148,-2.65359 -1.59684,0 9.67588,-3.14331 1.59215,-5.83789 -0.90377,-0.30126 -1.76905,-0.70762 -2.65358,-1.06144 -1.65116,-0.66046 9.14269,-5.11359 7.96076,0.79608 -0.0347,0.17332 -6.69691,-0.79608 -2.38823,-0.79608 5.81642,0 22.33165,4.43438 6.10325,8.49148 -11.88343,2.97085 -2.5205,0.59726 6.36861,5.04182 0.50037,0.25018 1.06143,0.35381 1.59215,0.53071 0.25944,0.0865 -3.49239,-3.26133 -9.55291,-4.77646 -6.92382,-1.73094 -1.72843,9.23593 3.44966,7.16469 11.4007,-4.56028 -17.76706,-9.27956 -5.04181,-0.79608 6.83033,4.55357 6.16902,-5.99665 0,-1.06143 -2.49212,1.99369 18.70381,7.79392 6.63396,4.77645 -13.29719,-3.32429 -1.25992,4.62185 2.38823,5.8379 1.76219,0.58739 -3.71502,0 -5.57253,0 -7.81516,0 -1.69941,1.29859 0.79607,5.04181 3.72588,5.58882 -8.55377,-9.47443 -5.83788,-1.32679 0.1769,0.53072 0.3538,1.06144 0.53072,1.59215 2.71245,8.13739 0,-12.41247 0,-6.36861 0,1.85752 0,3.71503 0,5.57254 -0.0193,-0.70482 0.34243,-11.18803 -0.79608,-6.63397 -0.88565,3.54256 -0.17091,12.94415 -2.12287,3.1843 -0.24533,-1.22662 -0.35382,-2.47668 -0.53072,-3.71502 -0.37548,-2.62837 -0.26536,5.30571 -0.26536,7.96076 0,7.39375 5.54556,-1.11538 3.18431,-5.83789 -1.75191,-3.5038 -4.24575,13.36817 -4.24575,6.36861 0,-2.80087 -7.16468,-3.80281 -7.16468,0.79608 0,1.16237 9.28755,6.02038 9.28755,-1.06143 0,-14.84514 -13.70098,-2.79794 -3.71502,0.53071 5.93048,1.97683 2.23058,-4.20984 -1.06143,-5.30717 -0.45189,-0.15064 -0.88453,-0.35382 -1.3268,-0.53072 -2.985,-1.194 3.44967,13.94481 3.44967,3.1843 0,-9.64811 -11.82997,-4.05747 -5.30718,-0.79607 8.13921,4.0696 -2.3516,-10.95296 -5.57253,-4.51111 -2.35053,4.70107 9.23717,13.32505 1.06143,1.06144 -4.83269,-7.24905 -6.05219,-0.34312 -6.05219,2.83018 0,6.04337 6.55243,7.87113 -0.58177,-2.83018 -3.08683,-4.63024 -6.64493,4.91097 3.71502,3.18431 3.54486,-0.59082 -2.91894,-19.77809 -2.91894,-7.43005 0,0.58791 3.44966,1.38975 3.44966,-1.59215 0,-16.41877 -10.68423,-2.94224 -4.24574,-0.79608 0.69197,0.23066 1.41525,0.35382 2.12286,0.53073 0.98957,0.24738 0.97595,-8.77033 -3.71501,-7.43005 -0.44066,0.1259 6.10325,5.41275 6.10325,-0.26536 0,-11.87291 -11.03795,-1.69846 1.06143,-3.71502 4.22701,-0.7045 -7.86277,-12.59023 -0.53072,-1.59215 1.84392,2.76587 4.77646,1.60723 4.77646,-1.85751 0,-10.25223 -8.33836,1.06143 0.26536,1.06143 5.22966,0 -1.59215,-9.38356 -1.59215,-4.24573 0,6.45122 8.49147,9.9438 8.49147,1.59215 0,-9.53072 -9.54445,-3.58024 -2.65358,-1.85752 5.90126,1.47532 2.5235,-3.58493 -1.06143,0 -4.89707,4.89707 14.2156,7.20259 2.38822,4.24575 -0.42905,-0.10727 -0.88453,0 -1.32679,0 -3.95355,0 11.14506,11.35173 11.14506,0.53072 0,-5.25429 -7.16468,-9.73763 -7.16468,-0.26537 0,1.18769 5.30717,3.39473 5.30717,-0.26535 0,-11.00557 -9.75117,-2.8854 -1.8575,1.06143 6.43025,3.21513 -0.53337,-12.72927 -3.44967,-3.98038 -2.25314,6.75944 15.22522,10.81389 11.14506,2.65359 -2.38982,-4.77964 -14.05566,5.30716 0.53072,5.30716 3.19982,0 -6.10325,-12.1333 -6.10325,-4.51108 0,6.53354 17.50808,4.64237 4.24574,1.32679 -5.08318,-1.2708 -3.84118,8.22611 4.77646,8.22611 3.83904,0 -7.43005,-14.36529 -7.43005,-6.3686 0,4.72841 13.95441,2.12286 1.06144,2.12286 -2.59254,0 1.92922,3.49747 3.44966,4.5111 5.68229,3.78819 2.55097,-6.98069 -4.5111,-3.44966 -0.9913,0.49564 1.59215,1.81063 1.59215,2.91894 0,4.74476 13.32642,5.86714 2.12288,0.26536 -3.75304,-1.87652 -2.41334,6.10326 4.5111,6.10326 1.15485,0 -6.10325,-6.80456 -6.10325,0.79607 0,8.90866 8.77266,6.64452 0.79607,1.32679 -5.32409,-3.54939 -5.34978,7.16469 1.59215,7.16469 2.75589,0 -2.6729,-12.12923 -3.98038,-6.89933 -1.5481,6.19242 10.27569,-0.74857 2.91894,-6.63397 -1.80786,-1.44629 -1.06143,4.35956 -1.06143,-1.32679 0,-5.14533 -11.25745,-3.22021 -5.04181,6.10325 2.41833,3.6275 4.344,-4.07129 -1.3268,-2.65358 -2.42337,0.60584 5.57253,14.27712 5.57253,0.79607 0,-5.66518 -4.77645,-5.08158 -4.77645,4.5111 0,9.01439 9.70574,2.12287 -0.79608,2.12287 -1.14793,0 0.79037,5.30717 4.5111,5.30717 7.18465,0 -7.40817,-1.06143 -9.55291,-1.06143 -4.30791,0 4.77646,11.16306 4.77646,1.06143 0,-5.07415 -5.49362,-4.32466 -6.36861,-3.44966 -1.16342,1.16342 -1.44733,-3.24457 -2.91895,-3.98038 -3.96668,-1.98334 -4.93782,6.20058 -1.85751,7.96076 1.68432,0.96247 -0.4678,-2.96111 -2.38823,-2.68676 -2.38535,0.34077 3.88087,7.48537 5.04181,2.68676 1.21559,-5.02443 -6.89932,-10.58195 -6.89932,-3.71502 0,8.43997 11.0247,-6.63397 -2.91894,-6.63397 -2.51905,0 4.24573,11.66188 4.24573,3.44966 0,-4.71013 -7.43005,-12.11429 -7.43005,-2.65358 0,9.55932 10.80173,-1.59215 0,-1.59215 -3.52796,0 5.57254,12.44938 5.57254,2.12286 0,-7.55839 -8.09873,-4.31473 -3.18431,-1.85751 2.96975,1.48487 3.03658,-8.77644 -1.8575,-7.96076 -0.64673,0.10779 3.71502,1.59475 3.71502,-1.85751 0,-5.96095 -5.2455,-6.30693 -2.12287,-3.1843 2.68276,2.68276 2.59918,-1.39074 1.59215,-1.59215 -0.11158,-0.0223 5.8379,3.87809 5.8379,-2.12287 0,-2.99656 -6.0876,-0.39413 -0.26537,1.06144 1.24944,0.31235 2.47668,0.70762 3.71502,1.06143 4.72482,1.34995 2.48596,-4.34948 -3.44965,-2.65359 -3.18534,0.91009 3.71501,8.23933 3.71501,-1.32679 0,-5.4604 -5.84795,-0.93379 3.98038,3.98038 2.12141,1.0607 2.62691,-7.95632 -3.71501,-6.89933 -0.94298,0.15716 7.16468,10.36967 7.16468,2.91895 0,-1.03154 -1.06143,-1.76906 -1.59215,-2.65359 -1.62467,-2.70778 -6.63061,7.34271 3.98038,10.8797 5.88322,1.96107 9.02495,-5.01171 2.91895,-6.3686 -3.84776,-0.85506 -0.50322,4.92287 1.85751,6.10324"
         id="path11813"
         style="opacity:0.63200001;fill:url(#linearGradient59280);fill-opacity:1;fill-rule:evenodd;stroke:none" />
      <path
         inkscape:connector-curvature="0"
         d="m 882.62605,342.38876 c 8.83001,-1.78385 -3.07087,-14.93504 -5.30718,-8.22612 -2.21457,6.64371 10.69243,7.11008 3.84771,0.26536 -3.01631,-3.01631 -8.43854,9.02219 -0.79608,9.02219 3.5651,0 1.34498,-2.37004 -0.53072,-4.24574 -2.1955,-2.1955 -2.11505,-0.92876 2.91895,-0.92876 5.48737,0 9.32408,3.44966 -0.13268,3.44966 -1.55849,0 -4.27157,-5.72752 -4.37842,-6.3686 -0.30756,-1.84535 5.28601,1.16401 2.65359,2.91894 -4.84818,3.23213 -9.01269,1.35714 -2.12287,4.11307 1.77932,0.71172 2.46078,0.39625 3.8477,0 2.19537,-0.62725 -3.50555,-2.52092 -6.10326,-2.52092 -0.50353,0 4.83748,2.80757 5.8379,-1.19411 0.5264,-2.10558 -3.51146,-1.52126 -4.64378,-2.65357 -1.66662,-1.66663 -3.42592,-0.92876 0.79608,-0.92876 9.36307,0 -6.16866,-3.44967 -3.71503,-3.44967 7.83909,0 8.48446,-0.53423 0.53072,-4.5111 -4.29551,-2.14775 9.35547,1.12935 5.04182,-3.1843 -1.95973,-1.95972 -12.17158,-2.38823 -1.59215,-2.38823 6.66792,0 -1.86164,-6.63397 -5.57254,-6.63397 -4.48917,0 8.22612,1.53839 8.22612,-3.1843 0,-2.47852 -7.43005,-7.33405 -7.43005,1.85751 0,1.76415 8.40638,3.79008 9.0222,1.32679 1.14646,-4.58582 -5.52401,-5.88641 -7.96076,-3.44966 -3.03042,3.03041 -2.12491,7.36294 1.59215,8.75683 13.84893,5.19335 6.42029,-8.80851 1.85752,-4.24573 -2.60916,2.60916 1.72737,6.95003 3.71502,7.69539 3.2954,1.23578 9.0222,2.1992 9.0222,-2.65358 0,-0.54929 -7.02519,-2.47162 -8.22613,0.53072 -2.38907,5.97267 3.15315,7.16468 8.09344,7.16468 1.42908,0 -0.86453,-5.12314 -4.51109,-2.38822 -4.31214,3.2341 1.3713,10.87971 -8.75684,10.87971 -2.50835,0 -0.81875,-5.94224 -0.26536,-6.63398 0.93389,-1.16735 6.04783,-5.52884 6.89933,-2.12286 1.49246,5.96984 5.82978,4.5111 -2.78627,4.5111 -5.25821,0 -8.349,-3.84771 0.13268,-3.84771 6.94564,0 3.61555,0.55731 0.53072,-4.37841 -3.50493,-5.60789 -6.36642,-3.54475 1.32679,-4.64379 7.06158,-1.00879 4.26734,-1.70323 0.26536,-5.70521 -1.07145,-1.07145 -5.79781,-1.99018 0,-1.99018 10.2259,0 5.63399,0 -1.59215,0 -0.83977,0 -6.68406,3.49271 -2.91895,4.24573 7.15641,1.43128 5.53602,-3.71502 -2.12287,-3.71502 -4.94715,0 -7.11673,5.19847 -2.65359,7.43005 4.77413,2.38705 10.26192,4.131 6.89933,-3.71503 -1.76574,-4.12006 -7.77621,-3.25346 -9.81827,-0.53072 -4.21187,5.61583 5.57253,11.76471 5.57253,6.63398 0,-4.01793 -1.07557,-7.43005 -5.57253,-7.43005 -2.83513,0 -1.05412,5.94842 0.53072,6.89932 6.0167,3.61003 10.87971,1.03705 10.87971,-5.83789 0,-4.14231 -8.63053,3.24502 -9.0222,3.71502 -0.25844,0.31013 -5.84231,9.37454 -2.91895,10.349 5.46392,1.8213 8.28724,-6.35639 2.91895,-7.43005 -6.30159,-1.26031 -7.39896,6.7822 -2.91895,9.0222 14.98702,7.4935 4.49251,-13.78007 -3.44967,-5.83789 -2.30863,2.30864 1.55664,8.22891 2.91895,9.81828 1.45003,1.69169 11.71683,4.61228 12.73722,0.53071 1.10172,-4.40685 -7.6954,-5.78539 -7.6954,-1.06144 0,11.53465 19.51404,3.41466 2.91894,-1.32679 -4.80146,-1.37185 -6.0909,3.1946 -2.91894,5.83789 9.56608,7.97172 24.24263,-3.66753 11.41042,-10.08363 -5.07417,-2.53709 -10.75429,4.5111 1.59216,4.5111 5.90928,0 -6.36861,-14.82066 -6.36861,-1.85751 0,3.26365 18.38628,8.568 7.6954,-2.12287 -2.7986,-2.79861 -9.38485,3.18431 2.52091,3.18431 5.81758,0 -4.5111,-9.61006 -4.5111,0.53071 0,1.08856 10.21699,9.48714 3.44966,3.8477 -9.00805,-7.50671 -10.00446,-9.55291 1.06144,-9.55291 2.95483,0 4.38085,5.57254 1.72483,5.57254 -3.97333,0 -3.18431,-6.54263 -3.18431,-3.84771 0,3.56671 8.10501,14.59968 -3.05162,9.81827 -5.65547,-2.42377 -0.51663,-1.3268 2.91894,-1.3268 7.81596,0 -0.73949,-9.44413 -2.65358,-10.8797 -1.48601,-1.11451 3.71502,0 5.57253,0 12.30985,0 -0.50212,-4.33553 -3.44966,-8.75684 -0.84586,-1.26879 5.84766,-0.35895 6.89933,3.8477 2.9609,11.84363 -12.31976,-1.0048 -7.43005,-3.44966 4.59774,-2.29887 8.27321,5.17449 0.79608,5.17449 -3.69893,0 -5.65932,-6.19253 -2.65359,-7.6954 8.50163,-4.25081 9.48321,7.43005 1.59216,7.43005 -3.08237,0 -4.40747,-14.2548 0.53071,-4.37842 2.84818,5.69634 -5.13865,5.74106 -6.89932,3.98038 -0.14986,-0.14986 9.5955,3.61073 6.36861,1.45947 -3.18715,-2.12476 -6.49928,-4.77646 -9.55292,-4.77646 -1.03718,0 11.03417,1.08322 8.75684,-1.19411 -6.8238,-6.8238 -16.32657,-3.98038 -1.59215,-3.98038 8.14379,0 -7.03509,-5.21975 -7.29737,-5.30718 -1.48696,-0.49565 3.0435,0.77645 4.5111,1.3268 9.8833,3.70623 9.99521,0.0958 -0.13268,-1.59215 -7.37402,-1.22901 2.69066,1.85751 5.97057,1.85751 7.56729,0 -10.44112,-11.54863 -5.30718,-3.8477 2.48285,3.72425 19.29382,2.40205 8.09344,-0.39804 -3.5586,-0.88965 -9.55291,-4.44961 -9.55291,1.06143 0,2.19478 12.35389,1.59705 3.58234,-1.3268 -9.48222,-3.16073 -6.13987,9.30587 -0.26535,6.36862 2.71107,-1.35554 -2.5452,-5.57254 -5.57253,-5.57254 -3.79294,0 -1.82938,5.38055 1.06143,6.10325 0.34325,0.0858 0.70762,0 1.06143,0 0.87029,0 -0.0416,-4.11306 -5.83789,-4.11306 -5.60442,0 1.06143,12.85602 1.06143,4.24574 0,-5.02184 -9.4884,-3.6505 -1.32679,4.51111 1.16208,1.16207 3.27826,-0.53073 -1.45947,-0.53073 -0.3647,0 -0.70762,0.17691 -1.06144,0.26536 -2.24533,0.56133 5.23956,8.32756 8.75684,3.05163 2.899,-4.34849 -3.40942,-3.8246 2.52091,-5.30718 2.10943,-0.52735 9.44845,-0.99356 9.0222,1.99019 -0.61163,4.28141 -3.71503,-5.13966 -3.71503,-6.10325 0,-4.85578 7.04798,-0.18755 3.18431,2.38823 -3.89375,2.59584 -4.95106,-6.09979 -1.85751,-1.45947 5.24626,7.86939 -5.03087,9.35324 -5.97057,3.71503 -0.098,-0.58789 5.98202,-0.48493 7.03201,3.71501 1.6453,6.58125 -6.9945,-2.67234 -1.9902,-5.17449 1.71136,-0.85568 0.55104,-3.18431 -1.59215,-3.18431 -1.66406,0 -7.7493,-1.68958 -0.79608,-0.53072 5.81967,0.96995 2.8042,-0.66339 -0.92875,-0.66339 -0.98894,0 3.35287,-0.62751 2.65358,-1.3268 -0.62713,-0.62712 -4.82862,-0.92875 -0.66339,-0.92875 4.6054,0 -0.53072,-2.34959 -0.53072,1.72483 0,3.93836 6.42774,1.04454 1.72484,2.38823 -1.95978,0.55994 1.96319,4.73654 3.71502,5.1745 0.23105,0.0578 0.44226,0.1769 0.66339,0.26535 0.22114,0.0885 -0.44226,-0.1769 -0.66339,-0.26535 -0.32593,-0.13038 1.93755,6.44125 3.98038,4.90913 2.93915,-2.20437 -5.8379,-1.77431 -5.8379,1.06144 0,8.66574 7.24701,1.45947 -0.39804,1.45947 -5.27262,0 -1.75777,7.46299 0,5.70521 2.89555,-2.89554 -9.65338,-3.64932 -4.37841,-0.13268 0.53579,0.3572 1.23834,0.35382 1.85751,0.53072 2.38412,0.68118 -2.80849,-6.81043 -4.24574,-1.06143 -1.01046,4.04181 6.33473,12.26863 4.64377,2.12287 -1.16511,-6.99071 -13.80644,-5.25567 -2.78626,-3.05163 6.92936,1.38587 -2.65359,-13.75307 -2.65359,-10.34899 0,0.59974 12.23792,5.77039 4.37842,0.53072 -9.43717,-6.29145 -4.79665,6.23189 -1.45947,6.89932 0.43367,0.0867 0.88453,0 1.32679,0 2.99628,0 -3.75551,-6.71396 -4.77646,-7.29736 -8.43694,-4.82111 -11.56854,10.08363 -0.92875,10.08363 2.51973,0 -5.17449,-11.31383 -5.17449,-2.52091 0,3.69393 12.38002,7.4709 5.57253,0.6634 -2.8209,-2.8209 -6.92295,0.76274 -7.96077,3.1843 -2.94458,6.87072 5.57254,10.37187 5.57254,3.18431 0,-9.77271 -7.92638,-3.68064 -2.91894,1.3268 4.08058,4.08058 2.22769,-2.52256 1.59215,-3.31699 -5.88926,-7.36157 -11.33827,1.14582 -6.36861,2.38823 4.80271,1.20068 2.70458,-6.10325 -1.06144,-6.10325 -1.10949,0 -2.97162,4.24574 1.19411,4.24574 4.04463,0 -0.41345,-7.41463 -3.8477,-3.98038 -0.90348,0.90346 6.63397,3.88238 6.63397,-0.13268 0,-3.00864 -5.30718,-6.90101 -5.30718,-2.91895 0,0.6772 4.31341,0.21462 4.77647,-0.13268 1.40664,-1.05499 -5.8379,-9.024 -5.8379,0.26536 0,1.68416 9.19263,2.37852 4.24575,-5.04182 -1.10899,-1.66347 -3.98039,0.18167 -3.98039,2.65359 0,4.5803 21.18702,8.98052 11.41043,-0.79607 -2.53279,-2.53279 -11.25527,-0.13269 -3.44966,-0.13269 3.49612,0 -1.57971,-2.31878 -1.85752,-2.38822 -7.60705,-1.90176 -3.31637,0.79424 -1.99019,-3.18431 1.5019,-4.50569 -4.91676,-3.02824 0.79608,-3.98038 5.52768,-0.92128 12.17348,-3.8477 1.32679,-3.8477 -2.54353,0 -4.41826,3.06709 -1.32679,3.58235 2.18522,0.3642 14.05469,3.71501 4.64378,3.71501 -4.13806,0 -4.99458,2.2713 -1.06144,3.58235 4.89308,1.63103 11.75132,2.5209 1.19412,2.5209 -4.10579,0 -6.33396,3.23431 -0.26537,4.24574 9.85338,1.64223 -0.26751,2.32297 -3.84769,4.11306 -0.36324,0.18163 4.34432,2.4164 7.96076,3.44968 4.49295,1.28369 2.80717,1.8575 -0.13268,1.8575 -7.28715,0 -10.49926,-0.91277 -2.12287,4.11306 1.3831,0.82985 5.77056,1.32679 1.85751,1.32679 -4.10994,0 -3.9848,-1.19412 0,-1.19412 9.21016,0 7.90916,0.88748 1.99019,-3.84769 -3.9451,-3.15608 -2.94105,1.957 1.19411,-4.24574 0.74249,-1.11373 -0.53072,2.64185 -0.53072,3.98039 0,1.04745 -0.84767,-2.83788 0.39804,-1.59216 1.76894,1.76894 1.99019,6.67727 1.99019,-0.13268 0,-4.89193 2.54202,0.74781 2.91895,2.25555 0.16653,0.66608 -0.22367,-1.37609 -0.53072,-1.99019 -0.41424,-0.82848 1.45948,-2.43284 1.45948,-4.5111 0,-4.30448 -3.47799,-5.57254 2.38823,-5.57254 3.92485,0 4.46827,-2.38612 2.25554,-5.7052 -3.32433,-4.98652 -4.11305,0.0556 -4.11305,-3.84771 0,-0.56128 -3.15518,-1.47247 -3.71503,1.32679 -0.19431,0.97159 2.63514,3.82574 3.44966,-1.06143 0.26293,-1.57753 1.52152,0.50495 1.72484,1.72483 0.19563,1.17379 0.0207,1.78084 -0.6634,2.12287 -0.54254,0.27127 -1.24401,0.44794 -1.59216,0.79608 -0.53783,0.53783 -1.39247,-0.26275 -1.45947,-0.53072 -0.17189,-0.68759 -0.13268,-1.48444 -0.13268,-2.25555 0,-0.31277 1.3268,-1.55105 1.3268,-2.65359 0,-2.20197 -5.92957,-1.59215 -7.03201,-1.59215 -4.73766,0 -3.71502,4.82518 -3.71502,8.22612 0,5.23065 2.37413,6.36861 7.43004,6.36861 2.5549,0 2.19581,-8.55122 0.6634,-10.08363 -0.59623,-0.59623 -4.99196,-4.64378 -3.44966,-4.64378 2.38943,0 7.03201,1.33309 7.03201,-1.72483 0,-2.79678 -7.39604,-2.00153 -2.25556,-3.71503 0.77365,-0.25788 -1.28086,1.01552 -1.85751,1.59216 -2.95225,2.95225 -3.31649,6.14814 -1.06143,9.15488"
         id="path11815"
         style="opacity:0.63200001;fill:url(#linearGradient59277);fill-opacity:1;fill-rule:evenodd;stroke:none" />
      <path
         inkscape:connector-curvature="0"
         d="m 877.325,346.56648 c 2.18188,-6.01317 -7.88495,-3.89251 -2.7797,-2.6162 2.2397,0.55992 4.15431,0.90846 5.3959,0.16351 3.23062,-1.93837 -14.01942,-2.77119 -4.25132,-0.81756 5.92919,1.18584 2.11329,-3.52692 -0.98107,-2.28917 -1.57663,0.63065 9.28235,-0.0126 4.41483,-1.63513 -8.95838,-2.98611 -2.87218,3.85325 1.14458,-0.16351 2.84078,-2.84077 -13.2287,-4.81571 -7.84859,-2.12565 4.81076,2.40537 6.24726,-0.71047 2.6162,-3.43375 -7.1392,-5.3544 -7.89196,2.28916 2.28917,2.28916 1.51195,0 -3.10673,-4.2916 -3.10673,-0.81756 0,1.99703 14.34472,0.98107 5.3959,0.98107 -2.02738,0 0.97065,4.08433 2.94322,4.74185 5.61448,1.87149 -5.06888,-0.66698 -5.06888,4.25132 0,0.51577 8.56102,6.76238 4.25133,2.45269 -1.01382,-1.01382 -3.9243,-5.92308 -3.9243,-2.45269 0,0.32245 4.74185,5.88325 4.74185,0.32702 0,-10.2598 -5.72843,-3.98062 1.79864,-1.4716 1.49589,0.49862 -2.61619,-9.86143 -2.61619,-2.28917 0,1.71207 6.47272,6.34114 1.4716,-0.32703 -4.36703,-5.8227 -3.234,3.76078 0.65405,3.76078 1.86926,0 -0.74295,-6.26426 -1.79863,-6.86751 -1.48976,-0.85129 4.53216,8.60457 0.16351,2.77971 -1.86592,-2.48791 -10.66813,-3.90227 -5.55942,3.76078 2.25528,3.38292 -5.28941,-8.98563 -7.19454,-3.27025 -1.29973,3.89921 6.64925,10.35528 1.63513,0.32702 -2.84561,-5.6912 -4.64009,2.94323 1.30809,2.94323 1.06004,0 0.003,-9.8133 -2.45268,-7.35805 -0.29168,0.29168 4.90536,2.87312 4.90536,-1.63512 0,-2.79318 -9.88947,-3.75876 -2.7797,0.98108 0.46248,0.30832 1.09008,0.21801 1.63512,0.32702 2.07036,0.41407 -0.76318,-4.59659 -1.96215,-5.3959 -0.52886,-0.35258 -1.09008,-0.65406 -1.63512,-0.98108 -2.47777,-1.48667 7.84859,8.49278 7.84859,2.12566 0,-5.32385 -6.45877,-0.32703 1.3081,-0.32703 1.20631,0 -2.6162,-7.42869 -2.6162,-0.98107 0,6.10215 10.3597,7.85446 4.25132,-1.3081 -2.15954,-3.23929 -5.34523,10.13776 3.43376,10.13776 1.10676,0 -0.1815,-6.83113 -2.94322,-7.52156 -0.89534,-0.22383 -1.52548,4.22439 1.79863,5.88644 6.99977,3.49987 3.04056,-12.22837 0.49054,-4.57834 -2.67562,8.02687 2.28917,13.17914 2.28917,6.70399 0,-3.16719 -10.84207,0.56854 -0.81756,4.57834 5.62089,2.24837 2.56145,-0.45451 -0.16351,-4.0878 -2.01777,-2.69036 -6.75799,5.99558 3.27024,8.50264 5.76063,1.44016 -3.27024,-7.78353 -3.27024,-2.28917 0,1.38922 13.6165,8.45361 7.03103,-0.32702 -4.85799,-6.47732 -13.55781,5.23239 -2.28918,5.23239 1.50295,0 0.51317,-4.88651 -1.47161,-6.54049 -7.2093,-6.00776 -9.46363,7.77185 2.6162,10.7918 1.76403,0.44102 0.25135,-5.52428 -2.28917,-6.54048 -8.9457,-3.57828 -2.41885,9.027 0.32702,11.77288 0.047,0.047 -0.96783,-5.80105 -1.14459,-6.21347 -3.96682,-9.25593 -16.46966,-2.43765 -6.21346,0.98107 4.24919,1.4164 -1.81322,-6.43609 -2.28917,-7.03102 -4.51623,-5.6453 -5.31087,5.73414 2.77971,4.57834 1.85652,-0.26522 -6.54049,-9.81651 -6.54049,-2.77971 0,7.39245 11.94554,7.69423 2.6162,-1.63512 -4.68624,-4.68623 -7.91777,3.25295 1.30809,5.55942 1.5736,0.39339 0.80151,-7.84859 -4.90536,-7.84859 -4.1393,0 1.66048,4.07766 3.27024,3.43375 4.58502,-1.834 -14.00121,-5.90037 -5.39591,-0.16351 5.80746,3.87163 6.84422,1.12128 2.77971,-2.94322 -5.18195,-5.18195 -5.18577,0.81757 -2.12566,0.81757 4.3581,0 3.10674,2.37082 3.10674,-3.9243 0,-4.62777 -12.34602,-4.27238 -6.21347,0.32702 3.73248,2.79936 7.52559,0.6621 5.55942,-3.27025 -3.1561,-6.31218 -10.90285,-4.90535 -9.15669,-4.90535 4.03221,0 9.18316,2.49238 4.90536,-3.9243 -0.91746,-1.37621 -6.36632,-1.10104 -1.30809,0.16351 7.99616,1.99905 5.28165,-6.94277 0.81756,-6.04995 -1.17344,0.23469 8.82966,6.71942 8.82966,1.79864 0,-2.9331 -10.09896,-5.84765 -2.45268,1.79863 3.14511,3.14512 5.55942,2.78056 5.55942,-0.32702 0,-6.43514 -9.5296,-0.59782 1.63512,1.63512 8.5269,1.70539 -5.37819,-4.34851 0.65405,-0.32702 3.28101,2.18733 6.89421,0.32702 2.6162,0.32702 -5.19189,0 -0.28442,0.1566 0.1635,-1.63512 0.39747,-1.58983 -3.31554,0.0704 -4.90536,-0.32703 -0.43604,-0.109 -0.87207,-0.21801 -1.3081,-0.32702 -0.26724,-0.0668 4.90302,-1.79981 9.81073,0.65405 0.24376,0.12187 0.43604,0.32702 0.65406,0.49054 4.20499,3.15374 -13.19627,2.94322 -7.68508,2.94322 1.75939,0 3.45174,0.77854 5.06887,1.47161 2.23843,0.95932 -9.09489,-1.86645 -4.08779,1.47161 9.54593,6.36395 6.49893,2.12564 -0.49055,2.12564 -0.88645,0 2.19554,0.78011 5.55943,2.12567 10.40105,4.16042 -0.74255,-0.40204 -3.27026,2.12566 -3.17167,3.17167 11.00481,3.10673 2.28917,3.10673 -1.27249,0 2.77972,0.92382 2.77972,-0.98108 0,-4.60145 -10.48776,-5.55941 -1.79863,-5.55941 1.81683,0 4.55633,0.87258 5.23239,-0.81757 0.43603,-1.09007 -2.22014,-0.78304 -3.27025,-1.30808 -1.38573,-0.69287 -1.65413,-2.73788 -2.94323,-3.59727 -2.07386,-1.38258 5.57415,1.46793 2.94323,2.12565 -2.57025,0.64257 0.1462,10.86879 -1.3081,3.59727 -0.98919,-4.94595 -4.75741,-4.2902 -1.79863,3.10673 5.1596,12.89898 9.17344,-3.27025 1.96215,-3.27025 -2.6212,0 5.19602,11.14605 0.49053,4.08782 -3.09892,-4.64839 -6.61153,3.59727 1.47161,3.59727 1.89172,0 -6.04996,-10.43181 -6.04996,-1.63512 0,6.38464 10.03315,2.24732 -0.49053,-1.96215 -2.66111,-1.06445 -6.69751,4.17063 -0.32702,5.23239 2.95819,0.49303 -3.06221,-4.62287 -5.39591,-2.28917 -4.82678,4.82677 5.64327,9.97843 4.57834,7.84858 -2.92888,-5.85777 -11.36683,-3.1701 -5.3959,1.3081 1.82704,1.37028 7.22669,2.7462 4.74185,-0.98108 -5.13127,-7.6969 -14.97722,-0.32702 -9.48371,-0.32702 4.00544,0 5.5237,-0.38061 2.28918,-5.23238 -4.53736,-6.80604 -11.94568,1.67367 -4.90537,3.43375 4.39865,1.09965 -1.52973,-10.67557 -4.57834,-4.57835 -3.81075,7.62151 10.05826,9.03746 6.54049,3.76078 -3.97276,-5.95913 -12.94239,-1.18227 -4.57835,0.49054 5.70455,1.14092 2.79192,-10.32812 -2.45269,-8.82966 -0.89308,0.25517 -0.65404,3.40992 -0.65404,4.08781 0,0.013 9.55703,2.12004 3.92429,-1.63512 -2.22995,-1.48664 -3.92429,-4.63149 -3.92429,-0.65406 0,0.53324 5.55942,2.50562 5.55942,-0.81756 0,-5.97776 -12.70803,-0.49053 -3.76078,-0.49053 4.57519,0 -3.64258,-3.92429 -5.39591,-3.92429 -1.16048,0 7.52156,2.68365 7.52156,-2.12566 0,-8.56656 -7.15754,-4.57834 1.96215,-4.57834 7.83786,0 -1.46819,-2.12109 -2.94322,-4.08781 -1.20999,-1.61332 4.0333,0 6.04995,0 6.92402,0 1.13561,-3.10673 -0.49053,-3.10673 -0.92657,0 1.85314,0 2.7797,0 1.73754,0 10.26642,1.14458 6.86752,1.14458 -0.54504,0 -1.09008,0 -1.63512,0 -2.83854,0 0.7916,3.59728 3.92429,3.59728 2.79214,0 -0.57814,0.14161 -3.10673,-0.49054 -9.17342,-2.29335 5.09908,3.62925 6.704,4.0878 7.90789,2.25941 -3.43375,-1.06728 -3.43375,3.27025 0,0.0166 5.23239,4.59254 5.23239,-0.49053 0,-3.47339 -2.94322,-3.86532 -2.94322,2.28915 0,0.98108 0,1.96215 0,2.94322 0,6.00739 6.69852,-3.27024 -1.79864,-3.27024 -3.79254,0 -0.8136,8.03869 3.27024,7.35806 3.46034,-0.57673 -5.45646,-3.16731 -3.10673,-0.81757 3.03973,3.03973 7.28937,0.32703 -0.65404,0.32703 -5.25572,0 -3.67042,6.73143 1.63512,4.74185 2.44037,-0.91514 -2.74311,-5.88644 -5.23239,-5.88644 -5.48586,0 2.99014,9.78653 4.41483,4.08781 0.95236,-3.80947 -9.48372,-10.1211 -9.48372,-0.32702 0,4.80459 10.86528,1.21805 2.77972,-6.86753 -2.20543,-2.20542 -7.79952,5.88645 0.32702,5.88645 2.05001,0 -0.37892,-11.72099 -4.90537,-7.19454 -1.58496,1.58495 6.704,4.63158 6.704,-2.61619 0,-5.37969 -5.43002,-1.79864 0.32702,-1.79864 6.10052,0 1.01754,-5.55942 -2.12565,-5.55942 -2.43567,0 -0.32892,3.18802 1.3081,3.59728 8.08949,2.02237 2.33481,-1.96215 -1.14459,-1.96215 -7.93021,0 -2.45268,8.10462 -2.45268,4.08781 0,-0.32615 -7.19454,-3.5877 -7.19454,2.7797 0,5.09208 11.82988,5.4529 4.74185,-1.63512 -3.20471,-3.20471 -4.43016,2.65026 -2.12566,5.72293 3.73219,4.97624 11.08389,5.8515 4.74186,-0.49053 -1.64239,-1.64241 -2.35305,4.51446 -0.32703,6.54049 8.15711,8.15709 10.42042,1.70578 3.59727,0 -4.62733,-1.15684 1.68142,-1.63513 1.96215,-1.63513 2.86368,0 10.04594,0.54788 3.43376,-4.74186 -0.79424,-0.63539 2.03922,3.80977 2.6162,7.84859 0.41459,2.90219 -8.75703,2.39812 -4.57835,8.66615 1.33086,1.9963 6.86752,1.38069 6.86752,-2.6162 0,-3.90538 -0.49884,-10.11004 -2.45269,-11.28235 -0.67405,-0.40442 1.3081,0.87207 1.96215,1.30811 0.28257,-1.79577 -4.44334,-6.83202 -1.3081,-4.74186 5.80441,3.86961 -3.8081,-3.04864 -4.90537,-3.59727 -0.81045,-0.40523 2.2666,0.67662 3.76079,-0.81755 4.16071,-4.16071 -10.4243,-5.55942 -0.98108,-5.55942 0.59924,0 -2.8932,-4.25132 -5.88644,-4.25132 -3.7068,0 -1.3081,2.4676 -1.3081,5.06888 0,0.54504 0,1.09008 0,1.63512"
         id="path11817"
         style="opacity:0.63200001;fill:url(#linearGradient32843);fill-opacity:1;fill-rule:evenodd;stroke:none" />
    </g>
  </g>
</svg>
