<?xml version="1.0" encoding="UTF-8" standalone="no"?>
<!-- Created with Inkscape (http://www.inkscape.org/) -->

<svg
   xmlns:dc="http://purl.org/dc/elements/1.1/"
   xmlns:cc="http://creativecommons.org/ns#"
   xmlns:rdf="http://www.w3.org/1999/02/22-rdf-syntax-ns#"
   xmlns:svg="http://www.w3.org/2000/svg"
   xmlns="http://www.w3.org/2000/svg"
   xmlns:xlink="http://www.w3.org/1999/xlink"
   xmlns:sodipodi="http://sodipodi.sourceforge.net/DTD/sodipodi-0.dtd"
   xmlns:inkscape="http://www.inkscape.org/namespaces/inkscape"
   width="575.77051"
   height="579.59674"
   id="svg32980"
   version="1.1"
   inkscape:version="0.48.3.1 r9886"
   sodipodi:docname="plainpizza.svg">
  <defs
     id="defs32982">
    <radialGradient
       cx="1620.7791"
       cy="-889.4256"
       r="529.99982"
       fx="1620.7791"
       fy="-889.4256"
       id="radialGradient52857"
       xlink:href="#linearGradient27759"
       gradientUnits="userSpaceOnUse"
       gradientTransform="matrix(0.5431799,0,0,0.5467895,-405.37462,816.3286)" />
    <linearGradient
       id="linearGradient27759">
      <stop
         id="stop27761"
         style="stop-color:#382509;stop-opacity:1"
         offset="0" />
      <stop
         id="stop28736"
         style="stop-color:#382509;stop-opacity:0.49803922"
         offset="0.9074074" />
      <stop
         id="stop27763"
         style="stop-color:#382509;stop-opacity:0"
         offset="1" />
    </linearGradient>
    <radialGradient
       cx="324.52371"
       cy="-898.08783"
       r="493.04587"
       fx="324.52371"
       fy="-898.08783"
       id="radialGradient2603"
       xlink:href="#linearGradient9764"
       gradientUnits="userSpaceOnUse"
       gradientTransform="matrix(0.5423984,0,0,0.5460029,271.94722,795.62908)" />
    <linearGradient
       id="linearGradient9764">
      <stop
         id="stop9766"
         style="stop-color:#9e6613;stop-opacity:1"
         offset="0" />
      <stop
         id="stop12682"
         style="stop-color:#fbb85a;stop-opacity:1"
         offset="0.8888889" />
      <stop
         id="stop9768"
         style="stop-color:#9e6613;stop-opacity:1"
         offset="1" />
    </linearGradient>
    <radialGradient
       cx="324.58444"
       cy="-898.3125"
       r="422.20944"
       fx="324.58444"
       fy="-898.3125"
       id="radialGradient2605"
       xlink:href="#linearGradient13667"
       gradientUnits="userSpaceOnUse"
       gradientTransform="matrix(1.088301,2.3471567e-7,-2.303267e-7,1.1017675,-28.661334,91.418842)" />
    <linearGradient
       id="linearGradient13667">
      <stop
         id="stop13671"
         style="stop-color:#fbb85a;stop-opacity:1"
         offset="0" />
      <stop
         id="stop16586"
         style="stop-color:#fbb85a;stop-opacity:1"
         offset="0.42592594" />
      <stop
         id="stop13675"
         style="stop-color:#d89029;stop-opacity:1"
         offset="0.85185188" />
      <stop
         id="stop13673"
         style="stop-color:#9e6613;stop-opacity:1"
         offset="1" />
    </linearGradient>
  </defs>
  <sodipodi:namedview
     id="base"
     pagecolor="#ffffff"
     bordercolor="#ffffff"
     borderopacity="0.0"
     inkscape:pageopacity="0.0"
     inkscape:pageshadow="0"
     inkscape:zoom="0.35"
     inkscape:cx="287.88527"
     inkscape:cy="289.79835"
     inkscape:document-units="px"
     inkscape:current-layer="layer1"
     showgrid="false"
     inkscape:window-width="511"
     inkscape:window-height="424"
     inkscape:window-x="851"
     inkscape:window-y="284"
     inkscape:window-maximized="0"
     fit-margin-top="0"
     fit-margin-left="0"
     fit-margin-right="0"
     fit-margin-bottom="0" />
  <metadata
     id="metadata32985">
    <rdf:RDF>
      <cc:Work
         rdf:about="">
        <dc:format>image/svg+xml</dc:format>
        <dc:type
           rdf:resource="http://purl.org/dc/dcmitype/StillImage" />
        <dc:title />
      </cc:Work>
    </rdf:RDF>
  </metadata>
  <g
     inkscape:label="Layer 1"
     inkscape:groupmode="layer"
     id="layer1"
     transform="translate(-62.11473,-242.56382)">
    <g
       transform="translate(-125.00001,202.36218)"
       id="background">
      <path
         inkscape:connector-curvature="0"
         d="m 760.12722,320.8428 c 0,19.98683 5.1908,48.52603 1.3301,67.37683 -3.86065,18.85081 -11.33485,37.35382 -11.4727,56.16647 -0.11366,15.52093 -9.98651,36.49806 -20.40076,51.9091 -10.4144,15.41104 -34.00256,25.256 -47.10986,38.36331 -13.10729,13.10731 -20.24533,28.57467 -35.65637,38.98901 -15.41104,10.41433 -39.09513,15.77564 -56.42066,23.10778 -17.32553,7.33212 -35.41624,20.25147 -54.36181,16.88653 -24.49995,-4.35146 -38.36695,5.88832 -58.35381,5.88832 -19.9868,0 -42.81972,2.1797 -58.35375,-5.88832 -21.20155,-11.01162 -37.03628,-9.55441 -54.36186,-16.88653 -17.32553,-7.33214 -31.08419,-22.61882 -46.49523,-33.03316 -15.41109,-10.41434 -32.47446,-15.95632 -45.5818,-29.06363 -13.1073,-13.10731 -19.55159,-30.17071 -29.96594,-45.58176 -10.41435,-15.41104 -24.79871,-29.16972 -32.13086,-46.49527 -7.3321,-17.32555 -13.02582,-35.51104 -16.88652,-54.36185 -3.86065,-18.8508 -6.79065,-38.36693 -6.79065,-58.35377 0,-19.98683 2.93,-39.50296 6.79065,-58.35377 3.8607,-18.85082 3.23829,-37.93859 10.57039,-55.26417 7.33215,-17.32553 16.30264,-33.79118 26.71699,-49.20222 10.41435,-15.41099 32.19789,-26.15822 45.30518,-39.26557 13.1073,-13.10734 23.85453,-27.67239 39.26562,-38.086688 15.41104,-10.414299 35.48589,-13.068709 52.81142,-20.40081 17.32553,-7.332204 31.90179,-19.341998 50.75261,-23.2027 18.85082,-3.860703 38.36695,-5.88829 58.35375,-5.88829 19.98686,0 21.45686,3.832262 40.30768,7.692913 18.85082,3.860651 55.08241,7.749743 72.40794,15.081845 17.32553,7.332204 33.79118,16.302743 49.20222,26.717042 15.41104,10.414298 29.76752,22.272458 42.87481,35.379808 13.1073,13.10729 31.28164,22.0499 41.69594,37.46099 10.4143,15.41099 13.06876,37.29046 20.40081,54.61599 7.3322,17.32558 13.02592,35.51104 16.88657,54.36186 3.8607,18.85081 -1.3301,29.34387 -1.3301,49.33071 z"
         id="path26778"
         style="opacity:0.68999999;fill:url(#radialGradient52857);fill-opacity:1;fill-rule:nonzero;stroke:none" />
      <g
         transform="matrix(1.0155856,0,0,1.0155856,18.000031,20.996508)"
         id="g20540">
        <path
           inkscape:connector-curvature="0"
           d="m 712.83359,296.76408 c 0,18.56651 4.82192,45.07763 1.23558,62.58884 -3.58633,17.51122 -10.52941,34.69935 -10.65742,52.17511 -0.10561,14.41797 -9.27686,33.9044 -18.95107,48.22029 -9.67428,14.31589 -31.5862,23.46124 -43.76204,35.6371 -12.17586,12.17587 -18.80665,26.54407 -33.12254,36.21834 -14.31589,9.67426 -36.31688,14.65458 -52.41123,21.46567 -16.09434,6.81108 -32.89947,18.81234 -50.49872,15.68652 -22.7589,-4.04223 -35.64047,5.46988 -54.20699,5.46988 -18.56651,0 -39.77684,2.02481 -54.20698,-5.46988 -19.69491,-10.2291 -34.40439,-8.87544 -50.49873,-15.68652 -16.09435,-6.81109 -28.8753,-21.01146 -43.19119,-30.68572 -14.31589,-9.67427 -30.16672,-14.82242 -42.34259,-26.99829 -12.17586,-12.17586 -18.1622,-28.02669 -27.83647,-42.34258 -9.67426,-14.31589 -23.03644,-27.09684 -29.84753,-43.19119 -6.81108,-16.09434 -12.10018,-32.98751 -15.68652,-50.49873 -3.58632,-17.51121 -6.30807,-35.64047 -6.30807,-54.20698 0,-18.56651 2.72175,-36.69577 6.30807,-54.20698 3.58634,-17.51123 3.00813,-35.24256 9.81922,-51.33693 6.81109,-16.09432 15.14415,-31.38985 24.81841,-45.70575 9.67427,-14.31584 29.90977,-24.29939 42.08564,-36.47526 12.17586,-12.17587 22.15939,-25.705886 36.47528,-35.380158 14.31589,-9.674218 32.96415,-12.140015 49.05849,-18.951075 16.09434,-6.811114 29.63477,-17.967489 47.14599,-21.553828 17.51121,-3.586338 35.64047,-5.46987 54.20698,-5.46987 18.56652,0 19.93205,3.559923 37.44327,7.146261 17.51122,3.586284 51.1681,7.199037 67.26244,14.010097 16.09435,6.811113 31.38986,15.144197 45.70575,24.818415 14.31589,9.674272 27.65216,20.689728 39.82802,32.865598 12.17584,12.17587 29.05865,20.48303 38.73292,34.79893 9.67422,14.31584 12.14001,34.64049 18.95107,50.73486 6.81112,16.09432 12.10021,32.98748 15.68654,50.49871 3.58634,17.51121 -1.23558,27.25861 -1.23558,45.82512 z"
           id="path6756"
           style="fill:url(#radialGradient2603);fill-opacity:1;fill-rule:nonzero;stroke:none" />
        <path
           inkscape:connector-curvature="0"
           d="m 329.125,-1323.5 c -29.42253,0 -58.06384,2.9925 -85.71875,8.6562 -11.0391,2.2609 -31.44405,17.7202 -73.53125,35.5313 -42.11689,17.8238 -71.013131,23.4313 -78.375,28.4063 -13.633692,9.2132 -29.4825,29.2948 -56.8125,56.625 -36.5196062,36.5196 -68.252683,55.7528 -68.96875,56.8124 -15.296484,22.6357 -28.467066,46.7818 -39.21875,72.1876 -4.721005,11.1555 -5.143043,38.3087 -13.9375,81.24995 -6.095502,29.76293 -10.1875,58.41083 -10.1875,85.71875 0,27.30793 4.091993,55.95576 10.1875,85.71875 5.655861,27.61624 13.987506,54.25615 24.75,79.6875 4.834053,11.42269 24.662924,32.28862 48.5,67.5625 23.8376228,35.27469 33.783012,58.72052 42.6875,67.625 7.764508,7.76451 30.790455,16.26451 67.625,41.15625 36.86559,24.91269 58.08387,46.05117 67.5625,50.0625 12.25804,5.18757 46.76731,4.54349 98.1875,31.25 -3.23928,-1.68241 27.87722,2.125 67.25,2.125 5.00041,0 12.8722,-1.94127 31.59375,-6.125 18.72155,-4.18373 48.06927,-8.67946 80.75,-2.875 -5.94855,-1.05653 12.18747,-7.07678 53.0625,-24.375 39.58152,-16.7508 76.71691,-27.76068 84.5625,-33.0625 7.81457,-5.28086 17.54853,-25.07976 50.625,-58.15625 19.99307,-19.9931 38.67497,-30.56002 52.25,-39.8125 13.57503,-9.25248 20.88277,-17.02128 19.8125,-15.4375 12.75984,-18.88199 22.80331,-52.76202 22.78125,-49.75 0.37113,-50.66824 16.26337,-86.28953 21.09375,-109.875 1.28172,-6.25833 -3.71876,-54.67642 -3.71875,-101.1875 0,-23.25552 2.95101,-40.75502 4.03125,-50.65625 1.08024,-9.90123 1.22154,-12.10339 -0.3125,-19.59375 -5.6665,-27.66815 -13.97969,-54.34285 -24.71875,-79.71875 -18.49651,-43.7068 -24.88041,-76.205 -28.4375,-81.4688 -3.53625,-5.2329 -28.56471,-19.5021 -62.78125,-53.7187 -19.28058,-19.2806 -40.35404,-36.6865 -62.96875,-51.9687 -22.61402,-15.282 -46.79633,-28.4601 -72.21875,-39.2188 -2.6544,-1.1233 -23.89321,-6.8007 -45.59375,-10.5938 -21.70054,-3.793 -44.70597,-6.9062 -65,-11.0624 -20.29217,-4.1559 -33.66359,-8.859 -38.375,-10.1563 -4.71141,-1.2973 -3.84081,-1.5625 -16.4375,-1.5625 z"
           transform="matrix(0.5423984,0,0,0.5423984,271.94722,792.39195)"
           id="path7730"
           style="fill:url(#radialGradient2605);fill-opacity:1;fill-rule:nonzero;stroke:none" />
      </g>
    </g>
  </g>
</svg>
