<?xml version="1.0" encoding="UTF-8" standalone="no"?>
<!-- Created with Inkscape (http://www.inkscape.org/) -->

<svg
   xmlns:dc="http://purl.org/dc/elements/1.1/"
   xmlns:cc="http://creativecommons.org/ns#"
   xmlns:rdf="http://www.w3.org/1999/02/22-rdf-syntax-ns#"
   xmlns:svg="http://www.w3.org/2000/svg"
   xmlns="http://www.w3.org/2000/svg"
   xmlns:xlink="http://www.w3.org/1999/xlink"
   xmlns:sodipodi="http://sodipodi.sourceforge.net/DTD/sodipodi-0.dtd"
   xmlns:inkscape="http://www.inkscape.org/namespaces/inkscape"
   width="98.723251"
   height="104.9068"
   id="svg31300"
   version="1.1"
   inkscape:version="0.48.3.1 r9886"
   sodipodi:docname="redpepper.svg">
  <defs
     id="defs31302">
    <linearGradient
       x1="13331.681"
       y1="2284.6909"
       x2="12970.555"
       y2="1933.9661"
       id="linearGradient41549"
       xlink:href="#linearGradient41543"
       gradientUnits="userSpaceOnUse" />
    <linearGradient
       id="linearGradient41543">
      <stop
         id="stop41545"
         style="stop-color:#8c5c63;stop-opacity:1"
         offset="0" />
      <stop
         id="stop41551"
         style="stop-color:#e80021;stop-opacity:1"
         offset="0.5" />
      <stop
         id="stop41547"
         style="stop-color:#cd1b35;stop-opacity:1"
         offset="1" />
    </linearGradient>
    <linearGradient
       x1="13765.969"
       y1="1442.6427"
       x2="13952.001"
       y2="1442.6427"
       id="linearGradient45457"
       xlink:href="#linearGradient45451"
       gradientUnits="userSpaceOnUse" />
    <linearGradient
       id="linearGradient45451">
      <stop
         id="stop45453"
         style="stop-color:#f0efe4;stop-opacity:1"
         offset="0" />
      <stop
         id="stop45455"
         style="stop-color:#f0efe4;stop-opacity:0"
         offset="1" />
    </linearGradient>
    <linearGradient
       x1="13386.948"
       y1="1929.4773"
       x2="13524.035"
       y2="1929.4773"
       id="linearGradient44480"
       xlink:href="#linearGradient44474"
       gradientUnits="userSpaceOnUse" />
    <linearGradient
       id="linearGradient44474">
      <stop
         id="stop44476"
         style="stop-color:#efe2da;stop-opacity:1"
         offset="0" />
      <stop
         id="stop44478"
         style="stop-color:#efe2da;stop-opacity:0"
         offset="1" />
    </linearGradient>
    <linearGradient
       x1="12709.508"
       y1="2613.1982"
       x2="12636.021"
       y2="2541.0735"
       id="linearGradient43503"
       xlink:href="#linearGradient43497"
       gradientUnits="userSpaceOnUse" />
    <linearGradient
       id="linearGradient43497">
      <stop
         id="stop43499"
         style="stop-color:#efe2da;stop-opacity:1"
         offset="0" />
      <stop
         id="stop43501"
         style="stop-color:#efe2da;stop-opacity:0"
         offset="1" />
    </linearGradient>
    <linearGradient
       x1="11432.236"
       y1="770.25226"
       x2="11556.964"
       y2="923.69446"
       id="linearGradient64499"
       xlink:href="#linearGradient46436"
       gradientUnits="userSpaceOnUse"
       gradientTransform="matrix(0.02756129,0,0,0.02756129,521.10587,246.8256)" />
    <linearGradient
       id="linearGradient46436">
      <stop
         id="stop46438"
         style="stop-color:#567d3e;stop-opacity:1"
         offset="0" />
      <stop
         id="stop46444"
         style="stop-color:#9cc284;stop-opacity:1"
         offset="0.5" />
      <stop
         id="stop46440"
         style="stop-color:#567d3e;stop-opacity:1"
         offset="1" />
    </linearGradient>
    <linearGradient
       y2="923.69446"
       x2="11556.964"
       y1="770.25226"
       x1="11432.236"
       gradientTransform="matrix(0.02756129,0,0,0.02756129,521.10587,246.8256)"
       gradientUnits="userSpaceOnUse"
       id="linearGradient31298"
       xlink:href="#linearGradient46436"
       inkscape:collect="always" />
  </defs>
  <sodipodi:namedview
     id="base"
     pagecolor="#ffffff"
     bordercolor="#ffffff"
     borderopacity="0.0"
     inkscape:pageopacity="0.0"
     inkscape:pageshadow="0"
     inkscape:zoom="0.35"
     inkscape:cx="541.64737"
     inkscape:cy="-260.68946"
     inkscape:document-units="px"
     inkscape:current-layer="layer1"
     showgrid="false"
     inkscape:window-width="511"
     inkscape:window-height="424"
     inkscape:window-x="-2"
     inkscape:window-y="0"
     inkscape:window-maximized="0"
     fit-margin-top="0"
     fit-margin-left="0"
     fit-margin-right="0"
     fit-margin-bottom="0" />
  <metadata
     id="metadata31305">
    <rdf:RDF>
      <cc:Work
         rdf:about="">
        <dc:format>image/svg+xml</dc:format>
        <dc:type
           rdf:resource="http://purl.org/dc/dcmitype/StillImage" />
        <dc:title />
      </cc:Work>
    </rdf:RDF>
  </metadata>
  <g
     inkscape:label="Layer 1"
     inkscape:groupmode="layer"
     id="layer1"
     transform="translate(191.64737,-166.76592)">
    <g
       transform="matrix(1.3414756,0,0,1.3414756,-1234.6931,-186.94538)"
       id="pepperoni2">
      <g
         transform="matrix(0.02756129,0,0,0.02756129,446.89261,246.51378)"
         id="g45459">
        <path
           inkscape:connector-curvature="0"
           d="m 13884.663,884 c -96,80 -152,72 -152,112 0,40 -86,138 -110,178 -24,40 -64,104 -80,144 -16,40 -10,110 -50,158 -40,48 -72,64 -104,128 -32,64 -144,232 -184,256 -40,24 -216,176 -248,200 -32,24 -152,144 -184,184 -32,40 -112,136 -152,152 -40,16 -96,32 -128,88 -32,56 -48,80 -96,104 -48,24 -160,184 -160,184 0,0 -104,168 -136,224 -32,56 -88,232 -96,288 -8,56 -8,176 -8,176 l 56,-16 c 0,0 80,-88 96,-120 16,-32 296,-232 296,-232 0,0 224,-288 264,-304 40,-16 296,-240 352,-272 56,-32 320.349,-250.1588 362,-284 64,-52 164,-172 204,-212 40,-40 338,-408 338,-408 0,0 128,-216 152,-272 24,-56 48,-72 80,-160 32,-88 -52,-224 -100,-240 -48,-16 -196,-64 -212,-56 z"
           id="path40572"
           style="fill:url(#linearGradient41549);fill-opacity:1;fill-rule:evenodd;stroke:none" />
        <path
           inkscape:connector-curvature="0"
           d="m 13876,1260 c 2.163,20.8557 2.239,41.761 -16,60 -17.799,17.7987 -23.847,62.8086 -44,88 -8.385,10.4818 -1.898,44.4061 0,52 4.54,18.1614 8.688,29.2465 4,48 -3.556,14.2246 -13.824,27.6484 -20,40 -8.736,17.4725 -12.477,32.6367 -24,48 -16.207,21.6099 -14.075,21.975 16,32 21.674,7.2248 44.092,-32.3673 48,-48 4.839,-19.3556 26.339,-54.3387 40,-68 15.638,-15.6383 24.8,-25.6005 32,-40 13.208,-26.4155 20,-55.6544 20,-88 0,-25.0872 4.153,-32.3067 12,-48 8.278,-16.5561 8,-30.0195 8,-52 0,-0.9148 -36.324,-18.162 -40,-20 -16.598,-8.2993 -5.856,-10.0287 -36,-4 z"
           id="path41553"
           style="opacity:0.94499966;fill:url(#linearGradient45457);fill-opacity:1;fill-rule:evenodd;stroke:none" />
        <path
           inkscape:connector-curvature="0"
           d="m 13476,1868 c -25.376,24.8073 -52.774,44.7743 -68,60 -12.473,12.4728 -16.402,37.6069 -20,52 -6.196,24.7825 15.995,24 40,24 10.867,0 29.552,-29.5523 36,-36 13.497,-13.4966 4.701,-26.1753 28,-32 14.006,-3.5015 27.657,-31.3132 32,-40 1.188,-2.3758 -27.812,-68.3763 -48,-28 z"
           id="path42524"
           style="fill:url(#linearGradient44480);fill-opacity:1;fill-rule:evenodd;stroke:none" />
        <path
           inkscape:connector-curvature="0"
           d="m 13032,2312 c -13.423,8.5996 -34.347,39.1071 -44,56 -12.139,21.2438 -59.202,44.8004 -72,48 -20.245,5.0613 -45.445,52.528 -52,64 -10.233,17.9078 -28.944,26.472 -48,36 -16.129,8.0645 -31.434,19.8584 -48,24 -22.069,5.5173 -23.161,11.1607 -36,24 -25.348,25.3478 -33.069,51.8016 -60,72 -24.448,18.3359 -53.627,41.627 -72,60 -16.298,16.2977 -23.958,23.9577 -36,36 -17.516,17.5163 -24.235,36.2347 -36,48 -11.289,11.2888 -13.957,27.9139 -20,40 -13.102,26.2049 -11.631,29.8153 -32,40 -23.878,11.9392 -25.603,6.3965 -44,-12 -11.057,-11.0568 -1.986,-44.0564 0,-52 3.918,-15.6707 34.472,-42.4723 44,-52 15.292,-15.2924 44.939,-38.7755 68,-48 22.137,-8.855 52.573,-45.1468 60,-60 9.169,-18.3375 18.875,-46.4999 32,-64 18.104,-24.1393 31.408,-39.7041 48,-48 18.003,-9.0016 38.746,-34.7462 48,-44 4.714,-4.714 10.667,-8 16,-12 20.383,-15.2873 42.277,-25.3665 60,-36 20.014,-12.0085 34.321,-25.2009 48,-48 6.124,-10.2066 48.486,-12.2431 64,-20 25.288,-12.6438 39.11,-15.1096 52,-28 11.28,-11.2802 45.092,-20.2729 60,-24 z"
           id="path42526"
           style="fill:url(#linearGradient43503);fill-opacity:1;fill-rule:evenodd;stroke:none" />
      </g>
      <path
         inkscape:connector-curvature="0"
         d="m 828.68991,270.58344 c 1.54344,0 4.85079,0 5.29177,-0.11025 0.44098,-0.11025 3.47272,-2.26003 3.91371,-2.86637 0.44098,-0.60635 4.35468,-3.6381 4.35468,-3.6381 0,0 0.71659,-0.38585 1.32294,-0.27561 0.60635,0.11025 2.37027,0 3.30736,0.44098 0.93708,0.44098 3.9137,1.92929 4.02395,2.59076 0.11024,0.66148 0.33073,1.92929 0.16536,2.70101 -0.16536,0.77172 -0.77171,1.81905 -1.43318,2.37027 -0.66147,0.55123 -1.59856,1.2127 -1.81905,1.2127 -0.22049,0 -1.2127,-0.22049 -1.2127,-0.22049 l 2.31515,-0.93709 c 0,0 0.16537,-0.55122 0.49611,-1.21269 0.33073,-0.66147 1.26782,-0.88196 0.88196,-2.09466 -0.38586,-1.2127 -1.26782,-1.76392 -1.59856,-1.98441 -0.33073,-0.22049 -1.48831,-0.7166 -1.98441,-0.77172 -0.4961,-0.0551 -1.7088,-0.11025 -2.53564,-0.11025 -0.82684,0 -4.35468,2.31515 -4.35468,2.31515 0,0 -0.49611,1.54344 -1.10246,2.64589 -0.60634,1.10245 -1.32294,1.92929 -1.32294,2.37027 0,0.44098 0.0551,1.59855 0.55123,2.26002 0.4961,0.66148 1.37806,2.03954 1.37806,2.03954 0,0 -0.55122,-0.27561 -0.93708,-0.71659 -0.38586,-0.44098 -1.43319,-1.37807 -1.81905,-1.43319 -0.38585,-0.0551 -0.55122,-0.0551 -1.59855,-0.16537 -1.04733,-0.11024 -0.77172,0.27561 -1.54343,-0.82684 -0.77172,-1.10245 -1.15758,-1.37806 -1.98442,-1.87416 -0.82684,-0.49611 -1.7088,-0.88197 -2.14978,-1.10246 -0.44098,-0.22049 -0.44098,-0.66147 -0.60635,-0.60634 z"
         id="path45465"
         style="fill:url(#linearGradient31298);fill-opacity:1;fill-rule:evenodd;stroke:none" />
    </g>
  </g>
</svg>
