<?xml version="1.0" encoding="UTF-8" standalone="no"?>
<!-- Created with Inkscape (http://www.inkscape.org/) -->

<svg
   xmlns:dc="http://purl.org/dc/elements/1.1/"
   xmlns:cc="http://creativecommons.org/ns#"
   xmlns:rdf="http://www.w3.org/1999/02/22-rdf-syntax-ns#"
   xmlns:svg="http://www.w3.org/2000/svg"
   xmlns="http://www.w3.org/2000/svg"
   xmlns:xlink="http://www.w3.org/1999/xlink"
   xmlns:sodipodi="http://sodipodi.sourceforge.net/DTD/sodipodi-0.dtd"
   xmlns:inkscape="http://www.inkscape.org/namespaces/inkscape"
   width="188.31114"
   height="212.89413"
   id="svg4487"
   version="1.1"
   inkscape:version="0.48.3.1 r9886"
   sodipodi:docname="background.svg">
  <defs
     id="defs4489">
    <linearGradient
       id="linearGradient8994">
      <stop
         style="stop-color:#fffad4;stop-opacity:1;"
         offset="0"
         id="stop8996" />
      <stop
         id="stop3768"
         offset="0.5"
         style="stop-color:#ffffff;stop-opacity:1;" />
      <stop
         style="stop-color:#ffffff;stop-opacity:0;"
         offset="1"
         id="stop8998" />
    </linearGradient>
    <radialGradient
       inkscape:collect="always"
       xlink:href="#linearGradient8994"
       id="radialGradient9000"
       cx="125.82396"
       cy="-18.061115"
       fx="125.82396"
       fy="-18.061115"
       r="10.895788"
       gradientUnits="userSpaceOnUse" />
    <linearGradient
       id="linearGradient4112">
      <stop
         style="stop-color:#fffad4;stop-opacity:1;"
         offset="0"
         id="stop4114" />
      <stop
         id="stop4116"
         offset="0.5"
         style="stop-color:#ffffff;stop-opacity:1;" />
      <stop
         style="stop-color:#ffffff;stop-opacity:0;"
         offset="1"
         id="stop4118" />
    </linearGradient>
    <linearGradient
       inkscape:collect="always"
       xlink:href="#linearGradient8840"
       id="linearGradient8982"
       gradientUnits="userSpaceOnUse"
       x1="120.759"
       y1="-14.649212"
       x2="128.25777"
       y2="-21.031485" />
    <linearGradient
       id="linearGradient8840">
      <stop
         id="stop8842"
         offset="0.00000000"
         style="stop-color:#ffffff;stop-opacity:1.0000000;" />
      <stop
         id="stop8844"
         offset="1.0000000"
         style="stop-color:#767676;stop-opacity:1" />
    </linearGradient>
    <linearGradient
       id="linearGradient4125">
      <stop
         id="stop4127"
         offset="0.00000000"
         style="stop-color:#ffffff;stop-opacity:1.0000000;" />
      <stop
         id="stop4129"
         offset="1.0000000"
         style="stop-color:#767676;stop-opacity:1" />
    </linearGradient>
    <linearGradient
       inkscape:collect="always"
       id="linearGradient3635">
      <stop
         style="stop-color:#babdb6;stop-opacity:1"
         offset="0"
         id="stop3637" />
      <stop
         style="stop-color:#d3d7cf;stop-opacity:0"
         offset="1"
         id="stop3639" />
    </linearGradient>
    <linearGradient
       inkscape:collect="always"
       id="linearGradient8890">
      <stop
         style="stop-color:#ffffff;stop-opacity:1;"
         offset="0"
         id="stop8892" />
      <stop
         style="stop-color:#ffffff;stop-opacity:0;"
         offset="1"
         id="stop8894" />
    </linearGradient>
    <linearGradient
       inkscape:collect="always"
       id="linearGradient3885">
      <stop
         style="stop-color:#8f6b32;stop-opacity:1;"
         offset="0"
         id="stop3887" />
      <stop
         style="stop-color:#8f6b32;stop-opacity:0;"
         offset="1"
         id="stop3889" />
    </linearGradient>
    <linearGradient
       inkscape:collect="always"
       id="linearGradient3875">
      <stop
         style="stop-color:#debc85;stop-opacity:1;"
         offset="0"
         id="stop3877" />
      <stop
         style="stop-color:#debc85;stop-opacity:0;"
         offset="1"
         id="stop3879" />
    </linearGradient>
    <linearGradient
       inkscape:collect="always"
       xlink:href="#linearGradient4022"
       id="linearGradient4028"
       x1="109.29948"
       y1="26.811361"
       x2="109.55225"
       y2="33.669727"
       gradientUnits="userSpaceOnUse"
       gradientTransform="translate(5.0188087,9.3845543)" />
    <linearGradient
       inkscape:collect="always"
       id="linearGradient4022">
      <stop
         style="stop-color:#006e29;stop-opacity:1;"
         offset="0"
         id="stop4024" />
      <stop
         style="stop-color:#006e29;stop-opacity:0;"
         offset="1"
         id="stop4026" />
    </linearGradient>
    <linearGradient
       inkscape:collect="always"
       xlink:href="#linearGradient4022"
       id="linearGradient4200"
       x1="109.29948"
       y1="26.811361"
       x2="109.55225"
       y2="33.669727"
       gradientUnits="userSpaceOnUse"
       gradientTransform="translate(5.0188087,9.3845543)" />
    <linearGradient
       inkscape:collect="always"
       xlink:href="#linearGradient4022"
       id="linearGradient4208"
       x1="109.29948"
       y1="26.811361"
       x2="109.55225"
       y2="33.669727"
       gradientUnits="userSpaceOnUse"
       gradientTransform="translate(5.0188087,9.3845543)" />
    <linearGradient
       inkscape:collect="always"
       xlink:href="#linearGradient4022"
       id="linearGradient4216"
       x1="109.29948"
       y1="26.811361"
       x2="109.55225"
       y2="33.669727"
       gradientUnits="userSpaceOnUse"
       gradientTransform="translate(5.0188087,9.3845543)" />
    <linearGradient
       inkscape:collect="always"
       xlink:href="#linearGradient4022"
       id="linearGradient4224"
       x1="109.29948"
       y1="26.811361"
       x2="109.55225"
       y2="33.669727"
       gradientUnits="userSpaceOnUse"
       gradientTransform="translate(5.0188087,9.3845543)" />
    <linearGradient
       inkscape:collect="always"
       xlink:href="#linearGradient4022"
       id="linearGradient4232"
       x1="109.29948"
       y1="26.811361"
       x2="109.55225"
       y2="33.669727"
       gradientUnits="userSpaceOnUse"
       gradientTransform="translate(5.0188087,9.3845543)" />
    <linearGradient
       id="linearGradient4978">
      <stop
         style="stop-color:#ffffff;stop-opacity:1.0000000;"
         offset="0.00000000"
         id="stop4979" />
      <stop
         style="stop-color:#aac0d3;stop-opacity:1.0000000;"
         offset="1.0000000"
         id="stop4980" />
    </linearGradient>
    <linearGradient
       id="linearGradient4266">
      <stop
         style="stop-color:#ffffff;stop-opacity:1.0000000;"
         offset="0.00000000"
         id="stop4268" />
      <stop
         style="stop-color:#aac0d3;stop-opacity:1.0000000;"
         offset="1.0000000"
         id="stop4270" />
    </linearGradient>
    <linearGradient
       inkscape:collect="always"
       id="linearGradient5187">
      <stop
         style="stop-color:#000000;stop-opacity:1;"
         offset="0"
         id="stop5189" />
      <stop
         style="stop-color:#000000;stop-opacity:0;"
         offset="1"
         id="stop5191" />
    </linearGradient>
    <linearGradient
       inkscape:collect="always"
       xlink:href="#linearGradient5187"
       id="linearGradient5970"
       x1="177.20319"
       y1="2.8345792"
       x2="179.70499"
       y2="4.9956942"
       gradientUnits="userSpaceOnUse" />
    <radialGradient
       inkscape:collect="always"
       xlink:href="#linearGradient8994"
       id="radialGradient6077"
       gradientUnits="userSpaceOnUse"
       gradientTransform="matrix(2.6427183,0,0,0.46127216,55.25437,435.11343)"
       cx="161.33185"
       cy="-1.1537488"
       fx="161.33185"
       fy="-1.1537488"
       r="64.208038" />
    <linearGradient
       inkscape:collect="always"
       xlink:href="#linearGradient8840"
       id="linearGradient6377"
       gradientUnits="userSpaceOnUse"
       x1="32.162376"
       y1="30.274143"
       x2="40.146992"
       y2="37.276478" />
    <radialGradient
       inkscape:collect="always"
       xlink:href="#linearGradient3635"
       id="radialGradient6379"
       gradientUnits="userSpaceOnUse"
       gradientTransform="matrix(1,0,0,0.545723,-0.265076,-8.5114988)"
       cx="125.10767"
       cy="-19.519712"
       fx="125.10767"
       fy="-19.519712"
       r="6.2779408" />
    <radialGradient
       inkscape:collect="always"
       xlink:href="#linearGradient3635"
       id="radialGradient6381"
       gradientUnits="userSpaceOnUse"
       gradientTransform="matrix(1,0,0,2.12034,0,19.343675)"
       cx="127.31938"
       cy="-17.265896"
       fx="127.31938"
       fy="-17.265896"
       r="1.7083538" />
    <radialGradient
       inkscape:collect="always"
       xlink:href="#linearGradient3635"
       id="radialGradient6383"
       gradientUnits="userSpaceOnUse"
       gradientTransform="matrix(1.0000008,0,-1.2956708e-8,1.1984835,-0.02140472,4.0136353)"
       cx="118.02328"
       cy="-22.270121"
       fx="118.02328"
       fy="-22.270121"
       r="1.2814293" />
    <radialGradient
       inkscape:collect="always"
       xlink:href="#linearGradient3635"
       id="radialGradient6385"
       gradientUnits="userSpaceOnUse"
       gradientTransform="matrix(1,0,0,0.5542523,0,-10.992807)"
       cx="121.2715"
       cy="-24.661501"
       fx="121.2715"
       fy="-24.661501"
       r="1.5346363" />
    <radialGradient
       inkscape:collect="always"
       xlink:href="#linearGradient3635"
       id="radialGradient6387"
       gradientUnits="userSpaceOnUse"
       gradientTransform="matrix(1,0,0,0.5034962,0,-12.940185)"
       cx="125.56279"
       cy="-26.062609"
       fx="125.56279"
       fy="-26.062609"
       r="1.3912793" />
    <radialGradient
       inkscape:collect="always"
       xlink:href="#linearGradient3635"
       id="radialGradient6389"
       gradientUnits="userSpaceOnUse"
       gradientTransform="matrix(1,0,0,1.0357043,0,0.7164149)"
       cx="115.83856"
       cy="-20.065207"
       fx="115.83856"
       fy="-20.065207"
       r="0.87572134" />
    <radialGradient
       inkscape:collect="always"
       xlink:href="#linearGradient3635"
       id="radialGradient6391"
       gradientUnits="userSpaceOnUse"
       gradientTransform="matrix(1,0,0,0.7268614,0,-6.2687764)"
       cx="135.3353"
       cy="-22.950897"
       fx="135.3353"
       fy="-22.950897"
       r="1.2988831" />
    <radialGradient
       inkscape:collect="always"
       xlink:href="#linearGradient8890"
       id="radialGradient6393"
       gradientUnits="userSpaceOnUse"
       gradientTransform="matrix(1,0,0,1.5999999,0,-22.668664)"
       cx="34.366077"
       cy="37.781113"
       fx="34.366077"
       fy="37.781113"
       r="2.0455999" />
    <radialGradient
       inkscape:collect="always"
       xlink:href="#linearGradient3635"
       id="radialGradient6395"
       gradientUnits="userSpaceOnUse"
       gradientTransform="matrix(1.0525443,-0.2635059,0.07138928,0.2890802,-6.0211417,24.107267)"
       cx="127.22137"
       cy="-12.417667"
       fx="127.22137"
       fy="-12.417667"
       r="4.51723" />
    <linearGradient
       inkscape:collect="always"
       xlink:href="#linearGradient8840"
       id="linearGradient6397"
       gradientUnits="userSpaceOnUse"
       x1="120.759"
       y1="-14.649212"
       x2="128.25777"
       y2="-21.031485" />
    <radialGradient
       inkscape:collect="always"
       xlink:href="#linearGradient3885"
       id="radialGradient6399"
       gradientUnits="userSpaceOnUse"
       gradientTransform="matrix(2.6422384,0.05018885,-0.11901551,6.2230811,53.930074,440.2605)"
       cx="177.10675"
       cy="-0.58388138"
       fx="177.10675"
       fy="-0.58388138"
       r="15.920251" />
    <radialGradient
       inkscape:collect="always"
       xlink:href="#linearGradient3875"
       id="radialGradient6401"
       gradientUnits="userSpaceOnUse"
       gradientTransform="matrix(2.6238688,0.31400148,-0.71409314,5.926556,48.029475,427.48753)"
       cx="155.23907"
       cy="-15.15342"
       fx="155.23907"
       fy="-15.15342"
       r="15.920251" />
    <radialGradient
       inkscape:collect="always"
       xlink:href="#linearGradient8890"
       id="radialGradient6403"
       gradientUnits="userSpaceOnUse"
       gradientTransform="matrix(2.6427183,0,0,2.4267248,55.25437,438.37721)"
       cx="141.34818"
       cy="4.115262"
       fx="141.34818"
       fy="4.115262"
       r="4.9202251" />
    <radialGradient
       inkscape:collect="always"
       xlink:href="#linearGradient8890"
       id="radialGradient6405"
       gradientUnits="userSpaceOnUse"
       gradientTransform="matrix(2.6427183,0,0,11.546036,55.25437,236.60855)"
       cx="155.20445"
       cy="22.506714"
       fx="155.20445"
       fy="22.506714"
       r="1.0119389" />
    <linearGradient
       inkscape:collect="always"
       xlink:href="#linearGradient4978"
       id="linearGradient6407"
       gradientUnits="userSpaceOnUse"
       gradientTransform="matrix(2.6427183,0,0,2.6157831,55.25437,437.59919)"
       x1="168.98288"
       y1="38.170918"
       x2="173.77437"
       y2="37.409409" />
    <linearGradient
       inkscape:collect="always"
       xlink:href="#linearGradient3635"
       id="linearGradient6409"
       gradientUnits="userSpaceOnUse"
       gradientTransform="matrix(2.2737081,0,0,2.2659653,164.10024,279.38768)"
       x1="144.25262"
       y1="115.91128"
       x2="153.32216"
       y2="115.91128" />
    <linearGradient
       inkscape:collect="always"
       xlink:href="#linearGradient4978"
       id="linearGradient6411"
       gradientUnits="userSpaceOnUse"
       gradientTransform="matrix(2.6427183,0,0,2.6157831,55.25437,437.59919)"
       x1="152.15735"
       y1="38.262093"
       x2="158.01456"
       y2="40.94405" />
    <radialGradient
       inkscape:collect="always"
       xlink:href="#linearGradient5187"
       id="radialGradient6413"
       gradientUnits="userSpaceOnUse"
       gradientTransform="matrix(5.3078236,-1.0107402,1.3600821,7.0938029,-427.43892,416.36629)"
       cx="156.0114"
       cy="37.568813"
       fx="156.0114"
       fy="37.568813"
       r="5.9231877" />
    <radialGradient
       inkscape:collect="always"
       xlink:href="#linearGradient5187"
       id="radialGradient6415"
       gradientUnits="userSpaceOnUse"
       gradientTransform="matrix(-5.3078236,-1.0107402,-1.3600821,7.0938029,1406.9978,416.72062)"
       cx="156.0114"
       cy="37.568813"
       fx="156.0114"
       fy="37.568813"
       r="5.9231877" />
    <linearGradient
       inkscape:collect="always"
       xlink:href="#linearGradient3635"
       id="linearGradient6417"
       gradientUnits="userSpaceOnUse"
       gradientTransform="matrix(2.2737081,0,0,2.2659653,165.39912,280.35976)"
       x1="157.70482"
       y1="75.25"
       x2="155.65625"
       y2="75.93354" />
    <linearGradient
       inkscape:collect="always"
       xlink:href="#linearGradient3635"
       id="linearGradient6419"
       gradientUnits="userSpaceOnUse"
       gradientTransform="matrix(2.2737081,0,0,2.2659653,459.58565,244.74896)"
       x1="39.044136"
       y1="99.879662"
       x2="31.357527"
       y2="93.392502" />
    <linearGradient
       inkscape:collect="always"
       xlink:href="#linearGradient3635"
       id="linearGradient6421"
       gradientUnits="userSpaceOnUse"
       gradientTransform="matrix(2.2737081,0,0,2.2659653,164.10024,279.38768)"
       x1="161.22614"
       y1="76.217796"
       x2="160.13966"
       y2="73.314514" />
    <linearGradient
       inkscape:collect="always"
       xlink:href="#linearGradient5187"
       id="linearGradient6423"
       gradientUnits="userSpaceOnUse"
       gradientTransform="matrix(2.6427183,0,0,2.6157831,55.25437,437.59919)"
       x1="177.20319"
       y1="2.8345792"
       x2="179.70499"
       y2="4.9956942" />
  </defs>
  <sodipodi:namedview
     id="base"
     pagecolor="#ffffff"
     bordercolor="#666666"
     borderopacity="1.0"
     inkscape:pageopacity="0.0"
     inkscape:pageshadow="2"
     inkscape:zoom="1"
     inkscape:cx="503.42335"
     inkscape:cy="72.632137"
     inkscape:document-units="px"
     inkscape:current-layer="layer1"
     showgrid="false"
     fit-margin-top="0"
     fit-margin-left="0"
     fit-margin-right="0"
     fit-margin-bottom="0"
     inkscape:window-width="1366"
     inkscape:window-height="750"
     inkscape:window-x="-2"
     inkscape:window-y="-3"
     inkscape:window-maximized="1" />
  <metadata
     id="metadata4492">
    <rdf:RDF>
      <cc:Work
         rdf:about="">
        <dc:format>image/svg+xml</dc:format>
        <dc:type
           rdf:resource="http://purl.org/dc/dcmitype/StillImage" />
        <dc:title></dc:title>
      </cc:Work>
    </rdf:RDF>
  </metadata>
  <g
     inkscape:label="Ebene 1"
     inkscape:groupmode="layer"
     id="layer1"
     transform="translate(153.42335,-269.10764)">
    <path
       inkscape:connector-curvature="0"
       id="path3974"
       d="m 479.50981,404.98364 c -5.51921,0.0797 -10.54999,0.38817 -15.3224,0.98092 -7.83273,0.97285 -13.45001,2.50389 -16.96115,4.57762 -1.75558,1.03687 -2.95556,2.21828 -3.60528,3.59671 -0.45719,0.97 -0.20137,2.05656 0,3.10624 -25.64184,-0.36433 -49.0716,0.48299 -66.6975,2.37055 -8.92203,0.95546 -16.39696,2.16494 -21.95938,3.5967 -5.56242,1.43177 -9.22504,2.94162 -10.73388,5.23157 -0.51979,0.78889 -0.7209,1.7477 -0.49162,2.61578 0.22912,0.86809 0.76509,1.59606 1.5568,2.28881 1.58341,1.38551 4.17393,2.63645 7.62025,3.84193 5.79207,2.02603 14.60245,3.86336 24.99108,5.55854 -20.89479,2.57233 -38.65774,5.78898 -50.14606,9.15524 -6.30019,1.84606 -10.83631,3.62942 -13.43782,5.55854 -1.30075,0.96457 -2.21729,2.02802 -2.3762,3.26973 -0.15891,1.24172 0.57894,2.39579 1.80264,3.26973 0.40728,0.31602 0.99423,0.24282 1.311,-0.16349 0.31678,-0.40631 0.2434,-0.99187 -0.16387,-1.30789 -0.92839,-0.66303 -1.12197,-1.10946 -1.06519,-1.55312 0.0568,-0.44365 0.53361,-1.22406 1.63875,-2.04358 2.2103,-1.63903 6.65716,-3.49452 12.86427,-5.31331 12.36747,-3.62387 31.74399,-7.23245 55.2262,-9.89093 0.0888,-0.01 0.15698,0.01 0.24578,0 l 0,-1.79835 c -0.0893,-0.0129 -0.15672,0.013 -0.24578,0 -13.06708,-1.90371 -23.44263,-4.13907 -30.07125,-6.45771 -3.33693,-1.16723 -5.72619,-2.34949 -6.96473,-3.43322 -0.61926,-0.54187 -0.96633,-1.09713 -1.0652,-1.47138 -0.0988,-0.37424 -0.0507,-0.61245 0.24578,-1.06266 0.85938,-1.30427 4.33162,-3.10103 9.75062,-4.49588 5.419,-1.39484 12.76489,-2.56542 21.63163,-3.51495 17.73346,-1.89908 41.39726,-2.85211 67.35301,-2.4523 l 1.47487,0.0817 -0.57355,-1.38963 c -0.48629,-1.06525 -0.51221,-1.86645 -0.0819,-2.77927 0.43028,-0.91283 1.39559,-1.9431 2.94977,-2.86102 3.10834,-1.83583 8.52644,-3.37636 16.22373,-4.33239 4.69606,-0.58327 9.61186,-0.902 15.07658,-0.98091 23.25351,-0.33579 51.84299,3.69991 70.05698,10.38138 l 0.16385,0.0817 0.24577,0 c 3.22404,-0.3383 6.6963,-0.62864 10.24225,-0.81743 l 0.0819,0 0.16385,-0.0817 c 17.22553,-5.56748 45.82331,-9.15524 78.08688,-9.15524 3.97915,0 7.94018,0.0551 11.79908,0.16349 0.52041,0 0.94226,-0.42088 0.94226,-0.94005 0,-0.51917 -0.42185,-0.94005 -0.94226,-0.94005 -3.86965,-0.10863 -7.79665,-0.16348 -11.79908,-0.16348 -32.40223,0 -61.09367,3.64095 -78.66045,9.31872 -3.45924,0.18798 -6.91655,0.40541 -10.07838,0.73569 -0.0238,-0.008 -0.0592,0.008 -0.0819,0 -18.57786,-6.73271 -46.88449,-10.71837 -70.22086,-10.38139 z"
       style="fill:url(#radialGradient6077);fill-opacity:1;fill-rule:nonzero;stroke:none" />
    <path
       sodipodi:type="arc"
       style="fill:url(#radialGradient9000);fill-opacity:1;fill-rule:nonzero;stroke:none"
       id="path5830"
       sodipodi:cx="125.82396"
       sodipodi:cy="-18.061115"
       sodipodi:rx="10.895788"
       sodipodi:ry="10.895788"
       d="m 136.71975,-18.061115 c 0,6.017577 -4.87821,10.8957879 -10.89579,10.8957879 -6.01758,0 -10.89579,-4.8782109 -10.89579,-10.8957879 0,-6.017578 4.87821,-10.895788 10.89579,-10.895788 6.01758,0 10.89579,4.87821 10.89579,10.895788 z"
       transform="matrix(2.7128693,0,0,2.6852191,2.781335,396.40692)" />
    <g
       id="g6344"
       transform="translate(-532,-83)">
      <path
         sodipodi:nodetypes="cccccccccccscccccc"
         id="path11164"
         d="m 413.93625,428.60297 -10.47145,2.29856 c 4.00105,12.01292 3.36577,21.89495 9.38897,33.12666 7.38434,9.4208 15.97822,6.74353 24.7059,-2.99203 5.05785,-5.80825 6.7851,-8.93358 15.69027,-12.29334 l 4.64516,-4.47696 14.64782,19.97899 c -1.704,5.48654 -5.39873,10.8942 -5.65182,16.4399 -0.1036,8.91246 -3.63387,30.54429 2.13603,45.76225 l 5.8343,-10.09477 0.73549,-11.00195 c 0,0 0.16993,-15.55255 5.18097,-22.72323 6.09015,-8.71467 1.24367,-18.85467 1.24367,-18.85467 0.33885,-1.51086 -0.12395,-3.08845 -1.22747,-4.18479 l -22.4584,-29.32186 c -1.44879,-1.42179 -12.95104,3.20101 -14.57491,4.41561 -9.96883,3.77229 -15.48635,25.43333 -19.48901,24.4863 -5.90476,-0.3813 -5.9684,-16.31612 -10.33552,-30.56467 z"
         style="fill:#000000;fill-opacity:1;fill-rule:evenodd;stroke:#2e3436;stroke-width:1.13491678;stroke-linecap:butt;stroke-linejoin:round;stroke-miterlimit:4;stroke-opacity:1;stroke-dasharray:none"
         inkscape:connector-curvature="0" />
      <path
         sodipodi:nodetypes="czccccccccscccczcc"
         id="path11166"
         d="m 517.40512,428.21326 c -12.14545,14.20744 13.71783,9.46016 30.33286,15.0029 16.61501,5.54274 5.86295,12.44789 -7.14964,12.65095 l -30.91267,0.96037 c -1.0885,-0.0173 -2.14924,0.34065 -3.00041,1.01245 -9.31196,7.96993 -16.74685,5.24987 -17.24323,18.32776 1.86357,6.86766 3.72729,11.39332 6.03948,18.15137 2.19869,6.04426 4.49255,13.01362 4.49255,13.01362 0.9774,10.12449 3.71724,24.0603 4.56072,31.34061 l 7.38809,-1.19984 c -0.45923,-11.61998 0.14588,-20.56586 -0.0692,-26.40012 -0.40598,-11.02024 -3.90935,-16.11753 -3.90935,-16.11753 l -7.63745,-23.48881 11.08356,-5.39247 17.8649,-0.74972 c 5.92847,-0.99613 21.49207,-1.84987 31.73448,-8.34658 10.24241,-6.49671 5.31583,-16.3797 -10.84558,-24.74286 -5.72559,-2.13035 -20.25604,-12.43095 -32.72915,-4.0221 z"
         style="fill:#000000;fill-opacity:1;fill-rule:evenodd;stroke:#2e3436;stroke-width:1.13491678;stroke-linecap:butt;stroke-linejoin:round;stroke-miterlimit:4;stroke-opacity:1;stroke-dasharray:none"
         inkscape:connector-curvature="0" />
      <path
         sodipodi:nodetypes="csssssssc"
         id="path5827"
         d="m 528.55932,413.41179 c 6.9091,17.44325 3.61876,48.15814 -6.51625,56.28026 -9.34989,7.49295 -16.95476,11.32783 -26.64756,13.93045 -11.88555,3.1914 -34.16078,0.79955 -37.70218,-16.21001 -6.28507,-30.18765 -10.96586,-38.91918 -9.27986,-55.82436 0.9212,-9.23681 -0.63364,-22.69686 2.83133,-30.29319 6.93058,-15.19388 28.58031,-28.51968 38.62341,-28.51968 10.0431,0 23.16536,5.37751 25.72636,18.03366 3.82256,18.89079 6.51623,23.79187 12.96475,42.60287 z"
         style="fill:#b3925d;fill-opacity:1;fill-rule:nonzero;stroke:#57401e;stroke-width:1.13491678;stroke-linecap:round;stroke-linejoin:miter;stroke-miterlimit:3.79999995;stroke-opacity:1;stroke-dasharray:none;stroke-dashoffset:1.68000004"
         inkscape:connector-curvature="0" />
      <g
         id="g8821"
         transform="matrix(1.8953935,0,0,1.8760752,167.7052,453.49093)"
         style="fill:url(#linearGradient6397);fill-opacity:1;stroke:#000000;stroke-width:0.68858385;stroke-miterlimit:4;stroke-opacity:1;stroke-dasharray:none">
        <path
           sodipodi:nodetypes="csssccsssscsssssssszsccssscccsscscc"
           id="path8775"
           transform="translate(96.10292,-46.78804)"
           d="m 23.118843,14.330509 c -0.81824,0.245472 -0.800345,1.254108 -0.462593,3.169491 0.321922,1.825609 0.33061,4.805548 1.3125,6.6875 0.02958,0.0567 0.06377,0.101611 0.09375,0.15625 0.429028,0.543744 1.501982,1.821892 1.983546,2.514796 -0.392979,-0.427807 -1.053035,-1.088284 -1.65625,-2.1875 -0.09215,-0.116786 -0.629009,-0.716941 -0.671046,-0.764796 -0.87689,-0.998252 -1.962621,-6.477643 -2.575741,-6.886388 -0.98189,-0.654592 -2.158295,-1.062382 -2.731065,-0.571438 -0.57277,0.490944 0.984036,5.71567 1.556806,7.270326 0.57277,1.554656 3.527747,5.51005 3.568657,5.387315 -0.768714,-0.65045 -2.90161,-2.861987 -2.976115,-3.057574 -0.256799,-0.674144 -1.357268,-2.033004 -1.636107,-2.416407 -0.65459,-0.900064 -2.515434,-1.098787 -3.251853,-0.526019 -0.73642,0.572768 0.373158,1.913706 1.764168,3.550185 1.232879,1.450454 4.459282,5.650735 6.03125,6.875 0.01265,0.0099 0.01882,0.02179 0.03125,0.03125 0.997467,1.351263 1.754281,1.420374 2.078655,2.069121 0.327297,0.654591 -1.302952,2.208197 0.08806,3.844677 1.391008,1.636482 2.617673,0.763573 4.472458,0.71875 1.848641,-0.04467 4.759564,-1.065107 7.072126,-2.761435 1.032706,-0.757519 -0.04975,-3.748983 -0.949815,-4.158103 0.848604,-3.1797 1.867486,-5.754925 4.39477,-7.61926 1.226732,-0.90092 3.03125,-2.02551 3.03125,-2.84375 0,-0.81824 -0.0078,-2.382398 -1.5625,-2.21875 -1.554655,0.163647 -2.861862,1.96588 -3.84375,2.375 -0.657982,0.274159 -2.167804,0.860322 -3.5,1.375 -2.124922,0.697317 -3.735487,-2.049392 -3.994838,-3.770865 -0.451686,-2.998118 -0.769204,-5.892224 -1.605069,-5.891543 -1.14554,0 -1.986758,-0.275527 -1.986759,0.624537 0,0.900064 0.0781,4.313336 0.487222,5.949815 0.40912,1.63648 1.683534,4.347718 1.724444,4.306806 -0.42513,-0.113587 -2.584617,-2.648424 -2.863612,-4.406713 -0.396541,-2.499095 -1.067323,-5.193955 -1.312963,-5.93088 -0.587129,-0.873781 -1.10661,-0.81089 -2.110832,-0.894398 z"
           style="fill:url(#linearGradient6377);fill-opacity:1;fill-rule:evenodd;stroke:#2e3436;stroke-width:0.60185128;stroke-linecap:butt;stroke-linejoin:round;stroke-miterlimit:4;stroke-opacity:1;stroke-dasharray:none"
           inkscape:connector-curvature="0" />
        <path
           style="fill:url(#radialGradient6379);fill-opacity:1;fill-rule:evenodd;stroke:none"
           d="m 130.7441,-22.588432 c 0,0 -3.84282,0.415283 -6.375,1.34375 -2.55962,0.938527 -4.49703,3.04753 -5.75,4.96875 -0.1,0.156022 -0.0585,0.363181 0.0937,0.46875 0.0773,0.05825 0.17555,0.08128 0.27068,0.06344 0.0951,-0.01784 0.17837,-0.07489 0.22932,-0.157194 1.20175,-1.842686 3.02518,-3.825899 5.375,-4.6875 2.37726,-0.871662 6.21875,-1.3125 6.21875,-1.3125 0.18985,-0.01726 0.32976,-0.185152 0.3125,-0.375 -0.0173,-0.189848 -0.18515,-0.329759 -0.375,-0.3125 z"
           id="path8805"
           inkscape:connector-curvature="0" />
        <path
           style="fill:url(#radialGradient6381);fill-opacity:1;fill-rule:evenodd;stroke:none"
           d="m 128.59375,-20.875 c -1.69843,0.525904 -2.55558,1.803186 -2.84375,3.15625 -0.28817,1.353064 -0.0853,2.789718 0.21875,3.8125 0.0518,0.189848 0.24765,0.301777 0.4375,0.25 0.18985,-0.05178 0.30178,-0.247652 0.25,-0.4375 -0.27756,-0.933596 -0.4713,-2.282916 -0.21875,-3.46875 0.25255,-1.185834 0.87765,-2.202284 2.34375,-2.65625 0.11377,-0.03372 0.20216,-0.123643 0.23392,-0.237974 0.0318,-0.114332 0.002,-0.23696 -0.0777,-0.324526 -0.0882,-0.09271 -0.22065,-0.128822 -0.34375,-0.09375 z"
           id="path8807"
           inkscape:connector-curvature="0" />
        <path
           style="fill:url(#radialGradient6383);fill-opacity:1;fill-rule:evenodd;stroke:none"
           d="m 118.98331,-24.095755 c -1.47562,-0.184453 -2.21875,0.90625 -2.21875,0.90625 -0.0755,0.134535 -0.0522,0.302835 0.0568,0.411906 0.10907,0.109071 0.27737,0.132296 0.41191,0.05684 0.037,-0.02488 0.0689,-0.05672 0.0937,-0.09375 0,0 0.41975,-0.736594 1.5625,-0.59375 0.18985,0.02589 0.36474,-0.107027 0.39062,-0.296875 0.0259,-0.189848 -0.10702,-0.364737 -0.29687,-0.390625 z"
           id="path8811"
           inkscape:connector-curvature="0" />
        <path
           style="fill:url(#radialGradient6385);fill-opacity:1;fill-rule:evenodd;stroke:none"
           d="m 121.82167,-25.50679 c -0.4472,0.04192 -1.04083,0.292364 -1.96875,1.09375 -0.13877,0.12289 -0.15535,0.333581 -0.0375,0.476667 0.11784,0.143086 0.3278,0.167212 0.47502,0.05458 0.87221,-0.753271 1.38636,-0.918057 1.59375,-0.9375 0.1037,-0.0097 0.15107,-0.0029 0.15625,0 l 0.0625,0.125 0.1875,0 0.15625,0 c 0.13576,0.006 0.26234,-0.06846 0.32311,-0.190006 0.0608,-0.121547 0.0444,-0.267469 -0.0419,-0.372494 -0.0689,-0.08358 -0.17306,-0.129883 -0.28125,-0.125 l -0.0625,0 c -0.0175,-0.01277 -0.0117,-0.02035 -0.0312,-0.03125 -0.12778,-0.07126 -0.30765,-0.114713 -0.53125,-0.09375 z"
           id="path8813"
           inkscape:connector-curvature="0" />
        <path
           style="fill:url(#radialGradient6387);fill-opacity:1;fill-rule:evenodd;stroke:none"
           d="m 125.82057,-26.747219 c -0.48086,0.0491 -1.08714,0.242064 -1.5625,0.8125 -0.0835,0.0943 -0.10886,0.226674 -0.0661,0.345158 0.0428,0.118483 0.1468,0.204164 0.27128,0.223407 0.12449,0.01924 0.24954,-0.03102 0.32608,-0.131065 0.68575,-0.822903 1.6875,-0.53125 1.6875,-0.53125 0.15209,0.06365 0.32796,0.01055 0.41942,-0.126638 0.0914,-0.137184 0.0728,-0.319947 -0.0444,-0.435862 -0.0467,-0.06152 -0.11275,-0.105543 -0.1875,-0.125 0,0 -0.36289,-0.08035 -0.84375,-0.03125 z"
           id="path8815"
           inkscape:connector-curvature="0" />
        <path
           style="fill:url(#radialGradient6389);fill-opacity:1;fill-rule:evenodd;stroke:none"
           d="m 116.33784,-20.970755 c -0.52678,0.05853 -0.85119,0.457141 -1.03125,0.78125 -0.18006,0.324109 -0.25,0.625 -0.25,0.625 l -0.0937,0.40625 0.4375,0 0.0625,0 c 0.10304,0.0015 0.20133,-0.04321 0.2679,-0.121874 0.0666,-0.07867 0.0944,-0.18301 0.0759,-0.284376 0.002,-0.02079 0.002,-0.04171 0,-0.0625 0.0288,-0.08619 0.0253,-0.12677 0.0937,-0.25 0.12678,-0.228203 0.29037,-0.382958 0.5,-0.40625 0.18985,-0.01726 0.32976,-0.185152 0.3125,-0.375 -0.0173,-0.189848 -0.18515,-0.329759 -0.375,-0.3125 l 0,0 z"
           id="path8817"
           inkscape:connector-curvature="0" />
        <path
           style="fill:url(#radialGradient6391);fill-opacity:1;fill-rule:evenodd;stroke:none"
           d="m 134.25917,-23.81929 c -0.10868,0.04101 -0.18936,0.13406 -0.21456,0.247458 -0.0252,0.113399 0.008,0.231859 0.0896,0.315042 0.0882,0.09271 0.22065,0.128822 0.34375,0.09375 0.62172,-0.1727 0.88609,0.04893 1.09375,0.3125 0.15228,0.193284 0.18681,0.300589 0.21875,0.40625 -0.0285,0.100627 -0.01,0.208731 0.0511,0.293825 0.0608,0.08509 0.15693,0.137955 0.26135,0.143675 l 0.0937,0 0.4375,0 -0.0937,-0.40625 c 0,0 -0.0821,-0.46352 -0.40625,-0.875 -0.3242,-0.41148 -0.99264,-0.76767 -1.84375,-0.53125 -0.0104,-4.73e-4 -0.0208,-4.73e-4 -0.0312,0 z"
           id="path8819"
           inkscape:connector-curvature="0" />
        <path
           sodipodi:type="arc"
           style="fill:url(#radialGradient6393);fill-opacity:1;stroke:none;display:inline"
           id="path8872"
           sodipodi:cx="34.366077"
           sodipodi:cy="37.781113"
           sodipodi:rx="2.0455999"
           sodipodi:ry="3.2729597"
           d="m 36.411677,37.781113 c 0,1.807605 -0.915846,3.272959 -2.0456,3.272959 -1.129753,0 -2.0456,-1.465354 -2.0456,-3.272959 0,-1.807606 0.915847,-3.27296 2.0456,-3.27296 1.129754,0 2.0456,1.465354 2.0456,3.27296 z"
           transform="matrix(0.625786,1.310318,-1.800239,0.506728,173.7701,-75.90181)" />
        <path
           style="fill:url(#radialGradient6395);fill-opacity:1;fill-rule:evenodd;stroke:none"
           d="m 130.22864,-14.821825 c -0.61361,-0.06091 -1.52836,-0.04143 -2.73658,0.188722 -2.4536,0.467375 -3.90717,1.665026 -5.32321,2.377901 l 0.52482,1.094589 c 1.58295,-0.7969 2.85345,-1.889083 5.02331,-2.302412 1.10349,-0.210202 1.9038,-0.200155 2.3992,-0.150978 0.49539,0.04918 0.63728,0.113234 0.63728,0.113234 l 0.44985,-1.094589 c 0,0 -0.36107,-0.165555 -0.97467,-0.226467 z"
           id="path3893"
           inkscape:connector-curvature="0" />
      </g>
      <path
         sodipodi:nodetypes="csssssssc"
         id="path3883"
         d="m 527.21952,412.74417 c 6.9091,17.44326 3.61875,48.15814 -6.51626,56.28027 -9.34988,7.49294 -16.95475,11.32783 -26.64756,13.93044 -11.88554,3.1914 -34.16078,0.79956 -37.70218,-16.21001 -6.28507,-30.18765 -10.96585,-38.91918 -9.27985,-55.82436 0.9212,-9.23681 -0.63365,-22.69686 2.83133,-30.29319 6.93058,-15.19387 28.58031,-28.51968 38.62341,-28.51968 10.04309,0 23.16535,5.37751 25.72636,18.03367 3.82256,18.89078 6.51623,23.79186 12.96475,42.60286 z"
         style="fill:url(#radialGradient6399);fill-opacity:1;fill-rule:nonzero;stroke:none"
         inkscape:connector-curvature="0" />
      <path
         style="fill:url(#radialGradient6401);fill-opacity:1;fill-rule:nonzero;stroke:none"
         d="m 529.22923,414.0794 c 6.90909,17.44326 3.61875,48.15815 -6.51626,56.28027 -9.34988,7.49294 -16.95475,11.32783 -26.64756,13.93045 -11.88554,3.19139 -34.16078,0.79955 -37.70218,-16.21002 -6.28507,-30.18764 -10.96585,-38.91918 -9.27985,-55.82435 0.9212,-9.23682 -0.63365,-22.69687 2.83133,-30.29319 6.93058,-15.19388 28.58031,-28.51969 38.6234,-28.51969 10.0431,0 23.16536,5.37752 25.72636,18.03367 3.82256,18.89079 6.51623,23.79186 12.96476,42.60286 z"
         id="path3873"
         sodipodi:nodetypes="csssssssc"
         inkscape:connector-curvature="0" />
      <path
         style="fill:url(#radialGradient6403);fill-opacity:1;fill-rule:evenodd;stroke:none"
         d="m 440.37945,436.42379 c 0,0 -3.95948,3.26359 -7.6027,8.70981 -1.84531,2.75856 -3.35692,6.07423 -4.83163,8.63899 -0.73737,1.28238 -1.46195,2.37095 -2.13159,3.1157 -0.66967,0.74475 -1.22199,1.08896 -1.63423,1.13298 -0.44646,0.0477 -0.77804,-0.082 -1.27897,-0.6373 -0.50093,-0.55531 -1.02675,-1.59534 -1.56317,-2.97408 -1.07286,-2.75748 -2.08526,-6.90863 -3.26846,-12.03794 l -2.27372,0.49568 c 1.18526,5.13836 2.23342,9.36654 3.41056,12.392 0.58859,1.51272 1.173,2.70621 1.98952,3.61138 0.8165,0.90517 1.98592,1.54559 3.1974,1.41623 1.24565,-0.13301 2.26391,-0.95275 3.12634,-1.91191 0.86245,-0.95916 1.64329,-2.12622 2.41581,-3.46976 1.54507,-2.68708 3.05324,-5.94507 4.76059,-8.49737 3.46212,-5.17549 7.10532,-8.21412 7.10532,-8.21412 l -1.42107,-1.77029 z"
         id="path4040"
         inkscape:connector-curvature="0" />
      <path
         style="fill:url(#radialGradient6405);fill-opacity:1;fill-rule:evenodd;stroke:none"
         d="m 465.95867,484.78799 c 0,0 -3.85002,9.90524 -3.12634,23.36776 l 2.27372,-0.14161 c -0.69739,-12.97377 2.98423,-22.37641 2.98423,-22.37641 l -2.13161,-0.84974 z"
         id="path4054"
         inkscape:connector-curvature="0" />
      <path
         sodipodi:type="arc"
         style="fill:#000000;fill-opacity:1;stroke:none"
         id="path4068"
         sodipodi:cx="126.25"
         sodipodi:cy="71.458336"
         sodipodi:rx="1.6666666"
         sodipodi:ry="3.5416667"
         d="m 127.91667,71.458336 c 0,1.956008 -0.7462,3.541667 -1.66667,3.541667 -0.92047,0 -1.66667,-1.585659 -1.66667,-3.541667 0,-1.956009 0.7462,-3.541667 1.66667,-3.541667 0.92047,0 1.66667,1.585658 1.66667,3.541667 z"
         transform="matrix(2.2573175,-0.271591,0.27251896,2.2496305,146.69581,314.37123)" />
      <path
         style="fill:url(#linearGradient6407);fill-opacity:1;fill-rule:nonzero;stroke:#2e3436;stroke-width:1.13491678;stroke-linecap:round;stroke-linejoin:round;stroke-miterlimit:4;stroke-opacity:1;stroke-dasharray:none"
         d="m 511.90206,525.73468 c 0.44173,-4.59188 1.32477,-12.27772 -0.084,-11.65116 -2.23479,0.99399 -8.16486,-2.81419 -11.11218,1.87828 0.52405,5.90522 3.95602,14.95259 0.22516,23.34434 -2.64037,5.93885 2.079,12.15216 7.75836,12.15216 6.44762,-7.9e-4 11.03287,4.57008 16.49447,9.42182 2.69243,2.34517 5.37122,5.17401 6.9572,2.38608 1.58941,-2.79393 2.1373,-0.35291 3.91851,-2.52116 2.50247,-3.04623 4.13861,-1.07984 4.25362,-3.88884 0.10967,-2.67982 3.727,1.22464 4.11164,-3.46571 0.38463,-4.69035 -5.36432,-5.1749 -6.90283,-4.70587 -10.40369,-0.45633 -16.15153,-6.37642 -23.03095,-13.23053 -3.01499,-2.11904 -2.7161,-6.7973 -2.58901,-9.71941 z"
         id="path3616"
         sodipodi:nodetypes="cscsccssssccc"
         inkscape:connector-curvature="0" />
      <path
         style="opacity:0.5;fill:url(#linearGradient6409);fill-opacity:1;fill-rule:nonzero;stroke:none"
         d="m 512.71008,543.45593 c 0,3.96073 -2.54853,7.17523 -5.68868,7.17523 -3.14015,0 -6.04423,-3.39168 -6.04423,-7.3524 0,-3.96073 1.30414,-9.8327 4.44429,-9.8327 3.14015,0 7.28862,6.04915 7.28862,10.00987 z"
         id="path2906"
         sodipodi:nodetypes="csssc"
         inkscape:connector-curvature="0" />
      <path
         sodipodi:nodetypes="ccsccssssccc"
         id="path3516"
         d="m 465.69505,515.30193 c 0.798,-1.94425 9.02909,-1.28371 9.7949,1.0503 0.60412,7.7458 1.34702,16.0231 3.37015,22.24524 2.00923,6.17936 -2.079,12.15216 -7.75836,12.15216 -6.44763,-8e-4 -11.03287,4.57008 -16.49447,9.42182 -2.69243,2.34516 -5.37122,5.174 -6.9572,2.38608 -1.58941,-2.79393 -2.1373,-0.35291 -3.91851,-2.52116 -2.50247,-3.04624 -4.13861,-1.07984 -4.25362,-3.88884 -0.10967,-2.67982 -3.727,1.22464 -4.11165,-3.46571 -0.38462,-4.69035 5.36433,-5.1749 6.90284,-4.70587 10.40369,-0.45633 16.15153,-6.37643 23.03094,-13.23054 5.27482,-6.24969 1.96738,-12.36349 0.39498,-19.44348 z"
         style="fill:url(#linearGradient6411);fill-opacity:1;fill-rule:nonzero;stroke:#2e3436;stroke-width:1.13491678;stroke-linecap:round;stroke-linejoin:round;stroke-miterlimit:4;stroke-opacity:1;stroke-dasharray:none"
         inkscape:connector-curvature="0" />
      <path
         style="fill:url(#radialGradient6413);fill-opacity:1;fill-rule:nonzero;stroke:none"
         d="m 473.03523,515.37318 c 0.69395,5.93087 2.73284,20.70686 2.26494,22.89186 0.81911,7.93853 -8.25836,10.31673 -16.58694,15.0504 -2.32255,1.32005 -4.52225,3.27398 -6.47651,5.27803 -1.42347,1.45973 -2.71674,2.94605 -3.83244,4.23336 1.60336,2.01655 4.12222,-0.53901 6.6532,-2.71363 5.44046,-4.76738 9.99793,-9.25493 16.42061,-9.25415 5.65742,0 9.71638,-5.8263 7.71489,-11.89821 -2.01531,-6.11395 -2.79558,-14.30663 -3.39738,-21.91774 -0.25845,-0.77709 -1.37167,-1.30601 -2.76037,-1.66992 z"
         id="path3534"
         sodipodi:nodetypes="ccssccsscc"
         inkscape:connector-curvature="0" />
      <path
         style="fill:#ffbfbf;fill-opacity:1;fill-rule:evenodd;stroke:none"
         d="m 438.17725,549.36935 -0.71052,0.92055 c 0,0 3.66891,3.03517 5.61321,4.74437 1.75109,1.53936 3.87423,2.35384 5.47111,2.76164 0.79842,0.2039 1.42189,0.34332 1.91843,0.35406 0.24815,0.005 0.48365,0.005 0.71055,-0.0708 0.11337,-0.0378 0.2958,-0.10788 0.4263,-0.35406 0.0653,-0.1231 0.0296,-0.29396 0,-0.42487 -0.0296,-0.13089 -0.0893,-0.22027 -0.14218,-0.28324 l -0.85265,0.70811 c -0.0272,-0.0325 -0.0476,-0.10866 -0.0711,-0.21243 -0.0238,-0.10379 -0.0529,-0.25454 0,-0.35405 0.10545,-0.19907 0.26546,-0.20618 0.2842,-0.21243 0.0375,-0.0126 -0.10174,0.0748 -0.2842,0.0708 -0.36501,-0.008 -0.9763,-0.0971 -1.70529,-0.28325 -1.45796,-0.37232 -3.4035,-1.16887 -4.97373,-2.54921 -1.979,-1.73969 -5.68427,-4.81517 -5.68427,-4.81517 z"
         id="path3553"
         inkscape:connector-curvature="0" />
      <path
         sodipodi:nodetypes="ccssccsscc"
         id="path3559"
         d="m 504.39037,513.60151 c 0.041,6.09363 0.35545,19.9403 -0.13161,25.01786 -0.81911,7.93853 8.25837,10.31673 16.58695,15.0504 2.32255,1.32006 4.52224,3.27399 6.4765,5.27804 1.42348,1.45972 2.71675,2.94604 3.83245,4.23335 -1.60336,2.01655 -4.12222,-0.53901 -6.6532,-2.71363 -5.44046,-4.76738 -9.99794,-9.25493 -16.42061,-9.25415 -5.65743,0 -10.44244,-6.11393 -7.71489,-11.89821 4.95578,-10.50961 0.0537,-18.78252 0.34006,-23.35337 0.25846,-0.77709 2.29573,-1.99638 3.68443,-2.36029 z"
         style="fill:url(#radialGradient6415);fill-opacity:1;fill-rule:nonzero;stroke:none"
         inkscape:connector-curvature="0" />
      <path
         id="path3563"
         d="m 541.88084,549.36935 0.71053,0.92055 c 0,0 -3.66892,3.03517 -5.61322,4.74437 -1.75109,1.53936 -3.87422,2.35384 -5.47111,2.76164 -0.79842,0.2039 -1.42189,0.34332 -1.91843,0.35406 -0.24815,0.005 -0.48364,0.005 -0.71055,-0.0708 -0.11337,-0.0378 -0.2958,-0.10788 -0.42629,-0.35406 -0.0653,-0.1231 -0.0296,-0.29396 0,-0.42487 0.0293,-0.13089 0.0893,-0.22027 0.14217,-0.28324 l 0.85265,0.70811 c 0.0272,-0.0325 0.0476,-0.10866 0.0711,-0.21243 0.0238,-0.10379 0.0528,-0.25454 0,-0.35405 -0.10544,-0.19907 -0.26546,-0.20618 -0.2842,-0.21243 -0.0375,-0.0126 0.10175,0.0748 0.2842,0.0708 0.36501,-0.008 0.9763,-0.0971 1.70529,-0.28325 1.45796,-0.37232 3.40351,-1.16887 4.97373,-2.54921 1.979,-1.73969 5.68428,-4.81517 5.68428,-4.81517 z"
         style="opacity:0.5;fill:#ffbfbf;fill-opacity:1;fill-rule:evenodd;stroke:none"
         inkscape:connector-curvature="0" />
      <path
         id="path5952"
         d="m 531.34401,443.53785 c -7.33193,1.1069 -12.28264,4.27775 -14.70805,9.20549 -1.1301,2.4599 0.37175,3.9982 1.77636,6.01897 0.66239,0.90456 -2.79272,4.17408 0.56842,6.93952 2.8354,2.33291 -0.18843,3.69451 2.48685,5.02761 2.67533,1.33309 -0.29495,4.07691 4.16387,4.52128 4.45879,0.44437 15.9566,-3.1297 17.29426,-5.79589 1.33764,-2.66619 2.23976,1.77746 6.2527,0 4.01297,-1.77746 4.38905,-7.16942 3.35398,-11.61307 -1.00828,-4.32855 -1.91616,-7.58661 -4.70399,-9.77198 -2.70862,-2.12328 -6.64236,-2.17543 -8.97615,0.26006 -2.32979,0.52197 -4.57364,-0.43678 -6.30034,-1.25142 0.36599,-2.0059 -0.34459,-1.98083 -0.71052,-3.25732 -0.0457,-0.15956 -0.22041,-0.27577 -0.49739,-0.28325 z"
         style="fill:#ffffff;fill-opacity:1;fill-rule:evenodd;stroke:#000000;stroke-width:1.13491678;stroke-linecap:butt;stroke-linejoin:miter;stroke-miterlimit:4;stroke-opacity:1;stroke-dasharray:none;display:inline"
         sodipodi:nodetypes="cccsssssszccsc"
         inkscape:connector-curvature="0" />
      <path
         id="path5954"
         d="m 524.85814,450.87365 c 0,0 -2.40976,0.39846 -5.54215,1.13298 l 0.2842,1.06217 c 1.35003,-0.31656 2.47039,-0.53513 3.41059,-0.70811 l -3.41059,3.39895 0.78161,0.84974 4.40531,-4.39031 -0.14218,-0.14163 c 0.0838,-0.0126 0.42632,-0.0708 0.42632,-0.0708 l -0.21326,-1.13298 z"
         style="fill:url(#linearGradient6417);fill-opacity:1;fill-rule:evenodd;stroke:none;display:inline"
         inkscape:connector-curvature="0" />
      <path
         style="fill:url(#linearGradient6419);fill-opacity:1;fill-rule:evenodd;stroke:none;display:inline"
         d="m 523.28145,475.23171 c -2.51664,0.55783 -1.02551,-3.60162 -0.81465,-4.23202 0.51755,-1.54733 10.99773,-10.83133 9.57449,-14.18389 -1.42324,-3.35256 1.29385,-2.70784 2.71711,-3.99728 1.42324,-1.28945 2.71709,-2.321 4.01093,-2.19206 1.29385,0.12895 4.78724,4.77095 5.1754,6.70512 0.38816,1.93416 2.07017,8.51034 -1.16446,11.47606 -5.49546,5.10199 -12.92887,5.14595 -19.49882,6.42407 z"
         id="path5956"
         sodipodi:nodetypes="cssssscc"
         inkscape:connector-curvature="0" />
      <path
         style="fill:url(#linearGradient6421);fill-opacity:1;fill-rule:evenodd;stroke:none"
         d="m 521.91405,451.48041 c 0.7319,-1.6412 2.65319,-3.37357 4.39148,-3.6471 1.7383,-0.27353 5.21487,-2.64415 5.76381,-2.27944 0.54894,0.36471 -0.45745,1.73237 0.27446,2.00591 0.73193,0.27353 1.28084,1.91472 0.8234,2.18826 -0.45743,0.27353 -7.77656,1.73237 -8.87442,1.73237 -1.09788,0 -2.5617,0.18236 -2.37873,0 z"
         id="path5980"
         inkscape:connector-curvature="0" />
      <path
         style="fill:none;stroke:url(#linearGradient6423);stroke-width:1.14399612;stroke-linecap:butt;stroke-linejoin:miter;stroke-miterlimit:4;stroke-opacity:1;stroke-dasharray:none"
         d="m 532.13157,447.3821 c 1.77128,0.45483 0.0264,2.27499 -0.4401,2.72981 -0.46612,0.45483 -4.68725,1.09074 -6.55172,1.27267 -1.86449,0.18193 -0.7458,-1.45545 0.0933,-2.00124 0.83904,-0.54579 7.08508,-1.81931 6.89861,-2.00124 z"
         id="path5962"
         sodipodi:nodetypes="csssc"
         inkscape:connector-curvature="0" />
    </g>
  </g>
</svg>
