<?xml version="1.0" standalone="no"?>
<!DOCTYPE svg PUBLIC "-//W3C//DTD SVG 20010904//EN" "http://www.w3.org/TR/2001/REC-SVG-20010904/DTD/svg10.dtd">
<!-- Created using Karbon, part of Calligra: http://www.calligra.org/karbon -->
<svg xmlns="http://www.w3.org/2000/svg" xmlns:xlink="http://www.w3.org/1999/xlink" width="70.8663pt" height="28.3465pt">
<defs>
  <linearGradient id="gradient0" gradientTransform="translate(-109.438, -22.625)" gradientUnits="objectBoundingBox" x1="2.21678264000" y1="1.34366245000" x2="2.70058140000" y2="1.53133903000" spreadMethod="pad">
   <stop stop-color="#ffffff" offset="0.00000000000" stop-opacity="1.00000000000"/>
   <stop stop-color="#ababab" offset="1.00000000000" stop-opacity="1.00000000000"/>
  </linearGradient>
  <radialGradient id="gradient1" gradientTransform="matrix(0.452092 0.00439506 -0.00299659 0.308244 -23.7261 -0.201652)" gradientUnits="objectBoundingBox" cx="2.36395194000" cy="1.37522972000" fx="2.36395194000" fy="1.37522972000" r="0.47703913000" spreadMethod="pad">
   <stop stop-color="#babdb6" offset="0.00000000000" stop-opacity="1.00000000000"/>
   <stop stop-color="#d3d7cf" offset="1.00000000000" stop-opacity="0.00000000000"/>
  </radialGradient>
  <radialGradient id="gradient2" gradientTransform="matrix(0.684341 0.289429 -0.120074 0.283911 -55.6063 -42.928)" gradientUnits="objectBoundingBox" cx="2.72112357000" cy="1.43395145000" fx="2.72112357000" fy="1.43395145000" r="0.47703913000" spreadMethod="pad">
   <stop stop-color="#babdb6" offset="0.00000000000" stop-opacity="1.00000000000"/>
   <stop stop-color="#d3d7cf" offset="1.00000000000" stop-opacity="0.00000000000"/>
  </radialGradient>
  <linearGradient id="gradient3" gradientTransform="translate(-128.569, -29.1375)" gradientUnits="objectBoundingBox" x1="5.28915647000" y1="6.17206327000" x2="6.04768442000" y2="6.17206327000" spreadMethod="pad">
   <stop stop-color="#00b8ff" offset="0.00000000000" stop-opacity="1.00000000000"/>
   <stop stop-color="#00114f" offset="1.00000000000" stop-opacity="1.00000000000"/>
  </linearGradient>
  <radialGradient id="gradient4" gradientTransform="matrix(1.37599 1.31255 -0.465403 0.487899 -192.316 -222.015)" gradientUnits="objectBoundingBox" cx="6.36523973000" cy="2.20017768000" fx="6.36523973000" fy="2.20017768000" r="0.41456382000" spreadMethod="pad">
   <stop stop-color="#000000" offset="0.00000000000" stop-opacity="1.00000000000"/>
   <stop stop-color="#000000" offset="1.00000000000" stop-opacity="0.00000000000"/>
  </radialGradient>
  <linearGradient id="gradient5" gradientTransform="translate(-147.086, -17.3768)" gradientUnits="objectBoundingBox" x1="5.73752084000" y1="1.24084460000" x2="5.76862587000" y2="1.85520451000" spreadMethod="pad">
   <stop stop-color="#00b8ff" offset="0.00000000000" stop-opacity="1.00000000000"/>
   <stop stop-color="#00114f" offset="1.00000000000" stop-opacity="1.00000000000"/>
  </linearGradient>
  <radialGradient id="gradient6" gradientTransform="matrix(1.03564 -0.205207 0.089955 0.453985 -155.656 30.3245)" gradientUnits="objectBoundingBox" cx="5.75654912000" cy="1.37681392000" fx="5.75654912000" fy="1.37681392000" r="0.37957224000" spreadMethod="pad">
   <stop stop-color="#000000" offset="0.00000000000" stop-opacity="1.00000000000"/>
   <stop stop-color="#000000" offset="1.00000000000" stop-opacity="0.00000000000"/>
  </radialGradient>
  <linearGradient id="gradient7" gradientTransform="translate(-154.836, -29.567)" gradientUnits="objectBoundingBox" x1="33.59008061000" y1="3.18332013000" x2="34.80772332000" y2="3.18332013000" spreadMethod="pad">
   <stop stop-color="#00b8ff" offset="0.00000000000" stop-opacity="1.00000000000"/>
   <stop stop-color="#00114f" offset="1.00000000000" stop-opacity="1.00000000000"/>
  </linearGradient>
  <linearGradient id="gradient8" gradientTransform="translate(-147.421, -29.91)" gradientUnits="objectBoundingBox" x1="13.14581833000" y1="3.32348780000" x2="14.05890930000" y2="2.96925085000" spreadMethod="pad">
   <stop stop-color="#00b8ff" offset="0.00000000000" stop-opacity="1.00000000000"/>
   <stop stop-color="#00114f" offset="1.00000000000" stop-opacity="1.00000000000"/>
  </linearGradient>
  <linearGradient id="gradient9" gradientTransform="translate(-109.438, -38.7537)" gradientUnits="objectBoundingBox" x1="2.24193581000" y1="7.67154610000" x2="2.69670543000" y2="7.18198741000" spreadMethod="pad">
   <stop stop-color="#00b8ff" offset="0.00000000000" stop-opacity="1.00000000000"/>
   <stop stop-color="#00114f" offset="1.00000000000" stop-opacity="1.00000000000"/>
  </linearGradient>
 </defs>
<g id="layer0">
  <g id="hat4" transform="translate(19.8943, 31.2349)" fill="none">
   <path id="path3902" transform="translate(-17.2416, -24.4717)" fill="url(#gradient0)" stroke="#000000" stroke-width="0.50000000000" stroke-linecap="round" stroke-linejoin="round" d="M41.8013 2.3113e-13C32.7186 2.3113e-13 25.3562 5.43656 25.3562 12.1315C25.3562 12.2667 25.3907 12.3989 25.3967 12.5332C10.4121 14.6083 0 19.1531 0 21.8125C0 25.3425 18.7262 28.1996 41.8013 28.1996C64.8765 28.1996 83.6026 25.3425 83.6026 21.8125C83.6026 19.1965 73.0903 14.7727 58.2464 12.6537C58.2565 12.4803 58.2869 12.3066 58.2869 12.1315C58.2869 5.43656 50.884 -1.28545e-06 41.8013 2.3113e-13Z"/>
   <path id="path3925" transform="translate(-17.2416, -24.4717)" fill="url(#gradient1)" d="M41.8013 2.3113e-13C32.7186 2.3113e-13 25.3562 5.43656 25.3562 12.1315C25.3562 12.2667 25.3907 12.3989 25.3967 12.5332C10.4121 14.6083 0 19.1531 0 21.8125C0 25.3425 18.7262 28.1996 41.8013 28.1996C64.8765 28.1996 83.6026 25.3425 83.6026 21.8125C83.6026 19.1965 73.0903 14.7727 58.2464 12.6537C58.2565 12.4803 58.2869 12.3066 58.2869 12.1315C58.2869 5.43656 50.884 -1.28545e-06 41.8013 2.3113e-13Z"/>
   <path id="path3935" transform="translate(-17.2416, -24.4717)" fill="url(#gradient2)" d="M41.8013 2.3113e-13C32.7186 2.3113e-13 25.3562 5.43656 25.3562 12.1315C25.3562 12.2667 25.3907 12.3989 25.3967 12.5332C10.4121 14.6083 0 19.1531 0 21.8125C0 25.3425 18.7262 28.1996 41.8013 28.1996C64.8765 28.1996 83.6026 25.3425 83.6026 21.8125C83.6026 19.1965 73.0903 14.7727 58.2464 12.6537C58.2565 12.4803 58.2869 12.3066 58.2869 12.1315C58.2869 5.43656 50.884 -1.28545e-06 41.8013 2.3113e-13Z"/>
   <path id="path3949" transform="translate(7.74757, -15.8855)" fill="url(#gradient3)" d="M1.01522 0.232369C-0.182147 0.641457 0.0115788 3.42426 0.0115788 3.91061C0.0115788 5.61017 7.41593 6.95833 17.5358 6.95833C27.6556 6.95833 35.8621 5.61017 35.8621 3.91061C35.8621 3.42426 35.4829 0.409088 34.2856 0C31.2946 1.01856 24.7514 2.62265 17.5358 2.62265C10.3202 2.62265 4.00614 1.25093 1.01522 0.232369Z"/>
   <path id="path4079" transform="translate(33.6375, -21.0867)" fill="url(#gradient4)" fill-rule="evenodd" d="M0 0C1.01215 2.18679 3.7112 4.81095 4.04859 6.45105C4.38598 8.09113 6.07289 9.40321 5.39812 11.4807C4.72336 13.5581 3.14891 16.1822 2.02429 17.4944C0.899685 18.8064 2.24921 18.1504 3.48628 16.401C4.72336 14.6515 5.28566 17.2756 4.83581 18.2597C4.38598 19.2438 5.28566 18.369 6.07289 15.9636C6.86013 13.5581 6.41028 13.1208 7.30996 12.6834C8.20966 12.2461 10.4589 12.4647 9.55917 14.4328C8.65949 16.401 8.20966 20.0091 8.65949 19.1345C9.10934 18.2597 11.8084 15.7449 11.3586 16.5103C10.9087 17.2756 10.6838 19.7905 11.471 19.5717C12.2582 19.3531 13.4953 19.1345 13.6078 19.6812C13.7202 20.2279 16.9816 22.0866 19.0058 21.4306C21.0302 20.7746 24.179 18.5878 26.5407 19.1345C28.9024 19.6812 34.1881 17.713 32.6137 16.8384C31.0392 15.9636 28.1152 12.2461 28.1152 12.2461L7.75981 7.98179Z"/>
   <path id="path3970" transform="translate(31.9357, -31.391)" fill="url(#gradient5)" fill-rule="evenodd" d="M7.59966 17.1007C3.36461 13.527 -0.31319 7.71946 0.0211532 6.1559C0.355496 4.59234 0.912739 1.68859 7.04241 2.58205C13.1721 3.4755 14.0637 1.24185 16.404 0.348392C18.7446 -0.54507 20.6392 0.348392 22.5338 2.24699C24.4283 4.1456 21.5307 10.9582 19.7475 12.9685C17.9644 14.9788 17.0728 15.5372 15.9583 16.0957C14.8438 16.6541 19.8589 15.0905 25.2086 16.5423C30.5581 17.9943 31.8954 19.1111 33.7902 19.8928C35.6848 20.6747 36.5763 24.9186 33.6786 26.0355C30.7809 27.1523 21.8651 27.2639 19.8589 29.1625C17.8529 31.0611 15.0667 31.5078 13.5064 27.1523C11.9462 22.7966 15.4011 35.0817 18.856 27.3756C22.3109 19.6695 18.7446 19.7812 16.9613 20.0045C15.1782 20.228 12.0576 21.0097 8.93704 20.1163C5.81648 19.2228 7.82256 17.4359 7.59966 17.1007Z"/>
   <path id="path3972" transform="translate(31.9852, -28.5138)" fill="#003f60" fill-rule="evenodd" d="M1.28085 0.630997C2.75944 -0.869487 6.30994 0.479439 7.16826 2.85394C9.102 8.20364 5.58756 7.54401 7.38631 14.0798C8.77547 19.1273 16.0787 15.373 18.7249 16.9696C21.4264 18.5994 19.435 22.0604 18.7249 24.9722C18.0754 27.6363 14.8 27.6397 13.7098 25.6391C12.6195 23.6384 11.5838 18.3033 8.74911 17.303C5.91445 16.3028 6.49473 15.6119 6.40505 14.4688C6.32162 13.4051 0.2693 6.78884 0.0815742 4.63229C-0.0453178 3.17456 -0.225239 2.15939 1.28085 0.630997Z"/>
   <path id="path4006" transform="translate(31.9357, -31.391)" fill="url(#gradient6)" fill-rule="evenodd" d="M7.59966 17.1007C3.36461 13.527 -0.31319 7.71946 0.0211532 6.1559C0.355496 4.59234 0.912739 1.68859 7.04241 2.58205C13.1721 3.4755 14.0637 1.24185 16.404 0.348392C18.7446 -0.54507 20.6392 0.348392 22.5338 2.24699C24.4283 4.1456 21.5307 10.9582 19.7475 12.9685C17.9644 14.9788 17.0728 15.5372 15.9583 16.0957C14.8438 16.6541 19.8589 15.0905 25.2086 16.5423C30.5581 17.9943 31.8954 19.1111 33.7902 19.8928C35.6848 20.6747 36.5763 24.9186 33.6786 26.0355C30.7809 27.1523 21.8651 27.2639 19.8589 29.1625C17.8529 31.0611 15.0667 31.5078 13.5064 27.1523C11.9462 22.7966 15.4011 35.0817 18.856 27.3756C22.3109 19.6695 17.6301 19.5579 15.8469 19.7812C14.0637 20.0045 12.2248 20.4513 9.10422 19.5579C5.98365 18.6643 7.82256 17.4359 7.59966 17.1007Z"/>
   <path id="path4056" transform="translate(41.722, -14.9235)" fill="url(#gradient7)" fill-rule="evenodd" d="M5.33751 0C2.24881 1.10762 -0.531032 5.98112 0.0867168 11.0761C0.704452 16.1712 -0.736948 14.399 1.21924 9.08245C3.17542 3.76588 1.63106 10.5223 2.66064 13.5129C3.69021 16.5035 1.83698 9.41474 3.89612 5.31655C5.95525 1.21838 5.54342 0.110763 5.33751 0Z"/>
   <path id="path4012" transform="translate(33.6053, -14.9801)" fill="url(#gradient8)" fill-rule="evenodd" d="M14.5017 0C4.59554 0 1.47901 4.92637 0.365968 8.35342C-0.747078 11.7805 1.03379 13.0656 1.03379 13.0656C1.03379 13.0656 0.143357 10.9237 2.25815 7.92504C4.37293 4.92637 1.92422 10.174 3.8164 12.5301C5.70859 14.8862 3.8164 11.5663 5.37467 6.4257C6.93295 1.28514 14.613 0.21419 14.5017 0Z"/>
   <path id="path4133" transform="translate(-17.2416, -3.20741)" fill="url(#gradient9)" d="M1.03396 0.148638C0.797128 0.460078 0 0.754803 0 1.02935C0 4.39433 18.7262 7.11778 41.8013 7.11778C64.8765 7.11778 83.6026 4.39433 83.6026 1.02935C83.6026 0.753179 83.1326 0.313123 82.8831 0C80.0887 2.27266 62.9337 4.16929 41.8013 4.16929C20.669 4.16929 3.82832 2.4213 1.03396 0.148638Z"/>
  </g>
 </g>
</svg>
