<?xml version="1.0" standalone="no"?>
<!DOCTYPE svg PUBLIC "-//W3C//DTD SVG 20010904//EN" "http://www.w3.org/TR/2001/REC-SVG-20010904/DTD/svg10.dtd">
<!-- Created using Karbon, part of Calligra: http://www.calligra.org/karbon -->
<svg xmlns="http://www.w3.org/2000/svg" xmlns:xlink="http://www.w3.org/1999/xlink" width="70.8663pt" height="28.3465pt">
<defs>
  <radialGradient id="gradient0" gradientTransform="matrix(0.415167 0.090998 -0.0419873 0.191562 -22.6059 -5.24195)" gradientUnits="objectBoundingBox" cx="1.62114319000" cy="0.46626507000" fx="1.62114319000" fy="0.46626507000" r="0.47263553000" spreadMethod="pad">
   <stop stop-color="#000000" offset="0.00000000000" stop-opacity="1.00000000000"/>
   <stop stop-color="#000000" offset="1.00000000000" stop-opacity="0.00000000000"/>
  </radialGradient>
  <radialGradient id="gradient1" gradientTransform="matrix(2 -1.68503 0.471634 0.559793 -269.609 191.806)" gradientUnits="objectBoundingBox" cx="17.87988410000" cy="6.33251645000" fx="17.87988410000" fy="6.33251645000" r="0.37039456000" spreadMethod="pad">
   <stop stop-color="#000000" offset="0.00000000000" stop-opacity="1.00000000000"/>
   <stop stop-color="#000000" offset="1.00000000000" stop-opacity="0.00000000000"/>
  </radialGradient>
  <radialGradient id="gradient2" gradientTransform="matrix(0.927333 -1.37181 0.606428 0.409942 -141.107 160.215)" gradientUnits="objectBoundingBox" cx="22.73671157000" cy="5.36718735000" fx="22.73671157000" fy="5.36718735000" r="0.37656328000" spreadMethod="pad">
   <stop stop-color="#000000" offset="0.00000000000" stop-opacity="1.00000000000"/>
   <stop stop-color="#000000" offset="1.00000000000" stop-opacity="0.00000000000"/>
  </radialGradient>
  <radialGradient id="gradient3" gradientTransform="matrix(0.252199 -0.203023 0.20611 0.256033 4.88544 50.857)" gradientUnits="objectBoundingBox" cx="2.55577579000" cy="0.64578701000" fx="2.55577579000" fy="0.64578701000" r="0.47263553000" spreadMethod="pad">
   <stop stop-color="#000000" offset="0.00000000000" stop-opacity="1.00000000000"/>
   <stop stop-color="#000000" offset="1.00000000000" stop-opacity="0.00000000000"/>
  </radialGradient>
  <radialGradient id="gradient4" gradientTransform="matrix(1 0 0 0.969697 -174.625 -39.3334)" gradientUnits="objectBoundingBox" cx="42.64618909000" cy="10.52909650000" fx="42.64618909000" fy="10.52909650000" r="0.35895020000" spreadMethod="pad">
   <stop stop-color="#ffffff" offset="0.00000000000" stop-opacity="1.00000000000"/>
   <stop stop-color="#ffffff" offset="1.00000000000" stop-opacity="0.00000000000"/>
  </radialGradient>
  <radialGradient id="gradient5" gradientTransform="matrix(1 0 0 0.969697 -174.625 -39.3334)" gradientUnits="objectBoundingBox" cx="42.64618909000" cy="10.52909650000" fx="42.64618909000" fy="10.52909650000" r="0.35895020000" spreadMethod="pad">
   <stop stop-color="#ffffff" offset="0.00000000000" stop-opacity="1.00000000000"/>
   <stop stop-color="#ffffff" offset="1.00000000000" stop-opacity="0.00000000000"/>
  </radialGradient>
  <radialGradient id="gradient6" gradientTransform="matrix(1 0 0 0.969697 -174.625 -39.3334)" gradientUnits="objectBoundingBox" cx="42.64618909000" cy="10.52909650000" fx="42.64618909000" fy="10.52909650000" r="0.35895020000" spreadMethod="pad">
   <stop stop-color="#ffffff" offset="0.00000000000" stop-opacity="1.00000000000"/>
   <stop stop-color="#ffffff" offset="1.00000000000" stop-opacity="0.00000000000"/>
  </radialGradient>
  <radialGradient id="gradient7" gradientTransform="matrix(1 0 0 0.969697 -174.625 -39.3334)" gradientUnits="objectBoundingBox" cx="42.64618909000" cy="10.52909650000" fx="42.64618909000" fy="10.52909650000" r="0.35895020000" spreadMethod="pad">
   <stop stop-color="#ffffff" offset="0.00000000000" stop-opacity="1.00000000000"/>
   <stop stop-color="#ffffff" offset="1.00000000000" stop-opacity="0.00000000000"/>
  </radialGradient>
  <radialGradient id="gradient8" gradientTransform="matrix(1 0 0 0.969697 -174.625 -39.3334)" gradientUnits="objectBoundingBox" cx="42.64618909000" cy="10.52909650000" fx="42.64618909000" fy="10.52909650000" r="0.35895020000" spreadMethod="pad">
   <stop stop-color="#ffffff" offset="0.00000000000" stop-opacity="1.00000000000"/>
   <stop stop-color="#ffffff" offset="1.00000000000" stop-opacity="0.00000000000"/>
  </radialGradient>
  <radialGradient id="gradient9" gradientTransform="matrix(1 0 0 0.969697 -174.625 -39.3334)" gradientUnits="objectBoundingBox" cx="42.64618909000" cy="10.52909650000" fx="42.64618909000" fy="10.52909650000" r="0.35895020000" spreadMethod="pad">
   <stop stop-color="#ffffff" offset="0.00000000000" stop-opacity="1.00000000000"/>
   <stop stop-color="#ffffff" offset="1.00000000000" stop-opacity="0.00000000000"/>
  </radialGradient>
  <radialGradient id="gradient10" gradientTransform="matrix(1 0 0 0.969697 -174.625 -39.3334)" gradientUnits="objectBoundingBox" cx="42.64618909000" cy="10.52909650000" fx="42.64618909000" fy="10.52909650000" r="0.35895020000" spreadMethod="pad">
   <stop stop-color="#ffffff" offset="0.00000000000" stop-opacity="1.00000000000"/>
   <stop stop-color="#ffffff" offset="1.00000000000" stop-opacity="0.00000000000"/>
  </radialGradient>
  <radialGradient id="gradient11" gradientTransform="matrix(1 0 0 0.969697 -174.625 -39.3334)" gradientUnits="objectBoundingBox" cx="42.64618909000" cy="10.52909650000" fx="42.64618909000" fy="10.52909650000" r="0.35895020000" spreadMethod="pad">
   <stop stop-color="#ffffff" offset="0.00000000000" stop-opacity="1.00000000000"/>
   <stop stop-color="#ffffff" offset="1.00000000000" stop-opacity="0.00000000000"/>
  </radialGradient>
  <radialGradient id="gradient12" gradientTransform="matrix(1 0 0 0.969697 -174.625 -39.3334)" gradientUnits="objectBoundingBox" cx="42.64618909000" cy="10.52909650000" fx="42.64618909000" fy="10.52909650000" r="0.35895020000" spreadMethod="pad">
   <stop stop-color="#ffffff" offset="0.00000000000" stop-opacity="1.00000000000"/>
   <stop stop-color="#ffffff" offset="1.00000000000" stop-opacity="0.00000000000"/>
  </radialGradient>
  <radialGradient id="gradient13" gradientTransform="matrix(1 0 0 0.969697 -174.625 -39.3334)" gradientUnits="objectBoundingBox" cx="42.64618909000" cy="10.52909650000" fx="42.64618909000" fy="10.52909650000" r="0.35895020000" spreadMethod="pad">
   <stop stop-color="#ffffff" offset="0.00000000000" stop-opacity="1.00000000000"/>
   <stop stop-color="#ffffff" offset="1.00000000000" stop-opacity="0.00000000000"/>
  </radialGradient>
 </defs>
<g id="layer0">
  <g id="hat5" transform="translate(8.41278, 48.9386)" fill="none">
   <path id="path3031" transform="translate(-6.86129, -48.4733)" fill="#bd0000" fill-rule="evenodd" stroke="#000000" stroke-width="0.50000000000" stroke-linecap="butt" stroke-linejoin="miter" stroke-miterlimit="2.00000000000" d="M58.9982 24.9537C59.5593 17.383 61.0554 11.0075 70.0326 12.8006C79.0096 14.5936 82.376 27.1454 82.937 22.7622C83.4981 18.3791 77.7744 9.98401 70.0326 3.03817C61.709 -4.42961 47.1529 3.43873 42.9143 9.81207C39.5368 14.8909 30.3838 12.4021 25.1472 7.81975C21.3871 4.52934 6.25797 1.4443 2.14348 14.9921C-1.97102 28.5399 0.647301 30.5323 3.26561 28.1414C5.88392 25.7507 5.88392 14.5936 15.422 22.9614C24.9602 31.3293 22.7159 25.9499 24.5861 24.7545C26.4564 23.5592 22.5289 28.5399 24.9602 28.9384C27.3915 29.3369 26.2694 31.3293 28.1395 30.1338C30.0097 28.9384 34.4984 25.3522 43.1013 24.356C51.7044 23.3599 59.1852 25.5514 58.9982 24.9537Z"/>
   <path id="path3659" transform="translate(19.63, -28.4532)" fill="#ec7700" fill-rule="evenodd" d="M19.1526 0.0113233C17.6919 0.0393806 16.2535 0.149939 14.8628 0.335061C8.44262 1.1897 4.33399 3.12601 0 8.8609C0.93679 9.53219 0.605575 10.5459 2.06043 9.61629C3.91467 8.43151 7.98846 4.88425 16.5179 3.89692C25.0474 2.90961 32.1067 5.06485 31.9212 4.47246C31.9697 3.81823 32.0232 3.19764 32.09 2.566C28.1916 0.31845 23.7783 -0.0775252 19.1526 0.0113233Z"/>
   <path id="path3610" transform="translate(-6.86129, -48.4733)" fill="url(#gradient0)" fill-rule="evenodd" d="M58.9982 24.9537C59.5593 17.383 61.0554 11.0075 70.0326 12.8006C79.0096 14.5936 82.376 27.1454 82.937 22.7622C83.4981 18.3791 77.7744 9.98401 70.0326 3.03817C61.709 -4.42961 47.1529 3.43873 42.9143 9.81207C39.5368 14.8909 30.3838 12.4021 25.1472 7.81975C21.3871 4.52934 6.25797 1.4443 2.14348 14.9921C-1.97102 28.5399 0.647301 30.5323 3.26561 28.1414C5.88392 25.7507 5.88392 14.5936 15.422 22.9614C24.9602 31.3293 22.7159 25.9499 24.5861 24.7545C26.4564 23.5592 22.5289 28.5399 24.9602 28.9384C27.3915 29.3369 26.2694 31.3293 28.1395 30.1338C30.0097 28.9384 34.4984 25.3522 43.1013 24.356C51.7044 23.3599 59.1852 25.5514 58.9982 24.9537Z"/>
   <path id="path3632" transform="translate(18.8944, -25.3408)" fill="url(#gradient1)" fill-rule="evenodd" d="M0 6.08231C1.57582 0.819229 8.22932 -0.597756 7.00368 0.21195C5.77803 1.02166 1.57582 7.4993 1.57582 7.4993Z"/>
   <path id="path3642" transform="translate(15.2371, -29.3941)" fill="url(#gradient2)" fill-rule="evenodd" d="M0 7.79812C0.458187 2.33995 7.6964 -0.89871 6.50291 0.220251C5.30943 1.3392 2.16109 8.69959 2.16109 8.69959Z"/>
   <path id="path3648" transform="translate(-6.86129, -48.4733)" fill="url(#gradient3)" fill-rule="evenodd" d="M58.9982 24.9537C59.5593 17.383 61.0554 11.0075 70.0326 12.8006C79.0096 14.5936 82.376 27.1454 82.937 22.7622C83.4981 18.3791 77.7744 9.98401 70.0326 3.03817C61.709 -4.42961 47.1529 3.43873 42.9143 9.81207C39.5368 14.8909 30.3838 12.4021 25.1472 7.81975C21.3871 4.52934 6.25797 1.4443 2.14348 14.9921C-1.97102 28.5399 0.647301 30.5323 3.26561 28.1414C5.88392 25.7507 5.88392 14.5936 15.422 22.9614C24.9602 31.3293 22.7159 25.9499 24.5861 24.7545C26.4564 23.5592 22.5289 28.5399 24.9602 28.9384C27.3915 29.3369 26.2694 31.3293 28.1395 30.1338C30.0097 28.9384 34.4984 25.3522 43.1013 24.356C51.7044 23.3599 59.1852 25.5514 58.9982 24.9537Z"/>
   <g id="g3711" transform="translate(37.2113, 11.0187)" fill="none">
    <path id="path3681" transform="translate(36.7689, -35.3549)" fill="#432200" stroke="#000000" stroke-width="0.50000000000" stroke-linecap="round" stroke-linejoin="round" d="M4.93709 2.62274C4.93709 4.07124 3.83188 5.24549 2.46854 5.24549C1.10521 5.24549 0 4.07124 0 2.62274C0 1.17424 1.10521 0 2.46854 0C3.83188 0 4.93709 1.17424 4.93709 2.62274Z"/>
    <path id="path3664" transform="translate(36.7569, -35.3628)" fill="#ec7700" d="M2.47796 1.04725e-12C1.11273 1.04725e-12 1.20143e-05 1.14641 0 2.55296C0 3.63865 0.685394 4.58439 1.61443 4.9512L1.65197 4.71911C1.77958 4.7379 1.90915 4.72247 2.02742 4.71911C1.68798 4.42362 1.35273 4.03984 1.20143 3.48131L1.80215 3.28791C1.93674 3.78479 2.21731 4.14128 2.5155 4.37098C2.62485 4.4552 2.7473 4.47791 2.8534 4.52571C3.0402 4.43157 3.22257 4.31138 3.37903 4.17757C3.82605 3.7953 4.12981 3.26889 4.20502 3.05582C4.30507 2.77233 4.37059 2.61129 4.39274 2.51428C4.41489 2.41727 4.39274 2.43692 4.39274 2.43692L4.95591 2.43692C4.89486 1.08616 3.80404 -1.2378e-06 2.47796 1.04725e-12ZM4.95591 2.66901C4.9257 2.8008 4.86849 3.00371 4.76819 3.28791C4.63729 3.65877 4.33045 4.1813 3.79202 4.64175C3.73248 4.69267 3.66933 4.74834 3.6043 4.79647L3.6043 4.83516C4.37568 4.43148 4.91338 3.61011 4.95591 2.66901Z"/>
    <path id="path3701" transform="translate(36.7569, -35.3628)" fill="url(#gradient4)" d="M2.47796 1.04725e-12C1.11273 1.04725e-12 1.20143e-05 1.14641 0 2.55296C0 3.63865 0.685394 4.58439 1.61443 4.9512L1.65197 4.71911C1.77958 4.7379 1.90915 4.72247 2.02742 4.71911C1.68798 4.42362 1.35273 4.03984 1.20143 3.48131L1.80215 3.28791C1.93674 3.78479 2.21731 4.14128 2.5155 4.37098C2.62485 4.4552 2.7473 4.47791 2.8534 4.52571C3.0402 4.43157 3.22257 4.31138 3.37903 4.17757C3.82605 3.7953 4.12981 3.26889 4.20502 3.05582C4.30507 2.77233 4.37059 2.61129 4.39274 2.51428C4.41489 2.41727 4.39274 2.43692 4.39274 2.43692L4.95591 2.43692C4.89486 1.08616 3.80404 -1.2378e-06 2.47796 1.04725e-12ZM4.95591 2.66901C4.9257 2.8008 4.86849 3.00371 4.76819 3.28791C4.63729 3.65877 4.33045 4.1813 3.79202 4.64175C3.73248 4.69267 3.66933 4.74834 3.6043 4.79647L3.6043 4.83516C4.37568 4.43148 4.91338 3.61011 4.95591 2.66901Z"/>
   </g>
   <g id="g3716" transform="translate(-1.11022e-15, 13.4685)" fill="none">
    <path id="path3718" transform="translate(-7.27799, -32.4556)" fill="#432200" stroke="#000000" stroke-width="0.50000000000" stroke-linecap="round" stroke-linejoin="round" d="M0 2.62274C0 4.07124 1.10521 5.24549 2.46855 5.24549C3.83189 5.24549 4.93709 4.07124 4.93709 2.62274C4.93709 1.17424 3.83189 0 2.46855 0C1.10521 0 0 1.17424 0 2.62274Z"/>
    <path id="path3720" transform="translate(-7.28482, -32.4634)" fill="#ec7700" d="M2.47796 1.04725e-12C3.84318 1.04725e-12 4.9559 1.14641 4.95591 2.55296C4.95591 3.63865 4.27052 4.58439 3.34149 4.9512L3.30394 4.71911C3.17633 4.7379 3.04676 4.72247 2.92849 4.71911C3.26793 4.42362 3.60318 4.03984 3.75448 3.48131L3.15376 3.28791C3.01917 3.78479 2.73861 4.14128 2.44041 4.37098C2.33107 4.4552 2.20861 4.47791 2.10251 4.52571C1.91572 4.43157 1.73334 4.31138 1.57688 4.17757C1.12986 3.7953 0.826105 3.26889 0.750896 3.05582C0.650846 2.77233 0.585323 2.61129 0.563172 2.51428C0.54102 2.41727 0.563172 2.43692 0.563172 2.43692L0 2.43692C0.0610478 1.08616 1.15187 -1.2378e-06 2.47796 1.04725e-12ZM0 2.66901C0.030216 2.8008 0.0874193 3.00371 0.187724 3.28791C0.31862 3.65877 0.625466 4.1813 1.16389 4.64175C1.22343 4.69267 1.28658 4.74834 1.35161 4.79647L1.35161 4.83516C0.580232 4.43148 0.0425307 3.61011 0 2.66901Z"/>
    <path id="path3722" transform="translate(-7.28482, -32.4634)" fill="url(#gradient5)" d="M2.47796 1.04725e-12C3.84318 1.04725e-12 4.9559 1.14641 4.95591 2.55296C4.95591 3.63865 4.27052 4.58439 3.34149 4.9512L3.30394 4.71911C3.17633 4.7379 3.04676 4.72247 2.92849 4.71911C3.26793 4.42362 3.60318 4.03984 3.75448 3.48131L3.15376 3.28791C3.01917 3.78479 2.73861 4.14128 2.44041 4.37098C2.33107 4.4552 2.20861 4.47791 2.10251 4.52571C1.91572 4.43157 1.73334 4.31138 1.57688 4.17757C1.12986 3.7953 0.826105 3.26889 0.750896 3.05582C0.650846 2.77233 0.585323 2.61129 0.563172 2.51428C0.54102 2.41727 0.563172 2.43692 0.563172 2.43692L0 2.43692C0.0610478 1.08616 1.15187 -1.2378e-06 2.47796 1.04725e-12ZM0 2.66901C0.030216 2.8008 0.0874193 3.00371 0.187724 3.28791C0.31862 3.65877 0.625466 4.1813 1.16389 4.64175C1.22343 4.69267 1.28658 4.74834 1.35161 4.79647L1.35161 4.83516C0.580232 4.43148 0.0425307 3.61011 0 2.66901Z"/>
   </g>
   <g id="g3736" transform="translate(34.7731, 8.42757)" fill="none">
    <path id="path3738" transform="translate(33.8797, -38.4239)" fill="#432200" stroke="#000000" stroke-width="0.50000000000" stroke-linecap="round" stroke-linejoin="round" d="M3.46961 1.84317C3.46961 2.86112 2.69291 3.68634 1.7348 3.68634C0.776698 3.68634 0 2.86112 0 1.84317C0 0.825215 0.776698 0 1.7348 0C2.69291 0 3.46961 0.825215 3.46961 1.84317Z"/>
    <path id="path3740" transform="translate(33.8713, -38.4295)" fill="#ec7700" d="M1.74142 7.17562e-13C0.781987 7.17562e-13 8.44324e-06 0.805656 0 1.79413C0 2.55711 0.48167 3.22175 1.13456 3.47952L1.16095 3.31642C1.25062 3.32962 1.34168 3.31878 1.4248 3.31642C1.18625 3.10876 0.95065 2.83905 0.844324 2.44654L1.26649 2.31062C1.36107 2.65981 1.55824 2.91034 1.7678 3.07177C1.84465 3.13095 1.9307 3.14691 2.00527 3.1805C2.13654 3.11435 2.26471 3.02988 2.37466 2.93585C2.68881 2.6672 2.90228 2.29726 2.95513 2.14752C3.02544 1.94829 3.07149 1.83512 3.08706 1.76695C3.10263 1.69877 3.08706 1.71258 3.08706 1.71258L3.48284 1.71258C3.43993 0.763315 2.67334 -8.6988e-07 1.74142 7.17562e-13ZM3.48284 1.87568C3.4616 1.9683 3.4214 2.1109 3.35091 2.31062C3.25892 2.57125 3.04328 2.93847 2.6649 3.26205C2.62305 3.29784 2.57867 3.33696 2.53297 3.37079L2.53297 3.39797C3.07507 3.11428 3.45295 2.53705 3.48284 1.87568Z"/>
    <path id="path3742" transform="translate(33.8713, -38.4295)" fill="url(#gradient6)" d="M1.74142 7.17562e-13C0.781987 7.17562e-13 8.44324e-06 0.805656 0 1.79413C0 2.55711 0.48167 3.22175 1.13456 3.47952L1.16095 3.31642C1.25062 3.32962 1.34168 3.31878 1.4248 3.31642C1.18625 3.10876 0.95065 2.83905 0.844324 2.44654L1.26649 2.31062C1.36107 2.65981 1.55824 2.91034 1.7678 3.07177C1.84465 3.13095 1.9307 3.14691 2.00527 3.1805C2.13654 3.11435 2.26471 3.02988 2.37466 2.93585C2.68881 2.6672 2.90228 2.29726 2.95513 2.14752C3.02544 1.94829 3.07149 1.83512 3.08706 1.76695C3.10263 1.69877 3.08706 1.71258 3.08706 1.71258L3.48284 1.71258C3.43993 0.763315 2.67334 -8.6988e-07 1.74142 7.17562e-13ZM3.48284 1.87568C3.4616 1.9683 3.4214 2.1109 3.35091 2.31062C3.25892 2.57125 3.04328 2.93847 2.6649 3.26205C2.62305 3.29784 2.57867 3.33696 2.53297 3.37079L2.53297 3.39797C3.07507 3.11428 3.45295 2.53705 3.48284 1.87568Z"/>
   </g>
   <g id="g3746" transform="translate(33.0569, 6.60417)" fill="none">
    <path id="path3748" transform="translate(31.8485, -40.5819)" fill="#432200" stroke="#000000" stroke-width="0.50000000000" stroke-linecap="round" stroke-linejoin="round" d="M3.46961 1.84317C3.46961 2.86112 2.69291 3.68634 1.7348 3.68634C0.776698 3.68634 0 2.86112 0 1.84317C0 0.825215 0.776698 0 1.7348 0C2.69291 0 3.46961 0.825215 3.46961 1.84317Z"/>
    <path id="path3750" transform="translate(31.8401, -40.5875)" fill="#ec7700" d="M1.74142 7.56349e-13C0.781987 7.56349e-13 8.44324e-06 0.805656 0 1.79413C0 2.55711 0.48167 3.22175 1.13456 3.47952L1.16095 3.31642C1.25062 3.32962 1.34168 3.31878 1.4248 3.31642C1.18625 3.10876 0.95065 2.83905 0.844324 2.44654L1.26649 2.31062C1.36107 2.65981 1.55824 2.91034 1.7678 3.07177C1.84465 3.13095 1.9307 3.14691 2.00527 3.1805C2.13654 3.11435 2.26471 3.02988 2.37466 2.93585C2.68881 2.6672 2.90228 2.29726 2.95513 2.14752C3.02544 1.94829 3.07149 1.83512 3.08706 1.76695C3.10263 1.69877 3.08706 1.71258 3.08706 1.71258L3.48284 1.71258C3.43993 0.763315 2.67334 -8.6988e-07 1.74142 7.56349e-13ZM3.48284 1.87568C3.4616 1.9683 3.4214 2.1109 3.35091 2.31062C3.25892 2.57125 3.04328 2.93847 2.6649 3.26205C2.62305 3.29784 2.57867 3.33696 2.53297 3.37079L2.53297 3.39797C3.07507 3.11428 3.45295 2.53705 3.48284 1.87568Z"/>
    <path id="path3752" transform="translate(31.8401, -40.5875)" fill="url(#gradient7)" d="M1.74142 7.56349e-13C0.781987 7.56349e-13 8.44324e-06 0.805656 0 1.79413C0 2.55711 0.48167 3.22175 1.13456 3.47952L1.16095 3.31642C1.25062 3.32962 1.34168 3.31878 1.4248 3.31642C1.18625 3.10876 0.95065 2.83905 0.844324 2.44654L1.26649 2.31062C1.36107 2.65981 1.55824 2.91034 1.7678 3.07177C1.84465 3.13095 1.9307 3.14691 2.00527 3.1805C2.13654 3.11435 2.26471 3.02988 2.37466 2.93585C2.68881 2.6672 2.90228 2.29726 2.95513 2.14752C3.02544 1.94829 3.07149 1.83512 3.08706 1.76695C3.10263 1.69877 3.08706 1.71258 3.08706 1.71258L3.48284 1.71258C3.43993 0.763315 2.67334 -8.6988e-07 1.74142 7.56349e-13ZM3.48284 1.87568C3.4616 1.9683 3.4214 2.1109 3.35091 2.31062C3.25892 2.57125 3.04328 2.93847 2.6649 3.26205C2.62305 3.29784 2.57867 3.33696 2.53297 3.37079L2.53297 3.39797C3.07507 3.11428 3.45295 2.53705 3.48284 1.87568Z"/>
   </g>
   <g id="g3756" transform="translate(30.9975, 5.87482)" fill="none">
    <path id="path3758" transform="translate(29.4112, -41.4451)" fill="#432200" stroke="#000000" stroke-width="0.50000000000" stroke-linecap="round" stroke-linejoin="round" d="M3.46961 1.84317C3.46961 2.86112 2.69291 3.68634 1.7348 3.68634C0.776698 3.68634 0 2.86112 0 1.84317C0 0.825215 0.776698 0 1.7348 0C2.69291 0 3.46961 0.825215 3.46961 1.84317Z"/>
    <path id="path3760" transform="translate(29.4027, -41.4507)" fill="#ec7700" d="M1.74142 7.56349e-13C0.781987 7.56349e-13 8.44324e-06 0.805656 0 1.79413C0 2.55711 0.48167 3.22175 1.13456 3.47952L1.16095 3.31642C1.25062 3.32962 1.34168 3.31878 1.4248 3.31642C1.18625 3.10876 0.95065 2.83905 0.844324 2.44654L1.26649 2.31062C1.36107 2.65981 1.55824 2.91034 1.7678 3.07177C1.84465 3.13095 1.9307 3.14691 2.00527 3.1805C2.13654 3.11435 2.26471 3.02988 2.37466 2.93585C2.68881 2.6672 2.90228 2.29726 2.95513 2.14752C3.02544 1.94829 3.07149 1.83512 3.08706 1.76695C3.10263 1.69877 3.08706 1.71258 3.08706 1.71258L3.48284 1.71258C3.43993 0.763315 2.67334 -8.6988e-07 1.74142 7.56349e-13ZM3.48284 1.87568C3.4616 1.9683 3.4214 2.1109 3.35091 2.31062C3.25892 2.57125 3.04328 2.93847 2.6649 3.26205C2.62305 3.29784 2.57867 3.33696 2.53297 3.37079L2.53297 3.39797C3.07507 3.11428 3.45295 2.53705 3.48284 1.87568Z"/>
    <path id="path3762" transform="translate(29.4027, -41.4507)" fill="url(#gradient8)" d="M1.74142 7.56349e-13C0.781987 7.56349e-13 8.44324e-06 0.805656 0 1.79413C0 2.55711 0.48167 3.22175 1.13456 3.47952L1.16095 3.31642C1.25062 3.32962 1.34168 3.31878 1.4248 3.31642C1.18625 3.10876 0.95065 2.83905 0.844324 2.44654L1.26649 2.31062C1.36107 2.65981 1.55824 2.91034 1.7678 3.07177C1.84465 3.13095 1.9307 3.14691 2.00527 3.1805C2.13654 3.11435 2.26471 3.02988 2.37466 2.93585C2.68881 2.6672 2.90228 2.29726 2.95513 2.14752C3.02544 1.94829 3.07149 1.83512 3.08706 1.76695C3.10263 1.69877 3.08706 1.71258 3.08706 1.71258L3.48284 1.71258C3.43993 0.763315 2.67334 -8.6988e-07 1.74142 7.56349e-13ZM3.48284 1.87568C3.4616 1.9683 3.4214 2.1109 3.35091 2.31062C3.25892 2.57125 3.04328 2.93847 2.6649 3.26205C2.62305 3.29784 2.57867 3.33696 2.53297 3.37079L2.53297 3.39797C3.07507 3.11428 3.45295 2.53705 3.48284 1.87568Z"/>
   </g>
   <g id="g3767" transform="translate(28.5948, 6.42184)" fill="none">
    <path id="path3769" transform="translate(26.5676, -40.7977)" fill="#432200" stroke="#000000" stroke-width="0.50000000000" stroke-linecap="round" stroke-linejoin="round" d="M3.46961 1.84317C3.46961 2.86112 2.69291 3.68634 1.7348 3.68634C0.776698 3.68634 0 2.86112 0 1.84317C0 0.825215 0.776698 0 1.7348 0C2.69291 0 3.46961 0.825215 3.46961 1.84317Z"/>
    <path id="path3771" transform="translate(26.5591, -40.8033)" fill="#ec7700" d="M1.74142 7.56349e-13C0.781987 7.56349e-13 8.44324e-06 0.805656 0 1.79413C0 2.55711 0.48167 3.22175 1.13456 3.47952L1.16095 3.31642C1.25062 3.32962 1.34168 3.31878 1.4248 3.31642C1.18625 3.10876 0.95065 2.83905 0.844324 2.44654L1.26649 2.31062C1.36107 2.65981 1.55824 2.91034 1.7678 3.07177C1.84465 3.13095 1.9307 3.14691 2.00527 3.1805C2.13654 3.11435 2.26471 3.02988 2.37466 2.93585C2.68881 2.6672 2.90228 2.29726 2.95513 2.14752C3.02544 1.94829 3.07149 1.83512 3.08706 1.76695C3.10263 1.69877 3.08706 1.71258 3.08706 1.71258L3.48284 1.71258C3.43993 0.763315 2.67334 -8.6988e-07 1.74142 7.56349e-13ZM3.48284 1.87568C3.4616 1.9683 3.4214 2.1109 3.35091 2.31062C3.25892 2.57125 3.04328 2.93847 2.6649 3.26205C2.62305 3.29784 2.57867 3.33696 2.53297 3.37079L2.53297 3.39797C3.07507 3.11428 3.45295 2.53705 3.48284 1.87568Z"/>
    <path id="path3773" transform="translate(26.5591, -40.8033)" fill="url(#gradient9)" d="M1.74142 7.56349e-13C0.781987 7.56349e-13 8.44324e-06 0.805656 0 1.79413C0 2.55711 0.48167 3.22175 1.13456 3.47952L1.16095 3.31642C1.25062 3.32962 1.34168 3.31878 1.4248 3.31642C1.18625 3.10876 0.95065 2.83905 0.844324 2.44654L1.26649 2.31062C1.36107 2.65981 1.55824 2.91034 1.7678 3.07177C1.84465 3.13095 1.9307 3.14691 2.00527 3.1805C2.13654 3.11435 2.26471 3.02988 2.37466 2.93585C2.68881 2.6672 2.90228 2.29726 2.95513 2.14752C3.02544 1.94829 3.07149 1.83512 3.08706 1.76695C3.10263 1.69877 3.08706 1.71258 3.08706 1.71258L3.48284 1.71258C3.43993 0.763315 2.67334 -8.6988e-07 1.74142 7.56349e-13ZM3.48284 1.87568C3.4616 1.9683 3.4214 2.1109 3.35091 2.31062C3.25892 2.57125 3.04328 2.93847 2.6649 3.26205C2.62305 3.29784 2.57867 3.33696 2.53297 3.37079L2.53297 3.39797C3.07507 3.11428 3.45295 2.53705 3.48284 1.87568Z"/>
   </g>
   <g id="g3777" transform="translate(2.16548, 11.892)" fill="none">
    <path id="path3779" transform="translate(-4.71211, -34.3237)" fill="#432200" stroke="#000000" stroke-width="0.50000000000" stroke-linecap="round" stroke-linejoin="round" d="M3.46961 1.84317C3.46961 2.86112 2.69291 3.68634 1.7348 3.68634C0.776698 3.68634 0 2.86112 0 1.84317C0 0.825215 0.776698 0 1.7348 0C2.69291 0 3.46961 0.825215 3.46961 1.84317Z"/>
    <path id="path3781" transform="translate(-4.72054, -34.3292)" fill="#ec7700" d="M1.74142 7.36955e-13C0.781987 7.36955e-13 8.44324e-06 0.805656 0 1.79413C0 2.55711 0.48167 3.22175 1.13456 3.47952L1.16095 3.31642C1.25062 3.32962 1.34168 3.31878 1.4248 3.31642C1.18625 3.10876 0.95065 2.83905 0.844324 2.44654L1.26649 2.31062C1.36107 2.65981 1.55824 2.91034 1.7678 3.07177C1.84465 3.13095 1.9307 3.14691 2.00527 3.1805C2.13654 3.11435 2.26471 3.02988 2.37466 2.93585C2.68881 2.6672 2.90228 2.29726 2.95513 2.14752C3.02544 1.94829 3.07149 1.83512 3.08706 1.76695C3.10263 1.69877 3.08706 1.71258 3.08706 1.71258L3.48284 1.71258C3.43993 0.763315 2.67334 -8.6988e-07 1.74142 7.36955e-13ZM3.48284 1.87568C3.4616 1.9683 3.4214 2.1109 3.35091 2.31062C3.25892 2.57125 3.04328 2.93847 2.6649 3.26205C2.62305 3.29784 2.57867 3.33696 2.53297 3.37079L2.53297 3.39797C3.07507 3.11428 3.45295 2.53705 3.48284 1.87568Z"/>
    <path id="path3783" transform="translate(-4.72054, -34.3292)" fill="url(#gradient10)" d="M1.74142 7.36955e-13C0.781987 7.36955e-13 8.44324e-06 0.805656 0 1.79413C0 2.55711 0.48167 3.22175 1.13456 3.47952L1.16095 3.31642C1.25062 3.32962 1.34168 3.31878 1.4248 3.31642C1.18625 3.10876 0.95065 2.83905 0.844324 2.44654L1.26649 2.31062C1.36107 2.65981 1.55824 2.91034 1.7678 3.07177C1.84465 3.13095 1.9307 3.14691 2.00527 3.1805C2.13654 3.11435 2.26471 3.02988 2.37466 2.93585C2.68881 2.6672 2.90228 2.29726 2.95513 2.14752C3.02544 1.94829 3.07149 1.83512 3.08706 1.76695C3.10263 1.69877 3.08706 1.71258 3.08706 1.71258L3.48284 1.71258C3.43993 0.763315 2.67334 -8.6988e-07 1.74142 7.36955e-13ZM3.48284 1.87568C3.4616 1.9683 3.4214 2.1109 3.35091 2.31062C3.25892 2.57125 3.04328 2.93847 2.6649 3.26205C2.62305 3.29784 2.57867 3.33696 2.53297 3.37079L2.53297 3.39797C3.07507 3.11428 3.45295 2.53705 3.48284 1.87568Z"/>
   </g>
   <g id="g3787" transform="translate(2.85195, 9.88628)" fill="none">
    <path id="path3789" transform="translate(-3.89966, -36.6975)" fill="#432200" stroke="#000000" stroke-width="0.50000000000" stroke-linecap="round" stroke-linejoin="round" d="M3.46961 1.84317C3.46961 2.86112 2.69291 3.68634 1.7348 3.68634C0.776698 3.68634 0 2.86112 0 1.84317C0 0.825215 0.776698 0 1.7348 0C2.69291 0 3.46961 0.825215 3.46961 1.84317Z"/>
    <path id="path3791" transform="translate(-3.90808, -36.703)" fill="#ec7700" d="M1.74142 7.56349e-13C0.781987 7.56349e-13 8.44324e-06 0.805656 0 1.79413C0 2.55711 0.48167 3.22175 1.13456 3.47952L1.16095 3.31642C1.25062 3.32962 1.34168 3.31878 1.4248 3.31642C1.18625 3.10876 0.95065 2.83905 0.844324 2.44654L1.26649 2.31062C1.36107 2.65981 1.55824 2.91034 1.7678 3.07177C1.84465 3.13095 1.9307 3.14691 2.00527 3.1805C2.13654 3.11435 2.26471 3.02988 2.37466 2.93585C2.68881 2.6672 2.90228 2.29726 2.95513 2.14752C3.02544 1.94829 3.07149 1.83512 3.08706 1.76695C3.10263 1.69877 3.08706 1.71258 3.08706 1.71258L3.48284 1.71258C3.43993 0.763315 2.67334 -8.6988e-07 1.74142 7.56349e-13ZM3.48284 1.87568C3.4616 1.9683 3.4214 2.1109 3.35091 2.31062C3.25892 2.57125 3.04328 2.93847 2.6649 3.26205C2.62305 3.29784 2.57867 3.33696 2.53297 3.37079L2.53297 3.39797C3.07507 3.11428 3.45295 2.53705 3.48284 1.87568Z"/>
    <path id="path3793" transform="translate(-3.90808, -36.703)" fill="url(#gradient11)" d="M1.74142 7.56349e-13C0.781987 7.56349e-13 8.44324e-06 0.805656 0 1.79413C0 2.55711 0.48167 3.22175 1.13456 3.47952L1.16095 3.31642C1.25062 3.32962 1.34168 3.31878 1.4248 3.31642C1.18625 3.10876 0.95065 2.83905 0.844324 2.44654L1.26649 2.31062C1.36107 2.65981 1.55824 2.91034 1.7678 3.07177C1.84465 3.13095 1.9307 3.14691 2.00527 3.1805C2.13654 3.11435 2.26471 3.02988 2.37466 2.93585C2.68881 2.6672 2.90228 2.29726 2.95513 2.14752C3.02544 1.94829 3.07149 1.83512 3.08706 1.76695C3.10263 1.69877 3.08706 1.71258 3.08706 1.71258L3.48284 1.71258C3.43993 0.763315 2.67334 -8.6988e-07 1.74142 7.56349e-13ZM3.48284 1.87568C3.4616 1.9683 3.4214 2.1109 3.35091 2.31062C3.25892 2.57125 3.04328 2.93847 2.6649 3.26205C2.62305 3.29784 2.57867 3.33696 2.53297 3.37079L2.53297 3.39797C3.07507 3.11428 3.45295 2.53705 3.48284 1.87568Z"/>
   </g>
   <g id="g3797" transform="translate(4.22491, 9.33926)" fill="none">
    <path id="path3799" transform="translate(-2.27474, -37.3449)" fill="#432200" stroke="#000000" stroke-width="0.50000000000" stroke-linecap="round" stroke-linejoin="round" d="M3.46961 1.84317C3.46961 2.86112 2.69291 3.68634 1.7348 3.68634C0.776698 3.68634 0 2.86112 0 1.84317C0 0.825215 0.776698 0 1.7348 0C2.69291 0 3.46961 0.825215 3.46961 1.84317Z"/>
    <path id="path3801" transform="translate(-2.28316, -37.3504)" fill="#ec7700" d="M1.74142 7.56349e-13C0.781987 7.56349e-13 8.44324e-06 0.805656 0 1.79413C0 2.55711 0.48167 3.22175 1.13456 3.47952L1.16095 3.31642C1.25062 3.32962 1.34168 3.31878 1.4248 3.31642C1.18625 3.10876 0.95065 2.83905 0.844324 2.44654L1.26649 2.31062C1.36107 2.65981 1.55824 2.91034 1.7678 3.07177C1.84465 3.13095 1.9307 3.14691 2.00527 3.1805C2.13654 3.11435 2.26471 3.02988 2.37466 2.93585C2.68881 2.6672 2.90228 2.29726 2.95513 2.14752C3.02544 1.94829 3.07149 1.83512 3.08706 1.76695C3.10263 1.69877 3.08706 1.71258 3.08706 1.71258L3.48284 1.71258C3.43993 0.763315 2.67334 -8.6988e-07 1.74142 7.56349e-13ZM3.48284 1.87568C3.4616 1.9683 3.4214 2.1109 3.35091 2.31062C3.25892 2.57125 3.04328 2.93847 2.6649 3.26205C2.62305 3.29784 2.57867 3.33696 2.53297 3.37079L2.53297 3.39797C3.07507 3.11428 3.45295 2.53705 3.48284 1.87568Z"/>
    <path id="path3803" transform="translate(-2.28316, -37.3504)" fill="url(#gradient12)" d="M1.74142 7.56349e-13C0.781987 7.56349e-13 8.44324e-06 0.805656 0 1.79413C0 2.55711 0.48167 3.22175 1.13456 3.47952L1.16095 3.31642C1.25062 3.32962 1.34168 3.31878 1.4248 3.31642C1.18625 3.10876 0.95065 2.83905 0.844324 2.44654L1.26649 2.31062C1.36107 2.65981 1.55824 2.91034 1.7678 3.07177C1.84465 3.13095 1.9307 3.14691 2.00527 3.1805C2.13654 3.11435 2.26471 3.02988 2.37466 2.93585C2.68881 2.6672 2.90228 2.29726 2.95513 2.14752C3.02544 1.94829 3.07149 1.83512 3.08706 1.76695C3.10263 1.69877 3.08706 1.71258 3.08706 1.71258L3.48284 1.71258C3.43993 0.763315 2.67334 -8.6988e-07 1.74142 7.56349e-13ZM3.48284 1.87568C3.4616 1.9683 3.4214 2.1109 3.35091 2.31062C3.25892 2.57125 3.04328 2.93847 2.6649 3.26205C2.62305 3.29784 2.57867 3.33696 2.53297 3.37079L2.53297 3.39797C3.07507 3.11428 3.45295 2.53705 3.48284 1.87568Z"/>
   </g>
   <g id="g3726" transform="translate(5.76948, 10.251)" fill="none">
    <path id="path3728" transform="translate(-0.446705, -36.2659)" fill="#432200" stroke="#000000" stroke-width="0.50000000000" stroke-linecap="round" stroke-linejoin="round" d="M3.46961 1.84317C3.46961 2.86112 2.69291 3.68634 1.7348 3.68634C0.776698 3.68634 0 2.86112 0 1.84317C0 0.825215 0.776698 0 1.7348 0C2.69291 0 3.46961 0.825215 3.46961 1.84317Z"/>
    <path id="path3730" transform="translate(-0.455129, -36.2714)" fill="#ec7700" d="M1.74142 7.56349e-13C0.781987 7.56349e-13 8.44324e-06 0.805656 0 1.79413C0 2.55711 0.48167 3.22175 1.13456 3.47952L1.16095 3.31642C1.25062 3.32962 1.34168 3.31878 1.4248 3.31642C1.18625 3.10876 0.95065 2.83905 0.844324 2.44654L1.26649 2.31062C1.36107 2.65981 1.55824 2.91034 1.7678 3.07177C1.84465 3.13095 1.9307 3.14691 2.00527 3.1805C2.13654 3.11435 2.26471 3.02988 2.37466 2.93585C2.68881 2.6672 2.90228 2.29726 2.95513 2.14752C3.02544 1.94829 3.07149 1.83512 3.08706 1.76695C3.10263 1.69877 3.08706 1.71258 3.08706 1.71258L3.48284 1.71258C3.43993 0.763315 2.67334 -8.6988e-07 1.74142 7.56349e-13ZM3.48284 1.87568C3.4616 1.9683 3.4214 2.1109 3.35091 2.31062C3.25892 2.57125 3.04328 2.93847 2.6649 3.26205C2.62305 3.29784 2.57867 3.33696 2.53297 3.37079L2.53297 3.39797C3.07507 3.11428 3.45295 2.53705 3.48284 1.87568Z"/>
    <path id="path3732" transform="translate(-0.455129, -36.2714)" fill="url(#gradient13)" d="M1.74142 7.56349e-13C0.781987 7.56349e-13 8.44324e-06 0.805656 0 1.79413C0 2.55711 0.48167 3.22175 1.13456 3.47952L1.16095 3.31642C1.25062 3.32962 1.34168 3.31878 1.4248 3.31642C1.18625 3.10876 0.95065 2.83905 0.844324 2.44654L1.26649 2.31062C1.36107 2.65981 1.55824 2.91034 1.7678 3.07177C1.84465 3.13095 1.9307 3.14691 2.00527 3.1805C2.13654 3.11435 2.26471 3.02988 2.37466 2.93585C2.68881 2.6672 2.90228 2.29726 2.95513 2.14752C3.02544 1.94829 3.07149 1.83512 3.08706 1.76695C3.10263 1.69877 3.08706 1.71258 3.08706 1.71258L3.48284 1.71258C3.43993 0.763315 2.67334 -8.6988e-07 1.74142 7.56349e-13ZM3.48284 1.87568C3.4616 1.9683 3.4214 2.1109 3.35091 2.31062C3.25892 2.57125 3.04328 2.93847 2.6649 3.26205C2.62305 3.29784 2.57867 3.33696 2.53297 3.37079L2.53297 3.39797C3.07507 3.11428 3.45295 2.53705 3.48284 1.87568Z"/>
   </g>
   <path id="path3807" transform="translate(4.27146, -48.2781)" fill="#ec7700" fill-rule="evenodd" d="M50.3747 7.20809e-05C49.4668 -0.00306528 48.5659 0.0966605 47.7072 0.211827C47.6525 0.222365 47.5909 0.200852 47.5362 0.211827C45.3516 0.649648 43.2123 1.41141 41.2094 2.39996C41.1766 2.42273 41.1386 2.4477 41.1068 2.47054C42.3554 3.75563 43.9448 4.86484 43.1588 7.19973C46.9885 5.82798 51.8217 6.39885 54.4443 8.36438C53.9438 5.56534 56.9414 2.59791 51.5032 0.070657C51.1245 0.0457377 50.7499 0.00136858 50.3747 7.20809e-05ZM38.6103 4.30575C37.7794 4.83312 36.8862 5.302 35.977 5.71745C34.5013 6.90556 33.2767 8.15493 32.4546 9.35257C32.3921 9.44365 32.3159 9.5135 32.2494 9.59962C36.5602 7.42315 38.9091 8.60076 40.1835 14.1877C41.3919 12.5987 42.7648 11.2527 42.4064 6.81151C41.6212 5.81504 41.4295 4.61435 38.6445 4.30575C38.6362 4.31104 38.6187 4.30047 38.6103 4.30575ZM4.06965 5.04689C3.69439 5.04819 3.31993 5.09256 2.94109 5.11748C-0.894912 8.47145 0.685386 10.7075 0 13.4112C1.93666 11.9766 6.17845 11.8635 11.2856 12.2466C10.4996 9.91166 12.089 8.80245 13.3375 7.51736C11.5334 6.22015 7.9348 5.03354 4.06965 5.04689ZM15.7998 9.35257C13.0149 9.66117 12.8232 10.8619 12.0379 11.8583C11.3432 14.5639 12.9044 16.8817 14.2609 19.2345C16.8481 16.7281 19.4421 14.2289 24.7941 14.5759L24.7941 12.4583C21.8506 12.2911 18.5625 11.0844 15.834 9.35257C15.8257 9.34729 15.8081 9.35786 15.7998 9.35257Z"/>
  </g>
 </g>
</svg>
